<svg id="Grupo_16574" data-name="Grupo 16574" xmlns="http://www.w3.org/2000/svg" xmlns:xlink="http://www.w3.org/1999/xlink" width="250.267" height="305.73" viewBox="0 0 250.267 305.73">
  <defs>
    <clipPath id="clip-path">
      <rect id="Rectángulo_4098" data-name="Rectángulo 4098" width="250.267" height="305.73" fill="#ed8730"/>
    </clipPath>
  </defs>
  <g id="Grupo_16573" data-name="Grupo 16573" clip-path="url(#clip-path)">
    <path id="Trazado_39680" data-name="Trazado 39680" d="M154.47,65.455a.7.7,0,0,1,.139.054l.044.025a13.941,13.941,0,0,1,3.885,3.135,19.853,19.853,0,0,1,2.726,4.01l-1.047.712c-1.032-1.181-2.01-2.368-3.057-3.444a17.154,17.154,0,0,0-3.351-2.75,34.56,34.56,0,0,0-5.778-1.282c-2.03-.3-4.093-.5-6.174-.761a38.06,38.06,0,0,1,6.267-.481,25.206,25.206,0,0,1,6.346.782" transform="translate(-15.484 -7.059)" fill="#ed8730"/>
    <path id="Trazado_39681" data-name="Trazado 39681" d="M175.757,87.743a9.712,9.712,0,0,1-2.245-.485,13.3,13.3,0,0,1-2.059-.874,17.65,17.65,0,0,1-1.89-1.144l1.042.346,1.04.318c.695.2,1.393.36,2.086.488a10.082,10.082,0,0,0,2.063.171,9.3,9.3,0,0,0,1.851-.179l.317-.067a.2.2,0,0,1,.191.059l1.175,1.254-1.335-.333a3.823,3.823,0,0,1-2.236.445" transform="translate(-18.508 -9.304)" fill="#ed8730"/>
    <path id="Trazado_39682" data-name="Trazado 39682" d="M142.257,76.426a6.224,6.224,0,0,1-2.237.027,5.59,5.59,0,0,0,2.2-1.131.389.389,0,0,1,.487-.02l.175.131a19.269,19.269,0,0,0,5.08,2.738,54.537,54.537,0,0,0,5.815,1.741,15.648,15.648,0,0,1-3.118.048,17.638,17.638,0,0,1-3.1-.516,13.021,13.021,0,0,1-2.98-1.151,8.1,8.1,0,0,1-2.319-1.865" transform="translate(-15.283 -8.211)" fill="#ed8730"/>
    <path id="Trazado_39683" data-name="Trazado 39683" d="M167.8,102.367c0-.011.006-.019.011-.029s.01-.02.014-.033Z" transform="translate(-18.316 -11.167)" fill="#ed8730"/>
    <path id="Trazado_39684" data-name="Trazado 39684" d="M165.859,84.834l-.03-1.25,0-.314a2.607,2.607,0,0,1,.037-.383,1.944,1.944,0,0,1,.273-.686,3.639,3.639,0,0,1,2.144-1.466,5.86,5.86,0,0,0-1.562,1.783,1.627,1.627,0,0,0-.142.485,2.379,2.379,0,0,0,0,.239l.019.311.081,1.245.313,4.994c.091,1.666.174,3.334.174,5.011,0,.84,0,1.678-.035,2.525-.015.423-.058.853-.1,1.281a5.934,5.934,0,0,1-.3,1.377,3.663,3.663,0,0,1-1.8,1.971,6.15,6.15,0,0,1-2.452.625,9.111,9.111,0,0,1-2.431-.2,7.839,7.839,0,0,1-2.245-.834,15.077,15.077,0,0,0,4.575.07,6.257,6.257,0,0,0,2.034-.639,2.509,2.509,0,0,0,1.25-1.4l.026-.06a5.61,5.61,0,0,0,.183-1.036c.031-.4.064-.8.073-1.212.044-.816.053-1.644.056-2.469l-.028-4.979Z" transform="translate(-17.223 -8.812)" fill="#ed8730"/>
    <path id="Trazado_39685" data-name="Trazado 39685" d="M156.36,101.158c.04-.143-.174-.249-.28-.346a4.428,4.428,0,0,0-.41-.268,5.339,5.339,0,0,0-.888-.405,6,6,0,0,0-1.865-.369c-.332-.016-.581.029-.975.045a2.284,2.284,0,0,1-1.133-.369,4.278,4.278,0,0,1-1.5-1.579,4.379,4.379,0,0,1-.092-4.191,7.535,7.535,0,0,1,2.827-2.926,11.059,11.059,0,0,0-2.157,3.218,4.018,4.018,0,0,0,.164,3.482,3.926,3.926,0,0,0,1.175,1.337,1.738,1.738,0,0,0,.718.3c.271.019.689,0,1.019.05a5.444,5.444,0,0,1,1.976.649,5.753,5.753,0,0,1,.845.583,3.563,3.563,0,0,1,.37.354,2,2,0,0,1,.157.2c.031.064.125.168.045.229" transform="translate(-16.234 -9.905)" fill="#ed8730"/>
    <path id="Trazado_39686" data-name="Trazado 39686" d="M148.5,111.306a22.22,22.22,0,0,0,5.166,1.071,1.866,1.866,0,0,0,.749-.2,3.77,3.77,0,0,0,.732-.51,6.328,6.328,0,0,0,.778-.821,12.805,12.805,0,0,0-1.895.27,4.624,4.624,0,0,1-1.555-.128c-.467-.1-.922-.213-1.373-.338-.9-.245-1.787-.52-2.664-.82-1.21-.395-2.408-.832-3.6-1.262a7.27,7.27,0,0,0,3.661,2.733m-6.584-3.944a13.959,13.959,0,0,1-1.062-.921,26.176,26.176,0,0,1-1.923-2.005c.71.591,1.419,1.181,2.151,1.733.366.274.741.536,1.123.77a3.952,3.952,0,0,0,.57.306.887.887,0,0,0,.257.081l.362.071c1.823.463,3.557,1.032,5.324,1.551.882.256,1.761.51,2.64.745.441.115.879.218,1.316.306a5.21,5.21,0,0,0,1.184.129,1.019,1.019,0,0,0,.11,0l.2-.048a3.306,3.306,0,0,1,.385-.069,5.411,5.411,0,0,1,.734-.042,10.424,10.424,0,0,1,1.419.073,13.851,13.851,0,0,1,2.747.567c-.81.1-1.611.127-2.4.167a7.007,7.007,0,0,1-.474.8,5.859,5.859,0,0,1-.732.855,3.294,3.294,0,0,1-2.192,1.009c-.023,0-.048,0-.07,0a22.042,22.042,0,0,1-5.4-1.35,8.857,8.857,0,0,1-2.406-1.506,6.76,6.76,0,0,1-1.606-2.244c-.311-.11-.626-.227-.937-.333l-.31-.087a1.531,1.531,0,0,1-.392-.154,4.57,4.57,0,0,1-.616-.4" transform="translate(-15.165 -11.399)" fill="#ed8730"/>
    <path id="Trazado_39687" data-name="Trazado 39687" d="M143.857,113.662a4.907,4.907,0,0,1-.388-1.106,1.726,1.726,0,0,1,.04-1.147,1.858,1.858,0,0,0,.162,1.085,4.447,4.447,0,0,0,.527.975,7.772,7.772,0,0,0,1.454,1.642,8.644,8.644,0,0,0,3.9,1.849,13.729,13.729,0,0,0,4.4.061,5.509,5.509,0,0,0,2.053-.683,2.133,2.133,0,0,0,1.115-1.776,2.209,2.209,0,0,1-.9,2.076,5.3,5.3,0,0,1-2.155.967,11.823,11.823,0,0,1-4.665.114,8.141,8.141,0,0,1-4.163-2.155,7.079,7.079,0,0,1-1.379-1.9" transform="translate(-15.651 -12.16)" fill="#ed8730"/>
    <path id="Trazado_39688" data-name="Trazado 39688" d="M123.75,22.683a2.413,2.413,0,0,0,1.645,1.2,11.457,11.457,0,0,0,1.194.291,5.738,5.738,0,0,1,1.36.428,5.169,5.169,0,0,1,2.136,1.906,11.731,11.731,0,0,1,1.14,2.462l.417,1.212a5.214,5.214,0,0,0,.518,1.042c.425.681.991,1.313,1.529,2.007a7.468,7.468,0,0,1,1.348,2.4c.126.487.161.894.246,1.3a4.2,4.2,0,0,0,.372,1.12,3.3,3.3,0,0,0,1.826,1.431,17.329,17.329,0,0,0,2.477.664,12.625,12.625,0,0,1-2.6-.27,4.744,4.744,0,0,1-1.272-.486,3.124,3.124,0,0,1-1.031-.982,9.4,9.4,0,0,1-.908-2.493,6.615,6.615,0,0,0-1.282-2.014,21.4,21.4,0,0,1-1.655-2.059,6.4,6.4,0,0,1-.656-1.25c-.171-.443-.279-.828-.427-1.232-.536-1.58-1.278-3.1-2.668-3.719a4.611,4.611,0,0,0-1.1-.347,13.105,13.105,0,0,1-1.315-.326,5.057,5.057,0,0,1-1.319-.614,2.735,2.735,0,0,1-1-1.223,6.116,6.116,0,0,1-.235-2.762,1.033,1.033,0,0,0-.316-.8,2.121,2.121,0,0,0-.927-.468,7.568,7.568,0,0,0-2.413-.154,9.6,9.6,0,0,0-1.22.159c-.1.021-.194.046-.269.071a1.842,1.842,0,0,1-.4.086,6.78,6.78,0,0,1-.681.037,23.2,23.2,0,0,0-2.548.1c-.787.1-1.717.339-1.772,1.078l-.445-.025a1.449,1.449,0,0,1,.815-1.22,4.148,4.148,0,0,1,1.312-.421,23.473,23.473,0,0,1,2.608-.215,5.691,5.691,0,0,0,.608-.059,1,1,0,0,0,.232-.058,3.3,3.3,0,0,1,.349-.114,9.55,9.55,0,0,1,1.325-.258,7.939,7.939,0,0,1,2.727.084,3.054,3.054,0,0,1,1.365.659,2.049,2.049,0,0,1,.673,1.5c0,.3-.012.46-.018.673s0,.405.012.6a3.014,3.014,0,0,0,.233,1.065" transform="translate(-12.171 -1.967)" fill="#ed8730"/>
    <path id="Trazado_39689" data-name="Trazado 39689" d="M104.107,37.349c.029-.176.048-.355.083-.53l.159-.525.164-.522.265-.5a3.366,3.366,0,0,1,1.668-1.544,3.8,3.8,0,0,1,2.264-.2,5.448,5.448,0,0,1,2.077.846l.24.177c.083.078.164.166.241.251a2.1,2.1,0,0,1,.317.558c.15.38.209.726.3,1.03a3.148,3.148,0,0,0,.969,1.509,11.456,11.456,0,0,0,3.481,1.85,9.262,9.262,0,0,0,1.93.469,2.733,2.733,0,0,1,1.127.427,6.027,6.027,0,0,1,.846.725c1.05,1.011,1.7,2.279,2.6,3.228a13.838,13.838,0,0,0,3.325,2.345,10.432,10.432,0,0,1-3.706-1.938c-1.107-.946-1.819-2.155-2.809-3.024a4.86,4.86,0,0,0-.734-.6,1.833,1.833,0,0,0-.8-.273,10.023,10.023,0,0,1-2.086-.508,12.253,12.253,0,0,1-3.785-2.023,4.065,4.065,0,0,1-1.234-1.924c-.209-.743-.284-1.276-.76-1.55a4.565,4.565,0,0,0-1.71-.739,2.965,2.965,0,0,0-1.8.106,2.573,2.573,0,0,0-1.319,1.184l-.238.408-.165.457-.164.46c-.04.16-.065.327-.1.489a15.687,15.687,0,0,0-.214,3.819c.935.212,1.783.709,2.617.805a11.691,11.691,0,0,0,3.575-.641,5.818,5.818,0,0,1,2.01-.262,2.457,2.457,0,0,1,1.071.363,2.985,2.985,0,0,1,.787.765c.767,1.125,1.216,2.249,1.976,3.187a4.746,4.746,0,0,0,2.937,1.789c1.2.27,2.473.432,3.692.77-1.267-.079-2.51-.05-3.8-.2a5.769,5.769,0,0,1-1.912-.551,5.318,5.318,0,0,1-1.571-1.279,29.621,29.621,0,0,1-2.029-3.205,1.674,1.674,0,0,0-1.248-.8,5,5,0,0,0-1.72.175c-.616.15-1.238.285-1.875.38a6.046,6.046,0,0,1-1.979.05,8.071,8.071,0,0,1-1.816-.694,4.189,4.189,0,0,0-1.745-.4,2.312,2.312,0,0,0-1.581.707,4.715,4.715,0,0,0-.967,1.554,14.916,14.916,0,0,0-.846,3.652,14.1,14.1,0,0,1,.67-3.721,5,5,0,0,1,.952-1.67,2.616,2.616,0,0,1,1.751-.863,3.133,3.133,0,0,1,.579.01,14.488,14.488,0,0,1,.027-3.866" transform="translate(-10.929 -3.651)" fill="#ed8730"/>
    <path id="Trazado_39690" data-name="Trazado 39690" d="M122.057,91.295a6.52,6.52,0,0,0,1.22,1.753,8.562,8.562,0,0,0,1.692,1.344,8.484,8.484,0,0,1-1.768-1.265,6.673,6.673,0,0,1-1.344-1.731,6.968,6.968,0,0,1-.742-2.08,7.173,7.173,0,0,1-.087-2.234l.439.084a6.8,6.8,0,0,0-.021,2.1,6.664,6.664,0,0,0,.612,2.032" transform="translate(-13.205 -9.505)" fill="#ed8730"/>
    <path id="Trazado_39691" data-name="Trazado 39691" d="M138.065,73.34a14.473,14.473,0,0,0,1.7,1.04l-.224.388a15.151,15.151,0,0,1-1.614-1.253,5.286,5.286,0,0,1-1.285-1.563,5.157,5.157,0,0,0,1.425,1.388" transform="translate(-14.914 -7.854)" fill="#ed8730"/>
    <path id="Trazado_39692" data-name="Trazado 39692" d="M136.725,75.485a7.144,7.144,0,0,0,1.791.052l.02.448a7.586,7.586,0,0,1-1.862-.283,2.247,2.247,0,0,1-1.492-1.042,2.159,2.159,0,0,0,1.543.826" transform="translate(-14.755 -8.149)" fill="#ed8730"/>
    <path id="Trazado_39693" data-name="Trazado 39693" d="M151.307,83.338a4.915,4.915,0,0,1-2.047.723,5.279,5.279,0,0,1-2.21-.2l.151-.42a4.962,4.962,0,0,0,2.043.393,4.834,4.834,0,0,0,2.063-.5" transform="translate(-16.05 -9.096)" fill="#ed8730"/>
    <path id="Trazado_39694" data-name="Trazado 39694" d="M104.739,60.8a44.619,44.619,0,0,1,.125-4.913,17.649,17.649,0,0,1,1-4.89l.906.387a21.582,21.582,0,0,0-1.35,4.581c-.31,1.591-.508,3.212-.678,4.836" transform="translate(-11.43 -5.566)" fill="#ed8730"/>
    <path id="Trazado_39695" data-name="Trazado 39695" d="M112.926,54.579a10.415,10.415,0,0,1,.131-1.261l.576-.042a3.245,3.245,0,0,1,.1,1.375,1.725,1.725,0,0,1-.607,1.264,2.3,2.3,0,0,1-.2-1.337" transform="translate(-12.324 -5.815)" fill="#ed8730"/>
    <path id="Trazado_39696" data-name="Trazado 39696" d="M111.078,65.495a4.351,4.351,0,0,1-.108.843,1.441,1.441,0,0,1-.511.871,1.189,1.189,0,0,1-1.041.081,2.548,2.548,0,0,1-.763-.447A7.28,7.28,0,0,1,106.83,64.2a10.92,10.92,0,0,0,2.151,2.208,2.165,2.165,0,0,0,.616.3.612.612,0,0,0,.478-.033c.2-.16.268-.73.287-1.211s.008-.974.012-1.474a4.842,4.842,0,0,1-1.2-2.769,5.618,5.618,0,0,1,.053-1.533,3.16,3.16,0,0,1,.543-1.4,3.081,3.081,0,0,0-.341,1.422,5.378,5.378,0,0,0,.146,1.442,4.311,4.311,0,0,0,.853,1.741c.014-.2.027-.4.053-.6a2.8,2.8,0,0,1,.616-1.591,1.109,1.109,0,0,1,.848-.321,1.345,1.345,0,0,1,.759.321,1.061,1.061,0,0,0-1.278.284,2.944,2.944,0,0,0-.338,1.369c-.066,1.015.05,2.051-.006,3.138" transform="translate(-11.66 -6.362)" fill="#ed8730"/>
    <path id="Trazado_39697" data-name="Trazado 39697" d="M156.119,93.24c.141.24.268.483.383.732a15.88,15.88,0,0,1,.6,1.508,15.216,15.216,0,0,0-.8-1.4,7.291,7.291,0,0,0-.462-.647,2.288,2.288,0,0,0-.527-.514l.257-.364a2.6,2.6,0,0,1,.545.687" transform="translate(-16.953 -10.102)" fill="#ed8730"/>
    <path id="Trazado_39698" data-name="Trazado 39698" d="M134.8,105.931a5.55,5.55,0,0,1,.572-2.671,2.538,2.538,0,0,1,1.032-1.05,1.874,1.874,0,0,1,.763-.2c.233-.012.429,0,.643-.016a5.626,5.626,0,0,0,2.459-.56,3.284,3.284,0,0,1-2.411,1.176c-.223.027-.466.027-.67.039a1.269,1.269,0,0,0-.5.127,2.088,2.088,0,0,0-.8.79,5.964,5.964,0,0,0-.7,2.389,21.43,21.43,0,0,0-.053,2.615,10.831,10.831,0,0,1-.339-2.635" transform="translate(-14.713 -11.071)" fill="#ed8730"/>
    <path id="Trazado_39699" data-name="Trazado 39699" d="M149.121,120.361a17.283,17.283,0,0,0-3.305-.5,17.49,17.49,0,0,1,3.384.062Z" transform="translate(-15.916 -13.076)" fill="#ed8730"/>
    <path id="Trazado_39700" data-name="Trazado 39700" d="M176.82,193.463a5.42,5.42,0,0,1-.018,1.49,7.825,7.825,0,0,1-1.029,2.81l-.366-.253a7.543,7.543,0,0,0,1.177-2.6,4.565,4.565,0,0,0-.214-2.85,4.51,4.51,0,0,1,.45,1.4" transform="translate(-19.146 -20.963)" fill="#ed8730"/>
    <path id="Trazado_39701" data-name="Trazado 39701" d="M161.021,200.628l.324.306a7.824,7.824,0,0,0-1.138,1.378,2.683,2.683,0,0,0-.531,1.685,2.8,2.8,0,0,1,.335-1.793,8.209,8.209,0,0,1,1.009-1.575" transform="translate(-17.424 -21.898)" fill="#ed8730"/>
    <path id="Trazado_39702" data-name="Trazado 39702" d="M166.938,176.419a13.64,13.64,0,0,0-2.466.385,13.793,13.793,0,0,1,2.4-.78c.822-.2,1.652-.363,2.484-.5,1.67-.283,3.339-.487,5.04-.635v1.6c-1.637-.118-3.311-.183-4.968-.17-.831.006-1.662.033-2.49.1" transform="translate(-17.952 -19.089)" fill="#ed8730"/>
    <path id="Trazado_39703" data-name="Trazado 39703" d="M276.444,231.4a.133.133,0,0,1,.015.034l-.012-.015a.046.046,0,0,0,0-.019" transform="translate(-30.174 -25.257)" fill="#ed8730"/>
    <path id="Trazado_39704" data-name="Trazado 39704" d="M222.7,195.148a5.587,5.587,0,0,0-2.862.294,3.218,3.218,0,0,0-1.483,2.166l-.036.075a.473.473,0,0,1-.625.227,3.521,3.521,0,0,0-2.409-.462,1.946,1.946,0,0,0-.992.749,5.418,5.418,0,0,0-.631,1.208,5.436,5.436,0,0,1,.408-1.343,2.32,2.32,0,0,1,1-1.092,2.9,2.9,0,0,1,1.514-.293,6.328,6.328,0,0,1,1.014.15,5.616,5.616,0,0,1,.66-.963,2.948,2.948,0,0,1,1.387-.907,5.777,5.777,0,0,1,3.052.192h0Z" transform="translate(-23.321 -21.264)" fill="#ed8730"/>
    <path id="Trazado_39705" data-name="Trazado 39705" d="M212.536,231.737c0-.01,0-.014,0,0v0m-3-3.443a1.316,1.316,0,0,0-.028,1.184.827.827,0,0,0,.4.337c.15.068.422.11.655.2a9.73,9.73,0,0,1,1.319.6c.209.116.417.237.624.369.1.066.2.137.308.216a1.463,1.463,0,0,1,.164.144.5.5,0,0,1,.114.16.733.733,0,0,1,.042.126,1.722,1.722,0,0,0,1.687,1.437,6.108,6.108,0,0,0,2.537-.648,7.306,7.306,0,0,0,2.23-1.462,3.723,3.723,0,0,0,1.073-2.3,6.223,6.223,0,0,0-.447-2.606,14.369,14.369,0,0,0-1.225-2.491,7.594,7.594,0,0,1,1.711,2.284,5.59,5.59,0,0,1,.6,2.863,4.382,4.382,0,0,1-1.229,2.71,7.891,7.891,0,0,1-2.423,1.633,5.976,5.976,0,0,1-2.87.692,2.425,2.425,0,0,1-1.479-.594,2.6,2.6,0,0,1-.757-1.376.066.066,0,0,0,0-.02c-.017-.02-.061-.055-.1-.087-.083-.063-.173-.127-.264-.192-.185-.127-.381-.246-.579-.363a8.983,8.983,0,0,0-1.22-.6c-.2-.084-.4-.109-.682-.226a1.239,1.239,0,0,1-.624-.585,1.083,1.083,0,0,1,.461-1.41" transform="translate(-22.809 -24.402)" fill="#ed8730"/>
    <path id="Trazado_39706" data-name="Trazado 39706" d="M214.884,226.734a.991.991,0,0,0-.3-.1l-.362-.053a.148.148,0,0,0-.039,0c-.02.1-.04.24-.075.362a2.636,2.636,0,0,1-.893,1.388,1.158,1.158,0,0,1-.818.237,1.59,1.59,0,0,1-.736-.314,1.235,1.235,0,0,0,1.343-.181,2.984,2.984,0,0,0,.649-1.244c.032-.118.04-.216.067-.375a.539.539,0,0,1,.054-.155.378.378,0,0,1,.208-.171.729.729,0,0,1,.29-.01,3.133,3.133,0,0,1,.4.078,1.406,1.406,0,0,1,.419.187,1.565,1.565,0,0,1,.56,1.506,1.778,1.778,0,0,0-.771-1.159" transform="translate(-23.103 -24.68)" fill="#ed8730"/>
    <path id="Trazado_39707" data-name="Trazado 39707" d="M236.908,247.138a2.5,2.5,0,0,0,.743,1.088,4.206,4.206,0,0,0,1.1.715,5.94,5.94,0,0,0,2.549.5.187.187,0,0,1,.079.019l.031.015.014.008a8.483,8.483,0,0,0,2.152.809,2.291,2.291,0,0,0,1.831-.608.5.5,0,0,1,.458-.073l.254.086.012.009a2.664,2.664,0,0,0,2.133.647,2.348,2.348,0,0,0,1.593-1.681l0-.011a.232.232,0,0,1,.079-.108.226.226,0,0,1,.316.044l.006.006a2.489,2.489,0,0,0,1.976,1.269A2.835,2.835,0,0,0,254.2,248.5l0,0a.218.218,0,0,1,.221-.087l0,0a2.814,2.814,0,0,0,1.617.033,1.813,1.813,0,0,0,.951-1.3,3.15,3.15,0,0,1-.241.84,1.4,1.4,0,0,1-.614.662,2.94,2.94,0,0,1-1.655.216,4.586,4.586,0,0,1-.872.921,2.38,2.38,0,0,1-1.344.543,2.207,2.207,0,0,1-1.389-.443,4.028,4.028,0,0,1-.693-.672,3.49,3.49,0,0,1-.411.974,2.621,2.621,0,0,1-1.232,1.023,3.072,3.072,0,0,1-1.627.159,4.447,4.447,0,0,1-1.163-.375,4.049,4.049,0,0,1-.957.3,2.875,2.875,0,0,1-1.436-.129,9.012,9.012,0,0,1-2.146-1.281,6.28,6.28,0,0,1-2.559-.739,4.475,4.475,0,0,1-1.08-.837,2.54,2.54,0,0,1-.664-1.167" transform="translate(-25.858 -26.975)" fill="#ed8730"/>
    <path id="Trazado_39708" data-name="Trazado 39708" d="M219.558,226.05a3.374,3.374,0,0,0-1.451-.755l.116-.429a3.681,3.681,0,0,1,1.5,1.03,2.5,2.5,0,0,1,.6,1.637,2.385,2.385,0,0,0-.763-1.483" transform="translate(-23.806 -24.544)" fill="#ed8730"/>
    <path id="Trazado_39709" data-name="Trazado 39709" d="M235.908,222.926a3.358,3.358,0,0,1-.821.349,2.854,2.854,0,0,1-1.691,0,3.787,3.787,0,0,1-2.276.1,2.226,2.226,0,0,1-1.038-.67,2.525,2.525,0,0,1-.478-.881,4.158,4.158,0,0,1-2.3-.092,3.444,3.444,0,0,1-1.115-.622,1.756,1.756,0,0,1-.634-1.032,3.376,3.376,0,0,1-1.161-.807,3,3,0,0,1-.67-1.348,2.879,2.879,0,0,0,.826,1.188,3.085,3.085,0,0,0,1.265.608h0a.218.218,0,0,1,.154.2v.011a1.256,1.256,0,0,0,.507.84,3,3,0,0,0,.967.539,3.754,3.754,0,0,0,2.23.045l.006,0,.01,0a.224.224,0,0,1,.266.157,1.872,1.872,0,0,0,1.318,1.348,3.261,3.261,0,0,0,1.99-.208l.011,0,.031-.01a.258.258,0,0,1,.235.031,2.239,2.239,0,0,0,1.461.218,3.021,3.021,0,0,0,.776-.2,1.071,1.071,0,0,0,.583-.477l.145.037a1.237,1.237,0,0,1-.6.681" transform="translate(-24.419 -23.787)" fill="#ed8730"/>
    <path id="Trazado_39710" data-name="Trazado 39710" d="M183.277,198.781a6.742,6.742,0,0,1,2.91-1.485,5.342,5.342,0,0,1,1.635-.135,2.736,2.736,0,0,1,1.524.537,5.116,5.116,0,0,0-2.983.239,8.293,8.293,0,0,0-2.615,1.408,7.127,7.127,0,0,0-1.853,2.317,9.962,9.962,0,0,0-.822,2.968,7.418,7.418,0,0,1,.331-3.177,6.63,6.63,0,0,1,1.873-2.673" transform="translate(-19.76 -21.519)" fill="#ed8730"/>
    <path id="Trazado_39711" data-name="Trazado 39711" d="M137.4,282.245a2.76,2.76,0,0,1-1.065.93,5.64,5.64,0,0,1-1.3.324A18.181,18.181,0,0,1,130,283.27l.035-.445,2.477-.024a22.613,22.613,0,0,0,2.425-.107,4.838,4.838,0,0,0,1.115-.241,2.527,2.527,0,0,0,.843-.63,8.209,8.209,0,0,0,.745-.926,2.935,2.935,0,0,0,.547-1.078,2.225,2.225,0,0,1-.169,1.271,4.765,4.765,0,0,1-.613,1.155" transform="translate(-14.189 -30.542)" fill="#ed8730"/>
    <path id="Trazado_39712" data-name="Trazado 39712" d="M147.368,190.106c.084-.1.169-.206.25-.314a28.342,28.342,0,0,1-4.741-2c-.829-.424-1.66-.84-2.508-1.209-.481-.209-.963-.413-1.45-.6.414.306.853.587,1.3.853.791.469,1.611.893,2.44,1.3a50.834,50.834,0,0,0,4.711,1.979M2.4,188.053c.033.585.087,1.177.156,1.772a65.838,65.838,0,0,0,1.269,7.144,59.046,59.046,0,0,0,2.015,6.95,20.238,20.238,0,0,0,1.43,3.159,3.51,3.51,0,0,0,.826,1.022.539.539,0,0,0,.045.03c.034.011-.05-.012.052.018l.447.123.893.245c4.753,1.31,9.438,2.736,14.157,4.052a45.576,45.576,0,0,0,6.746.314c2.3-.026,4.6-.175,6.906-.379s4.6-.462,6.884-.784c2.257-.309,4.5-.694,6.721-1.192,4.167-1.889,8.324-3.811,12.432-5.836l12.373-6.2c2.08-1.031,4.078-2.1,6.29-3.073a61.47,61.47,0,0,1,6.651-2.4,45.854,45.854,0,0,1,6.958-1.569,23.235,23.235,0,0,1,3.68-.23,10.645,10.645,0,0,1,3.924.744,1.355,1.355,0,0,1,.185.1l.009.005c1.719,1.1,3.508,2.133,5.306,3.166s3.617,2.055,5.46,3.032,3.7,1.955,5.579,2.881,3.79,1.79,5.712,2.608l.022.012.025.012c1.184.7,2.366,1.4,3.6,1.99a16.22,16.22,0,0,0,3.305,1.218c.042-.38.073-.765.119-1.146.131-1.028.264-2.055.424-3.078.079-.512.164-1.024.263-1.535l.064-.319-3.366-2.241a16.14,16.14,0,0,0-1.789-1.112,7.327,7.327,0,0,0-2.06-.377,7.406,7.406,0,0,1,2.166.08,11.983,11.983,0,0,1,1.976.89l3.372,1.708c.025-.059.037-.123.064-.182a15.04,15.04,0,0,1,3.574-4.592l-4.755-3.687a4.08,4.08,0,0,0-1.294-.593c-.474-.1-.992-.1-1.488-.184.505.006,1-.063,1.519-.037a4.461,4.461,0,0,1,1.494.434l0,0,.021.012,5.337,3.321a13.416,13.416,0,0,1,2.01-1.453,5.592,5.592,0,0,1,3.132-.835,3.9,3.9,0,0,0,2.719-.63,4.855,4.855,0,0,0,.388-.3c-1.41-.674-2.787-1.4-4.125-2.2-.809-.483-1.6-.99-2.373-1.543a11.916,11.916,0,0,1-2.146-1.883.211.211,0,0,1,.2-.354l.018,0a45.089,45.089,0,0,1,5.2,2.1,25.673,25.673,0,0,0,5.03,1.742c.21-.332.42-.665.6-1.015a10.347,10.347,0,0,1,.787-1.38,4.528,4.528,0,0,1,2.843-1.421,16.67,16.67,0,0,1,6.178.419,17.571,17.571,0,0,0-6.111-.067,4.148,4.148,0,0,0-2.524,1.371,11.764,11.764,0,0,0-.683,1.332c-.232.469-.494.926-.771,1.373a10.7,10.7,0,0,1-1,1.336l-.249.616c-.08-.035-.157-.079-.239-.117a5.647,5.647,0,0,1-.659.533,4.8,4.8,0,0,1-1.5.7,5.251,5.251,0,0,1-1.652.116,5.768,5.768,0,0,0-2.793.63,11.177,11.177,0,0,0-2.526,1.66,15.676,15.676,0,0,0-2.074,2.233,11.3,11.3,0,0,0-1.55,2.578,5.872,5.872,0,0,0-.343,1.432q-.115.755-.208,1.521c-.124,1.018-.229,2.038-.3,3.062-.151,2.046-.236,4.1-.192,6.134a26.089,26.089,0,0,0,.249,3.008,10.393,10.393,0,0,0,.308,1.413,3.758,3.758,0,0,0,.362.841c.033-.014.066-.032.1-.046.473-.215.949-.4,1.425-.591a8,8,0,0,1,1.5-.474,23.986,23.986,0,0,1,3.066-.306c2.036-.094,4.071-.092,6.1-.07l6.093.06,6.093.086c.352,0,.7,0,1.057-.008-.352.01-.7.039-1.057.039L152.388,216c-4.058-.02-8.132,0-12.166.333a23.908,23.908,0,0,0-2.981.414,6.11,6.11,0,0,0-1.371.516c-.455.214-.913.426-1.351.662a7.892,7.892,0,0,0-2.329,1.686,3.784,3.784,0,0,0-.927,2.477l-.1-.008c.214.208.43.41.651.607a35.212,35.212,0,0,0,3.869,2.921,93.046,93.046,0,0,0,8.4,4.99q4.327,2.3,8.77,4.414c2.966,1.392,5.938,2.781,8.94,4.112q-4.67-1.571-9.212-3.5c-3.032-1.273-6.033-2.627-8.964-4.131a69.874,69.874,0,0,1-8.524-5.04,25.617,25.617,0,0,1-3.788-3.246c-.278-.311-.544-.641-.815-.959-.054-.077-.108-.154-.163-.23l-.225-.018c.011-.078.034-.154.046-.234-.126-.185-.249-.371-.36-.567a5.375,5.375,0,0,1-.782-2.363,6.394,6.394,0,0,0,1.271,2.3,5.2,5.2,0,0,1,.266-.763,5,5,0,0,1,.967-1.385,6.5,6.5,0,0,1,1.277-.987,5.513,5.513,0,0,1-.412-1.154,11.379,11.379,0,0,1-.245-1.624,27.481,27.481,0,0,1-.061-3.163c.006-.216.028-.429.037-.642a19.859,19.859,0,0,0-5.809,3.36,13.484,13.484,0,0,0-2.355,2.54,12.911,12.911,0,0,0-1.539,2.976,31.573,31.573,0,0,0-.15,7.221c.046.292.073.594.135.879l.081.434c.042.1.05.192.106.307a6.067,6.067,0,0,0,.917,1.375,28.521,28.521,0,0,0,2.549,2.594c1.822,1.652,3.738,3.236,5.687,4.776,1.911,1.489,3.829,2.983,5.766,4.449a10.051,10.051,0,0,1,1.094-.826h0l.053-.032h5.363a8.939,8.939,0,0,1,1.755-.781,6.651,6.651,0,0,1,1.976-.335v.445a7.515,7.515,0,0,0-3.561,1.081l-.06.033h-5.337a7.618,7.618,0,0,0-2.318,2.493,3.914,3.914,0,0,0-.36,3.226,2.72,2.72,0,0,0,.847,1.321,3.012,3.012,0,0,0,1.491.527,10.306,10.306,0,0,0,3.422-.381,41.557,41.557,0,0,0,6.674-2.56,7.6,7.6,0,0,1,1.9-.4c.611-.069,1.219-.119,1.826-.157,1.213-.072,2.426-.125,3.636-.133a69.916,69.916,0,0,1,7.28.26c.308.039.612.062.924.12l.466.077.406.052a9.693,9.693,0,0,0,1.7.008,24.545,24.545,0,0,0,3.489-.559,35.286,35.286,0,0,0,3.425-.957,17.952,17.952,0,0,0,3.2-1.371,1.6,1.6,0,0,0,.846-1.1,7.13,7.13,0,0,0,.194-1.677,28.8,28.8,0,0,0-.215-3.579,13.842,13.842,0,0,1,.934,3.544,6.648,6.648,0,0,1-.033,1.918,2.736,2.736,0,0,1-.386,1,1.456,1.456,0,0,1-.375.427,2.5,2.5,0,0,1-.417.313,13.366,13.366,0,0,1-2.8,1.3c.388.111.767.238,1.134.361,1.223.449,2.376,1.011,3.536,1.51a14.4,14.4,0,0,0,3.447,1.15,7.476,7.476,0,0,0,1.759-.069c.616-.086,1.236-.173,1.857-.29,4.958-.876,9.912-2.046,14.829-3.249a10.664,10.664,0,0,0,2.209-1.348,16.724,16.724,0,0,0,2.012-1.828,23.563,23.563,0,0,0,3.259-4.41,26.272,26.272,0,0,0,2.323-4.963,9.291,9.291,0,0,0,.15-5.185,9.551,9.551,0,0,0-7.627-6.526c-1.7-.315-3.385.5-4.891,1.5a26.2,26.2,0,0,0-4.188,3.7,14.86,14.86,0,0,1,3.627-4.449q.314-.257.65-.49c-.148-.8-.326-1.628-.538-2.41a4.641,4.641,0,0,0-.859-1.979c-1.288-1.127-2.77-2.238-4.187-3.331-1.082-.822-2.175-1.635-3.264-2.45-.1-.02-.2-.035-.3-.057.087.012.175.02.262.031q-2.7-2.01-5.416-3.995l-4.408-3.162-1.113-.77c-.184-.122-.377-.251-.551-.357a3.132,3.132,0,0,0-.561-.246c-.828-.282-1.712-.5-2.585-.711-3.517-.826-7.082-1.49-10.644-2.146q1.316.174,2.633.355a21.484,21.484,0,0,0,.05-4.466,11.252,11.252,0,0,0-1.088-4.038l-.176.048a6.281,6.281,0,0,1-.178-.673,4.723,4.723,0,0,0-1.271-1.317,21.7,21.7,0,0,0-2.078-1.027,20.134,20.134,0,0,1-2.076-1.139,4.912,4.912,0,0,1-1.726-1.58,4.816,4.816,0,0,0,1.809,1.441,17.189,17.189,0,0,0,1.6.757,5.623,5.623,0,0,0,.017-1.552,2.916,2.916,0,0,0-.242-.865,1.384,1.384,0,0,0-.505-.609q-5.248-2-10.459-4.081c-1.741-.7-3.48-1.4-5.206-2.153a51.155,51.155,0,0,1-5.05-2.553,76.588,76.588,0,0,1-9.566-6.019,25.475,25.475,0,0,1-4.171-3.907c-.05-.056-.094-.123-.139-.184l-.7-.588c.086-.09.175-.171.262-.261a3.279,3.279,0,0,1-.112-.411,4.664,4.664,0,0,1,0-1.526,6.583,6.583,0,0,1,1.084-2.671,14.338,14.338,0,0,0-.377,2.734,4.967,4.967,0,0,0,.117,1.162,22.339,22.339,0,0,1,3.738-2.861,21.46,21.46,0,0,1,5.479-2.42,18.381,18.381,0,0,0-2.14,1,41.184,41.184,0,0,1,8.209.118,6.614,6.614,0,0,0,1.895-.488,2.976,2.976,0,0,0,1.425-1.19,4.022,4.022,0,0,0-.143-3.594,6.77,6.77,0,0,0-1.745-.682c-.654-.182-1.321-.333-1.993-.468-1.343-.275-2.7-.5-4.067-.7s-2.754-.4-4.087-.551a19.439,19.439,0,0,0-4.045.033,46.777,46.777,0,0,0-8.011,1.684c-1.326.374-2.618.8-4,1.168-.18.044-.337.094-.548.126s-.4.073-.529.086a4.261,4.261,0,0,0-.883.233,12.72,12.72,0,0,0-1.781.852,80.6,80.6,0,0,0-6.791,4.624c-2.233,1.627-4.477,3.262-6.81,4.792a40,40,0,0,1-3.636,2.178,25.532,25.532,0,0,1-4.02,1.441,82.857,82.857,0,0,1-8.185,1.755c-10.968,1.8-22,2.742-33,3.87-5.5.551-10.993,1.125-16.46,1.826-2.732.344-5.46.7-8.166,1.127-1.352.225-2.7.452-4.028.755a11.218,11.218,0,0,0-3.737,1.379l-.3-.325a10.166,10.166,0,0,1,3.75-2.043,37.518,37.518,0,0,1,4.046-1.142q1.07-.25,2.144-.461a4.6,4.6,0,0,0-.4-.424,7.014,7.014,0,0,0-1.049-.792,12.46,12.46,0,0,0-2.5-1.184l.1-.437a13.143,13.143,0,0,1,2.879.611,7.886,7.886,0,0,1,1.415.62,5.907,5.907,0,0,1,.681.445,3.011,3.011,0,0,1,.69.68l-.372.215c1.538-.274,3.084-.51,4.627-.72,3.948-.522,7.9-.938,11.853-1.334,1.8-5.791,3.457-11.62,5.015-17.47,1.69-6.3,3.14-12.662,4.4-19.049a118.72,118.72,0,0,0,2.388-19.306,48.331,48.331,0,0,0-.623-9.582,19.362,19.362,0,0,0-.831-3.139,30.69,30.69,0,0,0-19.176,6.672,22.444,22.444,0,0,0-3.669,3.732c-1.09,1.394-2.109,2.87-3.1,4.366-1.968,3-3.816,6.093-5.592,9.225s-3.486,6.307-5.108,9.526-3.162,6.479-4.643,9.763a127.527,127.527,0,0,0-7.236,20.294c-.008.029-.021.063-.033.094l-.023.054a103.855,103.855,0,0,0-4.988,13.7,29.648,29.648,0,0,0-.79,3.448c-.014.129-.04.273-.048.393s-.02.2-.017.353c0,.282.013.576.028.866M121.05,229.121l-.085-.487c-.065-.323-.088-.647-.132-.971a31.948,31.948,0,0,1,.21-7.068,22.182,22.182,0,0,0-3.844,3.168,13.932,13.932,0,0,0-1.741,2.292,6.824,6.824,0,0,0-.866,2.661c-.07.969-.172,1.934-.218,2.906s-.039,1.945-.027,2.914a26.269,26.269,0,0,0,.637,5.727,7.41,7.41,0,0,0,1.06,2.51,2.448,2.448,0,0,0,.894.786,2.057,2.057,0,0,0,1.146.131,26.691,26.691,0,0,1,5.994.436c1.953.293,3.869.734,5.791,1.113.959.187,1.915.391,2.871.564.478.085.957.162,1.431.2a4.083,4.083,0,0,0,1.13,0,4.534,4.534,0,0,1,.661-1.895,7.113,7.113,0,0,1,1.171-1.466c-2.056-1.234-4.074-2.526-6.031-3.917a71.472,71.472,0,0,1-5.974-4.6,25.208,25.208,0,0,1-2.731-2.7,7.422,7.422,0,0,1-1.151-1.725,4.231,4.231,0,0,1-.2-.578m-7.578,5.421c0-.992.052-1.98.126-2.966.009-.094.021-.188.031-.283-.815.686-1.616,1.4-2.381,2.141a24.933,24.933,0,0,0-2.658,3.007c.11.143.216.291.329.433.6.681,1.119,1.422,1.759,2.055l.918.989.977.925a12.953,12.953,0,0,0,1.008.891c.351.278.677.588,1.048.842.045.036.094.067.14.1a10.1,10.1,0,0,1-.751-2.183,27.264,27.264,0,0,1-.545-5.953m5.766,10.808a22.078,22.078,0,0,0,4.942,1.643c1.262.029,2.529.023,3.79.028,2.434-.006,4.869-.075,7.308-.129-.011-.127-.011-.252-.011-.379-.122.025-.243.037-.362.058a5.572,5.572,0,0,1-.768.026c-.5-.011-1-.053-1.493-.1-.986-.1-1.962-.235-2.931-.394l-5.8-.923a25.8,25.8,0,0,0-5.716-.385c-.021,0-.044,0-.064,0,.363.191.73.378,1.1.555m57.148,1.865c-.335-.167-.668-.337-1.007-.491A10.867,10.867,0,0,0,173.4,246q-1.18.374-2.382.667c1.877.152,4.024.389,5.372.547m36.006-20.3a9.771,9.771,0,0,1,.339,3.48,2.47,2.47,0,0,0,1.526.064c.735-.158,1.493-.468,2.3-.72a5.338,5.338,0,0,1,2.651-.3,3.071,3.071,0,0,1,1.28.592,3.758,3.758,0,0,0,.97.517,4.26,4.26,0,0,0,4.233-.867,6.481,6.481,0,0,0,1.938-4.187l0-.011a.186.186,0,0,1,.061-.125l0,0a11.877,11.877,0,0,1,1.546-1.628,4.894,4.894,0,0,1,2.113-1.139,4.489,4.489,0,0,1,2.434.29,5.556,5.556,0,0,0,1.918.363,3.248,3.248,0,0,0,3.074-1.566,7.184,7.184,0,0,0,.121-4l-.011-.056a.154.154,0,0,1,.013-.089v0a12.379,12.379,0,0,1,.716-1.814,4.652,4.652,0,0,1,.58-.849c.015-.12.032-.238.044-.357l.283.032a3.145,3.145,0,0,1,.477-.358,5.276,5.276,0,0,1,1.947-.691c.325-.067.695-.076.974-.117a2.007,2.007,0,0,0,.714-.212c.826-.414,1.023-1.589.917-2.721a11.821,11.821,0,0,0-.848-3.282,1.575,1.575,0,0,1-.258-.739,2.639,2.639,0,0,1,.027-.685,4.459,4.459,0,0,1,.338-1.077,6.076,6.076,0,0,1,1.181-1.722,5.838,5.838,0,0,1,1.668-1.2c.138-.071.355-.152.436-.192a1.359,1.359,0,0,0,.289-.153,1.665,1.665,0,0,0,.472-.475,3.365,3.365,0,0,0,.094-3.028,5.483,5.483,0,0,0-2.179-2.582l-.022-.014a.172.172,0,0,1-.048-.05,6.319,6.319,0,0,1-1.121-2.036,4.186,4.186,0,0,1,.031-2.4,8.016,8.016,0,0,1,1.032-2.118l.327-.478c.1-.146.189-.276.268-.422a3.948,3.948,0,0,0,.366-.9,4.2,4.2,0,0,0-.853-3.635A7.147,7.147,0,0,0,243.5,181a.7.7,0,0,1-.208-.119l-.042-.033a14.6,14.6,0,0,1-1.579-1.607,4.659,4.659,0,0,1-1.106-2.286,3.9,3.9,0,0,1,.564-2.465,1.862,1.862,0,0,0,.073-1.467,2.7,2.7,0,0,0-2.809-1.464,5.881,5.881,0,0,0-.963.1,4.731,4.731,0,0,1-.564.078,3.724,3.724,0,0,1-.613.019,3.9,3.9,0,0,1-2.3-.8,3.378,3.378,0,0,1-1.258-2.089,5.053,5.053,0,0,1,.147-2.317l.164-.535a3.558,3.558,0,0,0,.126-.453,2.678,2.678,0,0,0,.044-.906,2.762,2.762,0,0,0-.855-1.6,6.569,6.569,0,0,0-3.626-1.566,5.809,5.809,0,0,0-3.91.647l-.015.01a.2.2,0,0,1-.108.032,2.477,2.477,0,0,1-1.98-.894,14.553,14.553,0,0,1-1.233-1.7c-.787-1.1-1.485-2.406-2.738-2.816a4.9,4.9,0,0,0-3.782.723,16.206,16.206,0,0,0-1.71,1.1,4.783,4.783,0,0,1-1.9,1.056,1.431,1.431,0,0,1-1.213-.309,2.362,2.362,0,0,1-.632-1,14.29,14.29,0,0,1-.435-2.043,1.341,1.341,0,0,0-1.106-1.147,6.327,6.327,0,0,0-1.947.057c-.67.094-1.342.225-2.015.362a5.587,5.587,0,0,0-1.843.587.7.7,0,0,0-.382.592,2.956,2.956,0,0,0,.208.9,2.6,2.6,0,0,1,.162,1.152,1.594,1.594,0,0,1-.649,1.01,2.171,2.171,0,0,0-.833,1.538c.273-.021.544-.06.823-.071l-.01,1.006c.024.013.047.029.072.041a4.626,4.626,0,0,0,1.1.38,3.573,3.573,0,0,1,1.521-1.793,3.429,3.429,0,0,0-1.483,2.428,3.975,3.975,0,0,0,.142,1.424c.059.232.165.453.243.675l.329.647a.237.237,0,0,1,.025.121l0,.012a7.141,7.141,0,0,0-.061,1.465,1.715,1.715,0,0,0,.527,1.207,2.693,2.693,0,0,0,1.27.551,10.913,10.913,0,0,0,1.475.167.231.231,0,0,1,.135.054.221.221,0,0,1,.025.313h0a19.884,19.884,0,0,0-1.459,2.108,4.607,4.607,0,0,0-.469,2.33v.015a.45.45,0,0,1-.281.418,2.508,2.508,0,0,1-1.593.235,3.16,3.16,0,0,1-1.2-.845,1.859,1.859,0,0,0-1.089-.465,4.2,4.2,0,0,0-1.289.112,4.285,4.285,0,0,1,1.288-.385,2.278,2.278,0,0,1,1.4.283c.419.234.767.508,1.042.494a1.356,1.356,0,0,0,.681-.234,8.273,8.273,0,0,1,.224-1.074,4.224,4.224,0,0,1,.634-1.293,16.58,16.58,0,0,1,1.458-1.659,8.735,8.735,0,0,1-1.066-.138,3.1,3.1,0,0,1-1.479-.655,2.158,2.158,0,0,1-.674-1.5,7.462,7.462,0,0,1,.06-1.5l-.268-.637c-.066-.249-.159-.49-.2-.745a4.144,4.144,0,0,1-.037-1.532c.006-.04.024-.073.033-.113a5.2,5.2,0,0,1-1.188-.386c-.1-.05-.2-.1-.3-.164a29.438,29.438,0,0,0-7.151,1.127,32.249,32.249,0,0,0-7.185,3,31.067,31.067,0,0,0-3.273,2.147c-.525.388-1.031.8-1.531,1.219a5.952,5.952,0,0,0-1.095,1.552,19.811,19.811,0,0,0-.867,2.046,33.5,33.5,0,0,1-1,3.316l.021.023c-.017.017-.033.03-.048.048-.167.683-.324,1.373-.469,2.058q.15-.9.324-1.788c-.256.413-.535.48-.743.452a2.626,2.626,0,0,1-.249.128,1.021,1.021,0,0,1-.413.077.639.639,0,0,1-.24-.054,1.92,1.92,0,0,1-.177-.1,1.2,1.2,0,0,1-.224-.213,9.781,9.781,0,0,0-.052,2.49l1.021,1.743-1.418-1.546-.037-.04-.006-.077v0c-.008-.276-.01-.552-.006-.831a7.793,7.793,0,0,0-1.943.282,3.389,3.389,0,0,0-1.772,1.089q-.283.641-.581,1.283l.015.059c-.017.006-.031.006-.048.012-.251.537-.516,1.067-.813,1.58a9.3,9.3,0,0,1-.926,1.361,3.309,3.309,0,0,1-1.273,1.014,3.262,3.262,0,0,0,1.221-1.056,9.305,9.305,0,0,0,.861-1.383c.25-.477.475-.964.685-1.459a3.226,3.226,0,0,1-.959.1,2.554,2.554,0,0,1-.961-.244,6.212,6.212,0,0,0-.564.48,1.992,1.992,0,0,0-.618.935,1.39,1.39,0,0,1,.026-.58,3.4,3.4,0,0,0-1.489.628,1.506,1.506,0,0,1,.241.969,2.494,2.494,0,0,1-.307.959,2.711,2.711,0,0,1,1.2-.08,2.171,2.171,0,0,0-1.541.663,5.621,5.621,0,0,0-.449,1.667,9.283,9.283,0,0,0,0,2.543c.1.133.208.269.3.405a11.639,11.639,0,0,1,1.644,4.553,22.527,22.527,0,0,1,.264,4.776c2.289.322,4.574.669,6.852,1.088.894.174,1.783.341,2.683.6a4.148,4.148,0,0,1,.694.268c.216.117.408.234.606.352l1.16.72,4.573,2.951q3.778,2.477,7.517,5.017a14.078,14.078,0,0,0,4.137-.724l.031-.008a3.513,3.513,0,0,0,1.89-1.589,9.049,9.049,0,0,0,1.093-2.371,8.913,8.913,0,0,0,.12-5.139c-.5-1.591-1.639-3.267-3.3-3.342a4.6,4.6,0,0,0-2.4.667,12.528,12.528,0,0,0-2.165,1.549,8.411,8.411,0,0,1,1.51-1.569,3.948,3.948,0,0,1-.707-1.275c-.167-.506-.329-.838-.7-.971a6.934,6.934,0,0,0-1.435-.306,2.488,2.488,0,0,1-.818-.379,2.574,2.574,0,0,1-.651-.62,2.352,2.352,0,0,1-.341-.979,3.565,3.565,0,0,1-1.083-.36,2.442,2.442,0,0,1-1.317-2.568,2.445,2.445,0,0,1,.393-1.056,4.106,4.106,0,0,1-.264-.731,5.636,5.636,0,0,0-.782.6,4.916,4.916,0,0,0-.959,1.227,4.605,4.605,0,0,0-.561,2.443,2.966,2.966,0,0,1,.274-.242,1.283,1.283,0,0,1,1.016-.257c-.712.05-1.072.742-1.276,1.294l-.377.847-.145-.92a6.229,6.229,0,0,1-.085-1.771,4.982,4.982,0,0,1,.486-1.733,5.817,5.817,0,0,1,1.031-1.488,6.363,6.363,0,0,1,1.256-1c0-.094-.012-.184-.009-.278a3.563,3.563,0,0,1,.861-2.174,5.813,5.813,0,0,1,.414-2.9,3.3,3.3,0,0,1,.982-1.206,4.5,4.5,0,0,1,.967-.543,1.765,1.765,0,0,1-.445-.457,1.219,1.219,0,0,1-.129-1.061,2.827,2.827,0,0,1,1.369-1.431,2.736,2.736,0,0,0-1.153,1.486.941.941,0,0,0,.187.814,1.74,1.74,0,0,0,.728.486l.006.005a.22.22,0,0,1,.115.127.223.223,0,0,1-.139.282A3.419,3.419,0,0,0,188,183.037a5.5,5.5,0,0,0-.366,2.763v0a.225.225,0,0,1-.037.136l-.011.02a2.882,2.882,0,0,0-.45,1.942,3.406,3.406,0,0,0,.754,1.773.582.582,0,0,1-.077.779l-.021.017a1.251,1.251,0,0,0-.309.687,1.389,1.389,0,0,0,.117.813,1.354,1.354,0,0,0,.586.577,1.946,1.946,0,0,0,.556.206,7.447,7.447,0,0,1,.209-1.112,12.71,12.71,0,0,1,1.163-2.885,25,25,0,0,0-.683,2.983,9.092,9.092,0,0,0-.1,1.479,2.342,2.342,0,0,0,.333,1.268,2.258,2.258,0,0,0,.478.415,1.7,1.7,0,0,0,.576.256,5.973,5.973,0,0,1,1.556.38,1.581,1.581,0,0,1,.714.65,3.369,3.369,0,0,1,.3.8,3.859,3.859,0,0,0,.467,1.154c.016-.012.031-.029.05-.042a4.6,4.6,0,0,1,2.66-.91,3.433,3.433,0,0,1,2.532,1.313,6.825,6.825,0,0,1,1.31,2.475,9.475,9.475,0,0,1-.176,5.476,9.581,9.581,0,0,1-1.231,2.464,3.889,3.889,0,0,1-2.209,1.7l.029-.009a11.917,11.917,0,0,1-1.789.415,13.774,13.774,0,0,1-1.824.145c-.122,0-.248,0-.371,0,.419.283.841.564,1.259.851,1.5,1.044,2.976,2.033,4.477,3.22.11.1.181.148.322.293a2.551,2.551,0,0,1,.324.416,5.941,5.941,0,0,1,.383.724,14.386,14.386,0,0,1,.524,1.366c.216.651.395,1.294.562,1.947a5.849,5.849,0,0,1,3-.366,11.161,11.161,0,0,1,5.433,2.382,9.883,9.883,0,0,1,3.374,4.924m27.326-8.352c.11-.77.216-1.539.314-2.311a11.676,11.676,0,0,0-.676,1.362c.129.306.254.622.363.949m-38.355-60.72a3.426,3.426,0,0,1-.241-1.108,1.178,1.178,0,0,1,.156-.554l-.3.135c-2.344-5.328-5.068-10.557-7.818-15.746-2.77-5.186-5.659-10.314-8.705-15.339-1.53-2.508-3.093-5-4.734-7.416a54.185,54.185,0,0,0-5.294-6.862,7.205,7.205,0,0,0-1.5-1.242,14.015,14.015,0,0,0-1.889-.851c-1.333-.5-2.733-.918-4.143-1.294-2.313-.616-4.665-1.13-7.024-1.622,1.186,1.893,2.2,3.811,3.21,5.764q1.844,3.629,3.514,7.328c1.121,2.463,2.188,4.946,3.234,7.44.984,2.367,1.937,4.747,2.879,7.13a44.439,44.439,0,0,1,3.459,4.958,72.22,72.22,0,0,1,4.486,8.889c1.329,3.04,2.5,6.142,3.551,9.279,1.008,3.015,1.907,6.06,2.644,9.153a32.978,32.978,0,0,1,6.689-3.072,31.365,31.365,0,0,1,6.538-1.411,1.672,1.672,0,0,1,.172-.943,3.978,3.978,0,0,1,.8-1.073l.021-.019.011-.008a1.023,1.023,0,0,0,.435-.643,2.006,2.006,0,0,0-.146-.871M157.942,105.39c-.012-.018-.031-.027-.041-.046l-1.247-2.147c-1.349-.265-2.693-.566-4.02-.925-1.286-.35-2.555-.734-3.812-1.2l-1.416,1.511a17.806,17.806,0,0,1-3.46,2.943,34.772,34.772,0,0,1-3.008,5.428c2.265,3.511,4.366,7.112,6.421,10.744q3.151,5.6,6.089,11.314c1.953,3.81,3.863,7.646,5.7,11.514s3.618,7.77,5.36,11.684l-.428.181c.218.106.437.208.656.315a49.046,49.046,0,0,1,4.721,2.674,26.966,26.966,0,0,1,7.994,7.606,18.359,18.359,0,0,1,2.392,5.171c.012.038.181.077.3.117.1-.249.2-.494.3-.737a6.237,6.237,0,0,1,1.111-1.708c.494-.447.989-.89,1.5-1.309A32.066,32.066,0,0,1,186.3,166.2c.035-.023.075-.043.112-.066-1.11-3-2.254-5.992-3.406-8.97q-1.779-4.6-3.718-9.123c-.64-1.513-1.341-2.993-2.005-4.491-.725-1.467-1.387-2.968-2.167-4.406a56.935,56.935,0,0,0-5.088-8.413,22.9,22.9,0,0,1,1.62,1.628c-.815-1.873-1.628-3.744-2.473-5.6-1.121-2.453-2.263-4.9-3.456-7.312s-2.428-4.81-3.722-7.164a66.361,66.361,0,0,0-4.181-6.793Zm15.987,72.13c-.017-.021-.1-.035-.241.027-.395.175-1.067.926-.893,2.515a4.361,4.361,0,0,1,1.319-.7,8.161,8.161,0,0,1,2.074-.386c.011-.173.024-.345.044-.518a3.61,3.61,0,0,1-2.3-.937M.024,186.634c.015-.188.042-.347.062-.524a32.276,32.276,0,0,1,.848-3.756,75.381,75.381,0,0,1,5.631-13.808c1.1-3.444,2.38-6.8,3.771-10.11,1.382-3.35,2.831-6.668,4.321-9.964,2.968-6.6,6.183-13.077,9.593-19.462,1.725-3.184,3.5-6.342,5.421-9.425.967-1.539,1.963-3.063,3.062-4.541a26.043,26.043,0,0,1,3.791-4.09,28.991,28.991,0,0,1,9.488-5.472c.73-1.92,1.527-3.8,2.428-5.658.231-.469.466-.935.72-1.4.125-.235.26-.47.405-.709.075-.121.154-.243.25-.374A2.268,2.268,0,0,1,50,97.113a1.2,1.2,0,0,1,.415-.282,3.856,3.856,0,0,1,.951-.186c.274-.027.541-.043.807-.053.53-.025,1.052-.033,1.572-.035.393,0,.782.012,1.175.015,1.186-1.783,3.193-2.83,4.991-3.751a9.241,9.241,0,0,0,3.17-2.141,3.853,3.853,0,0,0,.963-2.4,20.955,20.955,0,0,1,.618-3.3A7,7,0,0,1,66.4,81.371a9.946,9.946,0,0,0,2.334-6.052,29.42,29.42,0,0,1,1.029-6.838c1.067-4.452,2.415-5.158,3.84-5.907A7.373,7.373,0,0,0,75.12,61.6l-.273-.281a3.839,3.839,0,0,0,.766-1.71,14.621,14.621,0,0,0,.3-1.963c.127-1.329.16-2.67.167-4.014.015-2.69-.1-5.383-.075-8.1a16.989,16.989,0,0,1,.366-4.141,3.938,3.938,0,0,1,1.15-1.947,5.351,5.351,0,0,1,1.968-1,25.585,25.585,0,0,0,3.761-1.285,7.406,7.406,0,0,0,2.955-2.277,7.547,7.547,0,0,0,1.179-3.555c.094-.661.165-1.336.288-2.024.133-.71.287-1.333.432-2.005a6.741,6.741,0,0,1,.754-2.051,6.916,6.916,0,0,1,1.449-1.642,24.033,24.033,0,0,1,3.18-2.166,5.563,5.563,0,0,1,.3-1.263,7.8,7.8,0,0,1,.813-1.595,10.519,10.519,0,0,1,1.106-1.4A15.069,15.069,0,0,1,96.9,16.07a3.137,3.137,0,0,1,.478-1.668,2.623,2.623,0,0,1,1.639-1,13.092,13.092,0,0,1,1.743-.21,3.633,3.633,0,0,0,1.467-.327c.363-.224.469-.535.507-1.146a2.5,2.5,0,0,1,.949-1.765,3.814,3.814,0,0,1,1.808-.654,12.322,12.322,0,0,1,1.772-.084c.366.007.726.021,1.086.034a6.635,6.635,0,0,1,1.127-2.855,6.519,6.519,0,0,1,2.856-2.117,22.812,22.812,0,0,1,3.345-.964,12.342,12.342,0,0,0,1.6-.473,5.048,5.048,0,0,1,1.822-.349,7.206,7.206,0,0,1,2.526.631,6.15,6.15,0,0,1,1.6-2.327,4.184,4.184,0,0,1,3.2-.742c1.081.124,2.1.391,3.128.588,1.022.234,2.018.29,3.122.534a7.359,7.359,0,0,1,2.556,1.167l-.176-.389a8.631,8.631,0,0,1,2.54-.885,1.9,1.9,0,0,1,1.429.43,4.17,4.17,0,0,0,.988.7,3.388,3.388,0,0,0,1.144.238c.414.028.792-.009,1.271,0a5.282,5.282,0,0,1,2.708.629,9.617,9.617,0,0,1,2.8,2.976,9.359,9.359,0,0,1,4.8.1,5.678,5.678,0,0,1,2.13,1.353,8.227,8.227,0,0,1,1.44,2.043c.38.73.694,1.481,1.02,2.208a8.808,8.808,0,0,1,.666,2.007h.134a.653.653,0,0,0,.311.634,4.488,4.488,0,0,0,.812.383c.586.223,1.2.412,1.816.6a5.582,5.582,0,0,1,1.863.87A2.926,2.926,0,0,1,164,18.11c.121.7.11,1.343.192,1.943a9.62,9.62,0,0,0,.4,1.766,4.626,4.626,0,0,0,1.1,1.328,7.289,7.289,0,0,1,1.362,1.529,5.661,5.661,0,0,1,.785,2.558,2.812,2.812,0,0,1,1.514.283,2.3,2.3,0,0,1,1.117,1.337,5.4,5.4,0,0,1-.249,3.3l-.29.755a3.617,3.617,0,0,0-.182.654,4.537,4.537,0,0,0,.025,1.413,6.547,6.547,0,0,0,1.078,2.649,14.981,14.981,0,0,0,1.047,1.147,2.707,2.707,0,0,1,.5,1.938,5.667,5.667,0,0,1-.511,1.707,8.529,8.529,0,0,0-.566,1.356,7.025,7.025,0,0,0-.235,2.783,3.294,3.294,0,0,1-.168,2.028,2.209,2.209,0,0,1-.935.926,2.671,2.671,0,0,1-1.04.3c-.006.27-.016.542-.045.815a10.913,10.913,0,0,1-.384,1.789l-.438,1.743q-.855,3.5-1.6,7.019c-.246,1.174-.483,2.35-.691,3.527-.1.589-.2,1.177-.279,1.764-.037.292-.072.587-.094.873a3,3,0,0,0,.006.737l.012.048.007.04a9.139,9.139,0,0,1-.729,4.722,6.883,6.883,0,0,1-3.343,3.494l-.395-.889a5.958,5.958,0,0,0,2.931-2.98,8.114,8.114,0,0,0,.757-3.215l-1.759-.559a26.567,26.567,0,0,0-8.231,1.781l-.381-1.06a27.535,27.535,0,0,1,8.656-2.083h.106a.361.361,0,0,1,.231.083l1.362,1.136c-.006-.116,0-.233-.008-.349l.019.088a3.2,3.2,0,0,1-.027-1.059c.029-.312.073-.614.118-.915.094-.6.207-1.2.323-1.791.234-1.184.5-2.359.77-3.531q.823-3.517,1.756-7l.477-1.741a11.715,11.715,0,0,0,.424-1.719,11.881,11.881,0,0,0-.116-3.536,28.512,28.512,0,0,0-2.19-6.824,26.511,26.511,0,0,1,2.473,6.773c.06.311.114.623.158.94a.952.952,0,0,0,.327-.069.392.392,0,0,0,.183-.135.723.723,0,0,0,.087-.325c-.008-.1,0-.132-.012-.291l-.027-.428a8.7,8.7,0,0,1,.49-3.4,9.924,9.924,0,0,1,.721-1.495,4.369,4.369,0,0,0,.471-1.253,1.39,1.39,0,0,0-.187-1.039,12.124,12.124,0,0,1-.992-1.222,7.618,7.618,0,0,1-1.082-3.175,5.411,5.411,0,0,1,.073-1.708,4.45,4.45,0,0,1,.286-.836l.311-.69a4.766,4.766,0,0,0,.408-2.827,1.9,1.9,0,0,0-1.995-1.354,6.066,6.066,0,0,1-.092,1.045,4.389,4.389,0,0,1-.339,1.04,2.9,2.9,0,0,0-.383.769,3.17,3.17,0,0,0,.231,1.632c.2.6.416,1.216.6,1.843a4.44,4.44,0,0,1,.25,2.045,4.985,4.985,0,0,1-2.221,3.227,5.417,5.417,0,0,0,1.6-3.287,4.186,4.186,0,0,0-.378-1.736l-.691-1.8a3.752,3.752,0,0,1-.295-2.145,3.556,3.556,0,0,1,.453-.964,3.452,3.452,0,0,0,.256-.8,4.938,4.938,0,0,0-.613-3.393,6.426,6.426,0,0,0-1.213-1.34,4.841,4.841,0,0,1-1.3-1.66,9.891,9.891,0,0,1-.415-2.006c-.074-.678-.046-1.332-.136-1.911-.1-1.187-1.146-1.844-2.346-2.242-.608-.219-1.219-.442-1.824-.706a4.113,4.113,0,0,1-.9-.5l0,0c.053.6.081,1.189.148,1.746a4.477,4.477,0,0,0,.094.523,1.883,1.883,0,0,1,1.1.4,5.462,5.462,0,0,1,.957.963,12.759,12.759,0,0,1,.788,1.074,2.722,2.722,0,0,1,.326.655,1.187,1.187,0,0,1-.054.866,5.177,5.177,0,0,0-.446,1.146,2.561,2.561,0,0,0-.087,1.09c.108.58,1.013,1.036,1.571,1.8a5.675,5.675,0,0,1,1.049,2.546,5.735,5.735,0,0,1,.094,1.387,2.76,2.76,0,0,1-.474,1.4c-.266.4-.548.7-.755,1.042a4.544,4.544,0,0,0-.5,1.082,9.992,9.992,0,0,0-.384,2.449l0,.019a.3.3,0,0,1-.017.081,1.13,1.13,0,0,0-.007.911,2.509,2.509,0,0,0,.666.861,7.091,7.091,0,0,0,.946.7,11.175,11.175,0,0,1,1.011.648,11.478,11.478,0,0,0-1.1-.483,7.226,7.226,0,0,1-1.086-.564,2.959,2.959,0,0,1-.935-.9,1.79,1.79,0,0,1-.211-1.406l-.018.1a10.775,10.775,0,0,1,.408-2.651,5.308,5.308,0,0,1,.573-1.261c.242-.4.546-.737.755-1.058a2.876,2.876,0,0,0,.252-2.215,4.914,4.914,0,0,0-.9-2.19,7.312,7.312,0,0,0-.861-.868,2.43,2.43,0,0,1-.846-1.249,3.012,3.012,0,0,1,.124-1.465,5.744,5.744,0,0,1,.537-1.236.48.48,0,0,0,.048-.392,2.278,2.278,0,0,0-.231-.506c-.207-.35-.454-.707-.7-1.043a3.012,3.012,0,0,0-1.438-1.238,3.989,3.989,0,0,0,.576,1.059,6.538,6.538,0,0,1,.695,1.059,1.755,1.755,0,0,1,.131,1.393,4.08,4.08,0,0,1-.7,1.1c-.254.317-.51.619-.74.941a3.227,3.227,0,0,0-.818,2.054,6.778,6.778,0,0,0,.458,2.273c.26.75.578,1.49.879,2.238.152.377.3.755.434,1.138a3.883,3.883,0,0,1,.267,1.217,1.605,1.605,0,0,1-.465,1.167,2.659,2.659,0,0,1-1.042.661,7.149,7.149,0,0,1-2.38.424,7.077,7.077,0,0,0,2.329-.546,1.83,1.83,0,0,0,1.3-1.7,3.559,3.559,0,0,0-.294-1.117c-.148-.371-.3-.739-.466-1.106-.326-.734-.673-1.461-.969-2.224a6.86,6.86,0,0,1-.541-2.428,3.536,3.536,0,0,1,.233-1.273,5.243,5.243,0,0,1,.639-1.095,12.218,12.218,0,0,0,1.321-1.909c.216-.6-.285-1.267-.759-1.889a4.74,4.74,0,0,1-.951-2.361c-.1-.833-.1-1.63-.22-2.4a7.745,7.745,0,0,0-.694-2.211c-.337-.744-.632-1.484-.992-2.187a5.945,5.945,0,0,0-3.2-3.145,8.67,8.67,0,0,0-4.264-.243,3.982,3.982,0,0,0,.445.425l.537.407a3.346,3.346,0,0,1,.505.562,4.342,4.342,0,0,1,.639,1.291,14.806,14.806,0,0,1,.535,2.638c.215,1.743.393,3.443.676,5.156s.4,3.48.645,5.168c.233,1.7.771,3.318,1.023,5.1a10.064,10.064,0,0,1-.607,5.188,11.446,11.446,0,0,0,.073-5.1c-.163-.839-.437-1.638-.691-2.486a26,26,0,0,1-.607-2.566c-.3-1.748-.5-3.452-.764-5.161-.284-1.714-.469-3.472-.682-5.176-.258-1.685-.429-3.45-1.862-4.281a10.067,10.067,0,0,1-1.714-2.117,5.53,5.53,0,0,0-1.7-1.7,4.5,4.5,0,0,0-2.295-.572,6.206,6.206,0,0,1-2.708-.39,4.752,4.752,0,0,1-1.1-.837,1.255,1.255,0,0,0-.981-.337,8.856,8.856,0,0,0-2.387.7c.133.1.269.184.395.289a9.429,9.429,0,0,1,2.045,2.576c.533.951.957,1.9,1.415,2.857a8.968,8.968,0,0,0,1.421,2.618,10.986,10.986,0,0,0,1.163.96,5.03,5.03,0,0,1,1.208,1.228,4.908,4.908,0,0,1,.653,3.329,13.691,13.691,0,0,1-.289,1.605,6.157,6.157,0,0,0-.241,1.469,10.12,10.12,0,0,0,.424,2.977c.52,2.01,1.361,3.893,2.022,5.956a7.529,7.529,0,0,1,.166,3.244,5.368,5.368,0,0,1-1.472,2.809,6.319,6.319,0,0,0,.676-5.861c-.356-.93-.813-1.919-1.2-2.894a30.743,30.743,0,0,1-1.045-3.022,11,11,0,0,1-.459-3.243,7.031,7.031,0,0,1,.262-1.638,12.494,12.494,0,0,0,.268-1.5,4.018,4.018,0,0,0-.514-2.735,4.089,4.089,0,0,0-1-1,11.748,11.748,0,0,1-1.267-1.049,4.517,4.517,0,0,1-.957-1.434l-.645-1.44c-.452-.944-.865-1.923-1.351-2.812A8.615,8.615,0,0,0,135.1,3.272a6.477,6.477,0,0,0-2.621-1.338c-.943-.229-2.057-.316-3.084-.575-1.037-.232-2.047-.526-3.052-.673a3.581,3.581,0,0,0-2.791.535,5.66,5.66,0,0,0-1.506,2.066c.157.064.317.127.474.185,1.066.437,2.084.736,3.235,1.1a5.545,5.545,0,0,1,1.649.88,3.133,3.133,0,0,1,1.073,1.678,16.539,16.539,0,0,1,.132,3.539,4.831,4.831,0,0,0,.676,2.95,15.606,15.606,0,0,0,1.166,1.158c.428.4.828.837,1.22,1.276a25.053,25.053,0,0,1,2.071,2.82c.316.486.623.986.9,1.52a6.333,6.333,0,0,1,.362.88,3.178,3.178,0,0,1,.117,1.012,13.775,13.775,0,0,0-.069,1.67,12.434,12.434,0,0,0,.2,1.633,21.457,21.457,0,0,0,.838,3.224,7.984,7.984,0,0,0,1.568,2.809,3.7,3.7,0,0,0,2.889,1.313,3.532,3.532,0,0,1-3.36-.807,7.45,7.45,0,0,1-2.014-2.964,17.526,17.526,0,0,1-.934-3.4,14,14,0,0,1-.216-1.767,14.2,14.2,0,0,1,.069-1.753c.07-.894-.645-1.87-1.221-2.812a23.784,23.784,0,0,0-1.987-2.7c-.37-.413-.742-.819-1.152-1.2a16.025,16.025,0,0,1-1.261-1.261,3.889,3.889,0,0,1-.765-1.8,10.791,10.791,0,0,1-.142-1.8,18.293,18.293,0,0,0-.064-3.3,2.875,2.875,0,0,0-2.077-1.909c-1.024-.345-2.2-.713-3.242-1.159a9.75,9.75,0,0,0-3.1-.971,4.189,4.189,0,0,0-1.53.277,13.372,13.372,0,0,1-1.7.455,21.487,21.487,0,0,0-3.269.834,5.833,5.833,0,0,0-2.641,1.834,6.142,6.142,0,0,0-1.122,2.515c.617.021,1.229.04,1.833.025a10.018,10.018,0,0,1,1.788.042,4.846,4.846,0,0,1,1.109.322,6.482,6.482,0,0,1,1.008-.107,16.722,16.722,0,0,1,2.518.138,6.365,6.365,0,0,1,1.271.28,1.918,1.918,0,0,1,1.134.906c.218.454.268.835.455,1.125a2.2,2.2,0,0,0,.766.727c1.318.787,3.059.894,4.594,1.875a2.1,2.1,0,0,1,.877,1.185,5.424,5.424,0,0,1,.144,1.325,22.912,22.912,0,0,0,.143,2.442,17.868,17.868,0,0,1,.067,2.523,4.237,4.237,0,0,0,.064,1.122,1.724,1.724,0,0,0,.566.839c1.147,1.023,2.789,1.634,3.938,3.07a1.889,1.889,0,0,1,.306.682,2.3,2.3,0,0,1,.01.719,5.8,5.8,0,0,0-.1,1.179,6.26,6.26,0,0,0,.628,2.273,3.356,3.356,0,0,0,1.49,1.759,12.919,12.919,0,0,0,2.379.558,10.763,10.763,0,0,1-2.482-.316,3.5,3.5,0,0,1-1.786-1.8,6.707,6.707,0,0,1-.829-2.428,6.648,6.648,0,0,1,.062-1.288,1.179,1.179,0,0,0-.229-.944,7.451,7.451,0,0,0-1.825-1.457,14.273,14.273,0,0,1-2.087-1.443,2.487,2.487,0,0,1-.784-1.194,4.906,4.906,0,0,1-.1-1.344,17,17,0,0,0-.071-2.423,25,25,0,0,1-.156-2.5A4.861,4.861,0,0,0,125.42,16a1.347,1.347,0,0,0-.57-.758,9.247,9.247,0,0,0-2.159-.942,10.421,10.421,0,0,1-2.367-.969,2.888,2.888,0,0,1-.99-.982,11,11,0,0,1-.46-1.171c-.258-.553-1.117-.758-1.887-.889a16.24,16.24,0,0,0-2.417-.214c-.081,0-.165.006-.245.008a6.353,6.353,0,0,1,2.034,2.949c.435,1.1.73,2.218,1.047,3.3a9.235,9.235,0,0,0,.535,1.5,1.107,1.107,0,0,0,.338.427,2.544,2.544,0,0,0,.63.218,12.1,12.1,0,0,1,3.3,1.31,8.089,8.089,0,0,1,1.508,1.056,2.5,2.5,0,0,1,.631.888,2.269,2.269,0,0,1,.12,1.109c-.1.651-.274,1.159-.379,1.7a10,10,0,0,0-.2,1.612c-.017.535-.015,1.129-.006,1.678s.027,1.154.285,1.317a11.986,11.986,0,0,0,1.5.59,13.316,13.316,0,0,1,1.575.737,3.921,3.921,0,0,1,1.341,1.163,3.648,3.648,0,0,1,.6,1.647c.081.575.067,1.147.171,1.7a1.525,1.525,0,0,0,1,1.248A1.58,1.58,0,0,1,129.25,35c-.144-.562-.165-1.137-.282-1.683a3.32,3.32,0,0,0-.647-1.49,3.537,3.537,0,0,0-1.279-.971,12.462,12.462,0,0,0-1.558-.6c-.265-.082-.533-.155-.809-.228a3.261,3.261,0,0,1-.89-.329,1.407,1.407,0,0,1-.57-.933,7.071,7.071,0,0,1-.125-.894c-.048-.586-.09-1.131-.112-1.731a10.5,10.5,0,0,1,.11-1.778c.08-.583.23-1.17.272-1.647a1.076,1.076,0,0,0-.43-1.043,7.1,7.1,0,0,0-1.3-.863,11.446,11.446,0,0,0-3.012-1.214,3.3,3.3,0,0,1-.963-.37,2.208,2.208,0,0,1-.737-.871,10.355,10.355,0,0,1-.606-1.709c-.315-1.1-.592-2.188-.99-3.21a5.2,5.2,0,0,0-1.694-2.516,3.291,3.291,0,0,0-1.025-.437.772.772,0,0,0-.106.1l-.427-.127a.755.755,0,0,1,.044-.073,11.832,11.832,0,0,0-1.451-.035c-1.169,0-2.309-.111-3.424-.146a5.341,5.341,0,0,0-3.012.483,1.583,1.583,0,0,0-.626,1.148,3.1,3.1,0,0,1-.213.946,1.737,1.737,0,0,1-.738.813,4.245,4.245,0,0,1-1.832.4,12.337,12.337,0,0,0-1.645.137,1.909,1.909,0,0,0-1.234.673,2.636,2.636,0,0,0-.416,1.424v.01a.314.314,0,0,1-.118.231,14.376,14.376,0,0,0-1.269,1.125,10.024,10.024,0,0,0-1.081,1.292,7.5,7.5,0,0,0-.8,1.467,5.77,5.77,0,0,0-.242.789c.5-.289,1-.575,1.507-.852a11.583,11.583,0,0,1,1.922-.883,6.667,6.667,0,0,1,4.316-.077,7.753,7.753,0,0,1,3.446,2.534,13,13,0,0,1,2.07,3.661.318.318,0,0,1,.016.067l0,.011a3.073,3.073,0,0,0,.443,1.264,1.392,1.392,0,0,0,1.032.541,20.016,20.016,0,0,0,3.052-.116,12.315,12.315,0,0,1,3.259.1,2.207,2.207,0,0,1,1.49,1.035,3.5,3.5,0,0,1,.314,1.7c-.029,1.081-.151,2.105-.1,3.13a4.257,4.257,0,0,0,.941,2.777,6.94,6.94,0,0,0,2.559,1.652,7.688,7.688,0,0,1,2.743,1.563l-.072.061a7.927,7.927,0,0,0-2.772-1.372,7.272,7.272,0,0,1-2.763-1.625,3.968,3.968,0,0,1-.867-1.412,6.948,6.948,0,0,1-.318-1.6c-.1-1.075,0-2.153,0-3.168a2.909,2.909,0,0,0-.27-1.363,1.479,1.479,0,0,0-1.053-.654,11.755,11.755,0,0,0-3.023,0,18.537,18.537,0,0,1-3.232.2,2.337,2.337,0,0,1-1.669-.894,3.836,3.836,0,0,1-.622-1.6c-.936-2.338-2.59-4.7-4.938-5.493a5.6,5.6,0,0,0-3.628.122,24.863,24.863,0,0,0-3.5,1.794c-2.24,1.382-4.793,2.7-5.134,5.3-.141.645-.309,1.333-.424,1.95-.118.641-.189,1.306-.284,1.984a8.617,8.617,0,0,1-1.377,4.028,8.181,8.181,0,0,1-3.389,2.6,25.782,25.782,0,0,1-3.906,1.28,4.491,4.491,0,0,0-1.635.78,3.021,3.021,0,0,0-.888,1.482,16.4,16.4,0,0,0-.387,3.9c-.048,2.685-.028,5.389-.117,8.1-.045,1.353-.117,2.71-.285,4.063A14.91,14.91,0,0,1,76.1,59.73a4.922,4.922,0,0,1-.7,1.6A8.261,8.261,0,0,0,76.857,59.3c1.537-2.872,1.3-3.763.969-4.995a8.681,8.681,0,0,1-.115-4.557c.514-2.568,2.769-3.62,4.951-4.634,2.576-1.2,5.01-2.331,4.645-5.887-.6-5.835,6.439-12.063,7.162-12.683a4.848,4.848,0,0,1,3.176-2.257,5.817,5.817,0,0,1,3.989.967c1.65.236,1.662,1.474,1.673,2.474a3.134,3.134,0,0,0,2.132,3.456,16.233,16.233,0,0,0,2.948,1.033,2.777,2.777,0,0,1,1.775,1.137,10.567,10.567,0,0,1,.935,1.258,10.024,10.024,0,0,0,6.752,4.859l-.2.878a10.928,10.928,0,0,1-7.3-5.233,10.143,10.143,0,0,0-.849-1.152c-.651-.7-.74-.727-1.33-.872A16.977,16.977,0,0,1,105.081,32a3.987,3.987,0,0,1-2.673-4.267c-.012-1.139-.061-1.5-.991-1.605a.457.457,0,0,1-.216-.087,5.061,5.061,0,0,0-3.4-.872,4.016,4.016,0,0,0-2.619,1.918.553.553,0,0,1-.085.1c-.075.061-7.464,6.4-6.9,11.945.431,4.191-2.539,5.574-5.161,6.793-2.069.965-4.024,1.874-4.449,3.994a7.844,7.844,0,0,0,.1,4.15c.354,1.322.659,2.466-1.046,5.652a7.483,7.483,0,0,1-3.627,3.648c-1.3.681-2.412,1.268-3.383,5.319a28.766,28.766,0,0,0-1,6.658,10.85,10.85,0,0,1-2.562,6.622A6.218,6.218,0,0,0,65.536,85.2a20.379,20.379,0,0,0-.6,3.176A4.721,4.721,0,0,1,63.814,91.2a9.707,9.707,0,0,1-3.491,2.417,13.53,13.53,0,0,0-4.3,2.967c3.384.073,6.744.294,10.107.572l-.017.445-6.177.106c-2.058.048-4.117.081-6.155.178-.508.028-1.016.061-1.513.11-.249.021-.5.05-.732.083a3.991,3.991,0,0,0-.482.1c-.011.013-.02.029-.029.038-.053.078-.112.173-.17.274-.117.2-.231.42-.341.643-.224.444-.438.9-.649,1.367L47.9,104.875a33.064,33.064,0,0,1,7.954-1.346,9.025,9.025,0,0,0-2.669-2.975,7.867,7.867,0,0,1,3.6,2.953c.114,0,.229-.008.342-.008l-.022.512a15.469,15.469,0,0,1,1.808,4.407,35.876,35.876,0,0,1,.832,9.914,120.042,120.042,0,0,1-2.59,19.526c-1.31,6.422-3.036,12.743-4.871,19.021-.918,3.141-1.924,6.254-2.967,9.352q-1.332,3.961-2.8,7.876,2.29-.227,4.579-.453c11-1.09,22.032-1.991,32.9-3.742a80.958,80.958,0,0,0,8.033-1.692c.28-.079.558-.161.835-.241.736-6.419,1.188-12.933,1.367-19.419a132.86,132.86,0,0,0-.755-19.63,50.761,50.761,0,0,0-2.053-9.517l-.406-1.137-.469-1.109c-.314-.736-.681-1.506-1.017-2.257-.664-1.526-1.315-3.055-1.891-4.616a45.9,45.9,0,0,1-2.608-9.638,19.172,19.172,0,0,1-.1-5.026,10.1,10.1,0,0,1,.624-2.465c.052-.121.112-.241.168-.359l-.022-.208c.039,0,.082-.008.126-.01a4.179,4.179,0,0,1,1.247-1.528l.232.382a3.381,3.381,0,0,0-.812.981,5.851,5.851,0,0,0,1.987-1.477,18.918,18.918,0,0,0,2.378-3.273,46.4,46.4,0,0,0,3.514-7.632l.067.018q-.024-1.857.031-3.712c.112-3.244.361-6.474.726-9.71l.83.126c-.065-.041-.134-.069-.193-.111a7.636,7.636,0,0,1-2.272-2.5,18.125,18.125,0,0,1-2.13-6.236,35.982,35.982,0,0,1-.45-6.49,17.014,17.014,0,0,1,1.291-6.38l.421.14a32.577,32.577,0,0,0-.562,6.256,36.488,36.488,0,0,0,.462,6.28,17.08,17.08,0,0,0,1.951,5.84,10.228,10.228,0,0,0,4.466,4.052,5.3,5.3,0,0,1-2.737-.71c-.535,3.132-.961,6.3-1.25,9.479q-.166,1.881-.246,3.771l.024.006c-.01.044-.022.088-.03.134-.012.306-.036.611-.042.918a37.455,37.455,0,0,0,.154,4.836,36.129,36.129,0,0,1-.414-4.5,45.428,45.428,0,0,1-2.222,6.831,20.642,20.642,0,0,1-2.131,3.911A9.158,9.158,0,0,1,88.5,94.066a5.316,5.316,0,0,1-2.49,1.193l-.142-1.253a9.906,9.906,0,0,0-.324,1.7,18.3,18.3,0,0,0,.257,4.84,44.9,44.9,0,0,0,2.865,9.354c.615,1.518,1.308,3.007,2.012,4.487.363.743.734,1.449,1.089,2.221l.531,1.157.458,1.181a52.232,52.232,0,0,1,2.394,9.751,134.886,134.886,0,0,1,1.33,19.894c0,6.125-.241,12.224-.733,18.352l.079-.034c1.157-.57,2.351-1.321,3.5-2.042,2.311-1.472,4.558-3.067,6.812-4.664a81.97,81.97,0,0,1,6.976-4.614,14,14,0,0,1,1.97-.909,5.539,5.539,0,0,1,1.122-.28,4.393,4.393,0,0,0,.5-.071c.133-.017.3-.065.463-.1,1.3-.329,2.638-.755,3.975-1.115a44.638,44.638,0,0,1,8.227-1.585,20.3,20.3,0,0,1,4.231.053c1.41.2,2.739.409,4.121.639,1.367.236,2.73.486,4.091.791.678.152,1.357.321,2.033.523a6.987,6.987,0,0,1,2.011.868.279.279,0,0,1,.086.1l0,0a6.059,6.059,0,0,1,.568,2.107,3.616,3.616,0,0,1-.462,2.169,3.567,3.567,0,0,1-1.708,1.4,7.249,7.249,0,0,1-2.08.51.31.31,0,0,1-.07,0,41.645,41.645,0,0,0-8.74-.175l-.019-.178A23.151,23.151,0,0,0,131,161.951a21.552,21.552,0,0,0-3.571,3.422c.027.03.044.07.073.1a24.474,24.474,0,0,0,4.031,3.751,90.491,90.491,0,0,0,9.414,6.018,53.929,53.929,0,0,0,4.938,2.608c1.7.773,3.422,1.51,5.149,2.24q5.182,2.166,10.417,4.221l.01,0,.02.011a1.853,1.853,0,0,1,.712.847,5.594,5.594,0,0,1,.344.972,6.311,6.311,0,0,1,.145,1.958,15.625,15.625,0,0,1,2.021.841,4.689,4.689,0,0,1,.845.636,7.781,7.781,0,0,1,.11-1.967,5,5,0,0,1,.68-1.791,1.479,1.479,0,0,1,.585-.357,2.4,2.4,0,0,0,.122-.967,1.116,1.116,0,0,0-.478-.848l-.249-.151.252-.2a3.839,3.839,0,0,1,2.094-.869c.019-.05.037-.1.056-.148a7.251,7.251,0,0,1,.589-1.1l.243-.38.4.356h0a2.13,2.13,0,0,0,1.82.538l.009.035c.145-.357.29-.71.432-1.068l0-.012.008-.012a2.925,2.925,0,0,1,.349-.4l-.209.029c-.242-1.7.422-2.819,1.141-3.133a.616.616,0,0,1,.729.063,2.994,2.994,0,0,0,2.054.812,6.277,6.277,0,0,1,.213-.894l.256.056a.811.811,0,0,0,.327.441.532.532,0,0,0,.242.118.722.722,0,0,0,.3-.03c.013,0,.024-.012.034-.016a16.33,16.33,0,0,0-.41-4.84,17.036,17.036,0,0,0-1.872-4.558,25.7,25.7,0,0,0-6.985-7.37A46.766,46.766,0,0,0,164,158.064c-.761-.444-1.533-.869-2.313-1.3-.392-.217-.782-.432-1.182-.674a6.335,6.335,0,0,1-.626-.428,2.1,2.1,0,0,1-.189-.176c-.061-.065-.081-.1-.125-.155-.073-.1-.154-.2-.218-.294-.533-.779-.958-1.561-1.4-2.331l-1.329-2.3a26.172,26.172,0,0,0-3.112-4.283,20.317,20.317,0,0,1,3.7,3.881c1.1,1.409,2.034,2.988,3.089,4.306.066.083.135.151.2.225.031.03.075.086.091.1s.029.022.063.045a5.272,5.272,0,0,0,.494.29c.277.147.577.288.872.429-1.408-3.413-2.837-6.819-4.33-10.2-1.713-3.909-3.5-7.785-5.333-11.643s-3.746-7.674-5.731-11.455c-1.909-3.623-3.871-7.23-5.979-10.738-.518.711-1.053,1.409-1.639,2.076a19.811,19.811,0,0,1-2.2,2.091,10.12,10.12,0,0,1-5.758,2.31,20.076,20.076,0,0,1-11.555-3.155,19.1,19.1,0,0,1-4.416-3.938l-.4.44c-1.706-1.647-3.3-3.36-4.849-5.13s-3.035-3.585-4.41-5.489a55.267,55.267,0,0,1-3.8-5.917,31.141,31.141,0,0,1-2.693-6.473,30.862,30.862,0,0,0,2.947,6.327,54.357,54.357,0,0,0,4.015,5.708c1.441,1.83,3,3.563,4.594,5.255,1.042,1.094,2.12,2.156,3.212,3.2a9.081,9.081,0,0,1-1.147-3.286,11.838,11.838,0,0,0,3.051,4.83,18.228,18.228,0,0,0,4.528,3.419,20.353,20.353,0,0,0,10.815,2.428,11.241,11.241,0,0,0,5.077-1.66,16.324,16.324,0,0,0,4.2-3.783,33.915,33.915,0,0,0,3.467-5.376l-.029-.05c.034-.023.062-.052.1-.078a42.654,42.654,0,0,0,2.061-4.635,43.243,43.243,0,0,1-1.476,4.16,24.671,24.671,0,0,0,2.469-2.6l2.972-3.44a41.731,41.731,0,0,1,6.682-6.307,8.475,8.475,0,0,0,2.807-3.195,16.42,16.42,0,0,0,1.423-4.167,26.367,26.367,0,0,0,.528-4.456,35.817,35.817,0,0,0-.054-4.533,27.084,27.084,0,0,1,.29,9.127,14.931,14.931,0,0,1-1.335,4.461,10.823,10.823,0,0,1-1.274,2.011,9.679,9.679,0,0,1-1.757,1.639,45.608,45.608,0,0,0-6.571,6.093l-1.327,1.415c1.188.329,2.4.6,3.615.841,1.419.261,2.841.5,4.271.686a.5.5,0,0,1,.349.223l.014.022,1.318,2.034c2.847.417,5.684.914,8.51,1.547,1.457.328,2.909.7,4.356,1.177a14.562,14.562,0,0,1,2.175.893,8.926,8.926,0,0,1,1.954,1.5,55.45,55.45,0,0,1,5.716,6.985c1.739,2.417,3.388,4.886,5,7.376,3.215,4.988,6.267,10.067,9.2,15.219,2.915,5.14,5.69,10.347,8.2,15.759.67-.138,1.34-.271,2.025-.372a6.823,6.823,0,0,1,2.167-.061,1.958,1.958,0,0,1,1.078.565,2.4,2.4,0,0,1,.541,1.054c.19.745.167,1.4.393,2,.2.615.586,1.058,1.153.941a4.414,4.414,0,0,0,1.683-.918,16.475,16.475,0,0,1,1.794-1.09,5.5,5.5,0,0,1,4.14-.672,3.74,3.74,0,0,1,1.723,1.284c.439.543.836,1.118,1.219,1.692a12.811,12.811,0,0,0,1.2,1.64,2.045,2.045,0,0,0,1.621.723,6.366,6.366,0,0,1,4.167-.841,7.213,7.213,0,0,1,4.078,1.607A3.4,3.4,0,0,1,234,165.722a4.439,4.439,0,0,1-.135.574l-.127.483a3,3,0,0,0,.879,3.291,2.772,2.772,0,0,0,1.655.489,2.686,2.686,0,0,0,.444-.035,3.212,3.212,0,0,0,.48-.086,7.116,7.116,0,0,1,1.136-.167,5.037,5.037,0,0,1,2.386.374,3.51,3.51,0,0,1,1.828,1.828,3.352,3.352,0,0,1-.02,2.651l-.215.467a2.57,2.57,0,0,0-.12.388,1.625,1.625,0,0,0-.024.73c.165.929,1.176,1.878,2.179,2.721a8.658,8.658,0,0,1,3.606,2.963,5.506,5.506,0,0,1,.757,4.828,5.016,5.016,0,0,1-.551,1.125c-.112.175-.245.34-.366.5l-.341.417a7.218,7.218,0,0,0-1.071,1.8,3.46,3.46,0,0,0-.192,1.993,5.818,5.818,0,0,0,.853,1.9,6.092,6.092,0,0,1,2.642,2.6,4.342,4.342,0,0,1,.181,3.955,2.943,2.943,0,0,1-.714.882,2.822,2.822,0,0,1-.477.323c-.187.106-.251.135-.379.214a4.417,4.417,0,0,0-1.164,1.032,4.491,4.491,0,0,0-.735,1.337,2.665,2.665,0,0,0-.137.668.727.727,0,0,0,.009.179.476.476,0,0,0-.112-.151l0,0,.118.17c0,.007,0,.02,0,.025s.011.015.006-.01l.153.22a13.659,13.659,0,0,1,.648,4,6.021,6.021,0,0,1-.364,2.123,2.93,2.93,0,0,1-1.6,1.708,3.1,3.1,0,0,1-1.128.225c-.349.012-.617-.01-.921.022a4.885,4.885,0,0,0-1.155.227c-.417,3.313-.936,6.585-1.614,9.852-.343,1.633-.731,3.259-1.213,4.875-.247.807-.518,1.612-.846,2.409a9.609,9.609,0,0,1-1.274,2.3,27.1,27.1,0,0,1-5.055,5.98,69.23,69.23,0,0,1-6.031,4.913,151.87,151.87,0,0,1-12.989,8.4c-4.447,2.6-8.975,5.044-13.554,7.389q-6.8,3.478-13.755,6.656c-3.07,5.995-6.117,12.006-9.379,17.91-1.647,2.97-3.353,5.912-5.2,8.77a51.126,51.126,0,0,1-6.253,8.073l-.048.052-.075.011-22.194,3.444-.053.008-.053-.017L125.3,299.764l.148-.422,16.98,5.93,22.061-3.424a50.834,50.834,0,0,0,6.061-8c1.808-2.861,3.48-5.807,5.094-8.785,3.22-5.963,6.225-12.041,9.258-18.108l.066-.132.136-.062c4.645-2.16,9.24-4.46,13.781-6.839s9.025-4.869,13.424-7.5a150.141,150.141,0,0,0,12.794-8.456,66.878,66.878,0,0,0,5.859-4.873,25.636,25.636,0,0,0,4.762-5.736l.024-.043.053-.069a14.012,14.012,0,0,0,1.831-4.255c.447-1.555.809-3.151,1.129-4.757.05-.255.094-.515.143-.771a3.723,3.723,0,0,1-.788.549,5.715,5.715,0,0,1-2.393.541,6.224,6.224,0,0,1-2.345-.486,3.754,3.754,0,0,0-1.833-.385,4.564,4.564,0,0,0-1.793.736,17.211,17.211,0,0,0-1.685,1.212,6.963,6.963,0,0,1-1.948,4.511,4.984,4.984,0,0,1-4.916,1.171,4.594,4.594,0,0,1-1.211-.59,2.175,2.175,0,0,0-.948-.4,4.469,4.469,0,0,0-2.167.357c-.749.265-1.5.614-2.365.838a4.28,4.28,0,0,1-1.4.148,2.6,2.6,0,0,1-.526-.1,12.764,12.764,0,0,1-.3,1.319l-.5,1.4c-.17.467-.393.884-.586,1.327s-.412.873-.643,1.3-.437.861-.7,1.271a24.713,24.713,0,0,1-3.484,4.662,18.226,18.226,0,0,1-2.191,1.963,11.575,11.575,0,0,1-2.616,1.549l-.023.011-.044.011q-3.728.9-7.47,1.714c-2.5.535-5,1.071-7.541,1.458-.635.1-1.28.175-1.927.248l-.992.07a5.632,5.632,0,0,1-1.058-.054,12.769,12.769,0,0,1-3.732-1.391c-.405-.2-.8-.412-1.2-.618-.536-.066-5.29-.647-8.121-.8a22.8,22.8,0,0,1-2.691.4,10.52,10.52,0,0,1-1.9-.012l-.491-.064-.426-.069c-.281-.054-.579-.075-.87-.112a68.734,68.734,0,0,0-7.157-.252c-1.2.017-2.4.034-3.587.094-.6.029-1.19.069-1.776.127a6.788,6.788,0,0,0-1.633.306,42.383,42.383,0,0,1-6.842,2.509,10.4,10.4,0,0,1-3.73.322,3.74,3.74,0,0,1-1.849-.729,2.755,2.755,0,0,1-.664-.788,5.62,5.62,0,0,1-.381-.9,4.244,4.244,0,0,1-.124-.52c-2.442.223-4.889.382-7.341.511q-1.907.1-3.827.107c-1.265-.013-2.565,0-3.856-.129-1.283-.109-2.576-.349-3.787-.512a4.475,4.475,0,0,0-.832-.037,1.33,1.33,0,0,0-.212.033.521.521,0,0,0-.07.112,5.18,5.18,0,0,0-.412,1.619c-.258,2.338.284,4.967,2.036,6.4a4.915,4.915,0,0,0,1.46.818,9.242,9.242,0,0,0,1.737.387c1.235.2,2.49.372,3.744.531,2.512.312,5.038.58,7.562.853,2.524.3,5.048.6,7.571.942,1.265.165,2.521.377,3.78.6.628.117,1.256.237,1.882.385a6.1,6.1,0,0,1,1.876.684l-.247.323a6.3,6.3,0,0,0-1.742-.452c-.618-.106-1.246-.187-1.872-.262-.137-.017-.275-.027-.412-.044a20.283,20.283,0,0,1,3.166,2.5,13.339,13.339,0,0,1,2.958,4.125,7.6,7.6,0,0,1,.408,5.228,9.747,9.747,0,0,1-1.1,2.378,20.292,20.292,0,0,1-1.452,2.068,36.148,36.148,0,0,1-7.316,6.693c-1.326.961-2.691,1.881-4,2.8a5.211,5.211,0,0,0-.843.709,7.478,7.478,0,0,0-.5,1.011c-.306.737-.584,1.5-.823,2.267l-.433-.106a19.21,19.21,0,0,1,.624-2.4,7.189,7.189,0,0,1,.5-1.211,5.578,5.578,0,0,1,.94-.952c1.271-1.069,2.594-2,3.85-3.02a42.006,42.006,0,0,0,6.887-6.666,14.084,14.084,0,0,0,2.3-3.973,6.571,6.571,0,0,0-.249-4.335,13.684,13.684,0,0,0-2.48-3.931,25.022,25.022,0,0,0-3.472-3.293c-.778-.075-1.555-.147-2.333-.226l-7.586-.651c-2.532-.241-5.063-.477-7.6-.759-1.267-.145-2.535-.291-3.809-.5a10.5,10.5,0,0,1-1.969-.468,6.211,6.211,0,0,1-1.839-1.055,6.882,6.882,0,0,1-2.155-3.528,10.515,10.515,0,0,1-.265-4.021,8.58,8.58,0,0,1,.266-1.272,12.022,12.022,0,0,1-2.906-.25,11.088,11.088,0,0,1-2.819-.969,7.848,7.848,0,0,1-2.394-1.865,4.773,4.773,0,0,1-1.007-2.826,11.469,11.469,0,0,0,1.593,2.32,9.775,9.775,0,0,0,2.178,1.684,14.53,14.53,0,0,0,2.591,1.135,23.5,23.5,0,0,0,2.764.765,4.862,4.862,0,0,1,.3-.763,1.412,1.412,0,0,1,.557-.6,1.993,1.993,0,0,1,.7-.159,5.508,5.508,0,0,1,1.067.073c1.3.212,2.5.474,3.749.62,1.077.122,2.175.181,3.278.216a17.242,17.242,0,0,1-4.661-1.154,20.9,20.9,0,0,1-4.85-2.655,21.284,21.284,0,0,1-4.018-3.8,20.432,20.432,0,0,1-1.612-2.241c-.485-.78-.882-1.614-1.292-2.428.362.449.7.91,1.038,1.365a25.873,25.873,0,0,1,2.471-3.089c.951-1.024,1.938-2,2.989-2.932.061-.474.121-.946.175-1.418a7.463,7.463,0,0,1,1.057-2.85c.124-.193.274-.366.41-.551a33.077,33.077,0,0,0-8.783,4.533,27.428,27.428,0,0,0-7.236,7.673,24.424,24.424,0,0,0-2.311,4.763c-.272.726-.5,1.465-.706,2.211l.028.033c-.017.012-.031.029-.048.044-.251.936-.46,1.887-.619,2.844a37.865,37.865,0,0,0-.061,10.639,34.087,34.087,0,0,1-.276-10.689c.1-.771.247-1.537.42-2.3a25.389,25.389,0,0,0-4.607,5.644,24.759,24.759,0,0,0-3.045,7.521,14.308,14.308,0,0,0-.369,2.007,14.664,14.664,0,0,0-.22,2.028l-.071,2.044c.015.68.094,1.36.138,2.04a29.48,29.48,0,0,0,.634,4.046c.3,1.331.771,2.621,1.15,3.938-.4-1.307-.9-2.592-1.227-3.922a29.18,29.18,0,0,1-.714-4.047c-.057-.682-.15-1.365-.176-2.051l.031-2.061a14.311,14.311,0,0,1,.183-2.053,14.682,14.682,0,0,1,.332-2.036,25.194,25.194,0,0,1,2.947-7.694,25.633,25.633,0,0,1,5.207-6.437l.05.06a25.287,25.287,0,0,1,2.937-6.82,28.016,28.016,0,0,1,7.334-7.833,31.564,31.564,0,0,1,9.541-4.746,13.9,13.9,0,0,1,1.055-1.117,21.155,21.155,0,0,1,4.128-2.975c.021-.164.036-.326.059-.491l.011-.069.019-.052A12.46,12.46,0,0,1,123,216.6a14.537,14.537,0,0,1,2.669-2.62,17.057,17.057,0,0,1,3.168-1.9,17.483,17.483,0,0,1,3.3-1.183c.047-.983.117-1.965.21-2.94a69.774,69.774,0,0,1-7.124-3.541c-1.983-.7-3.946-1.423-5.921-2.143s-3.958-1.452-5.921-2.228c-1.955-.8-3.913-1.607-5.837-2.508q-2.8-1.332-5.483-2.948a8.038,8.038,0,0,0-2.807-.483,20.444,20.444,0,0,0-3.223.217,48.637,48.637,0,0,0-6.548,1.428c-2.166.63-4.33,1.335-6.419,2.158-2.038.827-4.151,1.864-6.239,2.82q-6.271,2.929-12.6,5.782c-4.214,1.9-8.42,3.824-12.671,5.645l-.025.011a.522.522,0,0,1-.146.044c-.624.121-1.247.229-1.872.341-.054,5.032-.206,10.031-.42,15.037-.006.135-.017.273-.02.408a12.8,12.8,0,0,0-2.136-1.225c.025-4.589-.006-9.184-.118-13.753-3.1.509-6.2.931-9.331,1.216-2.33.22-4.668.368-7.014.467a47.3,47.3,0,0,1-7.129-.184.531.531,0,0,1-.084-.013l-.035-.012c-4.78-1.226-9.531-2.583-14.284-3.8l-.893-.226-.447-.114a2.435,2.435,0,0,1-.385-.13,2.614,2.614,0,0,1-.36-.19,5.454,5.454,0,0,1-1.572-1.752,20.156,20.156,0,0,1-1.649-3.549A60.833,60.833,0,0,1,1.528,197.5a68.749,68.749,0,0,1-1.326-7.4c-.072-.628-.133-1.263-.167-1.908-.02-.323-.031-.648-.033-.983,0-.158.012-.38.022-.568" transform="translate(0 0)" fill="#ed8730"/>
    <path id="Trazado_39713" data-name="Trazado 39713" d="M184.3,242.345a31.427,31.427,0,0,1,6.059.768,11.616,11.616,0,0,1,2.918,1.09,4.249,4.249,0,0,1,2.032,2.355l.063-.007a21.563,21.563,0,0,1,3.949.231l.028,0,.029.011a30.576,30.576,0,0,1,5.5,2.277,12.357,12.357,0,0,1,2.448,1.745,4.341,4.341,0,0,1,1.408,2.6,4.43,4.43,0,0,0-1.664-2.308,12.161,12.161,0,0,0-2.469-1.5,43.853,43.853,0,0,0-5.434-2.053c-1.247-.194-2.528-.322-3.8-.391a17.488,17.488,0,0,0-1.921,0,6.069,6.069,0,0,0-1.893.344,5.094,5.094,0,0,1,1.841-.722c.3-.061.6-.106.894-.143a3.334,3.334,0,0,0-1.371-1.89,9.538,9.538,0,0,0-2.663-1.3,25.459,25.459,0,0,0-5.963-1.061c-1.013-.06-2.029-.086-3.043-.053-.172.01-.347.008-.519.019.172-.011.345-.012.519-.028,1.014-.044,2.03-.029,3.046.017" transform="translate(-19.727 -26.447)" fill="#ed8730"/>
    <path id="Trazado_39714" data-name="Trazado 39714" d="M57.245,110.227l-.02.006c-.007.011,0,0,.02-.006" transform="translate(-6.246 -12.031)" fill="#ed8730"/>
    <path id="Trazado_39715" data-name="Trazado 39715" d="M36.891,229.656c1.73-.329,3.465-.645,5.211-.927,1.737-.31,3.506-.5,5.239-.837a14.507,14.507,0,0,1-2.47,1.028c-.845.285-1.689.559-2.546.8-1.705.5-3.431.911-5.169,1.269a50.574,50.574,0,0,1-5.267.838,19.251,19.251,0,0,1-5.363-.067c1.762-.291,3.461-.71,5.186-1.072s3.445-.719,5.179-1.032" transform="translate(-2.895 -24.874)" fill="#ed8730"/>
  </g>
</svg>
