<svg id="Grupo_16578" data-name="Grupo 16578" xmlns="http://www.w3.org/2000/svg" xmlns:xlink="http://www.w3.org/1999/xlink" width="236.36" height="385.138" viewBox="0 0 236.36 385.138">
  <defs>
    <clipPath id="clip-path">
      <rect id="Rectángulo_4105" data-name="Rectángulo 4105" width="236.36" height="385.138" fill="#415214"/>
    </clipPath>
  </defs>
  <g id="Grupo_16577" data-name="Grupo 16577" clip-path="url(#clip-path)">
    <path id="Trazado_39795" data-name="Trazado 39795" d="M65.9,256.338A162.1,162.1,0,0,0,77.18,270.571c2.012,2.3,4.161,4.481,6.078,6.854a32.951,32.951,0,0,1,5.431,11.189A178.336,178.336,0,0,1,92.765,306.1a56.447,56.447,0,0,1,.7,17.878c-.186,1.626-.437,3.244-.659,4.865a31.108,31.108,0,0,0,1.829-7.87,54.469,54.469,0,0,0-.721-16.825c-1.383-7.027-2.506-14.115-5.308-20.778-.156-.37-.344-.763.015-1.151a.858.858,0,0,1,.336.008,2.634,2.634,0,0,1,.6.356c5.811,4.867,11.581,9.768,16.513,15.576,4.819,5.677,8.609,11.748,8.265,19.867a15.728,15.728,0,0,0,.2-7.221,30.626,30.626,0,0,0-6.321-12.646A76.269,76.269,0,0,0,92.586,283.5c-1.817-1.29-3.542-2.715-5.265-4.132-1.062-.873-1.033-.994-.37-2.214a34.47,34.47,0,0,1,2.39-3.7c2.414-3.341,5.38-6.218,7.924-9.445a13.119,13.119,0,0,1,4.379-3.453,71.644,71.644,0,0,1,8.342-3.322,3.7,3.7,0,0,0,2.177-.611l.648-.156a3.459,3.459,0,0,0,1.375-.2c3.793-.963,7.6-1.874,11.458-2.535a24.805,24.805,0,0,0,4.972-.871l.78-.084a7.7,7.7,0,0,0,3.8-.28l2.266-.13a60.685,60.685,0,0,0,8.539,0q-1.068-.059-2.135-.089,1.066.03,2.135.089l2.264.135c.554-.017,1.107-.011,1.657.012-.55-.023-1.1-.029-1.657-.012a25.5,25.5,0,0,0,6.582.6l.491.074a2.361,2.361,0,0,0,.621.3c3.523.548,7,1.312,10.451,2.2.275.072.6.274.94.038A29.982,29.982,0,0,0,158.7,253l-.6-.119a1.084,1.084,0,0,0-.843-.2,44.6,44.6,0,0,0-6.584-1.156c-14.155-1.923-27.874-.056-41.266,4.71a54.8,54.8,0,0,0-7.248,3.2c-.3.161-.678.318-.938-.068a.723.723,0,0,1,.1-.822c.875-1.292,1.637-2.708,3.6-3.165-1.589-1.046-1.211-2.319-.732-3.553.509-1.313,1.135-2.579,1.67-3.882a13.242,13.242,0,0,0,1.255-5.384,20.287,20.287,0,0,0-1.548,2.47,27.593,27.593,0,0,0-2.71,5.91,4.376,4.376,0,0,0,.2,3.743c.406.627.137.936-.362,1.281a17.275,17.275,0,0,0-2.986,2.971c-1.982,2.244-4.022,4.438-6.05,6.641-.226.245-.49.571-.894.366-.306-.156-.268-.486-.244-.775a28.925,28.925,0,0,0-.617-8.052c-.12-.607-.106-1.15.477-1.47.691.057.471,1.181,1.294.986-.255.237-.137.492.009.748.187-.189.373-.378.56-.566a.946.946,0,0,0-.094-.269,1.182,1.182,0,0,0-.26-.816,104.06,104.06,0,0,1,.412-15.207,2.83,2.83,0,0,0-.5-3.5v2.3a32.864,32.864,0,0,0-1.554,13.52,3.258,3.258,0,0,1-1.395,3.18,1.417,1.417,0,0,1-2.262-.373,4.218,4.218,0,0,1-.638-2.685c.015-2.461.1-4.924.017-7.383a14.833,14.833,0,0,1,2.939-8.83,5.462,5.462,0,0,0,1.692-2.675,5.526,5.526,0,0,0-2.058,1.987c-.8.374-.969,1.431-1.972,1.845a6.858,6.858,0,0,0-1.912-3.318c-.947-.844-2.239-1.074-3.467-1.965l9.481-1.84a17.655,17.655,0,0,0,5.477-1.338,27.463,27.463,0,0,0-6.91.983l-1,.05a.535.535,0,0,0-.694.069l-1.466.21-.351.044c-3.38.426-6.761.826-10.136,1.286a145.04,145.04,0,0,1-20,1.719,34.771,34.771,0,0,1-7.019-.515,11.133,11.133,0,0,1-7.242-4.877c-2.571-3.795-4.51-7.939-6.769-11.9-1.858-3.261-3.427-6.686-5.171-10.013a3.871,3.871,0,0,1-.244-2.9,16.5,16.5,0,0,1,2.821-5.828c1.682-2.261,3.39-4.5,5.088-6.752.173-.229.325-.5.74-.421a5.285,5.285,0,0,1-.162,2.231c-.619,2.928-1.236,5.858-1.912,8.774a33.96,33.96,0,0,0-.9,10.137c.071.994.3,1.977.455,2.966-.332-5.247.832-10.215,2.231-15.147a97.871,97.871,0,0,0,2.56-11.69,53.683,53.683,0,0,1,1.324-6.2,20.977,20.977,0,0,1,13.9-14.973,12.482,12.482,0,0,1,9.13.08,1.948,1.948,0,0,0,1.264.277,1.136,1.136,0,0,0-.693-.66,12.5,12.5,0,0,0-9.751-.921c-7.642,2.268-12.842,7.11-15.2,14.812a22.288,22.288,0,0,0-.995,4.1,9.273,9.273,0,0,1-2.472,5.128,90.268,90.268,0,0,0-6.387,7.741c-.1.146-.285.187-.558.085-.071-3.446.67-6.881.785-10.76-2.46,5-2.545,10.038-2.852,15.306a9.845,9.845,0,0,1-1.5-2.363,6.977,6.977,0,0,0-2.036-2.9c.514,1.344.8,2.448,1.721,3.245.108.4.21.791.325,1.183a89.646,89.646,0,0,0,3.951,9.768,95.57,95.57,0,0,0,13.592,23.108c.367.453.667.973,1.261,1.182h0a3.226,3.226,0,0,0,1.3,1.795q.157.193.318.387c1.137,1.84,2.93,3.156,4.29,4.989-1.432.41-2.7-.064-3.841.511a20.212,20.212,0,0,0-7.759,2.134A41.722,41.722,0,0,0,23.3,261.866a52.636,52.636,0,0,0-5.171,13.61c-.151.578-.093,1.284-.794,1.737a11.631,11.631,0,0,1-.558-2.818q-.888-7.514-1.754-15.029c.246-.337.121-.6-.174-.82q-.089-.99-.178-1.979c.21-2.494-.6-4.837-1.071-7.238a34.373,34.373,0,0,0,.644,7.3c.271,5.1.594,10.191,1.063,15.275a80.593,80.593,0,0,0,3.825,18.922,151.155,151.155,0,0,0,9.838,21.793c3.861,7.254,7.638,14.546,11.016,22.045,2.867,6.366,5.5,12.836,8.547,19.124a15.917,15.917,0,0,0,5.627,6.838c3.5,3.308,10.268,4.166,14.166,1.338-.437.118-.879.217-1.307.362a11.891,11.891,0,0,1-9.783-.781,13.511,13.511,0,0,0-2.6-1.4,17.77,17.77,0,0,1-4.755-6.034q-1.963-4.52-3.855-9.068c-4.127-9.909-8.317-19.783-13.422-29.25A234.834,234.834,0,0,1,21.3,292.544a8.606,8.606,0,0,1,.248-7.693c2.251-4.463,4.912-8.675,7.517-12.923a105.866,105.866,0,0,1,6.88-9.337l.342-.374.008,0a14.847,14.847,0,0,0,3.478-3.5,10.115,10.115,0,0,0-3.991,2.98c-.935.35-1.414,1.217-2.052,1.879A58.49,58.49,0,0,0,20.174,285.95c-.1.3-.073.716-.51.8-.065-.021-.151-.025-.162-.056-1.314-3.548-2.507-7.1-.713-10.857a11.371,11.371,0,0,0,.5-1.5,47.2,47.2,0,0,1,17.927-25.183c5.762-4.089,12.062-6.218,19.221-4.974a.484.484,0,0,0,.577.136l.5.213a8.879,8.879,0,0,1,3.019,3.992,12.572,12.572,0,0,0,2.871,4.142c-1.138-2.3-2.279-4.593-3.275-6.959a2.526,2.526,0,0,0-1.6-1.537,7.12,7.12,0,0,0-4.282-1.359,1.807,1.807,0,0,1-.3-.186,34.307,34.307,0,0,1-4.3-5.462c-.457-.649.236-.765.7-.759,3.628.05,7.185-.878,10.817-.783a2.632,2.632,0,0,0,1.529-.275l1.459-.079a5.165,5.165,0,0,0,3.321-.375l.414-.063a5.968,5.968,0,0,1,1.082-.156,5.968,5.968,0,0,0-1.082.156,2.941,2.941,0,0,0,2.176-.156l.79-.118a3.1,3.1,0,0,0,2.269-.365l.795-.1a4.929,4.929,0,0,0,2.669.039l2.027.132a6.96,6.96,0,0,0,3.6.188l1,.248a2.677,2.677,0,0,0,1.728.567l.35.163.36.215a10.724,10.724,0,0,1,1.333,1.347c.664.95,1.28,1.959.643,3.193l-.275.5a9.306,9.306,0,0,0-1.109,4.745c.022,2.582.09,5.162.147,7.743a5.368,5.368,0,0,0,.834,2.835,2.714,2.714,0,0,0,2.946,1.436c1.124-.189,1.186-.135,1.12,1.012-.132,2.284-.245,4.574-.527,6.842a15.8,15.8,0,0,1-1.439,5.775,50.172,50.172,0,0,0-2.912,5.815c-.384.99-.663,1.034-1.306.269-3.023-3.6-6.369-6.9-9.637-10.264a30.268,30.268,0,0,1-5.913-9.281,9.707,9.707,0,0,1-.09-8.023A2.932,2.932,0,0,0,69.854,248a8.361,8.361,0,0,0-2.776,6.111c-.009.761.047,1.522.072,2.283l-.36.341c-.34,0-.441-.51-.892-.4" fill="#415214"/>
    <path id="Trazado_39796" data-name="Trazado 39796" d="M130.1,98.23a2.79,2.79,0,0,0,1.391-.038l10.249.044a5.061,5.061,0,0,0,2.114.1l2.119.242c.806.149,1.608.324,2.417.443a43.981,43.981,0,0,1,12.778,3.681c1.125.54,2.268,1.046,3.483,1.6a1.117,1.117,0,0,0-.646-.724,36.679,36.679,0,0,0-9.783-4.28,22.745,22.745,0,0,0-6.846-1.374l-.609-.061a4.274,4.274,0,0,0-2.858-.384,10.394,10.394,0,0,0-2.432-.358c-7.87-.624-15.738-.148-23.6.113-8.284.275-16.565.226-24.844.047A159.6,159.6,0,0,1,74.759,96.03a87.36,87.36,0,0,1-18.454-4.462A34.5,34.5,0,0,1,44.487,84.4a61.151,61.151,0,0,1-7.1-8.047c-.366-.491-.642-1.107-1.4-1.066a1.079,1.079,0,0,0,.193,1.2,29.173,29.173,0,0,0,1.774,2.622C45.818,88.795,55.334,96.2,67.243,100.3c.53.183,1.149.238,1.466.813l-.015,0c.007.009.015.012.022.021-.56.311-1.146.083-1.72.071-2.38-.047-4.744-.765-7.144-.145a4.335,4.335,0,0,1-1.9.257,4.581,4.581,0,0,0-3.916,1.123,5.308,5.308,0,0,1-2.545,1.041c-1.464.218-3.056.271-3.678,2.049-.1.275-.332.5-.68.265-.992-.676-1.083.169-1.192.765a2.292,2.292,0,0,0,.981,2.463c.521.353,1.091.55,1.4-.306a1.244,1.244,0,0,1,.593-.813A36.694,36.694,0,0,0,53.1,105.8c1.279-.869,2.886-.831,4.237-1.493a9.679,9.679,0,0,1,3.031-.857c1.977-.261,3.953-.542,5.927-.824a11.241,11.241,0,0,0,3.778-1.13c.023-.006.046-.006.069-.013l-.01-.015a9.358,9.358,0,0,1,2.747.573c3.106.914,6.274,1.552,9.448,2.154a157.412,157.412,0,0,0,15.9,2.1,20.84,20.84,0,0,1,8.645,2.154,28.234,28.234,0,0,1,3.987,2.585q6.243,5.028,12.475,10.072c.3.246.7.455.667.932a.529.529,0,0,1-.62.221,34.424,34.424,0,0,0-10.35.351,17.779,17.779,0,0,1-7.2-.138c.548,1.007,1.837.9,2.67,1.773-1.577.429-3.005-.065-4.406.2,2.672,2.426,5.674,1.611,8.6,1.161.186-.758-.84-.6-.545-1.3,1.323-.141,2.672-.169,4.01-.366a72.306,72.306,0,0,1,8.233-.874,2.874,2.874,0,0,1,2.126.645,31.264,31.264,0,0,0,8.355,4.841,140.884,140.884,0,0,0,19.248,6.842,9.714,9.714,0,0,1,5.115,3.191c2.953,3.529,6.917,5.139,11.3,5.925a4.345,4.345,0,0,0,2.2.019,5.661,5.661,0,0,0-1.836-.9,44.35,44.35,0,0,1-8.083-3.9c-.572-.376-1.437-.6-1.357-1.567a.184.184,0,0,0,.027-.015l-.011-.013c1.408.089,2.463,1.168,3.844,1.362a12.025,12.025,0,0,0-4.951-2.723l-.031-.018a.736.736,0,0,0-.63-.29,5.831,5.831,0,0,0-1.589-.735c-4.354-1.576-8.7-3.175-13.062-4.73a68.082,68.082,0,0,1-23.688-13.8,51.984,51.984,0,0,0-10.469-7.932l.443-.713a4.918,4.918,0,0,0,1.232.641,19.343,19.343,0,0,1,5.041,2.019c7.869,4.052,15.693,8.195,23.819,11.726a28.743,28.743,0,0,0,6.915,2.489c-1.833-1.006-3.521-2.273-5.575-2.8-3.112-1.229-5.74-3.326-8.718-4.812-6.088-3.039-11.96-6.515-18.321-9-.275-.107-.545-.228-.5-.651a4.706,4.706,0,0,1,2.235.033c3.487.491,6.986.936,10.445,1.583q8.211,1.533,16.291,3.684a.464.464,0,0,0,.27.061l.15-.123a1.731,1.731,0,0,0,.532-.033,1.731,1.731,0,0,1-.532.033l-.15.123c.6.225,1.2.49,1.815.668a45.472,45.472,0,0,1,11.9,5.2c.476.3.982.554,1.475.83a12.919,12.919,0,0,0-3.826-2.987,36.445,36.445,0,0,0-10.229-4.144.786.786,0,0,0-.264-.081,2.9,2.9,0,0,0-1.851-.6c-2.861-.881-5.788-1.512-8.679-2.275a155.883,155.883,0,0,0-21.275-3.909c-8.623-1.032-17.287-1.7-25.892-2.914-10.946-1.546-21.49-4.352-31.3-9.588-.131-.38.08-.615.353-.822,1.693,1.151,3.755,1.227,5.6,1.922a.866.866,0,0,0,.747.225l.629.168a1.008,1.008,0,0,0,.786.214l.618.147a1,1,0,0,0,.795.206l.623.138a1.022,1.022,0,0,0,.787.211h0l.937.209A1.932,1.932,0,0,0,69.4,96.6a.463.463,0,0,0,.265.057,1.612,1.612,0,0,0,1.155.227l.948.141a7.706,7.706,0,0,0,3.647.611l1.416.238a2.088,2.088,0,0,0,1.406.111,11.258,11.258,0,0,0,2.828.3.581.581,0,0,0,.7.054l2.828.252a4.249,4.249,0,0,0,2.112.1,55.811,55.811,0,0,0,6.359.288,5.118,5.118,0,0,0,2.8.035l12.713,0A4.24,4.24,0,0,0,111.031,99a65.078,65.078,0,0,0,8.117-.295,11.651,11.651,0,0,0,3.521-.135l4.244-.245a.575.575,0,0,0,.7-.029l1.067-.031.7-.018a.664.664,0,0,0-.176-.107.664.664,0,0,1,.176.107l.718-.017m30.967,40.064a.558.558,0,0,0,.214-.018.558.558,0,0,1-.214.018m-52.775-30.559c-.046.055-.092.109-.139.163.047-.054.093-.109.139-.163M53.975,91.871h0c-.045.048-.092.1-.14.143.048-.047.1-.1.14-.143" fill="#415214"/>
    <path id="Trazado_39797" data-name="Trazado 39797" d="M219.584,185.022a2.363,2.363,0,0,0-.646-1.712q-.267-.736-.537-1.473c-.048-.106-.1-.212-.145-.318-.111-.247-.223-.493-.334-.738a.922.922,0,0,0-.348-.711l0-.005a3.041,3.041,0,0,0-.167-.676,32.91,32.91,0,0,0-7.732-9.9c-.2-.178-.469-.368-.852.053.513.53,1.023,1.077,1.555,1.6a30.963,30.963,0,0,1,5.485,7.475A6.231,6.231,0,0,0,217,180.577l.9,2.324c.083.166.167.331.25.5q.579,2.216,1.16,4.428c-.19.364-.03.621.256.841a70.737,70.737,0,0,1,.834,8.682,10.4,10.4,0,0,0-.019,4.228l-.27,4.6a.491.491,0,0,0-.06.687l-.495,4.8a.931.931,0,0,0-.251,1.206q-.078.615-.155,1.231a1.059,1.059,0,0,0-.223,1.242q-.235,1.5-.469,2.992a.675.675,0,0,0-.205.879l-.132.892a.789.789,0,0,0-.27.913q-.093.515-.185,1.03a1.064,1.064,0,0,0-.23,1.085l-.132.674a.525.525,0,0,0-.152.7c-.047.289-.092.577-.138.865a.981.981,0,0,0-.285.935l-.829,3.847a.748.748,0,0,0-.15.74.641.641,0,0,0,.243-.336.641.641,0,0,1-.243.336q-.182.809-.365,1.617l-.17.453c-1.887,7.872-3.255,15.856-5.153,23.729A67.4,67.4,0,0,1,198.8,281.7c-3.728,4.994-6.549,10.561-9.544,16.009-1.345,1.343-2,3.138-3.06,4.672-1.174,1.7-2.223,3.482-3.327,5.229l.307.2a66.651,66.651,0,0,0,6.5-9.672c5.442-9.641,12.431-18.29,17.922-28.071.12.373.206.587.258.81.889,3.709.021,7.235-1.222,10.689-1.709,4.749-4.606,8.839-7.522,12.886a123.291,123.291,0,0,0-10.072,15.693c-2.141,4.18-4.259,8.373-6.227,12.636-3.52,7.626-7.672,14.935-11.246,22.532a81.264,81.264,0,0,0-4.923,12.614,1.415,1.415,0,0,0-.456,1.239c-.432,1.458-.913,2.9-1.289,4.375A50.689,50.689,0,0,0,163.04,377.4a18.254,18.254,0,0,0,1.063,7.738c-.28-2.571-.446-5.145-.59-7.721a55.864,55.864,0,0,1,2.444-13.832,108.6,108.6,0,0,1,4.151-11.406c2.366-5.643,5.294-11,8.15-16.395,4.065-7.682,7.6-15.624,11.472-23.4a74.389,74.389,0,0,1,7.231-12.057A116.207,116.207,0,0,0,205.445,288c3.242-5.64,5.171-11.561,3.42-18.179a6.7,6.7,0,0,1,.119-3.994,132.011,132.011,0,0,0,4.417-16.3c1.506-6.94,2.975-13.89,4.5-20.825a150.19,150.19,0,0,0,3.679-23.813c.383-6.725.058-13.381-2-19.862" fill="#415214"/>
    <path id="Trazado_39798" data-name="Trazado 39798" d="M68.784,160.831c1.966,1.771,3.6,3.874,5.625,5.583.543.459.44.886-.064,1.308-.573.478-1.128.975-1.934,1.673a5.848,5.848,0,0,0,4.445-1.628c.56-.513,1.028-1.125,1.55-1.68.372-.4.738-.352.969.134a6.01,6.01,0,0,0,1.515,2.136,3.226,3.226,0,0,0,5.294-1.755,2.542,2.542,0,0,0-1.283.506,2.956,2.956,0,0,1-3.7-.621,4.841,4.841,0,0,1-1.136-1.334,4.29,4.29,0,0,0-1.184-1.439c-.745.636-1.406,1.216-2.082,1.775-1.209,1-1.282,1-2.127-.283a18.446,18.446,0,0,0-4.47-5.166c-.138-.1-.365-.288-.34-.367.325-1.019-.484-.975-1.039-1.088a15.355,15.355,0,0,1-3.826-1.3,3.766,3.766,0,0,1-1.913-2.2,2,2,0,0,1,.406-2.368c-2.135-.258-2.135-.258-2.823-1.226.492-.565,1.469-.5,1.752-1.339.259.033.5-.116.472-.311-.063-.4-.335-.06-.517-.052-.2-.1-.556-.181-.577-.314-.192-1.141-.752-.752-1.328-.358a1.491,1.491,0,0,0-.8,1.075c-.06.466-.513.364-.849.383-.394-.971-.757-1.956-1.191-2.909-.328-.72.308-.77.7-1.035a5.91,5.91,0,0,0-3.941-1.357,23.88,23.88,0,0,1-5.046-.478,2.409,2.409,0,0,0-1.143-.531,1.185,1.185,0,0,0-.288-.157,1.051,1.051,0,0,0-.774-.524,1.064,1.064,0,0,0-.264-.192l-.373-.357a6.116,6.116,0,0,1-1.683-4.43c0-1.158.043-2.316.067-3.474a.98.98,0,0,0,.243-1.236q.1-.709.211-1.418a.8.8,0,0,1-.149-.557.8.8,0,0,0,.149.557.872.872,0,0,0,.152-1.05q.114-1.233.23-2.467a1.269,1.269,0,0,0,.08-1.4,40.1,40.1,0,0,0,.015-5.28,5.591,5.591,0,0,0-.463-3.3,8.674,8.674,0,0,0-.167,3.345c-.016.225-.031.45-.047.676a1.5,1.5,0,0,0-.186,1.444l-.126,1.043-.7-.183a3.268,3.268,0,0,1-.426-.751,12.923,12.923,0,0,0-3.258-5.711c-.436-.463-.349-.874.266-1.049.819-.234,1.538-.606,1.174-1.566-.3-.794-1.037-.206-1.553-.166a3.132,3.132,0,0,1-3.465-2.16,14.275,14.275,0,0,0-2.418-4.063c-.351-.437-.914-.751-.962-1.529a5.044,5.044,0,0,1,3.312.647,24.962,24.962,0,0,1,6.815,6.041c.172.233.271.7.763.48a2.042,2.042,0,0,0-.3-1.346,10.2,10.2,0,0,0-5.6-5.788,8.525,8.525,0,0,1-4.113-2.891c-.216-.322-.637-.817-.981-.5-.594.545-.89.258-1.276-.162-.407-.442-1-.482-1.5-.7-1.384-.587-2.993-1.1-3.29-2.961-.223-1.39-.439-2.78-.667-4.168A77.521,77.521,0,0,0,25.3,89.16a21.8,21.8,0,0,1-.779-5.005,38.93,38.93,0,0,1,1.3-11.679c.759-2.77,1.653-5.5,2.487-8.252.562-.606.371-1.708,1.241-2.122a1.54,1.54,0,0,1,.638,1.129,33.546,33.546,0,0,0,2.883,8.046,6.425,6.425,0,0,0,1.564,2.487c.173.349.357.88.806.641s.1-.693-.082-1.035a1.211,1.211,0,0,0-.1-.139c-.413-.837-.811-1.682-1.243-2.509-2.934-5.6-4.624-11.468-3.832-17.869a.966.966,0,0,0-.169-.871,17.357,17.357,0,0,0-.529,6.808,3.415,3.415,0,0,1-.745,2.936,3.632,3.632,0,0,0-.937,2.043,12.423,12.423,0,0,1-4.026,5.618.613.613,0,0,0-.113.134,75.582,75.582,0,0,0-5.605,7.888,25.415,25.415,0,0,0-2.607,6.326,40.216,40.216,0,0,0-.923,15.715,16.874,16.874,0,0,0,.41,1.793c-.115-11.4,2.3-21.948,9.479-31.151.138.211.268.322.249.392-.521,1.9-.646,3.949-2.264,5.407a5.644,5.644,0,0,0-1,1.44,25.455,25.455,0,0,0-2.784,7.936,19.794,19.794,0,0,0,.2,8.285A75.964,75.964,0,0,1,22.562,77.6a2.014,2.014,0,0,1,.338,1.711,42.688,42.688,0,0,0,1.2,12.221,13.942,13.942,0,0,1,.607,3.279,27.169,27.169,0,0,0,.627,4.7,8.858,8.858,0,0,0,3.147,5.536,13.626,13.626,0,0,1,2.821,2.607c1.581,2.324,2.957,4.79,4.372,7.224.667,1.148,1.1,2.358.2,3.626a.508.508,0,0,0,.017.651.478.478,0,0,0,.142.085c.444.086.774-.208,1.154-.344,1.478-.529,1.954-.371,2.783.931a9.744,9.744,0,0,1,.758,1.389c1.029,2.429,2.025,4.871,2.905,7.359a6.212,6.212,0,0,1,.226,3.44,25.9,25.9,0,0,0-.67,7.681,7.472,7.472,0,0,0,6.159,6.358,1.377,1.377,0,0,0,1.015.135,8.687,8.687,0,0,0,2.484,0l.695,0a4.171,4.171,0,0,1,3,3.114,4.947,4.947,0,0,0,4.552,4.142c.829.121,1.064.543.957,1.314a4.129,4.129,0,0,0,1.227,3.5.169.169,0,0,1,.13.148,7.748,7.748,0,0,0,2.774,1.081,4.393,4.393,0,0,1,2.606,1.339" fill="#415214"/>
    <path id="Trazado_39799" data-name="Trazado 39799" d="M107.856,340.447a5.34,5.34,0,0,0,.807-.327,95.417,95.417,0,0,0,10.157-6.981q10.875-8.682,21.709-17.413c3.879-3.139,7.833-6.187,11.556-9.518a166.792,166.792,0,0,0,13.528-13.861,11.692,11.692,0,0,1,2.895-2.531q4.836-2.708,9.888-5.013c4.789-2.2,9.732-4.106,14.11-7.122a5.237,5.237,0,0,0,3.107-2.144,12.811,12.811,0,0,0-4.092,1.854l-.028.037-.369.286c-.572-.14-1.006.23-1.473.426q-6.282,2.643-12.547,5.322c-.152-.132-.305-.263-.454-.393.12-.433.5-.639.816-.878q3.441-2.568,6.9-5.117c3.243-2.393,6.509-4.756,9.569-7.385a.133.133,0,0,0,.185-.119l1.611-1.338q.2-.178.394-.356a1.934,1.934,0,0,0,.693-.775h0c.413-.2.943-.313.693-.97.451.265.652-.066.855-.392.167-.028.387,0,.492-.091,1.965-1.772,4.118-3.354,5.657-5.558a70.831,70.831,0,0,0-7.806,5.959c-.163.164-.328.328-.491.493l-.894.561-.085-.022-.021.088c-.185.148-.373.3-.559.442l-.33.243q-6.783,4.873-13.564,9.748c-.5.357-.9.888-1.735.822a2.456,2.456,0,0,1,1.019-1.648c2.941-3.029,5.934-6.008,8.821-9.086,5.6-5.971,10.6-12.375,14.1-19.838a47.167,47.167,0,0,0,3.011-7.106,5.033,5.033,0,0,0,1.219-2.467c.878-2.366,1.695-4.752,2.537-7.131l-.318-.115c-1.259,3.127-2.7,6.179-3.718,9.4-.349.743-.7,1.484-1.044,2.229a77.845,77.845,0,0,1-6.317,11.574,93.588,93.588,0,0,1-12.028,14.228c-8.879,8.64-17.379,17.639-25.675,26.836A114.963,114.963,0,0,1,148.5,307.052c-8.916,7.358-17.9,14.631-26.8,22a137.425,137.425,0,0,1-17.471,12.416c-3.786,2.248-7.709,4.249-11.506,6.474l-.381.244-.346.215-.324.155-.365.179a2.3,2.3,0,0,0-1.153.34c-2.83,1.345-5.67,2.666-8.484,4.043a6.6,6.6,0,0,0-2.342,1.413,2.627,2.627,0,0,0,1.616-.4c2.394-1.043,4.795-2.069,7.171-3.151a13.143,13.143,0,0,0,3.263-1.608,56.571,56.571,0,0,0,6.411-3.175,96.486,96.486,0,0,0,9.719-5.489l.352-.266" fill="#415214"/>
    <path id="Trazado_39800" data-name="Trazado 39800" d="M14.145,59.624a120.587,120.587,0,0,1,6.632-16.672c2.838-5.6,6.264-10.728,11.252-14.706,3.58-2.855,7.125-5.753,10.839-8.435a49.094,49.094,0,0,1,4.915-3.4l.4.294c-.673,1.32-1.978,2.107-2.8,3.306a2.206,2.206,0,0,0-.888,1.145,7.635,7.635,0,0,0-2.085,2.23,51.635,51.635,0,0,0-8.147,11.137,8.183,8.183,0,0,0-1.06,2.4,1.675,1.675,0,0,0,.855-.847A67.405,67.405,0,0,1,38.042,30.1c1.53-2.148,3.469-3.953,5.018-6.081L43.037,24l.023.021c.31-.322.717-.592.607-1.138.143.322.373.178.51.037a2.984,2.984,0,0,0,.864-1.217v0a1.214,1.214,0,0,0,.776-.64l1.018-1.038a1.82,1.82,0,0,0,1.03-1.034q.722-.716,1.446-1.43A.984.984,0,0,0,50,16.88c.4-.348.8-.691,1.19-1.046a48.688,48.688,0,0,1,11.765-8.3A57.259,57.259,0,0,1,90.958,1.774c11.989.655,23.2,3.49,33.089,10.577l6.839,6.624a22.677,22.677,0,0,0-6.413-7.042h-.007l-.372-.332a35.808,35.808,0,0,0-9.671-5.97A63.777,63.777,0,0,0,78.97.675a50.346,50.346,0,0,0-21.215,8.1,79,79,0,0,1-8.515,4.929c-.471.238-.925.51-1.39.76-4.1,2.2-7.7,5.156-11.557,7.728a46.528,46.528,0,0,0-11.63,11.162C18.242,42.046,14.626,52,11.912,62.335c-.038.12-.076.24-.113.359-.789,3.1-1.845,6.146-2.147,9.362l-.183.522Q9.154,74.5,8.84,76.417l.622.039c.466-2.043.956-4.082,1.392-6.132a100.517,100.517,0,0,1,3.291-10.7" fill="#415214"/>
    <path id="Trazado_39801" data-name="Trazado 39801" d="M104.986,151.843l0,.013a.2.2,0,0,0,.026,0Z" fill="#415214"/>
    <path id="Trazado_39802" data-name="Trazado 39802" d="M85.147,150.767a24.455,24.455,0,0,1,7.276-6.565,4.521,4.521,0,0,1,6.528,3.792c.069,1.239-.178,2.458-.229,3.689a7.057,7.057,0,0,1-2.484,5.363,11.887,11.887,0,0,0-4.253,7.871l-.045.055.053-.053c.944-1.123,1.561-2.467,2.512-3.6a53.729,53.729,0,0,1,9.12-8.24c.48-.359,1.231-.467,1.358-1.227a10.741,10.741,0,0,0-2.331.653c-.725.226-1.3,1.031-2.412.643,2.572-4.053,6.334-6.574,10.11-9.114a13.569,13.569,0,0,0-5.537,1.985c-1.762,1.017-3.018,2.618-4.723,4.3-.022-2.26.324-4.158-.986-5.771a8.614,8.614,0,0,0-4.874-2.817,45.25,45.25,0,0,1,5.868-5.77l.37-.283.387-.3.4-.362a.436.436,0,0,0,.206-.13,1.354,1.354,0,0,0,1.175-1.109,4.281,4.281,0,0,0-2.14.85c-.451.08-.868.658-1.475.016a28.285,28.285,0,0,1,12.67-7.726,2.675,2.675,0,0,0-1.853-.205,16.963,16.963,0,0,0-8.5,3.573,31.165,31.165,0,0,0-3.451,3.269,23.943,23.943,0,0,1-5.149,3.992c.971.212,1.678-.5,2.47-.046-.016.168.033.394-.057.488-1.823,1.9-3.233,4.145-5.352,5.806-5.8,4.552-9.532,10.348-10.385,18.218a8.842,8.842,0,0,0,.455-.989,26.842,26.842,0,0,1,5.278-10.257" fill="#415214"/>
    <path id="Trazado_39803" data-name="Trazado 39803" d="M235.606,194.837a53.369,53.369,0,0,0-8.715-21.923c-6.779-9.626-15.236-17.685-24.188-25.253l-.317-.3-.9-.75c.007-.112-.046-.163-.157-.155l-1.435-1.264-.328-.276-.066-.052a.776.776,0,0,0-.58-.445l.006,0a1.658,1.658,0,0,0-1.113-.988l-.554-.465a.558.558,0,0,0-.484-.311l-.43-.277a.931.931,0,0,0-.659-.624l-.79-.761c-.25-.59-.58-1.083-1.31-1.1a22.921,22.921,0,0,1-2.425-2.5,2.251,2.251,0,0,0-.788-1.135c-1.58-1.655-3.045-3.409-4.517-5.16s-2.469-3.839-3.835-5.667c.009-.7-.035-1.411.033-2.107a48.16,48.16,0,0,0-1.238-16.946,23.992,23.992,0,0,0-10.725-14.929c-1.1-.683-2.141-1.448-3.2-2.19a13.635,13.635,0,0,1-4.054-4.567A51.266,51.266,0,0,1,158,71.493a256.663,256.663,0,0,0-8.991-28.162c-.065-.137-.132-.275-.2-.413-.068-.215-.137-.43-.205-.645l-.188-.343c-.106-.246-.211-.492-.318-.738q-.12-.254-.239-.508A21.081,21.081,0,0,0,146,36.614c-.1-.163-.2-.326-.291-.49a.341.341,0,0,0-.077-.21q-.136-.248-.274-.5a.332.332,0,0,0-.079-.211,1.289,1.289,0,0,0-.66-1.111l-.006.01c-.1-.155-.2-.31-.295-.466a.335.335,0,0,0-.17-.181c-.1-.13-.192-.261-.288-.39l-.274-.4a1.254,1.254,0,0,0-.45-.986q-.141-.2-.284-.4l-.311-.418-.308-.381c-1.327-2.41-4-5.152-5.638-5.659,1.935,1.836,3.29,3.957,4.95,5.826q.309.432.62.863.3.531.6,1.061a.135.135,0,0,0,.075.191c.932,1.954,1.98,3.849,2.8,5.86,2.069,5.053,3.695,10.259,5.437,15.425a145.752,145.752,0,0,1,5.789,20.817,30.5,30.5,0,0,0,4.8,11.988c-.118.146-.236.293-.354.437a10.606,10.606,0,0,1-1.211-.177c-10.208-2.628-20.555-2.892-30.983-1.851-3.916.391-7.8,1.051-11.74,1.266-5.339.293-10.667.709-15.985,1.293-6.31.693-12.633,1.23-19,.565a59.4,59.4,0,0,1-7.518-1.207,33.9,33.9,0,0,0,6.538,1.606,77.43,77.43,0,0,0,16.184.457c5.1-.32,10.188-.882,15.3-1.05,3.7-.122,7.4-.283,11.079-.739a115.6,115.6,0,0,1,25.861-.47,50.977,50.977,0,0,1,16.179,4.026,23.451,23.451,0,0,1,11.826,11.114,26.191,26.191,0,0,1,2.517,7.847,37.767,37.767,0,0,1,.434,10.341,67.405,67.405,0,0,1-1.586,7.931,38.371,38.371,0,0,0-3.152,7.343,42.293,42.293,0,0,0,2.387-4.248c.234-.454.364-1.027,1.056-1q-.079,1.184-.16,2.366c-.26.239-.4.5-.13.822a13.661,13.661,0,0,0-.01,2.859.864.864,0,0,0,.133,1.186c.165,7.641,5.81,18.182,11.88,21.113a9.038,9.038,0,0,0-1.034-.939,32.252,32.252,0,0,1-9.344-23.557c.025-2.472.476-4.9.742-7.347.776-.012.855.676,1.138,1.147a43.934,43.934,0,0,0,7.852,9.941,30.838,30.838,0,0,0,4.37,4.471,1.853,1.853,0,0,0,1.012.806c.582.578,1.138,1.183,1.749,1.729a253.28,253.28,0,0,1,20.592,19.95c5.744,6.438,10.756,13.322,13.559,21.605a53.682,53.682,0,0,1,2.781,23.386,40.722,40.722,0,0,1-3.722,12.773,1.063,1.063,0,0,0-.407.744l-.356.63a8.1,8.1,0,0,0-1.378,1.81c-2.792,3.926-6.047,7.325-10.632,9.356a2.765,2.765,0,0,0,1.719-.387,18.067,18.067,0,0,0,5.251-3.5,22.467,22.467,0,0,0,5.632-6.9,30.3,30.3,0,0,0,4.087-9.308,46.642,46.642,0,0,0,.776-20.255m-54.041-68.388a1.764,1.764,0,0,1,.049-.373,1.764,1.764,0,0,0-.049.373" fill="#415214"/>
    <path id="Trazado_39804" data-name="Trazado 39804" d="M10.3,134.848c3.69,3.18,7.769,5.848,11.552,8.9a8.281,8.281,0,0,0,1.573,1.633,20.338,20.338,0,0,1,3.739,4.605,20.038,20.038,0,0,1,2.055,6.467q-.366,1.755-.734,3.51c0,.134-.009.268-.012.4q-.2.813-.409,1.625a1.73,1.73,0,0,0-.549.88,42.769,42.769,0,0,1-7.5,12.2,2.408,2.408,0,0,0-.738,1.131,1.449,1.449,0,0,0,.933-.605,39.837,39.837,0,0,0,6.744-8.931,9.507,9.507,0,0,0,1.5-3.523l.012-.04a.229.229,0,0,0,.1-.276,37.067,37.067,0,0,0,1.939-7.817,33.651,33.651,0,0,0-.419-9.63c-1.627-9.622-5.416-18.4-10.271-26.781-1.616-2.79-3.224-5.585-4.778-8.41a30.675,30.675,0,0,1-3.851-17.954c.146-1.576.322-3.148.484-4.722q.078-.246.157-.492.275-1.342.55-2.683a.634.634,0,0,0,.287-.845q.393-1.33.784-2.662l.267-.493a2.373,2.373,0,0,0,.355-1.358h0c.073-.139.148-.279.222-.418a3.633,3.633,0,0,0,.675-1.572h0l.3-.422a19.569,19.569,0,0,0,1.916-3.145c1.949-3.157,3.958-6.249,6.957-8.562.835-.644,1.906-.935,2.578-1.8a12.208,12.208,0,0,0-5.993,4.023,35.379,35.379,0,0,0-6.069,8.9c-.061.179-.123.357-.183.538-.141.223-.282.448-.422.672l-.287.329a49.671,49.671,0,0,0-3.488,11.048,33.02,33.02,0,0,0,2.7,21.263c1.86,3.738,4.045,7.284,6.1,10.908a81.176,81.176,0,0,1,10.129,27.613.711.711,0,0,0,.13.888q.084,1.64.172,3.278c-.869-.03-.729-.818-.91-1.3a17.352,17.352,0,0,0-5.96-7.87l-.063-.027-.345-.333-.014-.015-.363-.326,0,0-.366-.334h0l-.379-.331c-.75-.654-1.483-1.329-2.255-1.958-2.271-1.851-4.6-3.632-6.833-5.533C3.8,127.486.765,118.468,1.908,107.911c.56-5.169,2.346-10.027,4.072-14.888,2.238-6.3,5.08-12.356,7.592-18.545a4.358,4.358,0,0,0,.508-1.844c.069-.139.139-.277.208-.415.049-.211.1-.422.149-.633q.118-.214.235-.429l.244-.561a2.748,2.748,0,0,0,.752-1.547c.814-2.611,1.619-5.225,2.393-7.848a5.384,5.384,0,0,0,.369-3.108c-.513,1.421-.947,2.553-1.331,3.7-.922,2.758-2.062,5.445-2.743,8.284L9.4,81.31c-.705.346-.64-.16-.6-.567a38.29,38.29,0,0,0,.667-4.288l-.622-.039a58.024,58.024,0,0,0-1.134,8.5c-.974,2.258-2.031,4.485-2.9,6.782C2.678,97.283.566,102.892.116,108.928c-.766,10.26,2.227,19.06,10.186,25.92m19.279,19.657q.006-.248,0-.5.006.248,0,.5" fill="#415214"/>
    <path id="Trazado_39805" data-name="Trazado 39805" d="M68.856,184.722c-1.243,5.148-2.432,10.049-3.608,14.953a42.464,42.464,0,0,1-1.631,5.568c-.708,1.812-.784,1.954-2.673,1.78a15.842,15.842,0,0,0-8.9,2.126,21.85,21.85,0,0,0,3.233-.614,13.115,13.115,0,0,1,5.586-.189c4.533.645,9.041,1.442,13.559,2.18,6.838,1.118,13.715.188,20.576.153.24,0,.515-.061.529-.341a5.783,5.783,0,0,0-.445-2.4,2.029,2.029,0,0,0-1.373-1.478,3.49,3.49,0,0,0-.113,2.3c.293,1.3.207,1.438-1.126,1.329-7.773-.635-15.621-.443-23.3-2.169-1.479-.332-3.03-.337-4.544-.525-.9-.113-1-.332-.563-1.133.281-.514.607-1,.885-1.52a35.991,35.991,0,0,0,3.5-11.752,6.936,6.936,0,0,1,2.071-4.472,5.856,5.856,0,0,0,1.164-1.75c1.089-2.163.932-4.357.121-6.869a24.123,24.123,0,0,0-1,4.206,10.764,10.764,0,0,1-1.549,3.914c-.387-1.09.138-2.122-.4-3.3" fill="#415214"/>
    <path id="Trazado_39806" data-name="Trazado 39806" d="M125.285,153.049a3.988,3.988,0,0,0,1.013-2.5,5.415,5.415,0,0,0-1.524,2.018A14.2,14.2,0,0,1,121,156.2c-4.568,2.809-9.019,5.91-14.619,6.447a6.143,6.143,0,0,0,2.6.349c3.232,0,6.023-1.376,8.79-2.812.8-.415,1.469-1.136,2.534-.457.4.254,1-.174,1.482-.394a16.82,16.82,0,0,0,7.481-6.454c.225-.362.341-.85,1.057-.979.136,4.21.642,8.248,2.607,11.946a3.118,3.118,0,0,0,1.182,1.975,7.85,7.85,0,0,0-1.182-3.75c-.238-1.789-.572-3.571-.7-5.368a63.617,63.617,0,0,1,1.744-19.272h0l.058-.065-.065.06a6.976,6.976,0,0,0-1.446,2.777c-.491,1.805-1.01,3.6-1.417,5.43a18.056,18.056,0,0,1-4.99,8.5c-.275.29-.643.689-1.048.412-.47-.321-.28-.81,0-1.221.067-.1.144-.184.216-.276" fill="#415214"/>
    <path id="Trazado_39807" data-name="Trazado 39807" d="M110.456,77.282c-1.044-.244-1.782-.437-2.529-.589-5.463-1.108-10.947-2.122-16.364-3.447-9.481-2.318-18.834-5-27.4-9.86l-.4-.28a.647.647,0,0,0-.234-.118,1.336,1.336,0,0,0-1.167-.651l-.659-.365a1.248,1.248,0,0,0-.76-.662l0-.007c-2.2-2.331-4.749-4.337-6.619-6.991,1.18,3.175,3.437,5.495,5.961,7.606A36.033,36.033,0,0,0,66.77,66.4a72.836,72.836,0,0,0,15.682,6.191,135.177,135.177,0,0,0,24.38,4.476,12.8,12.8,0,0,0,3.624.214" fill="#415214"/>
    <path id="Trazado_39808" data-name="Trazado 39808" d="M10.761,236.121a.948.948,0,0,0-.2-.774l-.954-4.873-.118-.409a23.341,23.341,0,0,0-1.286-5.453c-1.216-3.478-2.48-6.936-3.445-10.5-1.519-5.617-2.859-11.231-1.928-17.129.107-.673.562-1.309.317-2.035l.178-.427c.053-.218.107-.437.161-.655a1.479,1.479,0,0,0,.533-1.451c.134-.221.271-.442.407-.663,1.455-1.959,3.454-3.481,4.619-5.682A45.24,45.24,0,0,0,5.2,189.342,6.634,6.634,0,0,0,3.449,191.7a24.05,24.05,0,0,0-2.343,12.076,61.688,61.688,0,0,0,3.862,16.7,76.582,76.582,0,0,1,3.2,9.1c.56,2.444,1.186,4.867,1.976,7.247a35.33,35.33,0,0,0,2,7c-.363-2.353-.434-4.752-1.271-7.009q-.051-.351-.1-.7" fill="#415214"/>
    <path id="Trazado_39809" data-name="Trazado 39809" d="M77.983,171.11a4.73,4.73,0,0,0-.722,2.23c-.736,3.7-1.213,7.388-.329,11.153a37.185,37.185,0,0,0,6.759,13.99c1.585,2.1,3.3,4.1,4.71,6.327a9.918,9.918,0,0,0,2.972,3.646,31.765,31.765,0,0,0-2.5-4.482,27.507,27.507,0,0,0-2.983-4.959,53.332,53.332,0,0,1-5.48-9.4,27.405,27.405,0,0,1-2.685-13.656c.116-1.564.167-3.133.256-4.844" fill="#415214"/>
    <path id="Trazado_39810" data-name="Trazado 39810" d="M174.364,255.156a16.693,16.693,0,0,0-4.048-2.067,66.933,66.933,0,0,0-23.865-4.706,19.4,19.4,0,0,0-5.4.33c.983.159,1.554.289,2.131.339,3.745.323,7.464.838,11.16,1.513a89.453,89.453,0,0,1,17.807,4.723,22.617,22.617,0,0,0,3.43,1.285,30.686,30.686,0,0,0,4.177,1.99,7.753,7.753,0,0,0-3.826-2.642,8.454,8.454,0,0,1-1.566-.765" fill="#415214"/>
    <path id="Trazado_39811" data-name="Trazado 39811" d="M131.241,328.881c.863-.394,1.247-1.325,2.03-1.808a.5.5,0,0,0,.45-.3.309.309,0,0,0,.191-.248h0c.229-.185.443-.375.372-.653a.361.361,0,0,0,.314.04c.231.061.358-.054.434-.256l.012-.009c-.157-.163-.315-.325-.472-.487a.705.705,0,0,0-.24.152.481.481,0,0,0-.462.389l-.3.227-.693.391c-.527.17-.809.664-1.248.946-9.168,5.883-17.578,12.873-26.976,18.421a7.8,7.8,0,0,0-3.363,1.844,9.235,9.235,0,0,0,4.057-1.472l.049-.02.46-.227c.2-.1.407-.192.612-.287l.336-.14.368-.169a.519.519,0,0,0,.553-.252c.477-.226.965-.432,1.43-.68a86.8,86.8,0,0,0,10.416-6.6c3.792-2.772,7.685-5.41,11.256-8.474l.415-.333" fill="#415214"/>
    <path id="Trazado_39812" data-name="Trazado 39812" d="M65.058,119.016a34.051,34.051,0,0,0,9.446-6.061,13.414,13.414,0,0,0,3.532-5.725c-2.813,2.462-5.178,5.418-8.5,7.225-3.344,1.817-7.009,2.823-10.965,3.973,1.106.5,1.953.16,2.8.484l-1.048.788a8.22,8.22,0,0,0,4.738-.684" fill="#415214"/>
    <path id="Trazado_39813" data-name="Trazado 39813" d="M139.8,175.253c-4.624-8.639-3.9-17.629-3.092-26.691-4.251,7.03-2.628,21.875,3.092,26.691" fill="#415214"/>
    <path id="Trazado_39814" data-name="Trazado 39814" d="M113.727,158.732a7.159,7.159,0,0,0,2.829-2.5c-3.088,2.005-6.623,2.625-10.091,3.451a50.9,50.9,0,0,0-8.522,2.787A16.9,16.9,0,0,0,92.32,166.1a2.2,2.2,0,0,0,.494-.1,74.037,74.037,0,0,1,12.476-4.258,36.721,36.721,0,0,0,8.437-3.01" fill="#415214"/>
    <path id="Trazado_39815" data-name="Trazado 39815" d="M145.79,320.9h0a.421.421,0,0,0,.225-.146,8.735,8.735,0,0,0,2.441-2.124,5.018,5.018,0,0,0-2.923,1.642.278.278,0,0,0-.147.171,3.651,3.651,0,0,0-1.218.676c-1.529,1.271-3.108,2.486-4.6,3.8a76.513,76.513,0,0,1-9.955,7.756,21.6,21.6,0,0,0-4.221,3.071q.282.294.565.587a.636.636,0,0,0,.245-.246l.621-.27a2.318,2.318,0,0,1,.517-.465A41.1,41.1,0,0,0,140.6,326.1c1.678-1.779,3.46-3.462,5.195-5.19" fill="#415214"/>
    <path id="Trazado_39816" data-name="Trazado 39816" d="M149.9,320.119a27.207,27.207,0,0,0-7.21,6.127A4.063,4.063,0,0,0,141,328.872a6.736,6.736,0,0,0,2.253-2.045.763.763,0,0,0,.231-.18l.347-.287.027-.021.368-.306.006,0q.2-.162.4-.326a.966.966,0,0,0,.267-.18l.324-.237c.531-.355,1.074-.7,1.592-1.069,3.666-2.65,7.741-4.712,11.145-7.739,1.634-.836,1.863-1.049,2.354-2.254a14.591,14.591,0,0,0-3.361,1.936,80.421,80.421,0,0,0-7.053,3.96" fill="#415214"/>
    <path id="Trazado_39817" data-name="Trazado 39817" d="M116.676,181.542c-.091-.221-.164-.542-.374-.546-.966-.025-.984-.826-1.284-1.427-.731-1.466-1.612-2.791-3.444-3.164,2.283,3.424,2.783,7.567,4.659,11.176a8.256,8.256,0,0,0,2.156-4.872c-1.23-.008-1.236-.005-1.713-1.167" fill="#415214"/>
    <path id="Trazado_39818" data-name="Trazado 39818" d="M42.965,266.063l.378-.307.021-.006a3.272,3.272,0,0,0,1.892-1.579,4.505,4.505,0,0,0-2.659,1.174l-.005.005a.922.922,0,0,0-.7.361.873.873,0,0,0-.3.154.922.922,0,0,0-.8.523,1.231,1.231,0,0,0-.289.189l-.326.216-1.08.817-.321.245c-3.874,2.721-7.419,7.931-7.477,11.158a30.9,30.9,0,0,1,3.56-4.944,94.639,94.639,0,0,1,8.1-8.006" fill="#415214"/>
    <path id="Trazado_39819" data-name="Trazado 39819" d="M167.548,149.079a22.712,22.712,0,0,1,7.574,11.584,1.532,1.532,0,0,0,.582,1.1,10.706,10.706,0,0,0-1.044-6.5c-1.517-3.039-3.4-5.747-6.827-6.915-.222-.227-.332-.591-.734-.6l-.071-.044-.622.3a4.7,4.7,0,0,0,1.142,1.068" fill="#415214"/>
    <path id="Trazado_39820" data-name="Trazado 39820" d="M88.544,159.682a3.461,3.461,0,0,0-1.266,1.2c-.476.766-1.034,1.523-.533,2.583a5.18,5.18,0,0,1,3.057-2.974,4.992,4.992,0,0,0,.749-.459,5.685,5.685,0,0,0,1.22-6.865,3.091,3.091,0,0,0-3.023-1.391,2.281,2.281,0,0,0-1.782,2.065.362.362,0,0,0,.526-.115c.53-.589,1.076-1.124,1.966-.7a2.088,2.088,0,0,1,1.226,1.978c.052,1.9-.261,3.636-2.14,4.672" fill="#415214"/>
    <path id="Trazado_39821" data-name="Trazado 39821" d="M86.049,315.939a5.246,5.246,0,0,0-1.021,2.707c-.8,3.871-.936,7.891-2.873,11.744a2.988,2.988,0,0,0,1.639-1.348c2.908-4,2.42-8.574,2.255-13.1" fill="#415214"/>
    <path id="Trazado_39822" data-name="Trazado 39822" d="M76.079,150a30.627,30.627,0,0,1-7.029,1.416,7.385,7.385,0,0,0-3.677,1.071c1.412.08,2.614.1,3.806.224a13.813,13.813,0,0,0,8.253-1.805,4.371,4.371,0,0,0,2.291-2.71,12.949,12.949,0,0,1-3.644,1.8" fill="#415214"/>
    <path id="Trazado_39823" data-name="Trazado 39823" d="M175.807,146.995c-4.236-1.246-8.538-2.041-13.112-2.948a8.221,8.221,0,0,0,3.21,2.126c-.481.789-.39,1.423.5,1.838l.622-.3a3.76,3.76,0,0,1-1.105-1.517,22.7,22.7,0,0,0,7.245,1.336,5.277,5.277,0,0,0,2.638-.537" fill="#415214"/>
    <path id="Trazado_39824" data-name="Trazado 39824" d="M35.89,276.556a72.748,72.748,0,0,0,10.9-8.209c-4.769,1.224-8.167,4.276-10.9,8.209" fill="#415214"/>
    <path id="Trazado_39825" data-name="Trazado 39825" d="M63.544,142.562c2.833.188,5.66-2.29,5.74-4.776a4.048,4.048,0,0,0-4.415-3.969c.268.208.5.383.724.565,2.395,1.939,2.545,3.785.5,6.131a9.977,9.977,0,0,1-2.546,2.049" fill="#415214"/>
    <path id="Trazado_39826" data-name="Trazado 39826" d="M93.674,155.212a10.823,10.823,0,0,1,.848-3.115,7.408,7.408,0,0,0,.717-2.34,3.34,3.34,0,0,0-1.155-3.149,2.38,2.38,0,0,0-3.754.848c.29-.06.507-.122.729-.147,1.815-.208,2.488.388,2.421,2.23-.026.694-.221,1.381-.311,2.075a4.655,4.655,0,0,0,.505,3.6" fill="#415214"/>
    <path id="Trazado_39827" data-name="Trazado 39827" d="M26.728,63.054l-.008.008.015-.005Z" fill="#415214"/>
    <path id="Trazado_39828" data-name="Trazado 39828" d="M109.262,190.171c-3.421-1.616-4.021-5.2-5.821-8.1-.8,4.684,2.337,9.038,5.821,8.1" fill="#415214"/>
    <path id="Trazado_39829" data-name="Trazado 39829" d="M81.241,319.743c-.932,2.647-1.286,5.286-2,8.148a6.406,6.406,0,0,0,2-8.148" fill="#415214"/>
    <path id="Trazado_39830" data-name="Trazado 39830" d="M68.356,361.946a.169.169,0,0,0-.026.018l.033-.009Z" fill="#415214"/>
    <path id="Trazado_39831" data-name="Trazado 39831" d="M79.307,354.552l.017-.017c-.015,0-.028,0-.042-.006Z" fill="#415214"/>
    <path id="Trazado_39832" data-name="Trazado 39832" d="M57.482,141.843c-.974.259-1.482.891-1.33,1.567.146.65.92.983,1.9.81a1.121,1.121,0,0,0,.5-.145,19.755,19.755,0,0,1,2.786-1.5,5.463,5.463,0,0,0-3.851-.729" fill="#415214"/>
    <path id="Trazado_39833" data-name="Trazado 39833" d="M93.993,202.932a3.844,3.844,0,0,0,3.756,4.195,8.043,8.043,0,0,0-3.756-4.195" fill="#415214"/>
    <path id="Trazado_39834" data-name="Trazado 39834" d="M76.109,155.38c-.894.906-1.987,1.579-2.87,2.5a6.327,6.327,0,0,0,5.54-5.346,27.685,27.685,0,0,0-2.67,2.843" fill="#415214"/>
    <path id="Trazado_39835" data-name="Trazado 39835" d="M204.516,260.084l-.005.005.005,0Z" fill="#415214"/>
    <path id="Trazado_39836" data-name="Trazado 39836" d="M102.506,199.8c-.4,2.366,1.007,3.515,4.184,3.621-.783-1.945-2.939-2.04-4.184-3.621" fill="#415214"/>
    <path id="Trazado_39837" data-name="Trazado 39837" d="M187.984,182.365a17.8,17.8,0,0,0-8.53,1.556h0a2.753,2.753,0,0,0-1.84.658.557.557,0,0,0-.252.1l-.485.24a.381.381,0,0,0-.227.072,1.012,1.012,0,0,0-.775.311.8.8,0,0,0-.272.11,1.716,1.716,0,0,0-1.4.656l-.023.01a.927.927,0,0,0-.7.334.975.975,0,0,0-.313.142,1.322,1.322,0,0,0-1.094.567l-1.067.529a.436.436,0,0,0-.515.25.467.467,0,0,0-.177.1c-.116.061-.231.123-.345.185l-.4.266c-.166.1-.332.192-.5.287a.246.246,0,0,0-.2.058,1.775,1.775,0,0,0-1.416.75v.006c-.159.09-.319.179-.481.269l-.911.424-.494.291c-1.614.832-3.254,1.621-4.84,2.506a88.279,88.279,0,0,0-18.153,12.917c-4.328,4.121-8.813,8.091-12.683,12.672-.722.855-.826.829-1.5-.128a3.992,3.992,0,0,0-.406-.573c-.595-.59-.455-1,.119-1.594a3.8,3.8,0,0,0,.446-4.7,6.441,6.441,0,0,0-2.485-2.43c-.332-.179-.823-.232-.8-.862,1.757-1.182,3.858-1.919,5.384-3.517.423-.483.877-.944,1.263-1.456-.386.512-.84.973-1.265,1.459.1.856-.358,1.639-.341,2.5a41.808,41.808,0,0,0,2.9-4.4l.03-.022a6,6,0,0,0,2.167-2.73l.273-.522h0l.255-.337a20.758,20.758,0,0,0,2.691-3.446c6.824-8.76,15.63-15,25.328-20.109,4.726-2.489,9.84-4.057,14.827-5.922a.394.394,0,0,0,.526-.2l.513-.166a28.722,28.722,0,0,0,6.49-2.413c-2.455.571-4.986.833-7.277,2l-.6.124a1.661,1.661,0,0,0-1.08.292c-1.629.475-3.269.923-4.888,1.431a56.45,56.45,0,0,0-14.142,6.153c-2.552,1.66-5.172,3.214-7.763,4.816-.989-.522-1.511-1.589-2.489-2.126-4.914-7.948-7.537-16.792-10.082-25.626a31.129,31.129,0,0,0,.017,3.23c.509,4.885,2.22,9.443,3.974,13.977a24.572,24.572,0,0,0,3.076,5.9l.224.3a11.57,11.57,0,0,0,2.431,2.913,5.574,5.574,0,0,0,1.375,1.234.924.924,0,0,1,.386,1.168h.006a.481.481,0,0,0-.372.336v0l-.368.334v0l-.442.313c-.55.433-1.127.834-1.642,1.305a72.577,72.577,0,0,0-8.457,9.333A17.126,17.126,0,0,0,135.4,198.9h0c-.08.1-.159.2-.241.3l-.127.068a2.824,2.824,0,0,0-.5.449c-1.17,1.66-1.163,1.66-2.547.3a1.974,1.974,0,0,0-.45-.249l0,.006-.388-.325-.959-.426c-.664-.695-2.208-.13-2.341-1.636-.009-.1-.515-.206-.794-.216a3.665,3.665,0,0,0-2.5.586l-.478.2a.207.207,0,0,0-.271.117c-.113.074-.226.146-.341.22-.18-.029-.362.014-.4.195-.043.2.132.266.307.286a4.936,4.936,0,0,0,.785.351c2.25.574,4.5,1.132,6.757,1.695l.1.11.142-.051.659.261c.754.657.171,1.074-.271,1.515a24.8,24.8,0,0,0-4.481,2.77,1.984,1.984,0,0,1-2.553.066,14.833,14.833,0,0,1-2.468-2.244,2.717,2.717,0,0,0-1.658-1.137c.567,2.095,1.191,3.871,3.258,4.679.326.127.7.274.617.716a.936.936,0,0,1-.858.767,6.291,6.291,0,0,1-.873-.053,31.459,31.459,0,0,1-6.205-1.242c-.7-.164-.834-.51-.555-1.138,1.022-2.3,1.836-4.707,3.41-6.729l-.015.009a2.271,2.271,0,0,0-1.522.8,12.25,12.25,0,0,0-2.522,3.365c-1.729,3.519-2.186,3.726-6.038,2.894-.662-.143-1.345-.363-2.012.29.861.488,1.96.368,2.442,1.342a2.79,2.79,0,0,1-1.75.734c-1.842.372-3.7.675-5.536,1.071-.945.2-1.718.257-2.154-.84a1.747,1.747,0,0,0-.778-.679c-.488-.281-.84-.091-.8.467.051.673.223,1.336.351,2.051a6.721,6.721,0,0,0,1.034.053c4.206-.4,8.451-.5,12.557-1.666a6.524,6.524,0,0,1,3.475-.307,44.683,44.683,0,0,0,7.816,1.28,5.223,5.223,0,0,1,3.88,2.168,3.275,3.275,0,0,1,.432,3.487c-.489,1.094-1.064,1.249-2.05.511-.8-.6-1.553-1.269-2.582-2.119a7.245,7.245,0,0,0,2.257,3.88,6.225,6.225,0,0,1,1.609,2.488,3,3,0,0,1-.219,2.549c-.567.93-1.088,1.062-2.013.472-.877-.559-1.728-1.154-2.7-1.808a1.238,1.238,0,0,0,.349,1.123c.59.731,1.206,1.441,1.8,2.169a3.24,3.24,0,0,1,.294,4.2c-.211.352-.463.679-.7,1.017a.82.82,0,0,0-.551.437l-.571.159a3.533,3.533,0,0,0-2.762-1.866,20.762,20.762,0,0,1,2.181,2.624c.006,2.31-.538,2.825-2.786,2.592a7.142,7.142,0,0,1-1.375-.267c-1.4-.436-2.783-.9-4.17-1.364a40.041,40.041,0,0,0-8.134-2.128l-.519-.149-1.28-.129a4.026,4.026,0,0,0-3.47-.154,4.97,4.97,0,0,0,2.32.569c3.808,1.155,7.555,2.481,11.291,3.851A2.423,2.423,0,0,1,116,236.594a6.588,6.588,0,0,1-.1,1.745,17.9,17.9,0,0,1-2.555,6.673c-1.363,2.182-2.751,4.349-4.128,6.522l-.339.406h-.015a11.657,11.657,0,0,0-1.948,2.6,3.528,3.528,0,0,0,2.368-1.843,25,25,0,0,0,6.324-8.325,11.617,11.617,0,0,0,1.087-8.025c-.109-.477-.192-.937.387-1.186l.141.073.159,0,.729.174a3.783,3.783,0,0,0,2.733.13c1.857-.431,2.89-1.483,2.609-3.5-.117-.831.578-.911,1.06-1.179,2.325-1.291,3.087-3.058,2.291-5.58-.2-.623-.181-.957.439-1.255a2.726,2.726,0,0,0,1.62-2.173,4.276,4.276,0,0,1,1.535-2.672,69.132,69.132,0,0,1,11.107-8.631,129.638,129.638,0,0,1,12.421-6.643c1.056-.534,2.1-1.091,3.148-1.637-4.109.823-7.875,2.545-11.963,4.093,1.621-3.328,22.3-16.13,35.063-21.937,2.659-.477,5.127-1.644,7.808-2.06" fill="#415214"/>
    <path id="Trazado_39838" data-name="Trazado 39838" d="M72.236,58.835l.027.01-.017-.018Z" fill="#415214"/>
    <path id="Trazado_39839" data-name="Trazado 39839" d="M195.515,176.887a18.6,18.6,0,0,0-7.267.687l-.668.124a2.006,2.006,0,0,0-1.415.256l-1.082.266-.345.074c-.8.168-1.615.292-2.4.511a80.11,80.11,0,0,0-13.286,5,91.49,91.49,0,0,0-17.529,10.6l-.336.4-.01-.01a1.079,1.079,0,0,0-.668.409l-.978.8a22.4,22.4,0,0,0-4.565,4.844,58.231,58.231,0,0,0,5.127-4.248,25.771,25.771,0,0,1,3.324-2.233,151.565,151.565,0,0,1,25.04-12.789,83.34,83.34,0,0,1,13.99-4.061,7.028,7.028,0,0,0,3.07-.631" fill="#415214"/>
    <path id="Trazado_39840" data-name="Trazado 39840" d="M161.543,185.36A6.561,6.561,0,0,0,165.6,183.9l.109-.13.715-.156a71.88,71.88,0,0,1,8.561-3.665c4.125-1.357,8.247-2.728,12.343-4.169a17.453,17.453,0,0,0,4.232-1.722c-.7.077-1.226.116-1.746.2s-1.038.2-1.552.315c-8.313,1.874-16.6,3.832-23.677,8.955a12.281,12.281,0,0,0-3.04,1.838" fill="#415214"/>
    <path id="Trazado_39841" data-name="Trazado 39841" d="M137.966,322.576a12.988,12.988,0,0,0-3.4,2.586l.472.487a7.888,7.888,0,0,0,2.923-3.073" fill="#415214"/>
    <path id="Trazado_39842" data-name="Trazado 39842" d="M97.441,259.12a1.742,1.742,0,0,0,.061-1.2q.063-.508.124-1.015a.83.83,0,0,0,.209-.744c.62-1.579,1.262-3.15,1.855-4.739a38.57,38.57,0,0,0,2-7.084,20.957,20.957,0,0,0,.114-4.163c-.307.424-.413.508-.435.61-.857,3.841-2.468,7.435-3.66,11.164a13.337,13.337,0,0,0-.937,6.018c-1.212.409-1.767-.616-2.542-1.161l-.56.567c.742,1.826,2.609.916,3.766,1.742" fill="#415214"/>
    <path id="Trazado_39843" data-name="Trazado 39843" d="M84.718,78.219a14.348,14.348,0,0,0-4.058-1.01l-.022-.012c-.2-.255-.416-.212-.644-.044a101.927,101.927,0,0,1-12.072-4.51A49.727,49.727,0,0,1,50.255,60.086,51.445,51.445,0,0,1,42.862,48.98a1.267,1.267,0,0,0-.6-1.094,1.437,1.437,0,0,0-.252-.159c-.036-.014-.138.034-.144.067a4.257,4.257,0,0,0,.513,2.532A42.852,42.852,0,0,0,51.86,64.153c7.952,7.648,17.7,11.608,28.4,13.5a9.166,9.166,0,0,0,4.453.563" fill="#415214"/>
    <path id="Trazado_39844" data-name="Trazado 39844" d="M198.491,162.65c.8.146,1.5.8,2.426.465a5.6,5.6,0,0,0-3.074-1.4,13.365,13.365,0,0,0-6.209-1.666,20.368,20.368,0,0,0-11.567,3.14c-2.22,1.321-4.51,2.525-6.775,3.77-.339.185-.675.5-1.257.17a15.374,15.374,0,0,0,.282-7.223,14.18,14.18,0,0,0-3.326-6.493c.366,1.326.7,2.505,1.018,3.689,1.179,4.407,1.707,8.78-.685,13-.046.081,0,.217.022.579,2.083-2.38,4.922-3.06,7.55-4.158.866-.362,1.7-.8,2.547-1.21,1.534-.74,3.032-1.569,4.608-2.209a19.242,19.242,0,0,1,12.07-1.045c.79.2,1.571.442,2.37.587" fill="#415214"/>
    <path id="Trazado_39845" data-name="Trazado 39845" d="M123.1,338.755l2.862-2.411c-.188-.2-.377-.392-.564-.588a4.542,4.542,0,0,0-2.3,3" fill="#415214"/>
    <path id="Trazado_39846" data-name="Trazado 39846" d="M86.722,332.36c.473-.939.925-1.889,1.421-2.815a22.089,22.089,0,0,0,2.5-12.908c-.318-3.182-1.14-6.308-1.008-9.9a6.738,6.738,0,0,0-.758,3.182,31.8,31.8,0,0,0,.087,3.87,35.774,35.774,0,0,1-1.423,14.093c-.395,1.349-1.254,2.533-1.35,3.976a12.64,12.64,0,0,0-1.61,3.3,3.925,3.925,0,0,0,2.137-2.793" fill="#415214"/>
    <path id="Trazado_39847" data-name="Trazado 39847" d="M42.121,261.509a10.82,10.82,0,0,0-2.813,1.914,29.505,29.505,0,0,0-7.168,6.706c-2.37,3.007-4.414,6.216-5.18,10.064a1.243,1.243,0,0,0-.2,1.552,4.435,4.435,0,0,0,.919-1.937,3.739,3.739,0,0,1,.326-.99c1.25-1.842,2.509-3.679,3.809-5.485a102.5,102.5,0,0,1,8.057-9.3c1.658-1.233,1.765-1.349,2.249-2.523" fill="#415214"/>
    <path id="Trazado_39848" data-name="Trazado 39848" d="M112.811,68.048l2.118.229a3.381,3.381,0,0,0,1.762.106,17.207,17.207,0,0,0,3.194.308.607.607,0,0,0,.692.028l2.044.188a19.038,19.038,0,0,0,4.252.3,17.008,17.008,0,0,0-5.957-1.171,1.2,1.2,0,0,0-.347-.048.766.766,0,0,0-.793-.067c-.156-.023-.313-.044-.469-.066a.608.608,0,0,0-.856-.19l-1.283-.133a11.157,11.157,0,0,0-5.04-.78l-.5-.1a67.549,67.549,0,0,0-10.457-1.4.887.887,0,0,0-.166-.052,186.371,186.371,0,0,1-19.787-3.529,3.047,3.047,0,0,0-1.555-.024c-.249-.237-.423-.572-.805-.636a37.678,37.678,0,0,1-6.592-2.159c1.567,1.854,3.819,2.368,5.984,3.054l1.846.565A99.607,99.607,0,0,0,90.8,65.342c6.695,1.264,13.464,1.983,20.246,2.587a2.908,2.908,0,0,0,1.766.119" fill="#415214"/>
    <path id="Trazado_39849" data-name="Trazado 39849" d="M19.183,179.646c.437-.278.856-.592,1.314-.83a57.414,57.414,0,0,0,10.595-6.854c2.152-1.809,4.228-3.71,6.556-5.305,3.813-2.611,7.766-4.728,12.561-5a36.964,36.964,0,0,0,8.606-1.7,9.9,9.9,0,0,0,4.59-1.546.17.17,0,0,0-.13-.149c-1.855.461-3.814.469-5.582,1.3l-.968.094-.365.042-1.093.214-.358.039-.66.051a1.079,1.079,0,0,0-1.192.2l-1.98.137a1.385,1.385,0,0,0-1.389.093,20.1,20.1,0,0,0-10.006,2.907,33.127,33.127,0,0,0-6.563,4.691c-4.3,4.112-9.213,7.393-14.111,10.706a1.131,1.131,0,0,0-.739.627l-.278.241a19.1,19.1,0,0,0-5.151,4.1c1.835-1.2,3.871-2.06,5.519-3.526l.824-.537" fill="#415214"/>
    <path id="Trazado_39850" data-name="Trazado 39850" d="M32.653,38.114l-.033-.078-.038.151Z" fill="#415214"/>
    <path id="Trazado_39851" data-name="Trazado 39851" d="M104.987,151.843l.021.009.3-.036c-.126-.215-.214.033-.323.027" fill="#415214"/>
    <path id="Trazado_39852" data-name="Trazado 39852" d="M92.559,330.34l-.058-.011,0,.127Z" fill="#415214"/>
    <path id="Trazado_39853" data-name="Trazado 39853" d="M41.736,47.041c.249-.087.277-.323.228-.564-.023-.113-.049-.225-.074-.337-.059-1.767-.619-3.476-.614-5.258a7.8,7.8,0,0,0,.064,5.274,2.3,2.3,0,0,0,.1.5c.067.15.245.4.3.381" fill="#415214"/>
    <path id="Trazado_39854" data-name="Trazado 39854" d="M26.857,63.1a.2.2,0,0,1,.015-.067c.042-.123-.074-.141-.144.016l.007,0c.1-.009.118.023.122.048" fill="#415214"/>
    <path id="Trazado_39855" data-name="Trazado 39855" d="M26.857,63.1c0,.032,0,.025,0,0" fill="#415214"/>
    <path id="Trazado_39856" data-name="Trazado 39856" d="M37.9,216.059l-.054-.111-.062.106Z" fill="#415214"/>
    <path id="Trazado_39857" data-name="Trazado 39857" d="M119.206,199.058l-.05.065.016-.009.034-.056" fill="#415214"/>
    <path id="Trazado_39858" data-name="Trazado 39858" d="M63.46,252.721l-.039-.039-.014-.014.009.016Z" fill="#415214"/>
    <path id="Trazado_39859" data-name="Trazado 39859" d="M35.642,74.809a1.006,1.006,0,0,0,.093.214c.035-.035.1-.076.1-.1a1,1,0,0,0-.092-.214c-.035.036-.1.077-.1.1" fill="#415214"/>
    <path id="Trazado_39860" data-name="Trazado 39860" d="M84.583,335.157l0,0h0l-.041.048.04-.044Z" fill="#415214"/>
    <path id="Trazado_39861" data-name="Trazado 39861" d="M79.307,354.552l-.025-.023-.008.038a.36.36,0,0,1,.033-.015" fill="#415214"/>
    <path id="Trazado_39862" data-name="Trazado 39862" d="M79.248,354.666a.514.514,0,0,0,.025-.1c-.116.05-.129.087-.025.1" fill="#415214"/>
  </g>
</svg>
