<svg xmlns="http://www.w3.org/2000/svg" xmlns:xlink="http://www.w3.org/1999/xlink" width="168.596" height="397.268" viewBox="0 0 168.596 397.268">
  <defs>
    <clipPath id="clip-path">
      <rect id="Rectángulo_4096" data-name="Rectángulo 4096" width="168.596" height="397.268" fill="#415214"/>
    </clipPath>
  </defs>
  <g id="Grupo_16571" data-name="Grupo 16571" clip-path="url(#clip-path)">
    <path id="Trazado_39634" data-name="Trazado 39634" d="M46.053,333.328s.745.214,2.044.591,3.172.861,5.416,1.435c1.124.274,2.339.591,3.637.868,1.29.307,2.664.577,4.079.878,2.827.61,5.869,1.12,8.919,1.565,1.529.176,3.052.43,4.56.575,1.511.123,2.994.327,4.437.374s2.835.2,4.157.184,2.576.057,3.731.006,2.214-.1,3.153-.141,1.75-.176,2.424-.235c1.348-.137,2.118-.217,2.118-.217l-2.091.4c-.671.106-1.476.3-2.417.4l-3.162.316c-1.161.1-2.422.094-3.758.152-1.336.077-2.744-.029-4.2-.063s-2.954-.213-4.479-.315c-1.523-.135-3.063-.343-4.6-.533-3.068-.489-6.123-1.044-8.958-1.695-2.842-.624-5.45-1.386-7.683-2.026-4.457-1.336-7.325-2.517-7.325-2.517" transform="translate(-3.193 -23.114)" fill="#415214"/>
    <path id="Trazado_39635" data-name="Trazado 39635" d="M10.094,214.033s.356.965.89,2.415,1.259,3.336,2.117,5.164c.438.911.925,1.792,1.416,2.6.262.393.517.772.758,1.133.272.337.529.656.768.95.26.276.5.528.711.75a4.738,4.738,0,0,0,.6.534l.54.46-.625-.338a4.733,4.733,0,0,1-.7-.435l-.85-.654c-.276-.28-.577-.583-.893-.9-.287-.348-.589-.714-.9-1.094a19.628,19.628,0,0,1-1.584-2.629,22.312,22.312,0,0,1-1.9-5.386,16.622,16.622,0,0,1-.348-2.57" transform="translate(-0.7 -14.842)" fill="#415214"/>
    <path id="Trazado_39636" data-name="Trazado 39636" d="M67.213,82.379a9.226,9.226,0,0,1,1.023.154,17.58,17.58,0,0,1,2.817.791,19.547,19.547,0,0,1,4.106,2,21.785,21.785,0,0,1,4.58,3.8,23.436,23.436,0,0,1,3.931,5.855c1.194,2.227,1.777,4.862,2.722,7.3a102.061,102.061,0,0,0,7.541,14.943c2.927,4.913,6.073,9.7,9.17,14.082s6.2,8.327,8.991,11.582a52.3,52.3,0,0,0,7.327,7.315,13.221,13.221,0,0,0,2.447,1.553,10.031,10.031,0,0,0,.963.357,9.989,9.989,0,0,1-.978-.327,13.389,13.389,0,0,1-2.508-1.482,52.509,52.509,0,0,1-7.6-7.109,141.542,141.542,0,0,1-9.267-11.438c-3.206-4.33-6.427-9.1-9.384-14.033a103.366,103.366,0,0,1-7.71-15.063c-.509-1.284-.874-2.549-1.294-3.768q-.3-.9-.6-1.787c-.249-.568-.5-1.128-.746-1.68a23.218,23.218,0,0,0-3.679-5.7,20.891,20.891,0,0,0-4.255-3.872,23.215,23.215,0,0,0-3.886-2.21,21.236,21.236,0,0,0-2.714-1.006,8.943,8.943,0,0,0-1-.255" transform="translate(-4.661 -5.712)" fill="#415214"/>
    <path id="Trazado_39637" data-name="Trazado 39637" d="M136.286,92.047s-.086,1-.235,2.742c-.121,1.748-.294,4.244-.5,7.237s-.368,6.493-.5,10.241c-.033,1.874-.1,3.813-.106,5.779.02,1.968-.043,3.968,0,5.967.022,2,.039,4,.147,5.964q.064,1.476.126,2.921.117,1.445.23,2.846c.118,1.871.348,3.668.577,5.368.177,1.711.509,3.3.792,4.772a36.459,36.459,0,0,0,.922,3.979,19.405,19.405,0,0,0,.938,3.005c.643,1.632,1.008,2.562,1.008,2.562s-.392-.919-1.081-2.533a19.269,19.269,0,0,1-1.027-2.986,30.966,30.966,0,0,1-1.025-3.972c-.3-1.474-.646-3.069-.842-4.782-.248-1.7-.494-3.507-.632-5.381-.086-.936-.171-1.889-.257-2.852-.054-.964-.105-1.942-.157-2.927-.129-1.968-.164-3.975-.209-5.979-.106-4.006.049-8.016.177-11.767.175-3.753.383-7.252.624-10.247.214-3,.5-5.484.7-7.225l.33-2.733" transform="translate(-9.321 -6.383)" fill="#415214"/>
    <path id="Trazado_39638" data-name="Trazado 39638" d="M160.839,42.01a28.422,28.422,0,0,1-2.139-2.991,32.5,32.5,0,0,1-1.806-3.322,22.85,22.85,0,0,1-1.522-4.087,20.776,20.776,0,0,1-.485-2.177c-.135-.724-.152-1.46-.229-2.163.027-.707.053-1.4.127-2.043.155-.638.262-1.247.442-1.785.237-.515.454-.989.646-1.408a5.15,5.15,0,0,1,.675-.973c.395-.519.64-.789.64-.789s-.133.356-.4.933a8.582,8.582,0,0,0-.436,1.047c-.123.415-.26.885-.409,1.4-.079.524-.165,1.092-.255,1.693-.039.6-.047,1.247-.067,1.908.061.662.057,1.355.173,2.048a19.221,19.221,0,0,0,.419,2.095,18.513,18.513,0,0,0,.612,2.061c.208.678.468,1.331.706,1.966.5,1.266,1.057,2.412,1.546,3.389.982,1.954,1.765,3.2,1.765,3.2" transform="translate(-10.724 -1.406)" fill="#415214"/>
    <path id="Trazado_39639" data-name="Trazado 39639" d="M132.524,31.7s-.943-.143-2.6-.284c-1.66-.125-4.038-.266-6.888-.264a77.748,77.748,0,0,0-9.707.652c-1.759.27-3.58.535-5.4.967a52.221,52.221,0,0,0-5.447,1.527,43.625,43.625,0,0,0-5.222,2.178,37.654,37.654,0,0,0-4.733,2.756,37.184,37.184,0,0,0-4.019,3.179,36.164,36.164,0,0,0-3.171,3.322,37.981,37.981,0,0,0-2.369,3.083c-.607.986-1.174,1.826-1.577,2.554-.776,1.476-1.221,2.317-1.221,2.317s.423-.853,1.161-2.348c.384-.743.933-1.6,1.517-2.6a38.039,38.039,0,0,1,2.3-3.159A33.262,33.262,0,0,1,88.308,42.2a37.487,37.487,0,0,1,4.023-3.242,38.277,38.277,0,0,1,4.757-2.824,44.144,44.144,0,0,1,5.248-2.243,55.456,55.456,0,0,1,10.923-2.58,66.5,66.5,0,0,1,9.776-.523,62.616,62.616,0,0,1,6.9.509c1.656.221,2.59.409,2.59.409" transform="translate(-5.559 -2.134)" fill="#415214"/>
    <path id="Trazado_39640" data-name="Trazado 39640" d="M110.942,47.167a16.213,16.213,0,0,0-1.931.971,37.34,37.34,0,0,0-4.766,3.266c-.962.718-1.924,1.594-2.975,2.486-.995.948-2.089,1.907-3.125,3S96,59.069,94.976,60.268c-1.067,1.165-2.1,2.391-3.1,3.649-1.036,1.228-2,2.508-2.945,3.78-.962,1.253-1.877,2.512-2.715,3.765s-1.713,2.416-2.438,3.594l-2.088,3.283c-1.3,2.032-2.256,3.8-2.987,5-.71,1.213-1.116,1.908-1.116,1.908l1.092-1.922c.715-1.213,1.646-3,2.922-5.046.633-1.027,1.321-2.138,2.047-3.314.709-1.186,1.566-2.369,2.394-3.63s1.722-2.537,2.669-3.806c.927-1.286,1.882-2.583,2.9-3.829.985-1.272,2.007-2.517,3.064-3.7,1.018-1.216,2.1-2.345,3.139-3.441s2.115-2.089,3.108-3.056c1.044-.912,2-1.809,2.967-2.547a37.728,37.728,0,0,1,4.8-3.38,16.631,16.631,0,0,1,2-1.038Z" transform="translate(-5.38 -3.227)" fill="#415214"/>
    <path id="Trazado_39641" data-name="Trazado 39641" d="M114.8,35.339a27.882,27.882,0,0,0-1.571,2.844,44.474,44.474,0,0,0-2.906,8.036,96.04,96.04,0,0,0-2.2,11.895c-.3,2.2-.587,4.473-.98,6.776a24.165,24.165,0,0,1-1.977,6.843,6.315,6.315,0,0,1-2.484,2.682,21.715,21.715,0,0,1-3.389,1.143,32.579,32.579,0,0,1-6.808.965,69.807,69.807,0,0,1-12.119-.816,81.245,81.245,0,0,0-8.509-.967,11.079,11.079,0,0,0-2.388.168,5.516,5.516,0,0,0-.824.206,5.781,5.781,0,0,1,.818-.233,11.2,11.2,0,0,1,2.394-.239,68.447,68.447,0,0,1,8.55.753,69.566,69.566,0,0,0,12.056.689,32.318,32.318,0,0,0,6.7-1.023,21.39,21.39,0,0,0,3.257-1.128,5.768,5.768,0,0,0,2.233-2.472,24.378,24.378,0,0,0,1.981-6.661c.412-2.284.721-4.555,1.049-6.751a96.3,96.3,0,0,1,2.334-11.914,40.039,40.039,0,0,1,3.122-8,28.347,28.347,0,0,1,1.661-2.8" transform="translate(-4.76 -2.45)" fill="#415214"/>
    <path id="Trazado_39642" data-name="Trazado 39642" d="M107.771,32.4s-.558.664-1.457,1.885-2.147,2.989-3.55,5.169-2.954,4.777-4.514,7.616C97.513,48.507,96.7,49.972,96,51.52q-.551,1.147-1.112,2.313L93.868,56.21c-.71,1.577-1.291,3.2-1.877,4.8-.628,1.582-1.055,3.2-1.567,4.739-.53,1.534-.86,3.067-1.242,4.5-.178.72-.372,1.417-.525,2.1-.131.688-.255,1.349-.378,1.987-.242,1.274-.514,2.436-.667,3.478-.137,1.047-.257,1.959-.356,2.709-.2,1.5-.311,2.363-.311,2.363s.077-.863.211-2.373c.067-.757.147-1.674.24-2.73.112-1.051.331-2.224.522-3.514.108-.642.218-1.312.332-2.006.138-.689.315-1.392.479-2.12.347-1.451.643-3,1.141-4.557.466-1.563.9-3.194,1.515-4.792.578-1.611,1.15-3.255,1.852-4.848l1.005-2.4,1.1-2.339c.7-1.564,1.556-3.022,2.313-4.465a80.551,80.551,0,0,1,4.71-7.556,62.243,62.243,0,0,1,3.825-5c.977-1.163,1.578-1.789,1.578-1.789" transform="translate(-6.029 -2.246)" fill="#415214"/>
    <path id="Trazado_39643" data-name="Trazado 39643" d="M122.545,78.718a18.655,18.655,0,0,0,2.99.429,14.461,14.461,0,0,0,3.005-.172l-.242.105a3.736,3.736,0,0,1-.662.241,6.634,6.634,0,0,1-2.125.217,7.728,7.728,0,0,1-2.089-.422,5.724,5.724,0,0,1-.878-.4" transform="translate(-8.498 -5.459)" fill="#415214"/>
    <path id="Trazado_39644" data-name="Trazado 39644" d="M59.486,234.224s1.932-.343,4.852-.678c2.919-.313,6.826-.664,10.747-.724,1.958-.061,3.922-.037,5.761.036s3.554.244,5.017.42a29.123,29.123,0,0,1,3.512.613l1.308.333-1.347-.08c-.423-.041-.941-.065-1.537-.074s-1.261-.041-1.992-.065c-1.456-.043-3.16-.02-4.984-.027l-5.718.043c-3.9.061-7.8.126-10.727.17l-4.892.033" transform="translate(-4.125 -16.142)" fill="#415214"/>
    <path id="Trazado_39645" data-name="Trazado 39645" d="M62.933,246.828s2.665.041,6.656.249l6.811.451c2.484.237,5.135.491,7.787.743s5.289.648,7.765.981c1.236.193,2.435.333,3.561.558s2.194.393,3.174.6,1.883.367,2.668.591,1.474.393,2.039.542l1.743.574-1.8-.323c-1.149-.19-2.795-.4-4.77-.662s-4.287-.485-6.757-.806-5.119-.535-7.754-.887c-2.641-.3-5.281-.6-7.758-.888-2.476-.3-4.785-.588-6.767-.834-3.96-.511-6.6-.9-6.6-.9" transform="translate(-4.364 -17.116)" fill="#415214"/>
    <path id="Trazado_39646" data-name="Trazado 39646" d="M124.989,85.524s.086.55.3,1.349a13.662,13.662,0,0,0,.975,2.815,6.527,6.527,0,0,0,.814,1.292,4.78,4.78,0,0,0,.887.875,3.525,3.525,0,0,0,.736.4l.3.126-.174.894-.427-.1a1.573,1.573,0,0,1-.476-.159,6.2,6.2,0,0,1-.569-.326,5.667,5.667,0,0,1-.561-.509,5.008,5.008,0,0,1-.5-.653,7.362,7.362,0,0,1-.706-1.569A12.579,12.579,0,0,1,125,86.918c-.044-.838-.013-1.394-.013-1.394" transform="translate(-8.666 -5.93)" fill="#415214"/>
    <path id="Trazado_39647" data-name="Trazado 39647" d="M91.155,29.276s-.651.657-1.789,1.8l-2,2.094c-.763.815-1.561,1.787-2.49,2.825s-1.98,2.126-3.14,3.22c-.289.272-.583.55-.879.83-.127.124-.349.315-.4.386l-.414.462a12.222,12.222,0,0,0-1.483,1.947,46.608,46.608,0,0,0-2.551,4.567c-.8,1.613-1.575,3.275-2.315,4.956-.759,1.672-1.457,3.377-2.187,5.036s-1.429,3.3-2.116,4.888c-1.386,3.166-2.641,6.145-3.882,8.632-.6,1.251-1.208,2.373-1.736,3.371a28.339,28.339,0,0,1-1.539,2.5l-.632.889c-.225.235-.417.434-.572.595l-.475.489-.253-.3s.145-.171.419-.49c.135-.16.3-.355.5-.585.162-.262.35-.564.561-.9.447-.651.866-1.537,1.391-2.516.48-1.008,1.032-2.141,1.57-3.41,1.1-2.523,2.33-5.5,3.625-8.7s2.655-6.635,4.16-10.014c.738-1.693,1.517-3.375,2.321-5.017a47.451,47.451,0,0,1,2.629-4.737A14.367,14.367,0,0,1,79.067,40l.414-.464a6.5,6.5,0,0,1,.487-.458q.448-.408.888-.8c1.157-1.067,2.241-2.079,3.215-3.048s1.9-1.848,2.748-2.607a29.164,29.164,0,0,1,2.262-1.862c1.295-.982,2.074-1.481,2.074-1.481" transform="translate(-4.181 -2.03)" fill="#415214"/>
    <path id="Trazado_39648" data-name="Trazado 39648" d="M142.239,3.514s-.258-.129-.71-.3c-.445-.192-1.147-.421-2.042-.711a30.632,30.632,0,0,0-3.306-.792c-.651-.1-1.335-.262-2.069-.343l-2.319-.212c-.805-.1-1.653-.024-2.528-.046a17.5,17.5,0,0,0-2.707.123l-2.85.307q-1.432.318-2.926.649a17.266,17.266,0,0,0-2.97.877c-.984.357-2.006.666-2.994,1.077l-2.9,1.429-1.464.719c-.466.278-.916.591-1.374.883a40.611,40.611,0,0,0-5.3,3.782,41.679,41.679,0,0,0-4.688,4.234L97,17.377a21.878,21.878,0,0,0-1.934,2.154l-3.261,4.2a32.959,32.959,0,0,0-2.557,3.69c-.72,1.128-1.346,2.112-1.862,2.923-1.036,1.621-1.626,2.547-1.626,2.547s.574-.936,1.577-2.578c.5-.819,1.109-1.818,1.808-2.96a32.98,32.98,0,0,1,2.492-3.743c.989-1.322,2.06-2.756,3.192-4.271a22.323,22.323,0,0,1,1.9-2.2c.674-.73,1.363-1.478,2.061-2.236a42.21,42.21,0,0,1,4.648-4.358,40.916,40.916,0,0,1,5.289-3.926c.46-.307.91-.632,1.378-.922l1.474-.76L114.5,3.42c1-.437,2.034-.771,3.032-1.158a18.2,18.2,0,0,1,3.022-.952c1.013-.243,2.011-.485,2.986-.72q1.5-.188,2.921-.372a18.123,18.123,0,0,1,2.781-.177c.9,0,1.774-.092,2.607,0q1.254.092,2.4.173c.758.072,1.47.219,2.145.315a32.263,32.263,0,0,1,3.449.757c.94.286,1.678.51,2.184.717.516.186.751.3.751.3Z" transform="translate(-5.947 0)" fill="#415214"/>
    <path id="Trazado_39649" data-name="Trazado 39649" d="M163.365,46.464a53.317,53.317,0,0,1,0,9.758l-.01.111-.067.072a28.3,28.3,0,0,0-3.175,4.134,18.23,18.23,0,0,0-2.238,4.7,11.715,11.715,0,0,0-.292,1.264l-.07.644a.89.89,0,0,1-.26.663,2.471,2.471,0,0,1-1.286.46,12.724,12.724,0,0,1-1.324.1c-.881.012-1.761.057-2.627.1a9.308,9.308,0,0,0-1.275.142,2.67,2.67,0,0,0-1.062.358l.16-.119a6.2,6.2,0,0,0-.92,1.644c-.258.626-.48,1.276-.69,1.932-.417,1.315-.771,2.658-1.1,4.009-.652,2.7-1.206,5.44-1.691,8.181l-.022.17-.168.082a7.843,7.843,0,0,1-2.409.74,8,8,0,0,1-2.523-.01,9.586,9.586,0,0,1-1.237-.282,6.335,6.335,0,0,1-1.165-.5,5.152,5.152,0,0,1-1.03-.719,5.667,5.667,0,0,1-.817-.945c.4.151.74.356,1.106.507s.707.329,1.071.453a8.1,8.1,0,0,0,2.2.593,10.608,10.608,0,0,0,1.142.072,10.029,10.029,0,0,0,1.144-.051,12.194,12.194,0,0,0,2.245-.465l-.188.248v0c.413-2.772.893-5.528,1.476-8.275.294-1.372.613-2.742,1.006-4.1.2-.68.408-1.359.664-2.034a7.038,7.038,0,0,1,1.086-2.011l.069-.084.09-.037h0a4.367,4.367,0,0,1,1.49-.2c.461.008.906.041,1.349.064.882.049,1.751.171,2.623.178a11.793,11.793,0,0,0,1.3-.027,2.3,2.3,0,0,0,1.176-.335c.162-.121.179-.276.2-.521l.071-.663a11.549,11.549,0,0,1,.3-1.288,23.5,23.5,0,0,1,2.185-4.792,51.9,51.9,0,0,1,2.913-4.414l-.077.182a52.786,52.786,0,0,0,0-9.633Z" transform="translate(-9.435 -3.222)" fill="#415214"/>
    <path id="Trazado_39650" data-name="Trazado 39650" d="M139.278,79.84a9.017,9.017,0,0,0-.439-1.2,3.706,3.706,0,0,0-.652-1.032A1.4,1.4,0,0,0,137.1,77.1c-1.014-.029-2.016-.037-2.484.489a3.716,3.716,0,0,0-.534.719c-.116.194-.181.307-.181.307a3.591,3.591,0,0,1,.059-.356,2.775,2.775,0,0,1,.36-.912,1.924,1.924,0,0,1,1.225-.786,8.638,8.638,0,0,1,1.566-.133,2.043,2.043,0,0,1,1.527.805,3.27,3.27,0,0,1,.56,1.29,4.071,4.071,0,0,1,.081,1.317" transform="translate(-9.285 -5.3)" fill="#415214"/>
    <path id="Trazado_39651" data-name="Trazado 39651" d="M136.406,82.257a1.894,1.894,0,0,0-1.725-1.44l-.022-.664a2.549,2.549,0,0,1,2.372,1.882Z" transform="translate(-9.338 -5.558)" fill="#415214"/>
    <path id="Trazado_39652" data-name="Trazado 39652" d="M137.524,87.172a2.114,2.114,0,0,0-.446.241c-.147.1-.3.21-.441.325-.289.235-.57.487-.851.743-.558.515-1.08,1.059-1.635,1.6l-.119.116-.188-.034-3.267-.61-.011,0-.221-.051-.118-.224a12.1,12.1,0,0,0-1.347-2.08,6.932,6.932,0,0,0-.874-.858,9.209,9.209,0,0,1-.971-.965,5.572,5.572,0,0,1-1.274-2.416,7.373,7.373,0,0,1,.034-2.66,8.155,8.155,0,0,0,.342,2.551,5.012,5.012,0,0,0,1.418,2.02,8.222,8.222,0,0,0,1,.767,5.974,5.974,0,0,1,1.047.924,9.52,9.52,0,0,1,1.541,2.284l-.339-.276.01,0,3.183.951-.3.08,1.669-1.578c.283-.264.574-.521.877-.772.151-.126.3-.251.47-.369a3,3,0,0,1,.552-.321Z" transform="translate(-8.713 -5.568)" fill="#415214"/>
    <path id="Trazado_39653" data-name="Trazado 39653" d="M130.657,89.826a10.2,10.2,0,0,1,.054,1.192A8.348,8.348,0,0,1,130.6,92.4a3.806,3.806,0,0,1-.27.871,2.154,2.154,0,0,1-.7.819c-1.04.8-2.329,1.511-3.563,2.409-.15.113-.3.229-.424.345-.116.087-.257.309-.208.209a7.463,7.463,0,0,1-.358,1.265,7.358,7.358,0,0,1-1.331,2.308,4.588,4.588,0,0,1-3.631,1.724,11.739,11.739,0,0,1-1.245-.075,7.472,7.472,0,0,1-2.328-.617,6.314,6.314,0,0,1-1.744-1.281,10.328,10.328,0,0,1-1.75-2.578c-.331-.666-.478-1.065-.478-1.065s.268.327.736.9a18.227,18.227,0,0,0,2.02,2.185,6.2,6.2,0,0,0,3.644,1.521,5.589,5.589,0,0,0,2.215-.106,3.941,3.941,0,0,0,1.8-1.257,7.275,7.275,0,0,0,1.17-2.009,6.378,6.378,0,0,0,.33-1.088,1.457,1.457,0,0,1,.514-.74c.17-.152.337-.278.5-.4,1.323-.946,2.637-1.623,3.639-2.3a1.287,1.287,0,0,0,.49-.508,3.071,3.071,0,0,0,.234-.678A7.57,7.57,0,0,0,130,91,9.372,9.372,0,0,0,130,89.884Z" transform="translate(-7.805 -6.229)" fill="#415214"/>
    <path id="Trazado_39654" data-name="Trazado 39654" d="M114.9,100.574s-.453.071-1.239.132a18.549,18.549,0,0,1-3.278-.041,10.636,10.636,0,0,1-2.179-.45,6.621,6.621,0,0,1-2.157-1.269,17.115,17.115,0,0,1-3.416-4.039,45.516,45.516,0,0,1-4.179-8.865c-.45-1.256-.805-2.312-1.03-3.055s-.37-1.166-.37-1.166.149.42.408,1.153.638,1.779,1.126,3.02a45.334,45.334,0,0,0,4.424,8.664,16.637,16.637,0,0,0,3.424,3.8,6.662,6.662,0,0,0,1.985,1.118,9.769,9.769,0,0,0,2.034.4,22.094,22.094,0,0,0,3.162.034c.769-.043,1.2-.1,1.2-.1Z" transform="translate(-6.73 -5.674)" fill="#415214"/>
    <path id="Trazado_39655" data-name="Trazado 39655" d="M113.863,143.369l-.664-.011c.023-1.469-2.316-6.718-4.794-12.277-3.094-6.945-6.6-14.815-6.6-17.806,0-5.339,4.43-13.048,4.619-13.374l.574.333c-.046.078-4.528,7.88-4.528,13.04,0,2.85,3.477,10.652,6.544,17.536,2.617,5.872,4.877,10.943,4.851,12.558" transform="translate(-7.059 -6.927)" fill="#415214"/>
    <path id="Trazado_39656" data-name="Trazado 39656" d="M146.033,34.379l-1.244.289c-.787.176-1.907.448-3.248.719l-4.563.986c-1.663.369-3.433.774-5.163,1.309-1.751.478-3.438,1.126-5.026,1.729-.772.35-1.52.687-2.226,1.01l-1.912,1.071c-.573.36-1.082.722-1.546,1.029a8.656,8.656,0,0,0-1.121.9c-.616.518-.972.814-.972.814l.81-.977a9,9,0,0,1,1.008-1.061c.426-.374.9-.814,1.434-1.264.579-.4,1.2-.825,1.864-1.282.7-.391,1.442-.8,2.207-1.228.79-.364,1.6-.785,2.454-1.112s1.721-.687,2.613-.951a47.719,47.719,0,0,1,5.282-1.382,35.906,35.906,0,0,1,4.708-.639,25.234,25.234,0,0,1,4.639.045" transform="translate(-8.253 -2.375)" fill="#415214"/>
    <path id="Trazado_39657" data-name="Trazado 39657" d="M121.714,33a1.923,1.923,0,0,0-.272-.088c-.1-.014-.078.07-.134.129-.075.137-.185.342-.332.607l-1.23,2.32c-1.036,2.014-2.352,4.973-3.9,8.522s-3.331,7.7-4.828,12.287c-.743,2.293-1.438,4.684-1.99,7.141a36.8,36.8,0,0,0-.658,3.733l-.128.945-.149.993a9.7,9.7,0,0,1-.53,2,7.732,7.732,0,0,1-2.6,3.207,10.884,10.884,0,0,1-3.66,1.648,27.757,27.757,0,0,1-7.553.758,108.934,108.934,0,0,1-13.237-1.3c-3.844-.53-7.041-.991-9.3-1.053a14.672,14.672,0,0,0-2.614.1c-.6.1-.908.193-.908.193s.307-.1.9-.235a14.793,14.793,0,0,1,2.623-.227,83.545,83.545,0,0,1,9.368.671,126.059,126.059,0,0,0,13.173.934,26.847,26.847,0,0,0,7.265-.861,7.991,7.991,0,0,0,5.5-4.281,8.441,8.441,0,0,0,.452-1.744l.137-.924.127-.973a38.274,38.274,0,0,1,.668-3.837c.252-1.263.624-2.484.933-3.707.391-1.194.748-2.385,1.157-3.535a113.4,113.4,0,0,1,5.171-12.26c.849-1.75,1.72-3.308,2.489-4.688s1.453-2.571,2.011-3.559,1-1.758,1.3-2.286c.154-.262.272-.462.352-.6.022-.078.108-.1.042-.181a1.878,1.878,0,0,0-.209-.192Z" transform="translate(-4.694 -2.265)" fill="#415214"/>
    <path id="Trazado_39658" data-name="Trazado 39658" d="M151.027,29.927a35.608,35.608,0,0,1-3.576-3.557,43.748,43.748,0,0,1-3.191-4.085,31.21,31.21,0,0,1-2.925-5.217,17.9,17.9,0,0,1-1.011-2.914,10.562,10.562,0,0,1-.315-3.024,5.81,5.81,0,0,1,1.635-3.837,7.076,7.076,0,0,1,.97-.771,9.278,9.278,0,0,1,1.929-.875c.608-.14,1.127-.289,1.564-.352.877-.1,1.377-.149,1.377-.149s-.484.127-1.33.351c-.422.113-.912.319-1.476.52a9.2,9.2,0,0,0-1.7,1.013,6.6,6.6,0,0,0-.813.745,5.481,5.481,0,0,0-.638.966A5.252,5.252,0,0,0,141,11.163a13.73,13.73,0,0,0,1.43,5.418,40.385,40.385,0,0,0,2.819,5.052c1,1.568,1.988,3,2.852,4.221,1.725,2.449,2.926,4.073,2.926,4.073" transform="translate(-9.707 -0.357)" fill="#415214"/>
    <path id="Trazado_39659" data-name="Trazado 39659" d="M173.621,48.816h-.665c0-29.2-19.652-40.2-19.85-40.31l.316-.584c.2.11,20.2,11.279,20.2,40.894" transform="translate(-10.617 -0.549)" fill="#415214"/>
    <path id="Trazado_39660" data-name="Trazado 39660" d="M162.288,46.6a7.811,7.811,0,0,1,1.481-.316,11.076,11.076,0,0,1,4.314.259,8.1,8.1,0,0,1,5.241,4.315,11.143,11.143,0,0,1,1.023,4.1c.112,1.425.164,2.948.194,4.5.117,6.242.065,13.5.145,21.272.1,7.771.215,16.055.583,24.32a210.285,210.285,0,0,0,2.294,24.122c.331,1.9.681,3.756,1.1,5.551.222.913.412,1.751.66,2.645a12.233,12.233,0,0,1,.27,3.013,19.85,19.85,0,0,1-3.5,9.893,30.209,30.209,0,0,1-5.868,6.456,24.025,24.025,0,0,1-5.681,3.574,15.39,15.39,0,0,1-4.165,1.218,8.336,8.336,0,0,1-1.147.087l-.395.012-.023-.665.364-.048a7.989,7.989,0,0,0,1.055-.195,15.934,15.934,0,0,0,3.792-1.471,27.745,27.745,0,0,0,5.146-3.725,30.474,30.474,0,0,0,5.238-6.321,17.855,17.855,0,0,0,2.995-8.863,10.307,10.307,0,0,0-.239-2.368c-.27-.863-.476-1.833-.7-2.739-.425-1.853-.774-3.754-1.1-5.692a212.444,212.444,0,0,1-2.2-24.392c-.356-8.314-.4-16.629-.289-24.414.084-7.785.286-15.051.3-21.253-.051-3.1.106-5.989-.926-8.113a7.269,7.269,0,0,0-4.471-3.866,15.682,15.682,0,0,0-4-.818c-.963-.081-1.491-.077-1.491-.077" transform="translate(-11.013 -3.202)" fill="#415214"/>
    <path id="Trazado_39661" data-name="Trazado 39661" d="M160.972,153.5s-.357,2.541-.9,6.352c-.28,1.9-.581,4.119-.842,6.5-.293,2.375-.583,4.912-.678,7.435a28.537,28.537,0,0,0,.072,3.7c.041.66.133,1.232.146,1.9a14.534,14.534,0,0,1-.056,1.947,14.737,14.737,0,0,1-.742,3.55,13.918,13.918,0,0,1-1.425,2.932,9.022,9.022,0,0,1-1.807,2.112,6.762,6.762,0,0,1-1.845,1.149,4.358,4.358,0,0,1-1.369.334l-.5.037-.035-.664.416-.1a4.4,4.4,0,0,0,1.106-.427,5.7,5.7,0,0,0,1.463-1.147,9.848,9.848,0,0,0,1.453-1.975,12.518,12.518,0,0,0,1.126-2.712,16.256,16.256,0,0,0,.617-3.228,13.312,13.312,0,0,0,.037-1.71c-.008-.568-.116-1.236-.155-1.833a21.1,21.1,0,0,1,.01-3.948,96.885,96.885,0,0,1,2.286-13.99c.883-3.753,1.617-6.217,1.617-6.217" transform="translate(-10.471 -10.644)" fill="#415214"/>
    <path id="Trazado_39662" data-name="Trazado 39662" d="M108.283,128.059c5.458,7.456,10.966,14.881,16.622,22.18q2.123,2.735,4.3,5.417c.734.881,1.463,1.778,2.223,2.627a19.278,19.278,0,0,0,2.38,2.379c3.523,2.893,7.327,5.536,11.135,8.092l.194.131.117.222c.429.9.765,1.762,1.094,2.658s.612,1.787.881,2.69a43.736,43.736,0,0,1,1.218,5.519,34.67,34.67,0,0,1-.026,11.27,27.676,27.676,0,0,1-4.091,10.467c-.525.777-1.065,1.55-1.662,2.274a25.709,25.709,0,0,1-1.874,2.1c-.634.691-1.352,1.292-2.045,1.919s-1.464,1.16-2.192,1.742l-.4-.531c.7-.593,1.43-1.143,2.1-1.768s1.345-1.237,1.94-1.928a24.6,24.6,0,0,0,1.762-2.085c.558-.716,1.059-1.479,1.544-2.243a26.5,26.5,0,0,0,3.643-10.147,33.307,33.307,0,0,0-.282-10.8,41.942,41.942,0,0,0-1.321-5.264c-.285-.861-.579-1.716-.916-2.554s-.7-1.685-1.083-2.439l.311.356c-3.764-2.739-7.46-5.516-10.969-8.625a21.561,21.561,0,0,1-2.429-2.6c-.752-.9-1.45-1.821-2.163-2.737q-2.1-2.77-4.136-5.581c-5.419-7.5-10.674-15.1-15.881-22.736" transform="translate(-7.509 -8.88)" fill="#415214"/>
    <path id="Trazado_39663" data-name="Trazado 39663" d="M129.781,175.608a10.962,10.962,0,0,1,.475,1.683,23.69,23.69,0,0,1,.593,4.583c.072.961.031,2,0,3.106-.1,1.1-.2,2.262-.425,3.446a27.54,27.54,0,0,1-.909,3.606,28,28,0,0,1-1.4,3.577,37.359,37.359,0,0,1-1.8,3.383c-.667,1.073-1.424,2.067-2.132,3.036-.766.926-1.591,1.749-2.326,2.564a27.075,27.075,0,0,1-2.277,2.086,18.743,18.743,0,0,1-2.047,1.6c-.641.432-1.2.808-1.664,1.117l-1.459.948,1.331-1.124c.424-.35.943-.775,1.536-1.262a19.422,19.422,0,0,0,1.86-1.77,25.608,25.608,0,0,0,2.107-2.171c.671-.839,1.426-1.683,2.113-2.624.613-.993,1.36-1.941,1.972-3A35.9,35.9,0,0,0,127,195.1a26.761,26.761,0,0,0,1.28-3.461,29.353,29.353,0,0,0,.918-3.455c.254-1.133.408-2.251.552-3.307.106-1.063.246-2.069.258-3.005.067-.936.019-1.792.031-2.559-.014-.762-.037-1.433-.082-1.981-.086-1.1-.174-1.727-.174-1.727" transform="translate(-7.933 -12.177)" fill="#415214"/>
    <path id="Trazado_39664" data-name="Trazado 39664" d="M79.673,183.216s.122,1.119.385,2.713c.159.8.319,1.715.6,2.662.107.482.306.951.457,1.437s.4.945.6,1.415a10.932,10.932,0,0,0,.761,1.311,8.112,8.112,0,0,0,.9,1.157c.161.176.323.343.472.526l.514.435a5.733,5.733,0,0,0,1,.757c.339.2.634.429.923.584l.77.367.683.355s-.275-.014-.765-.066l-.889-.116a9.342,9.342,0,0,1-1.115-.351,4.718,4.718,0,0,1-1.263-.61c-.216-.133-.438-.268-.664-.4-.2-.176-.4-.354-.61-.536A6.8,6.8,0,0,1,81.28,193.6a12.053,12.053,0,0,1-.926-1.486,16.3,16.3,0,0,1-.624-1.616,10.7,10.7,0,0,1-.376-1.618,13.245,13.245,0,0,1-.165-2.9,10.576,10.576,0,0,1,.484-2.762" transform="translate(-5.49 -12.705)" fill="#415214"/>
    <path id="Trazado_39665" data-name="Trazado 39665" d="M74.305,134.924a19.318,19.318,0,0,0-4.78,2.928,21.8,21.8,0,0,0-3.721,4.006,22.406,22.406,0,0,0-2.539,4.852c-.589,1.7-1.112,3.608-1.709,5.415q-3.539,10.908-7.778,21.556a176.959,176.959,0,0,1-9.639,20.853,56.985,56.985,0,0,1-3.089,4.919A27.331,27.331,0,0,0,38,204.059a8.416,8.416,0,0,0-.862,4.964,7.286,7.286,0,0,0,2.5,4.24l.032.027.021.02a46.492,46.492,0,0,1,6.613,8.291c1.893,2.957,3.6,6,5.307,9.014a183.843,183.843,0,0,0,10.918,17.592,135.077,135.077,0,0,0,13.227,15.871,172.612,172.612,0,0,0,15.324,13.928l-.248-.127h0c.885.262,1.777.5,2.686.685a24.015,24.015,0,0,0,2.76.383,51.523,51.523,0,0,0,5.639.025,24.928,24.928,0,0,1,5.724.251,18.18,18.18,0,0,1,2.752.824c.893.328,1.791.575,2.7.826,3.653.959,7.364,1.732,11.089,2.4,3.723.692,7.466,1.271,11.212,1.8l.2.029.066.195,0,.006a6.117,6.117,0,0,1,.126,3.456,3.615,3.615,0,0,1-.928,1.568,4.08,4.08,0,0,1-1.554.928,8.932,8.932,0,0,1-3.417.313c-1.117-.069-2.212-.215-3.3-.378-2.18-.331-4.334-.753-6.485-1.143-1.075-.2-2.149-.388-3.218-.538-.535-.075-1.068-.141-1.59-.172a5.74,5.74,0,0,0-.748,0,1.518,1.518,0,0,0-.294.046c-.09.014-.043.069.041-.111l-.051.111a1.684,1.684,0,0,0-.02,1.242,7.1,7.1,0,0,0,.629,1.464,23.8,23.8,0,0,0,1.871,2.774,65.1,65.1,0,0,0,4.474,5.125l-.077-.055,9.14,4.677L130,304.59a10.729,10.729,0,0,1,4.434-.384,8.311,8.311,0,0,1,1.115.219,7.061,7.061,0,0,1,1.08.383,7.748,7.748,0,0,1,1.934,1.244l.034.029.031.046a3.317,3.317,0,0,1,.509.954,1.909,1.909,0,0,1-.024,1.229,3.014,3.014,0,0,1-1.573,1.492,11.523,11.523,0,0,1-3.7.939l-.02,0H133.8l-6.416-.012h-.06l-.052-.01c-3.091-.712-6.188-1.384-9.273-2.125-1.526-.39-3.106-.705-4.621-1.188l-2.266-.736a11.276,11.276,0,0,1-2.2-.912,5.625,5.625,0,0,0,1.121.383l1.148.294,2.315.527c1.54.381,3.094.6,4.66.893,3.122.567,6.228,1.2,9.343,1.8l-.113-.01,6.416-.01-.049,0a11.475,11.475,0,0,0,3.319-.827,2.034,2.034,0,0,0,1.06-.881,1.3,1.3,0,0,0-.313-1.2l.066.074a6.692,6.692,0,0,0-1.653-1.112,7.5,7.5,0,0,0-1.921-.618,10.009,10.009,0,0,0-4.1.152l-.133.039-.118-.06-9.14-4.677-.035-.017-.043-.039a46.814,46.814,0,0,1-4.785-5,20.538,20.538,0,0,1-2.011-2.879,8.049,8.049,0,0,1-.738-1.676,2.674,2.674,0,0,1,.121-2.093l-.052.108a.944.944,0,0,1,.679-.576,2.324,2.324,0,0,1,.517-.082,6.729,6.729,0,0,1,.892.01c.573.041,1.124.116,1.674.2,1.1.168,2.178.372,3.255.579,2.155.417,4.3.858,6.445,1.208,1.073.173,2.149.327,3.217.4a8.417,8.417,0,0,0,3.089-.227,2.9,2.9,0,0,0,2.026-1.91,5.453,5.453,0,0,0-.03-3.024l0,0,.264.222-11.179-2.085c-3.715-.748-7.442-1.443-11.119-2.4-.916-.248-1.848-.5-2.735-.815a15.865,15.865,0,0,0-2.7-.74,24.412,24.412,0,0,0-5.605-.084,56.414,56.414,0,0,1-5.716.272c-.96-.034-1.927-.074-2.891-.184s-1.918-.287-2.87-.485l0,0-.129-.029-.122-.1A173.8,173.8,0,0,1,74.608,265.2,136.808,136.808,0,0,1,61.04,249.278a186.592,186.592,0,0,1-11.068-17.732c-3.445-5.992-6.745-12.15-11.625-16.836l.053.047a9.228,9.228,0,0,1-3.191-5.405,10.224,10.224,0,0,1,1.02-6.123,28.853,28.853,0,0,1,3.253-4.9,54.627,54.627,0,0,0,3.007-4.743,175.408,175.408,0,0,0,9.619-20.58q4.256-10.566,7.831-21.409c.609-1.809,1.094-3.579,1.757-5.476a22.193,22.193,0,0,1,2.795-5.222,16.273,16.273,0,0,1,4.334-4.03,12.546,12.546,0,0,1,5.481-1.948" transform="translate(-2.433 -9.356)" fill="#415214"/>
    <path id="Trazado_39666" data-name="Trazado 39666" d="M63.825,83.277a20.523,20.523,0,0,0-8.435-.715,20.978,20.978,0,0,0-4.152.907,18.268,18.268,0,0,0-1.988.755,7.085,7.085,0,0,0-1.83,1.049,39.044,39.044,0,0,0-5.952,6.06A84.669,84.669,0,0,0,36.429,98.2,168.484,168.484,0,0,0,21.05,128.571a301.677,301.677,0,0,0-10.614,32.389q-2.208,8.234-4.075,16.555c-.65,2.766-1.189,5.557-1.791,8.335l-1.642,8.365v0l.01-.193a43.321,43.321,0,0,1-1.049,10.5c-.369,1.7-.738,3.405-1.063,5.107A12.1,12.1,0,0,0,.638,214.7,22.388,22.388,0,0,0,3.2,219.159c.968,1.439,2,2.84,3.037,4.228,2.087,2.774,4.266,5.48,6.5,8.14a157.125,157.125,0,0,0,14.355,15.055c2.559,2.334,5.261,4.52,7.913,6.771L43,260.063c5.322,4.485,10.625,8.995,15.83,13.635,2.6,2.323,5.174,4.676,7.67,7.143a45.708,45.708,0,0,1,3.61,3.905,9.818,9.818,0,0,1,.79,1.151l.641,1.112a13.187,13.187,0,0,0,1.48,1.954c2.345,2.441,5.627,3.758,8.536,5.8.378.257.7.508,1.094.835a9.208,9.208,0,0,1,.931.957,18.614,18.614,0,0,1,1.6,2.167c.963,1.479,1.816,3.01,2.643,4.551s1.6,3.111,2.342,4.688l1.092,2.382.525,1.2.129.307.067.169.033.086c.037.085-.033-.068-.016-.04l.02.034c-.022-.036.207.186.345.287,2.754,1.993,5.786,3.781,8.731,5.59l-.313-.088,10.9.267-.121.024a2.434,2.434,0,0,0,1.148-.891,8.007,8.007,0,0,0,.382-1.538l1.081.333a7.625,7.625,0,0,1-.716,1.7,3.171,3.171,0,0,1-1.654,1.01l-.06.02-.06,0-10.9.268-.166,0L100.46,319c-2.946-1.882-5.885-3.686-8.734-5.819a2.615,2.615,0,0,1-.6-.6,2.515,2.515,0,0,1-.149-.351l-.125-.293-.512-1.191-1.075-2.363q-1.1-2.355-2.3-4.657a51.245,51.245,0,0,0-2.611-4.457,18,18,0,0,0-1.507-2.018,8.486,8.486,0,0,0-.893-.9c-.278-.219-.645-.51-.988-.736-2.811-1.892-6.084-3.329-8.795-5.749a15.143,15.143,0,0,1-1.979-1.943l-1.554-2.007c-1.042-1.3-2.227-2.564-3.429-3.792-2.414-2.464-4.939-4.846-7.488-7.2-5.109-4.7-10.335-9.287-15.579-13.855l-7.882-6.835c-2.622-2.285-5.277-4.541-7.817-6.94s-4.98-4.9-7.321-7.48-4.637-5.2-6.851-7.895-4.372-5.426-6.435-8.231c-1.031-1.406-2.049-2.821-3.008-4.276a23.146,23.146,0,0,1-2.572-4.6,12.476,12.476,0,0,1,.107-5.271c.294-1.723.682-3.417.936-5.133a32.252,32.252,0,0,0,.288-10.259l-.012-.085.022-.11,1.727-8.372c.632-2.78,1.2-5.572,1.882-8.341q1.943-8.326,4.252-16.559a302.34,302.34,0,0,1,10.966-32.373,169.129,169.129,0,0,1,15.73-30.3,84.58,84.58,0,0,1,5.123-6.842,39.032,39.032,0,0,1,6.049-6.033,7.292,7.292,0,0,1,1.87-1.049,19.01,19.01,0,0,1,2.008-.74,21.063,21.063,0,0,1,4.181-.869,20.569,20.569,0,0,1,8.446.8" transform="translate(0 -5.711)" fill="#415214"/>
    <path id="Trazado_39667" data-name="Trazado 39667" d="M78.5,92.516a189.686,189.686,0,0,1,9.024,21.967,93.22,93.22,0,0,1,3.206,11.483,46.313,46.313,0,0,1,.848,5.943,21.622,21.622,0,0,1-.27,6.077l-.012.052-.017.036a18.354,18.354,0,0,1-3.7,5.471,26.618,26.618,0,0,1-5.139,4.041,39.9,39.9,0,0,1-12.012,4.778,41.2,41.2,0,0,0,6.062-2.2,38.236,38.236,0,0,0,5.637-3.069,25.919,25.919,0,0,0,4.847-4.119,17.441,17.441,0,0,0,3.309-5.308l-.026.088a20.517,20.517,0,0,0,.045-5.733,58.021,58.021,0,0,0-.987-5.765c-.839-3.823-1.869-7.621-3-11.393s-2.416-7.5-3.708-11.234c-1.33-3.716-2.662-7.437-4.107-11.119" transform="translate(-4.883 -6.415)" fill="#415214"/>
    <path id="Trazado_39668" data-name="Trazado 39668" d="M135.89,214.033a4.15,4.15,0,0,1,2.528,1.131,3.754,3.754,0,0,1,.827,1.213,4.333,4.333,0,0,1,.3,1.439c0,.505-.033.953-.064,1.392a7.512,7.512,0,0,0,.047,1.254,3.275,3.275,0,0,0,.347,1.136,1.843,1.843,0,0,0,.334.439,1.436,1.436,0,0,0,.41.273l.186.1a108.829,108.829,0,0,1,8.127,9.75,107.546,107.546,0,0,1,7.022,10.6,82.94,82.94,0,0,1,5.555,11.5,49.578,49.578,0,0,1,3.188,12.467,36.812,36.812,0,0,1,.125,6.511c-.07,1.122-.211,2.114-.319,3.182-.157,1.063-.272,2.141-.468,3.189a69.753,69.753,0,0,1-3.22,12.425,52.614,52.614,0,0,1-2.559,5.912,47.685,47.685,0,0,1-3.288,5.547,41.087,41.087,0,0,1-4.066,5,27.525,27.525,0,0,1-4.937,4.144l-.384-.543a37.166,37.166,0,0,0,4.122-4.638,53.871,53.871,0,0,0,3.5-5.115c1.09-1.754,2.043-3.586,2.954-5.436q1.343-2.788,2.434-5.694a67.306,67.306,0,0,0,3.205-11.984c.2-1.023.315-2.04.477-3.059.114-1.027.272-2.126.337-3.1a34.7,34.7,0,0,0-.069-6.107,52.851,52.851,0,0,0-2.865-12.011,81.2,81.2,0,0,0-5.16-11.369q-3.028-5.489-6.582-10.693c-2.38-3.449-4.908-6.817-7.611-10.016l.186.1a1.73,1.73,0,0,1-.769-.368,2.594,2.594,0,0,1-.526-.6,3.53,3.53,0,0,1-.49-1.413,6.435,6.435,0,0,1-.061-1.446c.051-.455.094-.909.111-1.3a3.674,3.674,0,0,0-.785-2.274,5.484,5.484,0,0,0-2.1-1.527" transform="translate(-9.423 -14.842)" fill="#415214"/>
    <path id="Trazado_39669" data-name="Trazado 39669" d="M33.2,262.023s.084.446.242,1.28a35.2,35.2,0,0,1,.443,3.642,15.291,15.291,0,0,1-.041,2.722,5.177,5.177,0,0,1-.476,1.718,2.959,2.959,0,0,1-.314.489l-.275.313c-.181.2-.411.436-.6.617-1.58,1.534-3.35,2.913-2.8,5.3a6.543,6.543,0,0,1-.277,2.315c-.19.7-.423,1.38-.673,2.06-.5,1.36-1.085,2.718-1.686,4.1a88.759,88.759,0,0,0-3.5,8.7,8.644,8.644,0,0,0-.409,2.23,5.4,5.4,0,0,0,.174,1.094c.088.382.193.783.315,1.17a22.059,22.059,0,0,0,2,4.548,27.74,27.74,0,0,0,6.668,7.7c5.413,4.326,12.1,6.828,18.472,8.188a74.555,74.555,0,0,0,9.328,1.392c2.994.251,5.838.368,8.462.366,2.624.026,5.031-.088,7.163-.176l5.514-.4,4.795-.505-4.785.6-5.512.507c-2.134.128-4.541.289-7.175.313-2.631.053-5.487-.012-8.5-.207a74.472,74.472,0,0,1-9.428-1.225c-6.458-1.255-13.312-3.649-18.994-8.009a28.925,28.925,0,0,1-7.1-7.9,23.357,23.357,0,0,1-2.208-4.778c-.141-.417-.257-.832-.367-1.268a6.439,6.439,0,0,1-.232-1.378,9.916,9.916,0,0,1,.413-2.653,89.151,89.151,0,0,1,3.4-8.94c.571-1.389,1.12-2.738,1.575-4.046a10.168,10.168,0,0,0,.785-3.579,6.135,6.135,0,0,1-.027-2.21,5.569,5.569,0,0,1,.854-2.011,18.084,18.084,0,0,1,2.393-2.668c.165-.176.329-.35.49-.519l.227-.268a1.319,1.319,0,0,0,.087-.149,3.469,3.469,0,0,0,.253-1.059,13.443,13.443,0,0,0-.006-2.349,33.188,33.188,0,0,0-.469-3.418c-.158-.777-.242-1.192-.242-1.192Z" transform="translate(-1.486 -18.169)" fill="#415214"/>
    <path id="Trazado_39670" data-name="Trazado 39670" d="M23.764,305.61q-1.91,1.907-3.714,3.9l.157-.613a.872.872,0,0,1-.226.687l-.046.043-.068.063-.134.138-.27.29c-.177.2-.35.41-.516.627a11.362,11.362,0,0,0-.916,1.37,21.988,21.988,0,0,0-1.45,3,29.881,29.881,0,0,0-1.7,6.513,53.854,53.854,0,0,0-.214,13.552c.214,2.264.559,4.513.967,6.749s.919,4.457,1.466,6.669l.9,3.3L19,355.162c.719,2.161,1.459,4.315,2.269,6.446s1.575,4.283,2.162,6.491a67.171,67.171,0,0,1,1.492,6.675,89.068,89.068,0,0,1,1.251,13.61,117.244,117.244,0,0,1-.572,13.658,111.4,111.4,0,0,1-2.129,13.5,111.4,111.4,0,0,0,2.129-13.5,112.9,112.9,0,0,0,.543-13.658,89.144,89.144,0,0,0-1.295-13.6,66.78,66.78,0,0,0-1.511-6.663c-.593-2.2-1.372-4.342-2.181-6.472s-1.569-4.281-2.3-6.445c-.7-2.171-1.376-4.348-2-6.543-.6-2.2-1.151-4.418-1.608-6.657s-.848-4.493-1.109-6.767a54.5,54.5,0,0,1-.057-13.726,36.753,36.753,0,0,1,1.564-6.74A23.041,23.041,0,0,1,17,311.547c.272-.521.558-1.036.866-1.548.153-.255.319-.5.492-.754l.274-.37.146-.183.08-.093c.007-.009.036-.042.028-.034a.664.664,0,0,0-.154.61l.158-.613q1.6-2.162,3.086-4.414Z" transform="translate(-0.948 -21.09)" fill="#415214"/>
    <path id="Trazado_39671" data-name="Trazado 39671" d="M119.585,348.493s-.087,4.305-.64,10.692c-.264,3.195-.627,6.916-1.082,10.884-.208,1.987-.445,4.036-.692,6.105-.113,1.032-.219,2.073-.292,3.072l-.019.589.007.439-.007.47-.063,1.65c-.194,4.306-.55,8.56-.928,12.556-.186,2-.419,3.926-.62,5.753s-.453,3.553-.662,5.146c-.442,3.184-.892,5.831-1.262,7.677-.18.924-.359,1.644-.489,2.134a3.526,3.526,0,0,1-.251.734,3.455,3.455,0,0,0,.084-.76c.029-.5.017-1.237.031-2.171.01-1.872.027-4.544.045-7.751.023-1.6.047-3.338.073-5.174.041-1.833.083-3.768.126-5.767.129-3.991.265-8.245.4-12.5l.022-1.551-.011-.687.026-1.01c.088-1.12.207-2.188.329-3.245.244-2.105.526-4.164.85-6.145.6-3.968,1.282-7.65,1.926-10.8,1.258-6.3,2.44-10.44,2.44-10.44Z" transform="translate(-7.807 -24.159)" fill="#415214"/>
    <path id="Trazado_39672" data-name="Trazado 39672" d="M142.137,324.894s.391,1.435.982,3.966c.149.631.316,1.333.5,2.093a12.92,12.92,0,0,1,.2,2.781c.006,1.83-.061,3.87-.109,6.1s-.106,4.635-.163,7.186c-.084,2.545-.17,5.232-.262,8.01-.124,5.557-.257,11.482-.392,17.408-.025,2.962-.049,5.926-.074,8.842.025,2.917.047,5.785.071,8.564.052,5.554.226,10.739.492,15.175.235,4.438.519,8.139.809,10.718.262,2.584.447,4.06.447,4.06s-.075-.364-.218-1.046-.375-1.679-.593-2.962-.5-2.84-.766-4.634-.567-3.82-.818-6.038c-.5-4.439-.946-9.633-1.29-15.207-.325-5.573-.463-11.526-.552-17.477-.039-2.975-.067-5.952-.047-8.881.058-2.928.113-5.808.166-8.6.082-2.786.162-5.479.237-8.035.128-2.549.249-4.961.364-7.186s.208-4.25.3-6.051a11.278,11.278,0,0,0-.007-2.272c-.133-.771-.256-1.48-.366-2.122-.451-2.559-.661-4.032-.661-4.032Z" transform="translate(-9.732 -22.529)" fill="#415214"/>
    <path id="Trazado_39673" data-name="Trazado 39673" d="M114.939,323.631a8.656,8.656,0,0,1,1.937.357l.024.008.047.029c1.088.672,2.147,1.392,3.233,2.067s2.173,1.363,3.277,1.915c.135.07.274.121.382.166.031-.007.045.031.086.017l.237-.031.955-.121,1.907-.229,3.819-.446-.1.017c2.322-.724,4.664-1.38,6.994-2.075l-.21.2a2.512,2.512,0,0,1,.075-1.129c.073-.349.14-.7.237-1.09l.658-.079a2.5,2.5,0,0,1,.207,1.331,1.657,1.657,0,0,1-.558,1.208l-.212.2c-2.314.745-4.618,1.525-6.943,2.239l-.033.009-.063.008-3.817.463-1.91.227-.955.1-.237.026a1.134,1.134,0,0,1-.386-.055,4.178,4.178,0,0,1-.5-.219c-1.18-.615-2.239-1.319-3.325-2.016s-2.153-1.4-3.188-2.163l.072.037a8.611,8.611,0,0,1-1.716-.97" transform="translate(-7.97 -22.412)" fill="#415214"/>
    <path id="Trazado_39674" data-name="Trazado 39674" d="M105.192,327.435l1.879-1.186.063-.039.5.143h0l7.239,5.555-.069-.032h0a30.1,30.1,0,0,0,9,.539l-.07.012,4.867-1.44-.231.251a3.96,3.96,0,0,0-.024-1.625,1.146,1.146,0,0,0-.926-.945l.11-.654a1.835,1.835,0,0,1,.967.5,2.111,2.111,0,0,1,.49.931,4.523,4.523,0,0,1,.033,1.927l-.033.195-.2.059-4.867,1.438-.036.01-.033,0a30.652,30.652,0,0,1-9.142-.789h0l-.026-.006-.046-.027-7.8-4.733.566.105Z" transform="translate(-7.294 -22.62)" fill="#415214"/>
    <path id="Trazado_39675" data-name="Trazado 39675" d="M93.454,84.374a33.094,33.094,0,0,0,2.541,5.409,20.519,20.519,0,0,0,2.4,3.285A12.091,12.091,0,0,0,99.35,94l.376.333-.432.5s-.136-.135-.378-.37a13.428,13.428,0,0,1-.94-1.024A21.1,21.1,0,0,1,95.7,89.945a33.311,33.311,0,0,1-2.25-5.571" transform="translate(-6.48 -5.851)" fill="#415214"/>
    <path id="Trazado_39676" data-name="Trazado 39676" d="M132.057,61.238a15.926,15.926,0,0,0,4.074,4.318,28.692,28.692,0,0,0,5.074,3.033l-.692.362.67-1.116.29,1.269.2.865-.892-.5a29.337,29.337,0,0,1-4.958-3.533,16.138,16.138,0,0,1-3.765-4.694" transform="translate(-9.157 -4.246)" fill="#415214"/>
    <path id="Trazado_39677" data-name="Trazado 39677" d="M135.772,59.411s.832.1,2.069.345a19.85,19.85,0,0,1,4.447,1.36,6.366,6.366,0,0,1,1.122.68,2.256,2.256,0,0,1,.838,1.086,1.763,1.763,0,0,1-.229,1.329,4.374,4.374,0,0,1-.641.852,8.549,8.549,0,0,1-1.631,1.351,8.562,8.562,0,0,0,1.357-1.568,4,4,0,0,0,.444-.852,1.2,1.2,0,0,0,.037-.865,2.606,2.606,0,0,0-.608-.822,5.813,5.813,0,0,0-.957-.7,19.443,19.443,0,0,0-4.221-1.684c-1.2-.348-2.026-.517-2.026-.517" transform="translate(-9.415 -4.12)" fill="#415214"/>
    <path id="Trazado_39678" data-name="Trazado 39678" d="M132.056,63.868s.18.448.475,1.073a9.51,9.51,0,0,0,1.34,2.087,5.03,5.03,0,0,0,.99.863,4.442,4.442,0,0,0,1.017.56,11.386,11.386,0,0,0,1.1.395l-.328-.012a4.131,4.131,0,0,1-.86-.116,4.8,4.8,0,0,1-1.166-.446,4.647,4.647,0,0,1-1.136-.885,5.028,5.028,0,0,1-1.3-2.323,3.552,3.552,0,0,1-.137-1.2" transform="translate(-9.157 -4.429)" fill="#415214"/>
    <path id="Trazado_39679" data-name="Trazado 39679" d="M149.675,62.858c-2.322-2.323-4.974-4.262-7.111-6.912l.3.217a27.887,27.887,0,0,0-9.6-1.325l.069-.654,8.988,2.646-9.152-2-2.3-.5,2.371-.152a28.783,28.783,0,0,1,9.981.888l.192.055.1.161c1.69,2.707,4.131,5.01,6.166,7.581" transform="translate(-9.074 -3.751)" fill="#415214"/>
  </g>
</svg>
