<svg id="Grupo_16576" data-name="Grupo 16576" xmlns="http://www.w3.org/2000/svg" xmlns:xlink="http://www.w3.org/1999/xlink" width="306.099" height="238.943" viewBox="0 0 306.099 238.943">
  <defs>
    <clipPath id="clip-path">
      <rect id="Rectángulo_4102" data-name="Rectángulo 4102" width="306.099" height="238.943" fill="#ed8730"/>
    </clipPath>
  </defs>
  <g id="Grupo_16575" data-name="Grupo 16575" clip-path="url(#clip-path)">
    <path id="Trazado_39716" data-name="Trazado 39716" d="M49.146,290.624c-4.594,1.311-9.1,2.789-13.58,4.408s-8.891,3.387-13.219,5.368a90.489,90.489,0,0,0-12.53,6.845A39.163,39.163,0,0,0,4.2,311.7,17.954,17.954,0,0,0,0,317.527l.5.2a17.38,17.38,0,0,1,4.163-5.548,38.65,38.65,0,0,1,5.592-4.274,89.751,89.751,0,0,1,12.525-6.549c4.328-1.888,8.752-3.562,13.225-5.091s9-2.922,13.546-4.129Z" transform="translate(0 -78.785)" fill="#ed8730"/>
    <path id="Trazado_39717" data-name="Trazado 39717" d="M186.858,265.086c-6.5.446-12.984,1.093-19.443,2-3.227.464-6.45.97-9.649,1.633a77.407,77.407,0,0,0-9.51,2.476l.381,1.065a76.92,76.92,0,0,1,9.332-2.579c3.162-.707,6.363-1.259,9.569-1.77,6.415-1,12.881-1.749,19.355-2.293Z" transform="translate(-40.19 -71.862)" fill="#ed8730"/>
    <path id="Trazado_39718" data-name="Trazado 39718" d="M395.429,247.717c-5.465-.567-10.951-.905-16.438-1.194s-10.985-.451-16.479-.573-11-.157-16.492-.141-11,.1-16.5.216l.077,1.945c5.479-.278,10.96-.531,16.446-.7s10.97-.3,16.459-.343,10.98-.028,16.469.087,10.977.3,16.456.706" transform="translate(-89.33 -66.635)" fill="#ed8730"/>
    <path id="Trazado_39719" data-name="Trazado 39719" d="M253.334,254.541l.831-.676a2.374,2.374,0,0,1,.288-2.946c1.409-1.847-1.132-3.918-2.984-5.43a9.521,9.521,0,0,1-1.493-1.359c-.534-.83-1.3-6.871-1.664-10.485l-1.066.106c.16,1.6,1,9.665,1.829,10.957a8.937,8.937,0,0,0,1.716,1.612c1.514,1.235,3.591,2.927,2.811,3.949a3.446,3.446,0,0,0-.268,4.271" transform="translate(-67.026 -63.339)" fill="#ed8730"/>
    <path id="Trazado_39720" data-name="Trazado 39720" d="M234.364,259.672l.83-.676a2.37,2.37,0,0,1,.289-2.946,1.415,1.415,0,0,0,.323-1.161c-.157-.8-1.042-1.325-2.066-1.927-1.721-1.008-2.92-1.839-2.657-3.317a42.76,42.76,0,0,1,2-12.125l-1.018-.335a42.7,42.7,0,0,0-2.04,12.381c-.405,2.218,1.663,3.435,3.174,4.32.666.392,1.494.88,1.558,1.21a.422.422,0,0,1-.121.3,3.446,3.446,0,0,0-.268,4.271" transform="translate(-62.342 -64.298)" fill="#ed8730"/>
    <path id="Trazado_39721" data-name="Trazado 39721" d="M238.96,260.1l.831-.676a2.369,2.369,0,0,1,.289-2.946,1.425,1.425,0,0,0,.322-1.161c-.16-.8-1.042-1.323-2.066-1.927-1.721-1.011-2.92-1.841-2.657-3.319-.127-5.651,2.024-13.09,2.045-13.165l-1.029-.3c-.09.309-2.215,7.675-2.079,13.384-.405,2.221,1.663,3.436,3.174,4.323.666.392,1.494.88,1.558,1.209a.423.423,0,0,1-.121.3,3.446,3.446,0,0,0-.268,4.271" transform="translate(-63.588 -64.143)" fill="#ed8730"/>
    <path id="Trazado_39722" data-name="Trazado 39722" d="M260.081,253.734l1.068-.093c-.085-.994-.929-9.73-4.15-10.56-1.749-.451-2.425-7.547-2.347-12.445l-1.071-.015c-.034,2.11-.042,12.677,3.15,13.5,1.878.485,3.051,6.157,3.351,9.616" transform="translate(-68.741 -62.519)" fill="#ed8730"/>
    <path id="Trazado_39723" data-name="Trazado 39723" d="M242.457,265.291a3.091,3.091,0,0,0,1.967-.562,2,2,0,0,0,.65-1.847,1.636,1.636,0,0,1,.374-1.494c1.032-.993,4.393-.679,7.542-.243,6.066.846,10.044.717,11.117-2.5a2.194,2.194,0,0,1,1.566-1.155c2.478-.709,7.049.114,9.9,2.471,3.562,2.945,5.5,1.238,7.377-.41a17.413,17.413,0,0,1,1.661-1.347c1.862-1.281,4.091-.712,6.812,1.741.987.9-.575,3.4-1.2,4.2l.848.655c.31-.4,2.967-3.942,1.071-5.654-3.1-2.8-5.834-3.415-8.138-1.829a18.353,18.353,0,0,0-1.76,1.424c-1.883,1.653-3.128,2.752-5.987.389-3.216-2.657-8.154-3.454-10.882-2.675a3.1,3.1,0,0,0-2.287,1.847c-.735,2.2-3.431,2.688-9.952,1.782-5.019-.7-7.307-.555-8.434.531a2.709,2.709,0,0,0-.7,2.373c.062.637-.189.846-.271.913-.691.575-2.481.225-3.054.057l-.3,1.027a8.091,8.091,0,0,0,2.074.3" transform="translate(-65.165 -69.445)" fill="#ed8730"/>
    <path id="Trazado_39724" data-name="Trazado 39724" d="M241.184,167.007c.073-.036,7.25-3.557,15-.988,3.717.846,5.747.706,6.43-.421.751-1.236-.624-2.919-.781-3.108l-.1-.09c-.294-.208-7.323-5.061-20.523-2.3l.219,1.05c12.115-2.533,18.955,1.651,19.628,2.089.415.516.882,1.406.639,1.8-.141.232-.939.921-5.228-.052a22.3,22.3,0,0,0-15.772,1.06Z" transform="translate(-65.252 -43.172)" fill="#ed8730"/>
    <path id="Trazado_39725" data-name="Trazado 39725" d="M236.961,160.817A24.306,24.306,0,0,1,257,152.888l.152.023.142-.064c.835-.374,3.552-1.713,3.438-3.25-.085-1.166-1.635-1.6-2.146-1.744-7.407-2.077-15.382-.119-20.322,4.994l.771.743c4.669-4.833,12.231-6.683,19.263-4.705.985.276,1.351.6,1.367.789.038.518-1.354,1.519-2.674,2.136a25.469,25.469,0,0,0-20.824,8.29Z" transform="translate(-64.021 -39.86)" fill="#ed8730"/>
    <path id="Trazado_39726" data-name="Trazado 39726" d="M235.151,159.019l1.068-.1c-.475-4.9,4.746-19.409,14.39-23.046l.346-.131v-.367A3.969,3.969,0,0,0,249.688,132c-.975-.748-2.432-.841-4.457-.278l-.189.1c-6.718,5.29-11.191,9.509-12.117,19.579l1.065.1c.885-9.6,5.177-13.681,11.63-18.767,1.6-.426,2.75-.384,3.418.126a2.745,2.745,0,0,1,.84,2.152c-9.5,3.871-15.311,17.988-14.728,24.013" transform="translate(-63.143 -35.611)" fill="#ed8730"/>
    <path id="Trazado_39727" data-name="Trazado 39727" d="M202.378,168.451c1-3.088,2.246-5.164,5.674-6.634a6.343,6.343,0,0,1,2.65-.689c.874-.013.961-.426,1.158-1.326l.1-.483c.313-1.39.313-1.39,1.017-1.7a16.964,16.964,0,0,0,2.267-1.182c1.473-.9,2.027-.088,2.429.505.173.253.416.6.836.477.467-.134.488-.59.519-1.416.02-.451.118-.756.276-.856.407-.265,1.542.214,2.548.635a18.909,18.909,0,0,0,1.911.714c.8.233.8.544.491,1.893a4.634,4.634,0,0,0,.178,3.557c.317.552.421.985.289,1.228-.155.284-.663.371-.83.379l.044,1.07a2.144,2.144,0,0,0,1.722-.931,2.286,2.286,0,0,0-.3-2.283,3.675,3.675,0,0,1-.062-2.775c.271-1.171.612-2.628-1.233-3.168a18.317,18.317,0,0,1-1.8-.676c-1.429-.593-2.662-1.1-3.534-.55a1.8,1.8,0,0,0-.745,1.393c-.617-.59-1.671-1.1-3.3-.111a16.285,16.285,0,0,1-2.141,1.115c-1.161.508-1.243.714-1.633,2.445l-.106.491c-.041.186-.08.364-.111.482h-.018a7.328,7.328,0,0,0-3.054.774c-3.784,1.625-5.205,4-6.27,7.289Z" transform="translate(-54.586 -41.749)" fill="#ed8730"/>
    <path id="Trazado_39728" data-name="Trazado 39728" d="M221.821,254.1c-4.513.163-9.02.5-13.536,1.061A48.192,48.192,0,0,0,201.5,256.5a12.047,12.047,0,0,0-1.746.655,4.972,4.972,0,0,0-.941.578,2.171,2.171,0,0,0-.87,1.532,2.1,2.1,0,0,0,.268,1.058,2.533,2.533,0,0,0,.5.609,4.629,4.629,0,0,0,.945.649,12.284,12.284,0,0,0,1.743.741,45.258,45.258,0,0,0,6.772,1.558q3.381.561,6.757.939c4.509.5,9.017.88,13.531,1.12a493.049,493.049,0,0,0,54.153-.065,234.539,234.539,0,0,0,26.988-2.8c1.119-.222,2.238-.449,3.358-.753a13.834,13.834,0,0,0,3.373-1.29,2.793,2.793,0,0,0,.439-.319,1.793,1.793,0,0,0,.436-.472,1.588,1.588,0,0,0,.289-.792,1.661,1.661,0,0,0-.214-.849,3.658,3.658,0,0,0-1.731-1.287,20.618,20.618,0,0,0-3.365-1.039,116.219,116.219,0,0,0-13.472-1.907c-18-1.612-36.04-1.821-54.078-1.66l.039,1.715,13.489-.261c4.5-.023,8.994.023,13.492.116,8.992.186,17.983.65,26.921,1.5a104.934,104.934,0,0,1,13.247,2.007,19.017,19.017,0,0,1,3.069.983,2.6,2.6,0,0,1,.983.637c-.028.042.034-.165-.023-.075a.379.379,0,0,1-.139.134,1.475,1.475,0,0,1-.248.173,12.475,12.475,0,0,1-2.936,1.053c-1.058.276-2.151.485-3.242.686-4.387.764-8.859,1.192-13.33,1.537s-8.961.573-13.448.735c-8.979.332-17.97.415-26.954.3-8.986-.074-17.972-.317-26.927-.864-4.478-.286-8.952-.57-13.4-1.039a82.548,82.548,0,0,1-13.059-2.1,10.723,10.723,0,0,1-1.385-.521,2.617,2.617,0,0,1-.462-.279c-.1-.051-.013-.031-.048-.023-.008,0,.085.168.035.262-.043.284-.118.233,0,.14a2.732,2.732,0,0,1,.488-.318,9.618,9.618,0,0,1,1.391-.577,46.4,46.4,0,0,1,6.409-1.509c4.387-.823,8.853-1.354,13.314-1.912Z" transform="translate(-53.66 -68.492)" fill="#ed8730"/>
    <path id="Trazado_39729" data-name="Trazado 39729" d="M250.448,253.283c-2.528-.1-5.051.1-7.573.206-2.52.137-5.043.256-7.575.224l.116,1.715c2.5-.273,5.017-.4,7.532-.508,2.512-.134,5.029-.188,7.537-.526Z" transform="translate(-63.787 -68.655)" fill="#ed8730"/>
    <path id="Trazado_39730" data-name="Trazado 39730" d="M314.569,262.716c-1.114,3.562-3.521,7.083-5.866,10.418-2.4,3.354-4.993,6.611-7.624,9.84-5.274,6.456-10.745,12.786-16.054,19.275h0l.621-.392a119.685,119.685,0,0,1-28.166,4,99.529,99.529,0,0,1-28.215-3.537l.34.214C224.3,296.482,219.06,290.367,214.156,284c-2.443-3.185-4.8-6.436-6.965-9.8a60.125,60.125,0,0,1-5.532-10.552l-1.339.5a61.723,61.723,0,0,0,5.669,10.826c2.193,3.415,4.575,6.694,7.033,9.9,4.937,6.408,10.192,12.541,15.508,18.608a.7.7,0,0,0,.327.211l.013,0a101.113,101.113,0,0,0,28.622,4.062,121.776,121.776,0,0,0,28.731-3.6,1.166,1.166,0,0,0,.609-.374l.013-.018c5.39-6.366,10.964-12.6,16.381-19.007,2.706-3.209,5.38-6.454,7.906-9.856,1.262-1.7,2.483-3.449,3.621-5.28a27.592,27.592,0,0,0,2.9-6Z" transform="translate(-54.305 -71.219)" fill="#ed8730"/>
    <path id="Trazado_39731" data-name="Trazado 39731" d="M318.773,215.238a29.776,29.776,0,0,1,.627,6.377,28.967,28.967,0,0,1-.711,6.317,24.909,24.909,0,0,1-.913,3.051l-.56,1.5c-.212.487-.452.964-.676,1.449-.415.991-1.037,1.867-1.54,2.817-.552.921-1.215,1.772-1.8,2.685a27.378,27.378,0,0,0,3.813-5.254,23.464,23.464,0,0,0,2.414-6.069,21.868,21.868,0,0,0,.7-6.508,17.259,17.259,0,0,0-1.359-6.363" transform="translate(-84.905 -58.349)" fill="#ed8730"/>
    <rect id="Rectángulo_4100" data-name="Rectángulo 4100" width="38.916" height="0.535" transform="matrix(0.091, -0.996, 0.996, 0.091, 232.474, 154.568)" fill="#ed8730"/>
    <path id="Trazado_39732" data-name="Trazado 39732" d="M311.721,173.019a15.626,15.626,0,0,1,3.244-2.12,21.752,21.752,0,0,1,3.655-1.329c.211-.057.426-.093.637-.144a3.02,3.02,0,0,0-.011.748,21.408,21.408,0,0,0-4.091,1.15,15.264,15.264,0,0,0-3.286,1.873,11.163,11.163,0,0,0-2.525,2.84,11.28,11.28,0,0,1,2.376-3.018" transform="translate(-83.86 -45.929)" fill="#ed8730"/>
    <path id="Trazado_39733" data-name="Trazado 39733" d="M330.811,160.854a17.276,17.276,0,0,0-4.849,9.6,18.883,18.883,0,0,0-.207,3.6,18.912,18.912,0,0,1,.337-3.575,16.588,16.588,0,0,1,1.034-3.422,16.385,16.385,0,0,1,4.029-5.788Z" transform="translate(-88.307 -43.606)" fill="#ed8730"/>
    <path id="Trazado_39734" data-name="Trazado 39734" d="M316.1,201.5a29,29,0,0,1-3.662.178,17.167,17.167,0,0,1-3.583-.418,8.714,8.714,0,0,1-3.2-1.418,9.371,9.371,0,0,1-2.322-2.672,5.241,5.241,0,0,0,1.873,3.255,8.4,8.4,0,0,0,3.5,1.5,13.123,13.123,0,0,0,3.74.216,16.327,16.327,0,0,0,3.65-.64" transform="translate(-82.23 -53.451)" fill="#ed8730"/>
    <path id="Trazado_39735" data-name="Trazado 39735" d="M258.712,245.875l.526-.1a6.81,6.81,0,0,0-2.987-4.3l-.27.459a6.392,6.392,0,0,1,2.731,3.946" transform="translate(-69.394 -65.459)" fill="#ed8730"/>
    <path id="Trazado_39736" data-name="Trazado 39736" d="M266.507,251.932l.446-.294c-.071-.114-1.878-2.789-7.851-4.847-.405-.139-.655-.253-.865-.346a5.189,5.189,0,0,0-2.056-.469l-.051.531a4.706,4.706,0,0,1,1.887.426,9.755,9.755,0,0,0,.911.363c5.777,1.991,7.56,4.61,7.578,4.635" transform="translate(-69.434 -66.682)" fill="#ed8730"/>
    <path id="Trazado_39737" data-name="Trazado 39737" d="M280.749,223.15a61.464,61.464,0,0,0-3.647,5.009,50.949,50.949,0,0,0-3.108,5.347,31.1,31.1,0,0,0-2.3,5.752,16.164,16.164,0,0,0-.647,6.18l.531-.062a15.631,15.631,0,0,1,.789-5.917,30.456,30.456,0,0,1,2.4-5.554,50.659,50.659,0,0,1,3.2-5.167c1.16-1.656,2.393-3.289,3.7-4.8Z" transform="translate(-73.455 -60.493)" fill="#ed8730"/>
    <path id="Trazado_39738" data-name="Trazado 39738" d="M329.584,202.312a25.2,25.2,0,0,1,.073,9.458,20.574,20.574,0,0,0-.795,4.823c-.129,1.617-.211,3.229-.292,4.839l-.445,9.649c-.09,1.6-.194,3.206-.354,4.79-.08.792-.173,1.581-.3,2.347-.068.381-.143.758-.24,1.112a2.5,2.5,0,0,1-.289.722l.995,1.1a2.969,2.969,0,0,0,.7-1.452,12.483,12.483,0,0,0,.24-1.256c.122-.826.2-1.638.261-2.451.122-1.625.186-3.242.235-4.857l.209-9.668c.039-1.607.083-3.214.171-4.813a19.741,19.741,0,0,1,.655-4.707,25.817,25.817,0,0,0-.291-9.742Z" transform="translate(-88.629 -54.816)" fill="#ed8730"/>
    <path id="Trazado_39739" data-name="Trazado 39739" d="M326.809,156.669l.1-.526c-5.682-1.1-14.405-3.142-15.146-4.238a3.631,3.631,0,0,1-.534-3.11,4.554,4.554,0,0,1,2.5-2.34c1.088.062,13.464.764,14.782.65l-.047-.531c-1.328.1-14.629-.647-14.763-.657l-.057,0-.052.018a5.121,5.121,0,0,0-2.868,2.682,4.144,4.144,0,0,0,.587,3.577c1.109,1.646,14.026,4.194,15.5,4.478" transform="translate(-84.183 -39.555)" fill="#ed8730"/>
    <path id="Trazado_39740" data-name="Trazado 39740" d="M333.069,137.025l5.589.89-.168-.1,6.783,8.661-.056-.149v0c.046,4.031.005,8.068-.163,12.081-.087,2-.227,4.006-.48,5.979a28.353,28.353,0,0,1-.521,2.9,7.467,7.467,0,0,1-.956,2.492c-.08.106-.265.314-.456.523s-.372.4-.524.612c-.327.413-.645.827-.936,1.243l-1.752,2.481a41.352,41.352,0,0,1-3.714,4.635,18.113,18.113,0,0,1-9.959,5.78,10.464,10.464,0,0,0,6.123-.9,16.473,16.473,0,0,0,5.009-3.771,42.962,42.962,0,0,0,3.841-4.824l1.736-2.476c.286-.41.582-.8.883-1.179a6.809,6.809,0,0,1,.458-.539c.147-.168.3-.333.534-.622a8.169,8.169,0,0,0,1.225-3.113,30.065,30.065,0,0,0,.451-3.077c.2-2.045.27-4.08.291-6.113a119.942,119.942,0,0,0-.557-12.146v0l0-.082-.055-.067-6.783-8.659-.064-.082-.1-.016-5.59-.89Z" transform="translate(-88.309 -37.002)" fill="#ed8730"/>
    <rect id="Rectángulo_4101" data-name="Rectángulo 4101" width="0.535" height="7.544" transform="translate(250.834 110.972) rotate(-36.682)" fill="#ed8730"/>
    <path id="Trazado_39741" data-name="Trazado 39741" d="M333.631,163.964a14.14,14.14,0,0,1-.6-5.538c.085-1.87.3-3.733.553-5.587.531-3.7,1.243-7.392,2.092-11.026l-.06.157v0a6.524,6.524,0,0,1,2.223-2.362,1.678,1.678,0,0,1,1.313-.15,2.939,2.939,0,0,1,1.195.888l.036.041c-.034-.036.077.168.1.351a5.947,5.947,0,0,1,.112.606c.057.426.1.864.126,1.308.06.885.088,1.78.112,2.675l.054,5.391c.013,1.8.025,3.6.09,5.4.039.9.087,1.8.175,2.7a7.259,7.259,0,0,0,.6,2.624,7.173,7.173,0,0,1-.427-2.634c-.034-.9-.024-1.8-.008-2.693.026-1.795.1-3.593.173-5.388l.206-5.4c.021-.906.036-1.808.021-2.722-.007-.456-.028-.916-.069-1.385a5.708,5.708,0,0,0-.1-.722,1.831,1.831,0,0,0-.386-.892l.036.039a3.983,3.983,0,0,0-1.682-1.267,2.844,2.844,0,0,0-2.2.176,5.309,5.309,0,0,0-1.6,1.259,9.533,9.533,0,0,0-1.128,1.6v0l-.044.085-.013.072c-.668,3.723-1.186,7.452-1.529,11.208-.155,1.878-.276,3.76-.264,5.646a14.238,14.238,0,0,0,.89,5.543" transform="translate(-90.202 -37.473)" fill="#ed8730"/>
    <path id="Trazado_39742" data-name="Trazado 39742" d="M294.312,179.713a186.085,186.085,0,0,0-6.716,18.148c-.916,3.1-1.765,6.224-2.476,9.391-.33,1.592-.671,3.185-.856,4.819a9.9,9.9,0,0,0,.586,4.919,22.8,22.8,0,0,0,.6-2.378c.211-.778.286-1.545.444-2.324s.233-1.564.387-2.342l.464-2.34c.691-3.113,1.517-6.206,2.415-9.281,1.736-6.172,3.707-12.29,5.656-18.421Z" transform="translate(-77.041 -48.718)" fill="#ed8730"/>
    <path id="Trazado_39743" data-name="Trazado 39743" d="M319.266,141.724a55.3,55.3,0,0,0,2.2-5.463c.649-1.841,1.163-3.711,1.947-5.4a11.338,11.338,0,0,1,.658-1.2,2.185,2.185,0,0,1,.869-.779,3.313,3.313,0,0,1,2.481-.059,4.928,4.928,0,0,1,3.34,3.926v0l0-.075a37.738,37.738,0,0,1-2.7,9.082l.48.24a27.361,27.361,0,0,0,1.662-4.54c.43-1.547.792-3.105,1.083-4.689l.005-.039,0-.036v0a5.617,5.617,0,0,0-3.591-4.656,4.206,4.206,0,0,0-3.177-.049,3.211,3.211,0,0,0-1.326,1.063,12.193,12.193,0,0,0-.8,1.3c-.944,1.785-1.55,3.637-2.283,5.406a54.207,54.207,0,0,1-2.412,5.19Z" transform="translate(-86.126 -34.616)" fill="#ed8730"/>
    <path id="Trazado_39744" data-name="Trazado 39744" d="M299.442,180.661a56.463,56.463,0,0,1-.624-7.312,21.25,21.25,0,0,1,1.058-7.054,15.641,15.641,0,0,1,3.654-6.131,13.7,13.7,0,0,1,2.879-2.223,12.343,12.343,0,0,0,2.623-2.732l-.435-.309a8.465,8.465,0,0,1-2.427,2.646,14.724,14.724,0,0,0-3.111,2.12,16.113,16.113,0,0,0-4.364,6.2,17.679,17.679,0,0,0-1.143,7.526,20.736,20.736,0,0,0,1.891,7.274" transform="translate(-80.652 -41.991)" fill="#ed8730"/>
    <path id="Trazado_39745" data-name="Trazado 39745" d="M272.236,207.116h5.358l-.173-.062a27.129,27.129,0,0,0,2.607,2.26,11.277,11.277,0,0,0,3.17,1.787l.4-1.777a9.873,9.873,0,0,1-2.946-1.014,26.883,26.883,0,0,1-2.884-1.666v0l-.075-.062h-5.452Z" transform="translate(-73.8 -56.001)" fill="#ed8730"/>
    <path id="Trazado_39746" data-name="Trazado 39746" d="M265.754,196.527l.382-.374c-.822-.836-1.287-4.5-1.4-5.844l-.007-.1-4.844-4.71-3.766-11.7-13.283-5.984-.23.485,13.074,5.884,3.784,11.651,4.749,4.617c.072.838.485,5,1.539,6.074" transform="translate(-65.768 -45.493)" fill="#ed8730"/>
    <path id="Trazado_39747" data-name="Trazado 39747" d="M121.88,191.893q-6.589-5.757-13.588-11.031A129.337,129.337,0,0,0,93.73,171.05c-.627-.384-1.305-.694-1.968-1.031a16.2,16.2,0,0,0-2.045-.926l-1.058-.415a9.489,9.489,0,0,0-1.153-.289,8.753,8.753,0,0,0-2.316-.24,18.812,18.812,0,0,0-8.738,2.275,17.261,17.261,0,0,0-9.118,14.64l.534.047a17.476,17.476,0,0,1,9.3-13.346,17.252,17.252,0,0,1,8.027-2.017c2.721-.034,5.267,1.292,7.839,2.6a168.426,168.426,0,0,1,14.677,9.324q7.154,5,14.176,10.224" transform="translate(-18.253 -45.583)" fill="#ed8730"/>
    <path id="Trazado_39748" data-name="Trazado 39748" d="M154.745,185.25c-7.555-.493-15.094-1.281-22.566-2.453q-5.607-.858-11.1-2.213a41.152,41.152,0,0,1-10.5-3.846l-.553.949a41.954,41.954,0,0,0,10.857,3.7q5.572,1.231,11.22,1.956c7.518.991,15.075,1.6,22.644,1.908" transform="translate(-29.826 -47.912)" fill="#ed8730"/>
    <path id="Trazado_39749" data-name="Trazado 39749" d="M107.642,204.826a79.459,79.459,0,0,0-6.562-13.448,49.473,49.473,0,0,0-4.366-6.159,24.466,24.466,0,0,0-5.683-5.164,11.429,11.429,0,0,0-3.689-1.532,20.885,20.885,0,0,0-3.853-.431,25.631,25.631,0,0,0-7.614,1.016,21.967,21.967,0,0,0-12.44,8.7,15.721,15.721,0,0,0-2.469,7.374q-.274,3.7-.637,7.413l-1.522,14.831L55.646,247.09l.531.068q2.077-14.776,3.9-29.585l1.725-14.826q.41-3.71.743-7.441a14.562,14.562,0,0,1,2.255-6.613A20.33,20.33,0,0,1,76.335,180.7a23.918,23.918,0,0,1,7.114-.934,19.014,19.014,0,0,1,3.549.4,10.481,10.481,0,0,1,3.162,1.313,24.27,24.27,0,0,1,5.39,4.743,63.394,63.394,0,0,1,4.507,5.816c1.4,2.031,2.708,4.135,3.959,6.273,1.282,2.126,2.463,4.311,3.626,6.513" transform="translate(-15.085 -48.277)" fill="#ed8730"/>
    <path id="Trazado_39750" data-name="Trazado 39750" d="M123.532,223.615a7.933,7.933,0,0,0,1.9-3.864,7.239,7.239,0,0,0,.112-2.206,4.539,4.539,0,0,0-.27-1.158,10.751,10.751,0,0,0-.485-1,56.561,56.561,0,0,0-4.919-6.755c-1.726-2.156-3.539-4.233-5.326-6.33l-2.667-3.152a19.34,19.34,0,0,1-2.409-3.33,17.035,17.035,0,0,0,2.115,3.554c.789,1.137,1.617,2.238,2.454,3.335l5.019,6.562a64.433,64.433,0,0,1,4.641,6.709c.136.284.322.583.421.854a3.3,3.3,0,0,1,.229.839,8.148,8.148,0,0,1,.026,1.913,9.616,9.616,0,0,1-1.251,3.686Z" transform="translate(-29.675 -53.085)" fill="#ed8730"/>
    <path id="Trazado_39751" data-name="Trazado 39751" d="M81.357,247.536a16.608,16.608,0,0,0-6.425-1.695,15.175,15.175,0,0,0-6.59,1.047,18.466,18.466,0,0,0-3.006,1.516l-1.34,1a8.28,8.28,0,0,0-1.262,1.088A18.335,18.335,0,0,0,60.5,252.94l-1.006,1.308c-.3.453-.57.931-.856,1.4a23.131,23.131,0,0,0-1.569,2.863,22.032,22.032,0,0,0-1.284,3.01l-.547,1.558-.354,1.641-.176.823-.057.851A11.209,11.209,0,0,0,54.6,268.1a8.7,8.7,0,0,0,2.833,6.252,9.924,9.924,0,0,0,6.125,2.5l.082-.529c-3.895-1.4-6.946-4.449-6.935-8.326-.075-3.838,1.72-7.759,3.8-11.2,2.145-3.392,4.882-6.59,8.591-8.014a14.389,14.389,0,0,1,5.762-1.106,16.4,16.4,0,0,1,5.8,1.2Z" transform="translate(-14.795 -66.636)" fill="#ed8730"/>
    <path id="Trazado_39752" data-name="Trazado 39752" d="M161.846,246.224a21.241,21.241,0,0,1-2.483,4.434,22.7,22.7,0,0,1-3.418,3.745,18.509,18.509,0,0,1-8.992,4.274l-.031.008-.044.013c-4.037,1.266-7.98,2.741-11.911,4.243L123.2,267.485c-7.841,3.021-15.661,6.085-23.539,8.948-3.941,1.421-7.9,2.783-11.9,3.99a55.639,55.639,0,0,1-12.01,2.569,5.606,5.606,0,0,1-2.584-.366,10.169,10.169,0,0,1-2.429-1.447,12.677,12.677,0,0,1-3.482-4.555,19.6,19.6,0,0,1-1.667-5.753,16.7,16.7,0,0,1,.132-6.074l-.5-.188a14.96,14.96,0,0,0-1.117,6.382,18.849,18.849,0,0,0,1.288,6.445,13.74,13.74,0,0,0,3.91,5.5,12.478,12.478,0,0,0,2.943,1.813,7.728,7.728,0,0,0,3.591.542,35.181,35.181,0,0,0,6.433-1.042c2.079-.5,4.116-1.086,6.142-1.708,4.044-1.254,8.024-2.652,11.977-4.106,7.914-2.9,15.714-6.062,23.48-9.278,7.774-3.183,15.525-6.469,23.379-9.324l-.075.017a19.523,19.523,0,0,0,9.366-4.777,22.385,22.385,0,0,0,5.811-8.682Z" transform="translate(-17.38 -66.748)" fill="#ed8730"/>
    <path id="Trazado_39753" data-name="Trazado 39753" d="M187.146,180.5a13.534,13.534,0,0,0,2.087-2.548,8.342,8.342,0,0,0,1.243-3.137,5.456,5.456,0,0,0,0-1.772,5.774,5.774,0,0,0-.238-.869,2.069,2.069,0,0,0-.6-.916,2.748,2.748,0,0,0-1.973-.583,6.232,6.232,0,0,0-1.806.379h0l-.086.034-.124.1c-2.2,1.808-4.322,3.7-6.481,5.548l-6.36,5.683-.057.049-.051.062a40.622,40.622,0,0,0-3.562,5.228,37.979,37.979,0,0,0-2.737,5.691,23.082,23.082,0,0,0-1.539,6.178,11.562,11.562,0,0,0,1.077,6.239,30.475,30.475,0,0,1,.653-5.994,31.825,31.825,0,0,1,1.72-5.664,42.6,42.6,0,0,1,2.706-5.342,49.388,49.388,0,0,1,3.374-4.934l-.106.114,6.258-5.793c2.048-1.975,4.129-3.913,6.138-5.927l-.206.134c.786-.377,1.906-.609,2.376-.246a.882.882,0,0,1,.3.39,4.547,4.547,0,0,1,.24.665,4.464,4.464,0,0,1,.113,1.429,10.094,10.094,0,0,1-2.7,5.45Z" transform="translate(-44.677 -46.268)" fill="#ed8730"/>
    <path id="Trazado_39754" data-name="Trazado 39754" d="M141.589,213.9a2.923,2.923,0,0,0-1.323.238c-.379.139-.748.3-1.109.464-.719.337-1.418.714-2.105,1.1-1.371.781-2.695,1.638-4.005,2.507-2.623,1.717-5.13,3.7-7.7,5.323a36.787,36.787,0,0,1-8.535,3.485c-2.987.831-6.064,1.437-9.113,2.226a71.734,71.734,0,0,0-9.04,2.863,54.476,54.476,0,0,0-8.447,4.359A56.065,56.065,0,0,0,76.19,249.1l.124.114a119.982,119.982,0,0,1,14.632-11.558,53.489,53.489,0,0,1,8.224-4.269,70.6,70.6,0,0,1,8.86-2.822c3.021-.774,6.085-1.44,9.125-2.338a37.866,37.866,0,0,0,8.754-3.747c2.711-1.754,5.051-3.766,7.616-5.566,1.273-.906,2.553-1.8,3.88-2.608.66-.405,1.333-.795,2.019-1.145.343-.176.691-.338,1.042-.477a4.04,4.04,0,0,1,.952-.268Z" transform="translate(-20.654 -57.984)" fill="#ed8730"/>
    <path id="Trazado_39755" data-name="Trazado 39755" d="M214.694,222.123c2.038.243,4.083.467,6.142.531a18,18,0,0,0,6.134-.666q5.865-1.842,11.751-3.611l-.034.008a3.829,3.829,0,0,1,1.945.284,2.865,2.865,0,0,1,1.384,1.318,3.2,3.2,0,0,1-.671,3.606l.021-.02a24.729,24.729,0,0,1-3.5,2.422,34.366,34.366,0,0,1-3.83,1.818c-2.631,1.045-5.349,1.819-8.065,2.626l.206-.046c-2.224.252-4.453.467-6.673.748s-4.436.575-6.645.957h0l-.176.026-.24.111c-1.789.838-3.712,1.625-5.61,2.329s-3.844,1.326-5.8,1.867a47.009,47.009,0,0,1-5.95,1.228,49.961,49.961,0,0,0-6.15,1.053,13.121,13.121,0,0,0,6.342,1.078,37.254,37.254,0,0,0,6.369-.883,42.863,42.863,0,0,0,6.131-1.862,38.282,38.282,0,0,0,5.8-2.8l-.418.137h0c2.231-.191,4.452-.47,6.67-.761s4.428-.645,6.644-.967l.129-.018.077-.028a48.593,48.593,0,0,0,7.923-3.626,40.621,40.621,0,0,0,3.676-2.347,39.753,39.753,0,0,0,3.408-2.683l.01-.01.008-.01a3.657,3.657,0,0,0,.694-4.131,3.272,3.272,0,0,0-1.6-1.488,4.229,4.229,0,0,0-2.152-.286l-.017,0-.016.005q-5.853,1.884-11.735,3.678a16.337,16.337,0,0,1-6.025.593c-2.038-.109-4.067-.374-6.092-.661Z" transform="translate(-51.219 -59.094)" fill="#ed8730"/>
    <path id="Trazado_39756" data-name="Trazado 39756" d="M216.243,205.536l7.611-1.811c2.541-.575,5.071-1.269,7.615-1.73a51.718,51.718,0,0,1,15.517-.122l-.144-.072a5.781,5.781,0,0,1,1.795,3.389,5.1,5.1,0,0,1-1.318,3.557l.139-.085c-2.408.24-4.787.611-7.165,1s-4.739.856-7.1,1.33l-.1.021-.1.046a110.815,110.815,0,0,0-11.005,5.951l.211.443a111.272,111.272,0,0,0,11.542-4.833l-.2.067c2.353-.505,4.7-1.011,7.036-1.612s4.669-1.194,6.972-1.937l.1-.034.036-.051,0,0a5.578,5.578,0,0,0,1.424-3.908,6.245,6.245,0,0,0-1.929-3.686l-.059-.062-.085-.012a52.269,52.269,0,0,0-15.664.126c-2.592.469-5.1,1.158-7.643,1.736l-7.613,1.811Z" transform="translate(-58.59 -54.451)" fill="#ed8730"/>
    <path id="Trazado_39757" data-name="Trazado 39757" d="M208.512,190.8a29.134,29.134,0,0,0,8.127-2.174,42.247,42.247,0,0,1,7.917-2.478l-.1.01c2.736-.054,5.476-.052,8.21-.152h0l-.328-.079,6.846,3.6,1.713.9.856.449a1.874,1.874,0,0,1,.617.523c.65.913.513,2.293.3,3.513l0,.005.052-.106a6.274,6.274,0,0,1-1.279,1.006,10.833,10.833,0,0,1-1.488.761l.19.451a11.316,11.316,0,0,0,1.558-.795,6.718,6.718,0,0,0,1.4-1.109l.036-.042.016-.067v-.005a5.309,5.309,0,0,0-.211-4.008,2.606,2.606,0,0,0-.807-.764l-.833-.492-1.666-.988-6.664-3.951-.145-.085-.182,0h0c-2.737.034-5.473.173-8.208.256l-.059,0-.039.011a41.2,41.2,0,0,0-7.918,3.1,28.941,28.941,0,0,1-7.9,2.7" transform="translate(-56.525 -50.077)" fill="#ed8730"/>
    <path id="Trazado_39758" data-name="Trazado 39758" d="M182,184.041a4.631,4.631,0,0,1,2.022-2.238,12.515,12.515,0,0,1,2.8-1.233,28.049,28.049,0,0,1,6.021-1.125l.074-.005.06-.051c1.965-1.61,4.037-3.085,6.141-4.519,2.071-1.47,4.3-2.8,5.992-4.833l-.119.085a64.092,64.092,0,0,1,12.59-2.014l-.111-.006c3.252.553,6.492,1.106,9.786,1.515l-.127-.034a3.765,3.765,0,0,1,2.139,4.109,3.286,3.286,0,0,1-1.471,1.963,7.088,7.088,0,0,1-2.471.947l.042-.006a26.609,26.609,0,0,1-7.272-.459l-.085-.02-.074.031L207.767,180.4l-.155.064.005.176a4.341,4.341,0,0,1-1.055,2.564,18.572,18.572,0,0,1-1.98,2.19l.34.351a18.949,18.949,0,0,0,2.032-2.249,4.774,4.774,0,0,0,1.153-2.884l-.149.24,10.171-4.258-.157.01,0,0a27.1,27.1,0,0,0,7.433.635h.018l.023-.005a7.71,7.71,0,0,0,2.736-.988,4.026,4.026,0,0,0,1.835-2.37,4.253,4.253,0,0,0-.372-3,4.546,4.546,0,0,0-2.162-2.125h0l-.052-.026-.074-.007c-3.243-.39-6.5-.934-9.74-1.47l-.062-.011-.052.005a64.928,64.928,0,0,0-12.654,2.4l-.069.021-.052.062c-1.589,1.919-3.815,3.268-5.884,4.73-2.107,1.437-4.2,2.923-6.175,4.548l.134-.055a28.257,28.257,0,0,0-6.059,1.38,12.576,12.576,0,0,0-2.788,1.362A4.686,4.686,0,0,0,182,184.041" transform="translate(-49.338 -45.339)" fill="#ed8730"/>
    <path id="Trazado_39759" data-name="Trazado 39759" d="M185.2,94.491a10.444,10.444,0,0,0-1.149,1.79,10.7,10.7,0,0,0-.763,1.943,8,8,0,0,0-.313,2.045,7.418,7.418,0,0,0,.246,2.025,7.211,7.211,0,0,1,.008-2,7.659,7.659,0,0,1,.536-1.9,10.134,10.134,0,0,1,2.164-3.2Z" transform="translate(-49.602 -25.615)" fill="#ed8730"/>
    <path id="Trazado_39760" data-name="Trazado 39760" d="M189.316,127.774a3.579,3.579,0,0,0,.5-3.838,5.3,5.3,0,0,0-.686-1.1,5.353,5.353,0,0,1,.562,1.15,3.537,3.537,0,0,1,.191,1.238,3.264,3.264,0,0,1-.945,2.174Z" transform="translate(-51.218 -33.298)" fill="#ed8730"/>
    <path id="Trazado_39761" data-name="Trazado 39761" d="M166.937,128.559a8.324,8.324,0,0,1-1.612-.7,4.34,4.34,0,0,1-1.308-1.081,2.574,2.574,0,0,1-.559-1.558,5.347,5.347,0,0,1,.254-1.782,4.006,4.006,0,0,0-.668,1.772,2.843,2.843,0,0,0,.477,1.921,5.12,5.12,0,0,0,3.3,1.948Z" transform="translate(-44.195 -33.464)" fill="#ed8730"/>
    <path id="Trazado_39762" data-name="Trazado 39762" d="M175.588,128.9l-1.793-2.3-.028-.034-.214-.09a5.106,5.106,0,0,0-2.03.2,2.038,2.038,0,0,0-.88.528,1.456,1.456,0,0,0-.366.892,1.305,1.305,0,0,1,1.354-.817,4.226,4.226,0,0,1,1.615.384l-.24-.124Z" transform="translate(-46.16 -34.28)" fill="#ed8730"/>
    <path id="Trazado_39763" data-name="Trazado 39763" d="M186.4,127.483a1.414,1.414,0,0,0-.152-.614,1.345,1.345,0,0,0-.446-.506,1.2,1.2,0,0,0-.792-.19,1.353,1.353,0,0,0-.743.348l-.036.028-.023.031c-.5.606-.907,1.227-1.354,1.774a3.3,3.3,0,0,1-1.744,1.2,2.624,2.624,0,0,0,2.311-.606,11.541,11.541,0,0,0,1.617-1.671l-.059.06c.186-.112.2-.163.448-.152a4.255,4.255,0,0,1,.972.294" transform="translate(-49.097 -34.202)" fill="#ed8730"/>
    <path id="Trazado_39764" data-name="Trazado 39764" d="M181.05,145a18.388,18.388,0,0,0-2.061-1.824,7.8,7.8,0,0,0-1.179-.741,1.949,1.949,0,0,0-1.454-.214l-.006,0-.01.008a12.508,12.508,0,0,0-2.105,1.591l0,0,.408.036a8.818,8.818,0,0,0-2.105-2.128.926.926,0,0,0-.851.023c-.237.09-.456.193-.678.3l-1.308.647c-1.725.89-3.425,1.821-5.12,2.768,1.736-.867,3.477-1.72,5.236-2.528l1.326-.58c.431-.137.944-.472,1.2-.271a8.575,8.575,0,0,1,1.859,2.085l.185.255.219-.222,0,0a11.946,11.946,0,0,1,1.908-1.658l-.015.008a1.65,1.65,0,0,1,1.193.131,7.769,7.769,0,0,1,1.187.639A18.281,18.281,0,0,1,181.05,145" transform="translate(-44.615 -38.398)" fill="#ed8730"/>
    <path id="Trazado_39765" data-name="Trazado 39765" d="M181.921,153.832a12.7,12.7,0,0,1-3.967,2.513,8.678,8.678,0,0,1-4.441.523,22.346,22.346,0,0,1-4.543-1.127,34.659,34.659,0,0,1-4.39-1.909,16.466,16.466,0,0,0,8.778,4.189,8.143,8.143,0,0,0,4.978-.833,8.831,8.831,0,0,0,3.585-3.356" transform="translate(-44.616 -41.702)" fill="#ed8730"/>
    <path id="Trazado_39766" data-name="Trazado 39766" d="M128.6,172.614a50.173,50.173,0,0,1-8.22-2.033c-2.693-.871-5.352-1.854-7.942-2.948l-.005,0-.872-.289-.426.6-4.086,5.739.392.366,5.468-4.439-1.3.313.005,0c2.776.825,5.569,1.517,8.388,2.095a51.326,51.326,0,0,0,8.56,1.129Z" transform="translate(-29.021 -45.364)" fill="#ed8730"/>
    <path id="Trazado_39767" data-name="Trazado 39767" d="M183.034,148.542a5.792,5.792,0,0,1-2.3.892,8.906,8.906,0,0,1-2.5-.046l.036.007a12.109,12.109,0,0,0-3.046-.48,22.564,22.564,0,0,0-3.095.1h0l.319.039a7.6,7.6,0,0,0-1.766-.273q-.847-.066-1.682-.075c-1.115-.02-2.221-.046-3.33-.01h-.011c-1.556.109-3.116.219-4.676.243a24.778,24.778,0,0,1-4.645-.243l-.075.529c1.607.09,3.157,0,4.726-.06,1.566-.072,3.126-.126,4.689-.235h-.007c1.1.05,2.2.109,3.29.258.544.08,1.084.173,1.612.292a5.38,5.38,0,0,1,1.44.531l.127.08.192-.042h0a12.626,12.626,0,0,1,2.894-.521,10.355,10.355,0,0,1,2.923.23l.033.008h0a10.546,10.546,0,0,0,2.595.015,8.312,8.312,0,0,0,2.5-.766Z" transform="translate(-42.362 -40.268)" fill="#ed8730"/>
    <path id="Trazado_39768" data-name="Trazado 39768" d="M148.6,98.472a11.967,11.967,0,0,0-2.721-.1,16.479,16.479,0,0,0-2.7.429,10.5,10.5,0,0,0-4.81,2.525c.832-.377,1.624-.764,2.463-1.053s1.666-.573,2.523-.789c.848-.248,1.72-.4,2.591-.58s1.757-.3,2.655-.436" transform="translate(-37.51 -26.659)" fill="#ed8730"/>
    <path id="Trazado_39769" data-name="Trazado 39769" d="M154.483,109.637a42.969,42.969,0,0,1-6.565.186,24.215,24.215,0,0,1-3.214-.379,32.553,32.553,0,0,1-3.211-.787,9.837,9.837,0,0,0,3,1.592,12.752,12.752,0,0,0,3.36.639,13.372,13.372,0,0,0,6.627-1.251" transform="translate(-38.357 -29.456)" fill="#ed8730"/>
    <path id="Trazado_39770" data-name="Trazado 39770" d="M156.68,104.525a5.4,5.4,0,0,0-2.056-2.288,10.514,10.514,0,0,0-2.827-1.264l-.067-.02h-.082a47.341,47.341,0,0,0-7.785.493,27.19,27.19,0,0,0-3.83.831,14.106,14.106,0,0,0-3.608,1.6l.248.434a25.256,25.256,0,0,1,7.343-1.7,72.379,72.379,0,0,1,7.608-.426l-.149-.02a13.038,13.038,0,0,1,5.206,2.37" transform="translate(-36.983 -27.366)" fill="#ed8730"/>
    <path id="Trazado_39771" data-name="Trazado 39771" d="M198.783,111.22a3.24,3.24,0,0,0-1.6-5.788,3.325,3.325,0,0,0-3.365,1.754,3.463,3.463,0,0,0-.315,2.035,2.175,2.175,0,0,0,1.137,1.65l.394-.384a9.48,9.48,0,0,1-.449-1.449,2.418,2.418,0,0,1,.155-1.419,2.513,2.513,0,0,1,2.391-1.566,2.582,2.582,0,0,1,1.329,4.72Z" transform="translate(-52.445 -28.573)" fill="#ed8730"/>
    <path id="Trazado_39772" data-name="Trazado 39772" d="M153.535,109.136a3.346,3.346,0,0,0,.465-3.531,3.3,3.3,0,0,0-6.043.18,2.923,2.923,0,0,0,.988,3.552l.456-.5a3.142,3.142,0,0,1-.552-2.728,2.52,2.52,0,0,1,4.7-.294,2.5,2.5,0,0,1-.519,2.863Z" transform="translate(-40.047 -28.118)" fill="#ed8730"/>
    <path id="Trazado_39773" data-name="Trazado 39773" d="M189.2,102.626a7.594,7.594,0,0,1,1.71-1.354,9.066,9.066,0,0,1,1.929-.857,15.231,15.231,0,0,1,2.125-.472c.735-.082,1.48-.147,2.247-.219a9.64,9.64,0,0,0-2.272-.377,8.064,8.064,0,0,0-2.337.233,5.557,5.557,0,0,0-2.161,1.031,3.325,3.325,0,0,0-1.241,2.015" transform="translate(-51.289 -26.931)" fill="#ed8730"/>
    <path id="Trazado_39774" data-name="Trazado 39774" d="M204.139,108.571a8.134,8.134,0,0,1-2.87,2.28,9.006,9.006,0,0,1-3.547.862h.039a33.666,33.666,0,0,1-3.552-.31,9.4,9.4,0,0,1-1.717-.4,2.652,2.652,0,0,1-1.455-.939,2.559,2.559,0,0,0,1.292,1.3,9.814,9.814,0,0,0,1.741.671,18.35,18.35,0,0,0,3.646.573h.039a8.944,8.944,0,0,0,3.889-1.029,6.708,6.708,0,0,0,2.8-2.838Z" transform="translate(-51.788 -29.432)" fill="#ed8730"/>
    <path id="Trazado_39775" data-name="Trazado 39775" d="M189.2,107.122c.681-.4,1.259-.838,1.862-1.225a12.138,12.138,0,0,1,1.741-1.065,9.842,9.842,0,0,1,4.12-.441,11.362,11.362,0,0,1,7.624,3.668,10.162,10.162,0,0,0-7.511-4.7,9.919,9.919,0,0,0-4.669.39,5.751,5.751,0,0,0-1.95,1.393,5.364,5.364,0,0,0-1.217,1.98" transform="translate(-51.289 -27.99)" fill="#ed8730"/>
    <path id="Trazado_39776" data-name="Trazado 39776" d="M157.035,86.951c-6.242.134-12.478.441-18.651-.17l-.044,0-.047.005-10.63,1.14.364.856c1.568-1.289,3.149-2.548,4.811-3.683.83-.565,1.679-1.1,2.551-1.587.438-.239.879-.472,1.328-.691l.676-.317.343-.147c.112-.057.256-.028.238-.394l0,0-.112.021,17.63.178-17.614-.715-.1,0-.011.023h0c-.25-.266-.337-.137-.458-.093l-.359.157-.7.338c-.464.232-.923.477-1.374.73-.9.514-1.77,1.071-2.615,1.659-1.693,1.176-3.287,2.468-4.852,3.778l-1.246,1.045,1.611-.189,10.617-1.233H138.3a81.048,81.048,0,0,0,9.4.266c3.126-.09,6.242-.289,9.356-.434Z" transform="translate(-34.201 -22.039)" fill="#ed8730"/>
    <path id="Trazado_39777" data-name="Trazado 39777" d="M192.954,85.308l13.286-.41-.1-.013a8.547,8.547,0,0,1,3.735,2.5,6.08,6.08,0,0,1,1.648,4.054l.43-.188a14.464,14.464,0,0,0-6.146-2.943l0,0-.052-.01-.062.008c-4.759.727-9.624.232-14.465-.008l-.031.534c4.826.276,9.713.826,14.594.124l-.114,0a13.886,13.886,0,0,1,5.948,2.724l.408.312.023-.5a6.561,6.561,0,0,0-1.772-4.451,9.1,9.1,0,0,0-3.975-2.662l-.1-.013Z" transform="translate(-51.831 -22.87)" fill="#ed8730"/>
    <path id="Trazado_39778" data-name="Trazado 39778" d="M221.39,69.291c.049-.268,4.676-26.946-6.085-36.957l-.364.392c10.55,9.815,5.969,36.2,5.922,36.469Z" transform="translate(-58.268 -8.765)" fill="#ed8730"/>
    <path id="Trazado_39779" data-name="Trazado 39779" d="M186.357,160.308a18.062,18.062,0,0,1-3.484,6.049,19.237,19.237,0,0,1-5.29,4.382,24.61,24.61,0,0,1-6.446,2.327c-1.112.273-2.273.346-3.408.531-1.15.067-2.308.09-3.462.139l.057,0c-1.943-.165-3.884-.328-5.816-.57-1.937-.2-3.854-.519-5.773-.831a38.256,38.256,0,0,1-5.638-1.393,17.5,17.5,0,0,1-2.682-1.085,5.859,5.859,0,0,1-2.249-1.785,5.351,5.351,0,0,0,2.027,2.151,17.945,17.945,0,0,0,2.616,1.46,38.31,38.31,0,0,0,5.664,1.87,56.759,56.759,0,0,0,5.834,1.135c1.957.3,3.925.469,5.891.666l.036,0,.024,0c1.209-.062,2.419-.1,3.626-.184,1.2-.208,2.415-.286,3.591-.611a23.048,23.048,0,0,0,6.745-2.752,19.972,19.972,0,0,0,5.28-4.968,16.672,16.672,0,0,0,2.858-6.536" transform="translate(-38.539 -43.458)" fill="#ed8730"/>
    <path id="Trazado_39780" data-name="Trazado 39780" d="M109.458,132.567a38.608,38.608,0,0,0,.645,8.169,37.3,37.3,0,0,0,2.262,7.933c2.077,5.071,5.564,9.912,10.62,12.521a62.467,62.467,0,0,0,15.313,5.935,34.078,34.078,0,0,0,16.35.163l-.124-.521a36.068,36.068,0,0,1-15.958-.753,69.952,69.952,0,0,1-14.955-6c-4.718-2.419-7.957-6.979-10.046-11.849a59.9,59.9,0,0,1-4.107-15.594" transform="translate(-29.667 -35.937)" fill="#ed8730"/>
    <path id="Trazado_39781" data-name="Trazado 39781" d="M98.651,111.379a4.192,4.192,0,0,0-3.541,2.074A4.246,4.246,0,0,0,94.6,115.6a6.54,6.54,0,0,0,.369,2.154,4.791,4.791,0,0,0,3.162,2.974,7.77,7.77,0,0,0,4.2.106l-.1-.527a9.567,9.567,0,0,1-3.768-.526,4.2,4.2,0,0,1-2.476-2.414,5.223,5.223,0,0,1-.139-3.563,4.459,4.459,0,0,1,2.8-2.429" transform="translate(-25.645 -30.194)" fill="#ed8730"/>
    <path id="Trazado_39782" data-name="Trazado 39782" d="M98.471,108.051a13.685,13.685,0,0,0-1.84-4.924,4.246,4.246,0,0,0-2.179-1.909,5.3,5.3,0,0,0-2.855.129,4.467,4.467,0,0,0-2.3,1.685,5.86,5.86,0,0,0-.927,2.61,12.363,12.363,0,0,0,.816,5.177,15.772,15.772,0,0,1-.056-5.058,4.1,4.1,0,0,1,2.794-3.384,4.32,4.32,0,0,1,2.238-.082,3.78,3.78,0,0,1,1.655,1.405,39.812,39.812,0,0,1,2.655,4.352" transform="translate(-23.946 -27.401)" fill="#ed8730"/>
    <path id="Trazado_39783" data-name="Trazado 39783" d="M210.871,46.373a42.407,42.407,0,0,1,3.155,7.542,55.529,55.529,0,0,1,1.919,7.952,57.867,57.867,0,0,1,.768,8.138,63.986,63.986,0,0,1-.317,8.163l.013-.057a44.024,44.024,0,0,0-1.62,11.989,94.94,94.94,0,0,0,.583,12.079l0-.034a39.6,39.6,0,0,1-.993,9.033,40.531,40.531,0,0,1-2.951,8.6,34.473,34.473,0,0,1-4.937,7.588,33.475,33.475,0,0,1-6.776,5.969l.7,1.042a34.769,34.769,0,0,0,6.957-6.265,35.534,35.534,0,0,0,5.009-7.885,41.311,41.311,0,0,0,2.93-8.847,40.345,40.345,0,0,0,.913-9.278v-.01l0-.023a94,94,0,0,1-.709-11.958,43.419,43.419,0,0,1,1.459-11.821l.011-.036,0-.023a64.672,64.672,0,0,0,.216-8.241,58.129,58.129,0,0,0-.88-8.186,56.188,56.188,0,0,0-2.028-7.973,42.592,42.592,0,0,0-3.27-7.544Z" transform="translate(-54.14 -12.548)" fill="#ed8730"/>
    <path id="Trazado_39784" data-name="Trazado 39784" d="M171.889,26.75a11.81,11.81,0,0,1,4.645,3.792,10.257,10.257,0,0,1,1.393,2.6,11.945,11.945,0,0,1,.663,2.845v.006l.534,1.95.642-1.76a17.892,17.892,0,0,0,1.272-7.714,23.212,23.212,0,0,0-1.7-7.514l-.006-.013-.007-.01A50.256,50.256,0,0,0,166.266,9a47.177,47.177,0,0,0-16.425-6.59,43.425,43.425,0,0,0-8.86-.841c-1.488-.046-2.972.119-4.458.188-1.469.211-2.96.307-4.415.627A65.38,65.38,0,0,0,115.2,7.954l-.008,0,.9.56V0l-1.124,1.488L108.454,10.1l.353-.23L93.452,13.534l-1.617.384,1.47.776L99.552,18l.167-1.166a21.075,21.075,0,0,0-4.668,1.744,19.85,19.85,0,0,0-4.117,2.788,15.329,15.329,0,0,0-3.188,3.851,16.021,16.021,0,0,0-1.816,4.671l-.1.385.351.255a4.281,4.281,0,0,1,1.6,2.027,4.217,4.217,0,0,1,.256,1.282,4.551,4.551,0,0,1-.127,1.281l-.017.065,0,.028c-.768,5.777-1.292,11.563-1.511,17.382-.1,2.909-.145,5.823-.005,8.741a54.94,54.94,0,0,0,.988,8.736l1.225-.266a53.536,53.536,0,0,1-.962-8.522c-.14-2.873-.09-5.76,0-8.643.217-5.765.741-11.537,1.5-17.25l-.02.093a5.667,5.667,0,0,0,.18-1.7,5.479,5.479,0,0,0-.327-1.656A5.551,5.551,0,0,0,86.9,29.5l.253.639a14.886,14.886,0,0,1,1.669-4.292,14.19,14.19,0,0,1,2.94-3.549,18.779,18.779,0,0,1,3.854-2.61,20.054,20.054,0,0,1,4.352-1.633l1.64-.389-1.473-.776-6.249-3.3-.147,1.163,15.355-3.66.219-.052.137-.181,6.515-8.615-1.125-.379V9.507l.905-.431.008,0a64.411,64.411,0,0,1,16.5-5.925c1.426-.346,2.894-.453,4.344-.686,1.462-.093,2.922-.276,4.389-.25a42.622,42.622,0,0,1,8.762.7,45.253,45.253,0,0,1,16.317,6.4A49.974,49.974,0,0,1,179.093,21.1l-.013-.021a19.368,19.368,0,0,1,1.447,7.408,15.973,15.973,0,0,1-.456,3.725,13.4,13.4,0,0,1-1.419,3.41l1.176.191V35.8a13.091,13.091,0,0,0-1.039-3.031,10.943,10.943,0,0,0-1.77-2.623,12.094,12.094,0,0,0-5.13-3.4" transform="translate(-23.268)" fill="#ed8730"/>
    <path id="Trazado_39785" data-name="Trazado 39785" d="M199.059,31.526a24.386,24.386,0,0,0,.472,6.582,20.762,20.762,0,0,0,.926,3.214,18.868,18.868,0,0,0,1.475,3.051v0l.63-.967a20.681,20.681,0,0,1-6.183-2.128,42.231,42.231,0,0,1-5.711-3.505,42.544,42.544,0,0,0,5.4,4.052,21.572,21.572,0,0,0,6.271,2.811l1.561.379-.932-1.346,0,0a17.826,17.826,0,0,1-1.644-2.719,19.587,19.587,0,0,1-1.184-3,23.921,23.921,0,0,1-1.078-6.425" transform="translate(-51.688 -8.546)" fill="#ed8730"/>
    <path id="Trazado_39786" data-name="Trazado 39786" d="M181.461,40.1a12.719,12.719,0,0,0,1.965,6.425,13.039,13.039,0,0,0,2.19,2.665,16.088,16.088,0,0,0,2.781,2.087l0,0,.31-1.181a19.168,19.168,0,0,1-3.263-.55c-1.115-.256-2.226-.55-3.335-.848q-3.331-.905-6.635-1.927,3.2,1.312,6.444,2.523c1.083.4,2.166.8,3.27,1.158a19.167,19.167,0,0,0,3.48.9l2.744.351-2.435-1.529,0,0a14.9,14.9,0,0,1-2.749-1.69,12.566,12.566,0,0,1-4.769-8.377" transform="translate(-47.571 -10.87)" fill="#ed8730"/>
    <path id="Trazado_39787" data-name="Trazado 39787" d="M158.7,35.568a15.765,15.765,0,0,0,2.056,5.879,19.566,19.566,0,0,0,3.985,4.9,18.729,18.729,0,0,0,2.531,1.911c.451.273.891.568,1.351.823l1.435.668a19.937,19.937,0,0,0,2.971,1.027,28.867,28.867,0,0,0,3.08.51c-.934-.487-1.886-.848-2.8-1.3-.887-.5-1.834-.848-2.677-1.4a31.19,31.19,0,0,1-4.927-3.348,25.463,25.463,0,0,1-4.046-4.372,23.061,23.061,0,0,1-2.959-5.3" transform="translate(-43.022 -9.642)" fill="#ed8730"/>
    <path id="Trazado_39788" data-name="Trazado 39788" d="M135.921,33.975a14.436,14.436,0,0,0,3.391,5.148,21.384,21.384,0,0,0,5.009,3.709,24.184,24.184,0,0,0,5.817,2.209c1,.25,2.035.374,3.051.526,1.031.07,2.061.114,3.085.1-.983-.325-1.968-.567-2.94-.84-.957-.336-1.935-.571-2.876-.91a43.2,43.2,0,0,1-5.514-2.265,28.381,28.381,0,0,1-4.968-3.25,19.837,19.837,0,0,1-4.054-4.429" transform="translate(-36.847 -9.21)" fill="#ed8730"/>
    <path id="Trazado_39789" data-name="Trazado 39789" d="M126.605,40.1c-.815,3.026-1.674,6-2.718,8.907A49.818,49.818,0,0,1,120,57.419a21.994,21.994,0,0,0,4.748-8.107,32.5,32.5,0,0,0,1.857-9.213" transform="translate(-32.531 -10.87)" fill="#ed8730"/>
    <path id="Trazado_39790" data-name="Trazado 39790" d="M116.952,59.818a37.736,37.736,0,0,1,.332,8.925,29.677,29.677,0,0,1-.727,4.312c-.278,1.452-.807,2.819-1.212,4.349a11.161,11.161,0,0,0,2.554-3.926,14.078,14.078,0,0,0,.975-4.617,17.813,17.813,0,0,0-.327-4.681,14.909,14.909,0,0,0-1.594-4.362" transform="translate(-31.269 -16.216)" fill="#ed8730"/>
    <path id="Trazado_39791" data-name="Trazado 39791" d="M110.323,78.556a27.733,27.733,0,0,0-2.706,6.675,37.986,37.986,0,0,0-1.248,7.134,39.388,39.388,0,0,0,.064,7.258,36.664,36.664,0,0,0,1.406,7.1l1.068-.567a25.619,25.619,0,0,1-2.884-3.539,30.68,30.68,0,0,1-2.283-4.01,38.317,38.317,0,0,1-2.969-8.806,38.729,38.729,0,0,0,2.394,9.058,31.882,31.882,0,0,0,2.064,4.256,26.2,26.2,0,0,0,2.763,3.895v0l1.377,1.865-.309-2.432c-.3-2.336-.609-4.65-.735-6.979a62.9,62.9,0,0,1-.085-6.985A64.2,64.2,0,0,1,108.9,85.5a59.743,59.743,0,0,1,1.418-6.949" transform="translate(-27.318 -21.296)" fill="#ed8730"/>
    <path id="Trazado_39792" data-name="Trazado 39792" d="M96.95,98.1a12.482,12.482,0,0,0-3.619-2.847,8.347,8.347,0,0,0-4.607-1,7.3,7.3,0,0,0-4.3,2.019,6.565,6.565,0,0,0-2.019,4.3,20.993,20.993,0,0,0,1.682,8.976,52.544,52.544,0,0,0,3.973,8.135l-.044-.087a53.977,53.977,0,0,0,2.559,6.038,20.4,20.4,0,0,0,1.757,2.847,6.548,6.548,0,0,0,2.773,2.3l.062.024.038,0,1.068.171c.369.005.73.042,1.1.015a6.121,6.121,0,0,0,2.164-.508,4.565,4.565,0,0,0,2.582-3.279,5.448,5.448,0,0,1-3,2.167,6.55,6.55,0,0,1-1.767.194,10.791,10.791,0,0,1-1.808-.248l.1.031a6.262,6.262,0,0,1-2.138-1.8,19.955,19.955,0,0,1-1.8-2.548,35.286,35.286,0,0,1-2.8-5.718l-.02-.049-.023-.039a51.877,51.877,0,0,1-3.836-7.993,20.2,20.2,0,0,1-1.569-8.514,5.485,5.485,0,0,1,1.7-3.626,6.211,6.211,0,0,1,3.673-1.718c2.763-.211,5.489,1.333,7.739,3.126Z" transform="translate(-22.327 -25.54)" fill="#ed8730"/>
    <path id="Trazado_39793" data-name="Trazado 39793" d="M102.241,125.245a3.307,3.307,0,0,0,2.308.877,2.838,2.838,0,0,0,1.356-.382,1.877,1.877,0,0,0,.977-1.447l.008-.072-.106-.286-3.631-5.777.054.191a7.258,7.258,0,0,1,.02-2.025,3.682,3.682,0,0,1,.82-1.883,3.892,3.892,0,0,0-1.238,1.769,7.839,7.839,0,0,0-.466,2.179v.083l.057.111,3.061,6.1-.1-.362c.07.036.044.307-.157.524a1.882,1.882,0,0,1-.786.531,2.92,2.92,0,0,1-2.179-.129" transform="translate(-27.716 -31.023)" fill="#ed8730"/>
    <path id="Trazado_39794" data-name="Trazado 39794" d="M315.861,197.271c-2.976.913-4.936,3.222-6.381,5.641a25.342,25.342,0,0,0-2.861,7.936,31.668,31.668,0,0,0-.582,8.4,19.09,19.09,0,0,0,.735,4.181,7.913,7.913,0,0,0,.913,1.975,3.1,3.1,0,0,0,1.824,1.381,3.221,3.221,0,0,0,2.236-.467,10.854,10.854,0,0,0,1.774-1.233,18.228,18.228,0,0,0,2.871-3.15,22.436,22.436,0,0,0,3.544-7.691,26.491,26.491,0,0,0-1.689-16.652l.041.289q2.527-19.287,5.207-38.556l-1.767-.222q-2.2,19.326-4.54,38.638l-.017.152.059.137a25.484,25.484,0,0,1,1.832,16,21.625,21.625,0,0,1-3.317,7.439,17.4,17.4,0,0,1-2.706,3.046,10.221,10.221,0,0,1-1.636,1.168,2.546,2.546,0,0,1-1.746.423c-1.168-.271-1.862-1.643-2.28-2.878a16.256,16.256,0,0,1-.711-4.029,30.884,30.884,0,0,1,.624-8.221,24.585,24.585,0,0,1,2.819-7.7,10.748,10.748,0,0,1,5.936-5.06Z" transform="translate(-82.945 -43.131)" fill="#ed8730"/>
  </g>
</svg>
