<svg id="Grupo_15902" data-name="Grupo 15902" xmlns="http://www.w3.org/2000/svg" xmlns:xlink="http://www.w3.org/1999/xlink" width="100" height="99.8" viewBox="0 0 100 99.8">
  <defs>
    <clipPath id="clip-path">
      <rect id="Rectángulo_3855" data-name="Rectángulo 3855" width="100" height="99.8" fill="none"/>
    </clipPath>
  </defs>
  <g id="Grupo_15901" data-name="Grupo 15901" clip-path="url(#clip-path)">
    <path id="Trazado_39001" data-name="Trazado 39001" d="M36.916,35.774l-9.78-2.262a1.663,1.663,0,0,1-.549-3.011l1.464-.965a1.664,1.664,0,0,0-.166-2.878l-8.849-4.424a1.664,1.664,0,0,1-.1-2.911l1.9-1.131a1.685,1.685,0,0,0,.6-2.245l-2.279-4.092a1.663,1.663,0,0,1,2.262-2.262l4.092,2.279a1.685,1.685,0,0,0,2.245-.6l1.131-1.9a1.663,1.663,0,0,1,2.911.1l4.424,8.849a1.663,1.663,0,0,0,2.878.166l.965-1.464a1.663,1.663,0,0,1,3.011.549l2.262,9.78Z" transform="translate(-14.593 -6.897)" fill="#60a917"/>
    <path id="Trazado_39002" data-name="Trazado 39002" d="M147.111,126.974v.05H121.962v-.05l-6.3-4.574a9.966,9.966,0,0,1-3.194-12.225,9.632,9.632,0,0,1,2.029-2.944l2.3-2.3a9.634,9.634,0,0,1,2.944-2.029,9.967,9.967,0,0,1,12.225,3.194l9.248,12.741.4.549Z" transform="translate(-89.808 -82.113)" fill="#ff9801"/>
    <path id="Trazado_39003" data-name="Trazado 39003" d="M182.281,119.4l-.4-.549-9.248-12.741a9.966,9.966,0,0,0-10.559-3.784,9.947,9.947,0,0,1,5.569,3.784l9.248,12.741.4.549,5.506,7.585v.05h4.99v-.05Z" transform="translate(-130.484 -82.126)" fill="#f57c00"/>
    <path id="Trazado_39004" data-name="Trazado 39004" d="M284.724,61.808a8.317,8.317,0,0,1-11.959,4.325c-.15-.083-.283-.166-.416-.249a8.151,8.151,0,0,1-3.227-4.059,6.653,6.653,0,0,1-5.007-.682,5.719,5.719,0,0,1-.965-.7,6.5,6.5,0,0,1-2.312-4.241,1.663,1.663,0,0,0-2.329-1.347,6.57,6.57,0,0,1-4.84.116,5.521,5.521,0,0,1-1.064-.482,6.663,6.663,0,0,1-3.094-4.009,8.051,8.051,0,0,1-5.123-.782,7.821,7.821,0,0,1-1.663-1.064,8.33,8.33,0,0,1,9.564-13.556,9.4,9.4,0,0,1,1.58,1.2,9.09,9.09,0,0,1,11.111-1.53,8.948,8.948,0,0,1,3.975,4.724,9.128,9.128,0,0,1,10.313,11.494,7.971,7.971,0,0,1,2.046.915,8.352,8.352,0,0,1,3.41,9.93" transform="translate(-193.057 -26.977)" fill="#60a917"/>
    <path id="Trazado_39005" data-name="Trazado 39005" d="M355.956,51.923a7.974,7.974,0,0,0-2.046-.915A9.128,9.128,0,0,0,343.6,39.514a8.949,8.949,0,0,0-3.975-4.724,9.1,9.1,0,0,0-7.11-.863,9.1,9.1,0,0,1,2.121.863,8.948,8.948,0,0,1,3.975,4.724A9.128,9.128,0,0,1,348.92,51.008a7.964,7.964,0,0,1,2.046.915A8.3,8.3,0,0,1,349.057,66.9a8.316,8.316,0,0,0,6.9-14.981" transform="translate(-267.699 -27.021)" fill="#549414"/>
    <path id="Trazado_39006" data-name="Trazado 39006" d="M73.207,294.7A23.173,23.173,0,0,0,76.3,306.292h.017c-.017.017,0,.033.017.05H59.9a33.256,33.256,0,0,1-33.266-33.266H87.86A23.271,23.271,0,0,0,73.207,294.7" transform="translate(-21.443 -219.848)" fill="#02a9f4"/>
    <path id="Trazado_39007" data-name="Trazado 39007" d="M259.61,273.075h-4.99a23.277,23.277,0,0,0-11.56,33.216h.017c-.017.017,0,.033.016.05h4.99c-.017-.017-.033-.033-.017-.05h-.016a23.277,23.277,0,0,1,11.56-33.216" transform="translate(-193.192 -219.848)" fill="#0377bc"/>
    <path id="Trazado_39008" data-name="Trazado 39008" d="M291.308,132.759a33.516,33.516,0,0,0-11.759,5.955v.05h-10.23v-.05l-5.505-7.585a33.451,33.451,0,0,0-.466-14.537v-.017a8.05,8.05,0,0,0,5.123.782,6.662,6.662,0,0,0,3.094,4.009,5.513,5.513,0,0,0,1.064.482,33.554,33.554,0,0,1,.3,7.4,1.663,1.663,0,0,0,2.611,1.514,35.13,35.13,0,0,1,6.57-3.443,5.7,5.7,0,0,0,.965.7,6.653,6.653,0,0,0,5.006.682,8.15,8.15,0,0,0,3.227,4.058" transform="translate(-212.017 -93.852)" fill="#008a00"/>
    <path id="Trazado_39009" data-name="Trazado 39009" d="M97.721,233.736V235.4a3.337,3.337,0,0,1-3.326,3.327H91.384a23.233,23.233,0,0,0-17.265,0H12.893A3.337,3.337,0,0,1,9.566,235.4v-1.663a3.337,3.337,0,0,1,3.327-3.327h81.5a3.337,3.337,0,0,1,3.326,3.327" transform="translate(-7.701 -185.498)" fill="#cfd8dc"/>
    <path id="Trazado_39010" data-name="Trazado 39010" d="M424.157,230.409h-4.99a3.337,3.337,0,0,1,3.327,3.327V235.4a3.335,3.335,0,0,1-2.068,3.074c.238.088.486.166.72.253h3.011a3.337,3.337,0,0,0,3.326-3.327v-1.663a3.337,3.337,0,0,0-3.326-3.327" transform="translate(-337.463 -185.498)" fill="#9e9e9e"/>
    <path id="Trazado_39011" data-name="Trazado 39011" d="M312.137,287.828a23.286,23.286,0,0,1-43.446,11.643c-.017-.017-.033-.033-.017-.05h-.017a23.284,23.284,0,1,1,43.479-11.593" transform="translate(-213.801 -212.977)" fill="#60a917"/>
    <path id="Trazado_39012" data-name="Trazado 39012" d="M374.729,264.542a23.346,23.346,0,0,0-2.495.138,23.286,23.286,0,0,1,0,46.3,23.286,23.286,0,1,0,2.495-46.435" transform="translate(-299.679 -212.978)" fill="#549414"/>
    <path id="Trazado_39013" data-name="Trazado 39013" d="M4.43,54.607A34.943,34.943,0,0,0,39.289,88.157H48.3a1.663,1.663,0,0,0,0-3.327H39.289A31.614,31.614,0,0,1,7.771,54.891h9.9a1.663,1.663,0,0,0,0-3.327H6.023A1.663,1.663,0,0,1,4.36,49.9V48.238a1.663,1.663,0,0,1,1.663-1.663h81.5a1.663,1.663,0,0,1,1.663,1.663v.715a1.663,1.663,0,0,0,3.326,0v-.715a4.99,4.99,0,0,0-4.99-4.99H73.833a32.49,32.49,0,0,1,6.079-2.542A9.972,9.972,0,1,0,88.95,22.939a10.748,10.748,0,0,0-5.291-10.795,10.889,10.889,0,0,0-5.891-1.44A10.811,10.811,0,0,0,61.586,7.1c-.225-.155-.456-.3-.7-.441A9.97,9.97,0,1,0,50.7,23.8a32.087,32.087,0,0,1,.795,9.087l-7.172-9.882A11.541,11.541,0,0,0,32.8,18.421L30.923,10.3A3.326,3.326,0,0,0,24.9,9.217l-.966,1.469L19.521,1.832A3.326,3.326,0,0,0,16.685,0a3.38,3.38,0,0,0-2.994,1.622l-1.136,1.9L8.463,1.244A3.327,3.327,0,0,0,3.939,5.769l2.279,4.1L4.316,11a3.327,3.327,0,0,0,.215,5.822l8.844,4.424-1.477.973a3.327,3.327,0,0,0,1.111,6.013l8.107,1.873A11.54,11.54,0,0,0,25.7,41.631l2.222,1.614H6.023a4.99,4.99,0,0,0-4.99,4.99V49.9a4.99,4.99,0,0,0,3.4,4.709ZM49.505,13.432a6.727,6.727,0,0,1,3.964-4.316,6.623,6.623,0,0,1,5.758.436A6.741,6.741,0,0,1,60.5,10.5a1.663,1.663,0,0,0,2.34-.053,7.465,7.465,0,0,1,12.34,2.616A1.663,1.663,0,0,0,77.02,14.13a7.467,7.467,0,0,1,8.425,9.389,1.663,1.663,0,0,0,1.121,2.056,6.653,6.653,0,1,1-5.194,12.145,6.526,6.526,0,0,1-2.908-3.441A1.663,1.663,0,0,0,76.9,33.187a1.641,1.641,0,0,0-.407.05,5.012,5.012,0,0,1-3.764-.51,4.953,4.953,0,0,1-2.455-3.706,3.327,3.327,0,0,0-4.628-2.675,4.949,4.949,0,0,1-4.436-.28,5.022,5.022,0,0,1-2.329-3.007A1.663,1.663,0,0,0,57,21.873a6.653,6.653,0,0,1-7.493-8.44ZM63.359,30.053a8.4,8.4,0,0,0,3.6-.654.172.172,0,0,1,0,.032,8.3,8.3,0,0,0,1.246,3.456,37.178,37.178,0,0,0-4.8,2.635,35.158,35.158,0,0,0-.05-5.469Zm-8.982-4.885a10.189,10.189,0,0,0,1.8.121,8.3,8.3,0,0,0,3.361,3.659c.121.07.249.125.374.19a32.328,32.328,0,0,1,.176,6.154,3.327,3.327,0,0,0,5.193,3,32.567,32.567,0,0,1,5.439-2.9c.11.072.213.15.333.216A8.29,8.29,0,0,0,75.9,36.695,9.879,9.879,0,0,0,76.927,38.2a35.275,35.275,0,0,0-9.175,5.048H59.018l-4.639-6.392a35.16,35.16,0,0,0,0-11.688Zm-40.636-.175,1.477-.973a3.327,3.327,0,0,0-.351-5.747L6.023,13.856l1.913-1.139A3.338,3.338,0,0,0,9.123,8.24L6.843,4.15l4.1,2.282a3.343,3.343,0,0,0,4.478-1.2l1.126-1.9,4.424,8.85a3.327,3.327,0,0,0,5.753.333l.966-1.457,1.953,8.423a11.7,11.7,0,0,0-2.994,2.162l-2.3,2.3a11.7,11.7,0,0,0-2.162,2.994ZM27.663,38.945A8.333,8.333,0,0,1,26.695,26.3l2.3-2.3a8.317,8.317,0,0,1,10.931-.77l-4.957,3.709a1.663,1.663,0,1,0,2,2.661L42.172,25.7l2.147,2.961-4.364,3.277a1.663,1.663,0,1,0,2,2.661l4.325-3.245,2.151,2.962-3.481,2.612a1.663,1.663,0,0,0,2,2.661l3.44-2.58,4.529,6.239H33.594Z" transform="translate(-0.832 0)"/>
    <path id="Trazado_39014" data-name="Trazado 39014" d="M130.7,264.542a1.663,1.663,0,1,0,0,3.326h27.561a1.663,1.663,0,1,0,0-3.326Z" transform="translate(-103.883 -212.978)"/>
    <path id="Trazado_39015" data-name="Trazado 39015" d="M281.984,256.009a24.95,24.95,0,1,0,24.95,24.95,24.95,24.95,0,0,0-24.95-24.95m0,46.573a21.623,21.623,0,1,1,21.623-21.623,21.623,21.623,0,0,1-21.623,21.623" transform="translate(-206.933 -206.108)"/>
    <path id="Trazado_39016" data-name="Trazado 39016" d="M313.384,348.28c-3.388,4.64-7.247,4.544-8.95,4.214a.4.4,0,0,1-.16-.709,9.443,9.443,0,0,0,3.868-7.613,1.569,1.569,0,0,0,.008-.192,9.463,9.463,0,0,0-3.87-7.8.4.4,0,0,1,.16-.71c1.781-.348,5.932-.436,9.425,4.918Z" transform="translate(-244.838 -269.967)" fill="#2296f3"/>
    <path id="Trazado_39017" data-name="Trazado 39017" d="M386.392,418.375a4.026,4.026,0,0,1,.864,5.077.4.4,0,0,0,.223.588c1.039.315,3.757.385,7.169-5.393v-.008Z" transform="translate(-311.077 -336.826)" fill="#2296f3"/>
    <path id="Trazado_39018" data-name="Trazado 39018" d="M385.935,319.508c-.027-3.738-.525-5.489-.855-6.242a.4.4,0,0,1,.352-.551c2.051-.086,8.336.19,8.543,6.8Z" transform="translate(-309.997 -251.753)" fill="#2296f3"/>
    <path id="Trazado_39019" data-name="Trazado 39019" d="M209.6,391.7c-.522,1.819-2.7,2.789-4.851,2.192a.264.264,0,0,1-.084-.019,4.291,4.291,0,0,1-3.107-3.1H196.4c.028-.019.056-.028.084-.047-2.333-1.539-2.333-5.738,0-7.277l-.252-.14h5.328a4.557,4.557,0,0,1,3.349-3.359.282.282,0,0,1,.084-.018c2.174-.6,4.329.373,4.851,2.183a4.116,4.116,0,0,1-3,4.749,4.5,4.5,0,0,1-.915.177,6.113,6.113,0,0,1,.663.149c2.2.644,3.546,2.668,3.013,4.507" transform="translate(-156.777 -305.737)" fill="#bfa885"/>
    <path id="Trazado_39020" data-name="Trazado 39020" d="M207.092,392.428a3.307,3.307,0,0,1-2.342,2.192.264.264,0,0,1-.084-.019,4.291,4.291,0,0,1-3.107-3.1H196.4c.028-.019.056-.028.084-.047-2.333-1.539-2.333-5.738,0-7.277l-.252-.14h5.328a4.557,4.557,0,0,1,3.349-3.359.282.282,0,0,1,.084-.018,3.265,3.265,0,0,1,2.342,2.183,4.117,4.117,0,0,1-3,4.749,4.377,4.377,0,0,1-.915.177,6.113,6.113,0,0,1,.663.149c2.2.644,3.545,2.668,3.013,4.507" transform="translate(-156.777 -306.465)" fill="#ffe0b2"/>
    <path id="Trazado_39021" data-name="Trazado 39021" d="M43.554,374.578c-.028.019-.056.028-.084.047-7.464,4.171-19.462,10.263-24.6,10.263A14.079,14.079,0,0,1,8.39,361.395a3.4,3.4,0,0,0,3.228,2.379,3.347,3.347,0,0,0,2.762-1.437,4.512,4.512,0,0,0,8.472-.812,3.289,3.289,0,0,0,2.454,1.082,3.452,3.452,0,0,0,3.368-2.911c4.954,2.174,10.469,5.131,14.63,7.464l.252.14c-2.333,1.54-2.333,5.738,0,7.278" transform="translate(-3.847 -289.585)" fill="#ff9801"/>
    <path id="Trazado_39022" data-name="Trazado 39022" d="M43.07,442.938a12.589,12.589,0,0,1-7.59-2.486.933.933,0,0,1,1.1-1.509c6.039,4.385,13.249,1.127,19.5-2.637a.933.933,0,0,1,.961,1.593c-4.386,2.64-9.225,5.038-13.968,5.038" transform="translate(-28.255 -351.181)" fill="#fac176"/>
    <path id="Trazado_39023" data-name="Trazado 39023" d="M347.523,358.6a.4.4,0,0,1-.174.605,14.182,14.182,0,0,1-4.991.924c-7.551,0-14.767-6.277-16.373-7.766a.4.4,0,0,1,.023-.6c1.653-1.311,8.834-6.649,16.35-6.649a16.234,16.234,0,0,1,4.2.559.4.4,0,0,1,.258.542c-1.085,2.438-2.612,7.564.707,12.386" transform="translate(-262.343 -277.841)" fill="#3f51b5"/>
    <path id="Trazado_39024" data-name="Trazado 39024" d="M437.716,357.482A25.844,25.844,0,0,1,429.5,363.6a.533.533,0,0,1-.608-.112c-.2-.232-.391-.464-.559-.7a9.456,9.456,0,0,1-.591-10.174c.1-.192.192-.367.28-.527a.5.5,0,0,1,.607-.2,25.96,25.96,0,0,1,9.087,5.586" transform="translate(-343.388 -283.277)" fill="#283593"/>
    <path id="Trazado_39025" data-name="Trazado 39025" d="M434.52,360.626a24.405,24.405,0,0,1-6.185,5.315,9.456,9.456,0,0,1-.591-10.174,23.678,23.678,0,0,1,6.777,4.859" transform="translate(-343.389 -286.421)" fill="#3f51b5"/>
    <path id="Trazado_39026" data-name="Trazado 39026" d="M39.857,371.745h4.237a5.371,5.371,0,0,0,3.531,3.059,5.715,5.715,0,0,0,1.619.235,5.15,5.15,0,0,0,2.475-.613,4.081,4.081,0,0,0,2-2.431,4.492,4.492,0,0,0-1.978-4.858,4.893,4.893,0,0,0,2.216-5.238,4.072,4.072,0,0,0-1.993-2.43,5.408,5.408,0,0,0-4.1-.373,5.825,5.825,0,0,0-3.8,3.319H39.7c-5.692-3.179-10.576-5.666-14.5-7.386a.894.894,0,0,0-.113-.024.915.915,0,0,0-.109-.042H24.9a.941.941,0,0,0-.2.008.992.992,0,0,0-.165.031,1.286,1.286,0,0,0-.313.171.924.924,0,0,0-.109.117.936.936,0,0,0-.115.163c-.01.021-.029.034-.038.055a1.048,1.048,0,0,0-.024.112.924.924,0,0,0-.041.11,2.5,2.5,0,0,1-2.445,2.13,2.372,2.372,0,0,1-1.76-.771.584.584,0,0,0-.062-.047.888.888,0,0,0-.15-.111.851.851,0,0,0-.168-.083c-.025-.009-.043-.028-.069-.035a.717.717,0,0,0-.094-.006.888.888,0,0,0-.362.01,1,1,0,0,0-.167.057.894.894,0,0,0-.16.093q-.044.023-.085.051c-.02.018-.028.044-.047.063a.867.867,0,0,0-.109.149.973.973,0,0,0-.084.167c-.009.025-.028.043-.035.07a3.651,3.651,0,0,1-3.489,2.735,3.589,3.589,0,0,1-3.242-2.078c-.007-.016-.021-.024-.03-.04a.884.884,0,0,0-.115-.152.935.935,0,0,0-.125-.132c-.014-.011-.021-.027-.036-.037a.951.951,0,0,0-.111-.049,1,1,0,0,0-.174-.076.891.891,0,0,0-.174-.026.7.7,0,0,0-.365.045.969.969,0,0,0-.114.029c-.015.007-.024.021-.039.03a1.691,1.691,0,0,0-.284.24c-.011.014-.028.021-.038.036a2.408,2.408,0,0,1-2,1.042A2.464,2.464,0,0,1,5.434,357.3c-.005-.019-.02-.032-.028-.051a.909.909,0,0,0-.094-.161.855.855,0,0,0-.11-.15c-.014-.014-.019-.033-.034-.046a.952.952,0,0,0-.1-.06.923.923,0,0,0-.162-.093.84.84,0,0,0-.174-.05.844.844,0,0,0-.164-.027.933.933,0,0,0-.2.022.892.892,0,0,0-.111.013c-.018.005-.03.02-.047.026a.946.946,0,0,0-.165.093.861.861,0,0,0-.148.11.435.435,0,0,0-.046.033,15.006,15.006,0,0,0,11.164,25.048c5.777,0,19.07-7.046,24.838-10.263m8.535-10.861a3.531,3.531,0,0,1,2.674.22,2.213,2.213,0,0,1,1.1,1.311,3.2,3.2,0,0,1-2.377,3.595,3.307,3.307,0,0,1-.715.137.917.917,0,0,0-.094.025c-.032.007-.061.017-.093.026a.854.854,0,0,0-.25.118.974.974,0,0,0-.093.077.884.884,0,0,0-.11.122.866.866,0,0,0-.217.483.933.933,0,0,0,.777,1,5.324,5.324,0,0,1,.553.125c1.7.5,2.77,2,2.379,3.351a2.219,2.219,0,0,1-1.106,1.314,3.528,3.528,0,0,1-2.673.224,3.374,3.374,0,0,1-2.451-2.376.765.765,0,0,0-.037-.093.832.832,0,0,0-.069-.171.871.871,0,0,0-.1-.146.862.862,0,0,0-.124-.126.878.878,0,0,0-.142-.093.812.812,0,0,0-.17-.073.9.9,0,0,0-.171-.035.858.858,0,0,0-.1-.019H40.1a3.442,3.442,0,0,1-1.213-2.757,3.406,3.406,0,0,1,1.307-2.842h4.584a.8.8,0,0,0,.109-.022.874.874,0,0,0,.226-.046.64.64,0,0,0,.087-.045.853.853,0,0,0,.213-.143c.025-.027.048-.055.07-.084a.915.915,0,0,0,.128-.187.848.848,0,0,0,.052-.161.935.935,0,0,0,.042-.133,3.693,3.693,0,0,1,2.684-2.576M1.864,367A13.093,13.093,0,0,1,4.4,359.243,4.261,4.261,0,0,0,10.38,360a5.386,5.386,0,0,0,4.236,2.066,5.478,5.478,0,0,0,4.788-2.894,4.253,4.253,0,0,0,2.053.552,4.314,4.314,0,0,0,3.927-2.566c3.553,1.6,7.837,3.793,12.763,6.531a5.834,5.834,0,0,0,0,6.873c-5.236,2.882-17.95,9.578-23.127,9.578A13.161,13.161,0,0,1,1.864,367" transform="translate(0.001 -285.772)"/>
    <path id="Trazado_39027" data-name="Trazado 39027" d="M57.347,436.466a.933.933,0,0,0-1.28-.319c-6.251,3.764-13.459,7.022-19.5,2.637a.933.933,0,1,0-1.1,1.509,12.585,12.585,0,0,0,7.592,2.49c4.743,0,9.582-2.393,13.968-5.033a.933.933,0,0,0,.317-1.285" transform="translate(-28.247 -351.027)"/>
    <path id="Trazado_39028" data-name="Trazado 39028" d="M323.955,315.582a7.081,7.081,0,0,0-2.389-4.978c-2.951-2.514-7.461-1.968-7.652-1.942a.8.8,0,0,0-.668.512.765.765,0,0,0,.166.8c.009.011.832,1.135.937,5.589a28.846,28.846,0,0,0-5.847,2.254c-4.829-6.758-10.808-4.4-10.869-4.374a.8.8,0,0,0-.065,1.449,8.542,8.542,0,0,1,4.162,7.566.628.628,0,0,1,0,.086c0,.031-.005.061-.006.092a8.523,8.523,0,0,1-4.156,7.383.8.8,0,0,0,.063,1.45,7.638,7.638,0,0,0,2.6.418c2.056,0,5.017-.725,7.711-4.06a27.377,27.377,0,0,0,6.161,2.877,3.2,3.2,0,0,1,.385,4.324.8.8,0,0,0,.219,1.094,3.13,3.13,0,0,0,1.71.45,4.171,4.171,0,0,0,.9-.1c2.021-.448,4.028-2.311,5.972-5.514,6.553-1.848,10.695-7.562,10.9-7.849a.8.8,0,0,0-.036-.973,22.394,22.394,0,0,0-10.206-6.549m-4.725,14.349c-6.768,0-13.4-5.389-15.474-7.239,2.128-1.619,8.726-6.182,15.474-6.182a15.361,15.361,0,0,1,3.954.533c-1,2.068-2.825,7.252.824,11.988a13.518,13.518,0,0,1-4.778.9M315.244,310.2a8.444,8.444,0,0,1,5.289,1.629A5.362,5.362,0,0,1,322.3,315.2a17.008,17.008,0,0,0-3.066-.284,18.766,18.766,0,0,0-3.294.3,18.465,18.465,0,0,0-.693-5.022m-15.364,4.408c1.739-.1,4.587.425,7.2,3.978a37.942,37.942,0,0,0-3.836,2.486,10.11,10.11,0,0,0-3.362-6.463m0,15.7a10.115,10.115,0,0,0,3.283-5.994,38.209,38.209,0,0,0,3.437,2.637c-2.475,2.991-5.094,3.441-6.718,3.357Zm17.17,4.585a2.5,2.5,0,0,1-.719.08,4.636,4.636,0,0,0,.046-3.713,15.982,15.982,0,0,0,2.853.27,14.714,14.714,0,0,0,1.876-.125c-1.712,2.439-3.12,3.259-4.056,3.487m8.466-6.53c-3.65-4.376-1.646-9.224-.8-10.834a21.763,21.763,0,0,1,7.786,5.156,22.513,22.513,0,0,1-6.986,5.68Z" transform="translate(-239.217 -248.443)"/>
    <path id="Trazado_39029" data-name="Trazado 39029" d="M363.24,357.818c-6.648,0-10.015,3.291-10.155,3.431a.8.8,0,0,0,1.124,1.132c.034-.029,3.082-2.965,9.03-2.965a.8.8,0,1,0,0-1.6" transform="translate(-284.097 -288.073)"/>
    <path id="Trazado_39030" data-name="Trazado 39030" d="M444.3,370.352c-.04-.032-.08-.064-.128-.1a.451.451,0,0,0-.136-.072.485.485,0,0,0-.152-.048.8.8,0,0,0-.719.216.82.82,0,0,0-.168.264.8.8,0,0,0-.063.3,1.1,1.1,0,0,0,.016.16.515.515,0,0,0,.048.144.6.6,0,0,0,.072.144,1.154,1.154,0,0,0,.1.12.822.822,0,0,0,.567.232.966.966,0,0,0,.151-.016.5.5,0,0,0,.152-.048.451.451,0,0,0,.136-.072.792.792,0,0,0,.128-.1l.1-.12a.6.6,0,0,0,.072-.144.469.469,0,0,0,.047-.144.917.917,0,0,0,.017-.16.786.786,0,0,0-.064-.3.826.826,0,0,0-.167-.264" transform="translate(-356.596 -297.977)"/>
  </g>
</svg>
