<svg xmlns="http://www.w3.org/2000/svg" xmlns:xlink="http://www.w3.org/1999/xlink" width="100.002" height="100" viewBox="0 0 100.002 100">
  <defs>
    <clipPath id="clip-path">
      <rect id="Rectángulo_3862" data-name="Rectángulo 3862" width="100.002" height="100" transform="translate(0.002)" fill="none"/>
    </clipPath>
  </defs>
  <g id="Grupo_15908" data-name="Grupo 15908" transform="translate(-0.002)">
    <g id="Grupo_15907" data-name="Grupo 15907" clip-path="url(#clip-path)">
      <path id="Trazado_39074" data-name="Trazado 39074" d="M97.836,38.017A47.025,47.025,0,0,1,91.77,58.333L63.336,71.667l.25-2.284L67.27,36.867a46.8,46.8,0,0,0,7.25-22.7c.016-.35.033-.716.049-1.083q.077-2.1-.049-4.15a6.664,6.664,0,0,1,3.25-6.2l.283-.166A5.209,5.209,0,0,1,79.085,2.1a6.533,6.533,0,0,1,7.25,1.817,47.539,47.539,0,0,1,11.5,34.1" fill="#ff9801"/>
      <path id="Trazado_39075" data-name="Trazado 39075" d="M93.238,38.017a47.012,47.012,0,0,1-6.067,20.316L63.588,69.383l3.684-32.516a46.8,46.8,0,0,0,7.25-22.7c.017-.35.033-.716.05-1.083q.077-2.1-.05-4.15a6.664,6.664,0,0,1,3.25-6.2l.283-.166A5.244,5.244,0,0,1,79.088,2.1a6.223,6.223,0,0,1,2.65,1.817,47.543,47.543,0,0,1,11.5,34.1" fill="#fec108"/>
      <path id="Trazado_39076" data-name="Trazado 39076" d="M74.971,56.533a1.667,1.667,0,0,1-1.223-2.8c13.4-14.43,10.9-34.141,10.87-34.334a1.667,1.667,0,0,1,3.3-.455c.12.868,2.778,21.444-11.727,37.064a1.671,1.671,0,0,1-1.221.526" fill="#f29c1f"/>
      <path id="Trazado_39077" data-name="Trazado 39077" d="M91.753,11.616l-.083.05L74.486,14.8c.017-.217.017-.416.035-.633a.748.748,0,0,1,.016-.2c0-.283.017-.584.033-.883q.075-2.1-.049-4.15a6.664,6.664,0,0,1,3.25-6.2l.283-.166a6.992,6.992,0,0,1,1.083-.5,6.552,6.552,0,0,1,7.2,1.85,47.54,47.54,0,0,1,4.968,6.9c.149.267.316.533.449.8" fill="#f57c00"/>
      <path id="Trazado_39078" data-name="Trazado 39078" d="M87.27,11.616l-.083.05-12.65,2.3c0-.283.016-.584.033-.883q.075-2.1-.05-4.15a6.664,6.664,0,0,1,3.25-6.2l.283-.166a7.035,7.035,0,0,1,1.083-.5,6.505,6.505,0,0,1,2.717,1.85,47.534,47.534,0,0,1,4.967,6.9c.15.267.317.533.449.8" fill="#ff9801"/>
      <path id="Trazado_39079" data-name="Trazado 39079" d="M98.337,58.333c0,.617-.017,1.217-.05,1.817-.016.683-.065,1.35-.133,2.017-.015.2-.033.4-.066.6-.05.55-.134,1.1-.217,1.65-.1.667-.217,1.317-.349,1.967s-.284,1.3-.451,1.933v.017a40.023,40.023,0,0,1-38.733,30H41.67a40.023,40.023,0,0,1-38.732-30v-.017c-.166-.633-.318-1.283-.451-1.933s-.25-1.3-.349-1.967c-.083-.55-.166-1.1-.218-1.65-.032-.2-.05-.4-.065-.6-.067-.667-.118-1.334-.134-2.017-.033-.6-.051-1.2-.051-1.817Z" fill="#c4c44e"/>
      <path id="Trazado_39080" data-name="Trazado 39080" d="M31.67,68.333l-5.413-2.579L10.623,58.338,4.99,43.371,3.857,40.354A10,10,0,0,1,7.841,28.421a9.619,9.619,0,0,1,3.649-1.434l2.716-.483.185-.033,2.9-.5A10,10,0,0,1,29.04,35.92l-.066,5.251v.016Z" fill="#f57c00"/>
      <path id="Trazado_39081" data-name="Trazado 39081" d="M26.253,65.75,10.62,58.333,4.987,43.366l-.7-1.883-.432-1.134a10.537,10.537,0,0,1-.534-2.067,10,10,0,0,1,4.517-9.866l1.366-.25.184-.033,2.9-.5a10,10,0,0,1,11.75,9.95l-.065,5.25v.017Z" fill="#ff9801"/>
      <path id="Trazado_39082" data-name="Trazado 39082" d="M11.786,38.467a1.637,1.637,0,0,1-1.309,1.91l-.041.007-6.15,1.1L3.853,40.35a10.6,10.6,0,0,1-.533-2.067.224.224,0,0,1,.1-.033l6.45-1.134a1.637,1.637,0,0,1,1.91,1.309c0,.013.005.027.007.041" fill="#d25627"/>
      <path id="Trazado_39083" data-name="Trazado 39083" d="M21.252,50a1.667,1.667,0,0,1-.29-3.309l4.7-.833a1.668,1.668,0,0,1,.584,3.284l-4.7.833a1.688,1.688,0,0,1-.293.025" fill="#d25627"/>
      <path id="Trazado_39084" data-name="Trazado 39084" d="M16.719,39.258a1.667,1.667,0,0,1-.287-3.308l3.284-.574a1.667,1.667,0,1,1,.576,3.284L17,39.238a1.692,1.692,0,0,1-.284.024" fill="#d25627"/>
      <path id="Trazado_39085" data-name="Trazado 39085" d="M5.4,7.2l8.988,19.275A14.986,14.986,0,0,1,2.271,7.466,1.667,1.667,0,0,1,5.4,7.2" fill="#4caf50"/>
      <path id="Trazado_39086" data-name="Trazado 39086" d="M16.069,5.318,14.21,26.5A14.991,14.991,0,0,0,20.145,6.148,15.158,15.158,0,0,0,19.095,4.5a1.666,1.666,0,0,0-3.029.818" fill="#4caf50"/>
      <path id="Trazado_39087" data-name="Trazado 39087" d="M21.666,78.333H15A1.667,1.667,0,1,1,14.922,75h6.744a1.667,1.667,0,0,1,.082,3.333h-.082" fill="#955ba5"/>
      <path id="Trazado_39088" data-name="Trazado 39088" d="M80,78.333H28.332a1.667,1.667,0,0,1,0-3.333H80a1.667,1.667,0,0,1,0,3.333" fill="#955ba5"/>
      <path id="Trazado_39089" data-name="Trazado 39089" d="M98.337,58.333c0,.617-.017,1.217-.05,1.817-.016.683-.065,1.35-.133,2.017-.015.2-.033.4-.066.6-.05.55-.134,1.1-.217,1.65-.1.667-.217,1.317-.349,1.967s-.284,1.3-.451,1.933v.017H2.938v-.017c-.166-.633-.318-1.283-.451-1.933s-.25-1.3-.349-1.967c-.083-.55-.166-1.1-.218-1.65-.032-.2-.05-.4-.065-.6-.067-.667-.118-1.334-.134-2.017-.033-.6-.051-1.2-.051-1.817Z" fill="#afac4a"/>
      <path id="Trazado_39090" data-name="Trazado 39090" d="M75,53.933a22.411,22.411,0,0,1-.433,4.4H25.437a22.489,22.489,0,0,1-.434-4.4A23.239,23.239,0,0,1,35.687,34.567a10.885,10.885,0,0,1,4.732-1.7,10.2,10.2,0,0,1,2.566,0H57.021a10.95,10.95,0,0,1,7.3,1.7A23.237,23.237,0,0,1,75,53.933" fill="#c52828"/>
      <path id="Trazado_39091" data-name="Trazado 39091" d="M68.336,53.933a22.488,22.488,0,0,1-.433,4.4H25.438a22.414,22.414,0,0,1-.435-4.4A23.242,23.242,0,0,1,35.687,34.567a10.89,10.89,0,0,1,4.732-1.7h9.935a10.193,10.193,0,0,1,2.565,0,10.876,10.876,0,0,1,4.733,1.7A23.236,23.236,0,0,1,68.335,53.933" fill="#f44335"/>
      <path id="Trazado_39092" data-name="Trazado 39092" d="M50,28.571c4.167-4.287,13.89,0,13.89,0a17.3,17.3,0,0,0-8.334,2.856s6.944,5.715,8.334,11.429c-.06-.243-1.448-.7-1.692-.809a14.679,14.679,0,0,0-1.854-.667,7.107,7.107,0,0,0-3.807-.151c-3.555.968-5.716,5.4-6.535,8.77-.817-3.367-2.98-7.8-6.534-8.778a7.1,7.1,0,0,0-3.808.152,14.674,14.674,0,0,0-1.854.666c-.245.1-1.633.565-1.692.809,1.388-5.714,8.333-11.429,8.333-11.429a17.3,17.3,0,0,0-8.333-2.856s9.721-4.279,13.888.008" fill="#4caf50"/>
      <path id="Trazado_39093" data-name="Trazado 39093" d="M98.336,56.666h-3.8A49.128,49.128,0,0,0,87.6,2.832a8.272,8.272,0,0,0-10.39-1.7l-.272.166a8.292,8.292,0,0,0-4.078,7.737c.079,1.312.1,2.654.047,3.973l-.049,1.077a45.188,45.188,0,0,1-6.019,20.25c-.518-.4-1.047-.792-1.6-1.166A12.577,12.577,0,0,0,59.753,31.2a11.361,11.361,0,0,1,4.144-.927,1.667,1.667,0,0,0,.684-3.189c-.41-.183-9.333-4.111-14.572-.619-5.237-3.5-14.167.436-14.574.619a1.667,1.667,0,0,0,.684,3.189,11.41,11.41,0,0,1,4.149.929,12.623,12.623,0,0,0-5.5,1.971A26.493,26.493,0,0,0,30.7,36.5v-.57A11.667,11.667,0,0,0,19.681,24.166,16.653,16.653,0,0,0,17.816.689q-.191-.164-.389-.323a1.666,1.666,0,0,0-2.7,1.155l-1.6,18.3L5.361,3.166A1.664,1.664,0,0,0,2.427,3,16.645,16.645,0,0,0,8,25.871c.167.1.335.2.5.3A11.656,11.656,0,0,0,2.294,40.931L8.211,56.666H1.67A1.668,1.668,0,0,0,0,58.332H0A41.714,41.714,0,0,0,41.67,100H58.336A41.712,41.712,0,0,0,100,58.333a1.665,1.665,0,0,0-1.666-1.666M96.169,37.915a45.649,45.649,0,0,1-5.4,18.752H76.5c.043-.371.065-.744.091-1.117C90.639,39.992,88.043,19.8,87.927,18.938a1.667,1.667,0,0,0-3.3.455c.024.183,2.166,17.145-8.2,31.118a24.842,24.842,0,0,0-7.039-13.935,48.658,48.658,0,0,0,6.639-20.361L90.872,13.5a45.541,45.541,0,0,1,5.3,24.415M78.614,4.166,78.891,4a4.924,4.924,0,0,1,6.186,1,45.434,45.434,0,0,1,4,5.438L76.243,12.772c.037-1.325.022-2.654-.056-3.952a4.985,4.985,0,0,1,2.427-4.653M48.8,29.758c.011.012.023.014.033.024s.015.024.025.034a1.456,1.456,0,0,0,.246.155,1.636,1.636,0,0,0,1.225.245,1.53,1.53,0,0,0,.3-.066,1.684,1.684,0,0,0,.285-.179,1.651,1.651,0,0,0,.242-.154c.01-.01.013-.024.024-.033s.023-.012.033-.023c1.418-1.487,3.939-1.622,6.375-1.26A20.512,20.512,0,0,0,54.6,30.166a1.666,1.666,0,0,0-.118,2.641,33.8,33.8,0,0,1,6.274,7.249,8.566,8.566,0,0,0-4.666-.144A10.5,10.5,0,0,0,50,45.666a10.5,10.5,0,0,0-6.087-5.759,8.6,8.6,0,0,0-4.666.143A33.8,33.8,0,0,1,45.52,32.8a1.667,1.667,0,0,0,.2-2.349,1.644,1.644,0,0,0-.32-.292,20.671,20.671,0,0,0-2.991-1.667c2.439-.363,4.96-.227,6.385,1.267m-12.2,6.2a9.264,9.264,0,0,1,2.212-1.018,20.83,20.83,0,0,0-4.319,7.846,1.667,1.667,0,0,0,2.8,1.566c.235-.114.667-.279.833-.334a3.313,3.313,0,0,0,.353-.139,13.2,13.2,0,0,1,1.644-.613,5.351,5.351,0,0,1,2.9-.15c2.6.73,4.572,4.41,5.364,7.735a1.662,1.662,0,0,0,.154.36,1.345,1.345,0,0,0,.061.14,1.639,1.639,0,0,0,.4.439c.037.027.082.04.121.066a1.627,1.627,0,0,0,.431.2c.024,0,.042.024.066.03a1.509,1.509,0,0,0,.378.045h.018a1.517,1.517,0,0,0,.379-.045c.024,0,.042-.024.066-.03a1.661,1.661,0,0,0,.429-.2c.04-.025.085-.039.121-.067a1.62,1.62,0,0,0,.4-.438,1.345,1.345,0,0,0,.061-.14,1.662,1.662,0,0,0,.154-.36c.792-3.333,2.758-7,5.363-7.735a5.339,5.339,0,0,1,2.9.15,13.213,13.213,0,0,1,1.645.613c.067.029.193.079.352.139s.6.227.834.334a1.668,1.668,0,0,0,2.8-1.566,20.85,20.85,0,0,0-4.31-7.842,9.222,9.222,0,0,1,2.2,1.013,21.663,21.663,0,0,1,9.933,17.976,20.837,20.837,0,0,1-.2,2.734H26.871a20.838,20.838,0,0,1-.2-2.734A21.656,21.656,0,0,1,36.6,35.961M17.725,5.446a13.334,13.334,0,0,1-1.537,17.568ZM4.588,17.288a13.3,13.3,0,0,1-.7-9.4l7.452,15.984a13.3,13.3,0,0,1-6.748-6.583M5.946,41.181l4.5-.79a1.667,1.667,0,1,0-.577-3.284l-4.907.863a8.348,8.348,0,0,1,6.82-9.347l5.8-1.017a8.334,8.334,0,0,1,9.662,6.749,8.2,8.2,0,0,1,.128,1.54l-.059,4.784a24.614,24.614,0,0,0-2.623,5.353l-3.726.667a1.667,1.667,0,0,0,.285,3.3,1.792,1.792,0,0,0,.293-.025l2.2-.39a22.989,22.989,0,0,0-.239,7.082H11.773ZM10.614,60H96.635a38.185,38.185,0,0,1-.889,6.666H4.261A38.186,38.186,0,0,1,3.371,60ZM58.336,96.666H41.67A38.394,38.394,0,0,1,5.169,70H94.836a38.391,38.391,0,0,1-36.5,26.667"/>
      <path id="Trazado_39094" data-name="Trazado 39094" d="M21.646,36.724a1.665,1.665,0,0,0-1.93-1.35l-3.284.578a1.667,1.667,0,0,0,.287,3.308,1.779,1.779,0,0,0,.292-.024l3.281-.578a1.668,1.668,0,0,0,1.354-1.93"/>
      <path id="Trazado_39095" data-name="Trazado 39095" d="M21.666,75H15a1.667,1.667,0,1,0-.081,3.333h6.744A1.667,1.667,0,0,0,21.748,75h-.082"/>
      <path id="Trazado_39096" data-name="Trazado 39096" d="M80,75H28.332a1.667,1.667,0,0,0,0,3.333H80A1.667,1.667,0,0,0,80,75"/>
    </g>
  </g>
</svg>
