<svg xmlns="http://www.w3.org/2000/svg" xmlns:xlink="http://www.w3.org/1999/xlink" width="99.999" height="100" viewBox="0 0 99.999 100">
  <defs>
    <clipPath id="clip-path">
      <rect id="Rectángulo_3863" data-name="Rectángulo 3863" width="99.999" height="100" transform="translate(0 0.004)" fill="none"/>
    </clipPath>
  </defs>
  <g id="Grupo_15910" data-name="Grupo 15910" transform="translate(0 -0.004)">
    <g id="Grupo_15909" data-name="Grupo 15909" clip-path="url(#clip-path)">
      <path id="Trazado_39097" data-name="Trazado 39097" d="M75,61.672a1.669,1.669,0,0,1-1.607-1.225c-.038-.134-3.5-13.456,10.759-21.876a1.667,1.667,0,0,1,1.695,2.87c-12.1,7.139-9.27,18.013-9.241,18.122a1.667,1.667,0,0,1-1.167,2.048,1.626,1.626,0,0,1-.439.06" fill="#59474e"/>
      <path id="Trazado_39098" data-name="Trazado 39098" d="M68.336,15.005V43.888l-1.383,53.8a3.2,3.2,0,0,1-1.95.65H5A3.345,3.345,0,0,1,1.669,95v-80A3.344,3.344,0,0,1,5,11.672H65a3.343,3.343,0,0,1,3.333,3.333" fill="#4e342e"/>
      <path id="Trazado_39099" data-name="Trazado 39099" d="M63.335,15.005V43.888l-1.383,53.8a3.191,3.191,0,0,1-1.95.65H5A3.344,3.344,0,0,1,1.668,95v-80A3.343,3.343,0,0,1,5,11.672H60a3.343,3.343,0,0,1,3.333,3.333" fill="#795548"/>
      <path id="Trazado_39100" data-name="Trazado 39100" d="M61.666,41.688V20A1.668,1.668,0,0,0,60,18.339H10A1.666,1.666,0,0,0,8.333,20V90A1.666,1.666,0,0,0,10,91.671H61.666Z" fill="#efedaf"/>
      <path id="Trazado_39101" data-name="Trazado 39101" d="M63.332,55.005C55,53.338,56.9,42.353,56.9,42.348c.141-.616,4.184-.677,4.771-.667a11.5,11.5,0,0,1,10.767,7.71C73.566,52.323,73.63,57.171,75,60" fill="#4caf50"/>
      <path id="Trazado_39102" data-name="Trazado 39102" d="M56.668,11.667v6.666a3.344,3.344,0,0,1-3.333,3.333H16.668a3.342,3.342,0,0,1-3.333-3.333V11.667a3.343,3.343,0,0,1,3.333-3.328H26.833a8.333,8.333,0,0,1,16.333,0H53.333a3.344,3.344,0,0,1,3.335,3.328" fill="#607d8b"/>
      <path id="Trazado_39103" data-name="Trazado 39103" d="M51.669,11.673v6.666a3.344,3.344,0,0,1-3.333,3.333H16.669a3.344,3.344,0,0,1-3.333-3.333V11.673a3.343,3.343,0,0,1,3.333-3.334H26.833A8.331,8.331,0,0,1,32.5,2.052a8.333,8.333,0,0,1,5.67,6.287H48.335a3.343,3.343,0,0,1,3.333,3.333" fill="#cfd8dc"/>
      <path id="Trazado_39104" data-name="Trazado 39104" d="M21.667,16.671H20a1.667,1.667,0,0,1,0-3.333h1.668a1.667,1.667,0,0,1,0,3.333" fill="#547580"/>
      <path id="Trazado_39105" data-name="Trazado 39105" d="M50,16.671H28.337a1.667,1.667,0,0,1-.082-3.333H50a1.667,1.667,0,0,1,0,3.333" fill="#547580"/>
      <path id="Trazado_39106" data-name="Trazado 39106" d="M91.249,56.737A12.5,12.5,0,0,0,84.865,55h-3.65a6.285,6.285,0,0,0-1.866.3h-.017A6.64,6.64,0,0,0,75,61.687a6.656,6.656,0,0,0-4.234-6.333c-.2-.066-.4-.134-.6-.183-.117-.017-.234-.05-.351-.066a5.248,5.248,0,0,0-1.032-.1h-3.65c-7.434,0-13.467,6.466-13.467,14.449v7.217a22.588,22.588,0,0,0,4.117,13.1,19.763,19.763,0,0,0,16.1,8.566h6.233c11.166,0,20.216-9.7,20.216-21.666V69.454a14.6,14.6,0,0,0-7.083-12.716" fill="#c52828"/>
      <path id="Trazado_39107" data-name="Trazado 39107" d="M93.332,64.454v7.217c0,11.967-9.05,21.666-20.217,21.666H66.882a19.159,19.159,0,0,1-11.1-3.567,22.581,22.581,0,0,1-4.117-13.1V69.454c0-7.983,6.033-14.449,13.467-14.449h3.65a5.248,5.248,0,0,1,1.032.1c.117.016.234.05.351.066.2.05.4.117.6.183A6.656,6.656,0,0,1,75,61.687,6.64,6.64,0,0,1,79.332,55.3h.017a6.317,6.317,0,0,1,1.866-.3h3.65a12.509,12.509,0,0,1,6.384,1.733,15.189,15.189,0,0,1,2.084,7.717" fill="#f44335"/>
      <path id="Trazado_39108" data-name="Trazado 39108" d="M58.333,71.671A1.667,1.667,0,0,1,56.666,70c0-7.778,5.888-9.833,6.14-9.914a1.667,1.667,0,0,1,1.111,3.143.367.367,0,0,1-.043.015C63.686,63.315,60,64.715,60,70a1.668,1.668,0,0,1-1.666,1.667" fill="#fb7b76"/>
      <path id="Trazado_39109" data-name="Trazado 39109" d="M16.666,30h5a1.666,1.666,0,0,1,1.666,1.666v5a1.667,1.667,0,0,1-1.666,1.666h-5A1.666,1.666,0,0,1,15,36.671v-5A1.666,1.666,0,0,1,16.666,30" fill="#f5f5f5"/>
      <path id="Trazado_39110" data-name="Trazado 39110" d="M16.666,45h5a1.667,1.667,0,0,1,1.666,1.667v5a1.668,1.668,0,0,1-1.666,1.667h-5A1.667,1.667,0,0,1,15,51.669v-5A1.666,1.666,0,0,1,16.666,45" fill="#f5f5f5"/>
      <path id="Trazado_39111" data-name="Trazado 39111" d="M16.666,60h5a1.668,1.668,0,0,1,1.666,1.667v5a1.668,1.668,0,0,1-1.666,1.667h-5A1.667,1.667,0,0,1,15,66.669v-5A1.667,1.667,0,0,1,16.666,60" fill="#f5f5f5"/>
      <path id="Trazado_39112" data-name="Trazado 39112" d="M16.666,75h5a1.666,1.666,0,0,1,1.666,1.666v5a1.667,1.667,0,0,1-1.666,1.667h-5A1.666,1.666,0,0,1,15,81.668v-5A1.666,1.666,0,0,1,16.666,75" fill="#f5f5f5"/>
      <path id="Trazado_39113" data-name="Trazado 39113" d="M21.668,40.005h-5a3.333,3.333,0,0,1-3.333-3.333v-5a3.333,3.333,0,0,1,3.333-3.333h5A3.333,3.333,0,0,1,25,31.672v5a3.333,3.333,0,0,1-3.333,3.333m-5-3.333h5v-5h-5Z" fill="#35495e"/>
      <path id="Trazado_39114" data-name="Trazado 39114" d="M21.668,55.005h-5a3.334,3.334,0,0,1-3.333-3.334v-5a3.333,3.333,0,0,1,3.333-3.333h5A3.333,3.333,0,0,1,25,46.671v5a3.334,3.334,0,0,1-3.333,3.334m-5-3.334h5v-5h-5Z" fill="#35495e"/>
      <path id="Trazado_39115" data-name="Trazado 39115" d="M21.668,70h-5a3.333,3.333,0,0,1-3.335-3.331V61.667a3.333,3.333,0,0,1,3.333-3.333h5A3.333,3.333,0,0,1,25,61.666h0v5A3.333,3.333,0,0,1,21.667,70m-5-3.333h5v-5h-5Z" fill="#35495e"/>
      <path id="Trazado_39116" data-name="Trazado 39116" d="M21.668,85h-5a3.333,3.333,0,0,1-3.333-3.333v-5a3.333,3.333,0,0,1,3.333-3.333h5A3.333,3.333,0,0,1,25,76.671v5A3.333,3.333,0,0,1,21.668,85m-5-3.333h5v-5h-5Z" fill="#35495e"/>
      <path id="Trazado_39117" data-name="Trazado 39117" d="M53.333,36.672H30a1.667,1.667,0,1,1-.082-3.333H53.333a1.667,1.667,0,0,1,.082,3.333h-.082" fill="#35495e"/>
      <path id="Trazado_39118" data-name="Trazado 39118" d="M48.332,51.669H30a1.667,1.667,0,1,1-.082-3.333H48.332a1.667,1.667,0,0,1,.082,3.333h-.082" fill="#35495e"/>
      <path id="Trazado_39119" data-name="Trazado 39119" d="M45,66.669H30a1.667,1.667,0,1,1-.081-3.333H45a1.667,1.667,0,0,1,.081,3.333H45" fill="#35495e"/>
      <path id="Trazado_39120" data-name="Trazado 39120" d="M45,81.67H30a1.667,1.667,0,1,1-.081-3.333H45a1.667,1.667,0,0,1,.081,3.333H45" fill="#35495e"/>
      <path id="Trazado_39121" data-name="Trazado 39121" d="M20,16.671h1.668a1.667,1.667,0,0,0,0-3.333H20a1.667,1.667,0,0,0,0,3.333"/>
      <path id="Trazado_39122" data-name="Trazado 39122" d="M28.337,16.671H50a1.667,1.667,0,0,0,0-3.333H28.337a1.667,1.667,0,0,0-.082,3.333c.027,0,.055,0,.082,0"/>
      <path id="Trazado_39123" data-name="Trazado 39123" d="M84.87,53.338H81.214a7.781,7.781,0,0,0-2.238.333,1.575,1.575,0,0,0-.166.048,7.715,7.715,0,0,0-2.42,1.369c.362-3.834,2.259-9.4,9.462-13.653a1.667,1.667,0,0,0-1.693-2.87,21.954,21.954,0,0,0-9.873,11.063c-.088-.288-.183-.57-.287-.833a13.946,13.946,0,0,0-4-5.666V15a5,5,0,0,0-5-5H58.025a5,5,0,0,0-4.692-3.333H44.4a9.966,9.966,0,0,0-18.808,0H16.666A5,5,0,0,0,11.973,10H5a5,5,0,0,0-5,5V95a5,5,0,0,0,5,5H65a4.878,4.878,0,0,0,2.24-.542,20.41,20.41,0,0,0,4.645.542h6.23C90.18,100,100,89.539,100,76.671V69.454c0-8.883-6.786-16.116-15.128-16.116m-13.988-3.35A22.411,22.411,0,0,1,71.813,54c-.166-.072-.314-.167-.482-.222a7.6,7.6,0,0,0-2.557-.445H65.127c-.457,0-.906.031-1.354.073-.041-.011-.071-.038-.114-.046-5.516-1.1-5.44-7.54-5.231-9.843a27.157,27.157,0,0,1,3.2-.179h.035a9.833,9.833,0,0,1,9.216,6.652ZM53.949,90H10V20h1.974a5,5,0,0,0,4.693,3.333H53.333A5,5,0,0,0,58.025,20H60V40.029c-4.3.154-4.59,1.352-4.743,2.037-.587,3.429-.288,9.5,3.679,12.7A16.2,16.2,0,0,0,50,69.454V76.67A24.236,24.236,0,0,0,53.949,90M66.665,15V41.086a13.4,13.4,0,0,0-3.333-.913V20A3.334,3.334,0,0,0,60,16.672H58.333V13.338H65A1.668,1.668,0,0,1,66.665,15m-50-5H26.833A1.373,1.373,0,0,0,27,9.97a1.538,1.538,0,0,0,.306-.062,1.5,1.5,0,0,0,.3-.127,1.6,1.6,0,0,0,.654-.653,1.518,1.518,0,0,0,.129-.305,1.639,1.639,0,0,0,.066-.155,6.665,6.665,0,0,1,13.062,0,1.719,1.719,0,0,0,.071.177,1.868,1.868,0,0,0,.094.238,1.6,1.6,0,0,0,.2.3,1.543,1.543,0,0,0,.156.177,1.68,1.68,0,0,0,.323.218,1.3,1.3,0,0,0,.8.225H53.333A1.667,1.667,0,0,1,55,11.67v6.668A1.668,1.668,0,0,1,53.333,20H16.666A1.666,1.666,0,0,1,15,18.339V11.672A1.667,1.667,0,0,1,16.666,10M5,96.671A1.667,1.667,0,0,1,3.333,95V15A1.666,1.666,0,0,1,5,13.338h6.667v3.333H10A3.333,3.333,0,0,0,6.667,20V90A3.332,3.332,0,0,0,10,93.338H56.6a22.232,22.232,0,0,0,4.07,3.333Zm91.665-20c0,11.027-8.323,20-18.551,20h-6.23c-10.228,0-18.551-8.97-18.551-20V69.454c0-7.045,5.291-12.783,11.795-12.783H68.8a4.262,4.262,0,0,1,1.4.25,4.987,4.987,0,0,1,3.131,4.764v1.652a1.667,1.667,0,1,0,3.333.082V61.681a4.991,4.991,0,0,1,3.109-4.772l.08-.023a4.581,4.581,0,0,1,1.333-.218h3.681c6.5,0,11.8,5.741,11.8,12.786Z"/>
      <path id="Trazado_39124" data-name="Trazado 39124" d="M62.806,60.089c-.252.082-6.14,2.136-6.14,9.914A1.667,1.667,0,0,0,60,70.084V70c0-5.289,3.687-6.689,3.875-6.757a1.667,1.667,0,0,0-1.025-3.173l-.043.015"/>
      <path id="Trazado_39125" data-name="Trazado 39125" d="M21.668,28.338h-5a3.333,3.333,0,0,0-3.333,3.333v5A3.333,3.333,0,0,0,16.668,40h5A3.333,3.333,0,0,0,25,36.671v-5a3.333,3.333,0,0,0-3.333-3.333m-5,3.333h5v5h-5Z"/>
      <path id="Trazado_39126" data-name="Trazado 39126" d="M21.668,43.338h-5a3.333,3.333,0,0,0-3.333,3.333v5a3.334,3.334,0,0,0,3.333,3.334h5A3.334,3.334,0,0,0,25,51.671v-5a3.333,3.333,0,0,0-3.333-3.333m-5,3.333h5v5h-5Z"/>
      <path id="Trazado_39127" data-name="Trazado 39127" d="M21.668,58.338h-5a3.333,3.333,0,0,0-3.335,3.329v5A3.333,3.333,0,0,0,16.666,70h5A3.333,3.333,0,0,0,25,66.668h0v-5a3.333,3.333,0,0,0-3.333-3.333m-5,3.333h5v5h-5Z"/>
      <path id="Trazado_39128" data-name="Trazado 39128" d="M21.668,73.337h-5a3.333,3.333,0,0,0-3.333,3.333v5A3.333,3.333,0,0,0,16.668,85h5A3.333,3.333,0,0,0,25,81.67v-5a3.333,3.333,0,0,0-3.333-3.333m-5,3.333h5v5h-5Z"/>
      <path id="Trazado_39129" data-name="Trazado 39129" d="M30,36.672H53.333a1.667,1.667,0,0,0,.082-3.333H30a1.667,1.667,0,1,0-.082,3.333H30"/>
      <path id="Trazado_39130" data-name="Trazado 39130" d="M48.332,48.338H30a1.667,1.667,0,1,0-.082,3.333H48.332a1.667,1.667,0,0,0,.082-3.333h-.082"/>
      <path id="Trazado_39131" data-name="Trazado 39131" d="M45,63.338H30a1.667,1.667,0,1,0-.081,3.333H45a1.667,1.667,0,1,0,.081-3.333H45"/>
      <path id="Trazado_39132" data-name="Trazado 39132" d="M45,78.338H30a1.667,1.667,0,0,0-.081,3.333H45a1.667,1.667,0,1,0,.081-3.333H45"/>
    </g>
  </g>
</svg>
