<svg id="Grupo_15904" data-name="Grupo 15904" xmlns="http://www.w3.org/2000/svg" xmlns:xlink="http://www.w3.org/1999/xlink" width="98.575" height="100" viewBox="0 0 98.575 100">
  <defs>
    <clipPath id="clip-path">
      <rect id="Rectángulo_3856" data-name="Rectángulo 3856" width="98.575" height="100" fill="none"/>
    </clipPath>
  </defs>
  <g id="Grupo_15903" data-name="Grupo 15903" clip-path="url(#clip-path)">
    <path id="Trazado_39031" data-name="Trazado 39031" d="M35.556,420.277a.52.52,0,0,1,0,.167c-3.789,6.376-14.872,6.51-17.643-1.5A8.1,8.1,0,0,1,20,411.03c.684-.768.451-1.669.718-2.554a3.07,3.07,0,0,1,1.452-1.8,2.928,2.928,0,0,1,.718-.284,3.339,3.339,0,0,1,2.854.534c.6.434.885,1.085,1.669,1.152a12.537,12.537,0,0,0,1.9-.3h.568a4.173,4.173,0,0,1,3.872,4.54A1.644,1.644,0,0,0,34.771,414c2.671,1.169,1.9,4.29.785,6.276" transform="translate(-14.17 -326.806)" fill="#ffe0b2"/>
    <path id="Trazado_39032" data-name="Trazado 39032" d="M399.638,418.717c-2.754,8.045-13.837,7.878-17.559,1.5a.518.518,0,0,1-.084-.167c-1.118-1.986-1.886-5.108.751-6.243a1.9,1.9,0,0,0,1.018-1.753,4.173,4.173,0,0,1,3.856-4.54h.584a12.518,12.518,0,0,0,1.9.3c.818,0,1.1-.718,1.669-1.152a3.338,3.338,0,0,1,2.837-.568,2.788,2.788,0,0,1,.734.284,3.073,3.073,0,0,1,1.452,1.8c.267.851,0,1.786.718,2.554a8.1,8.1,0,0,1,2.12,7.978" transform="translate(-306.445 -326.58)" fill="#ffe0b2"/>
    <path id="Trazado_39033" data-name="Trazado 39033" d="M427.265,411.078c-.668-.768-.451-1.669-.718-2.554a3.07,3.07,0,0,0-1.452-1.8,2.783,2.783,0,0,0-.734-.284,3.338,3.338,0,0,0-2.837.568,5.012,5.012,0,0,0-.534.484,2.94,2.94,0,0,1,.551,1.035c.267.851,0,1.786.718,2.554a8.1,8.1,0,0,1,2.086,7.912,8.862,8.862,0,0,1-6.443,5.859,9.381,9.381,0,0,0,11.45-5.859,8.1,8.1,0,0,0-2.086-7.912" transform="translate(-336.159 -326.854)" fill="#dfc49c"/>
    <path id="Trazado_39034" data-name="Trazado 39034" d="M159.515,375.16a1.669,1.669,0,0,1-.551.367c-2.637,1.135-1.87,4.257-.751,6.243H104.049c1.118-1.986,1.886-5.108-.751-6.243a1.667,1.667,0,0,1-.534-.351,16.691,16.691,0,0,1,15.022-16.691c0,6.409,6.009,11.684,13.353,11.684s13.353-5.191,13.353-11.684a16.691,16.691,0,0,1,15.022,16.675" transform="translate(-82.663 -288.365)" fill="#ff5722"/>
    <path id="Trazado_39035" data-name="Trazado 39035" d="M315.686,358.827a8.176,8.176,0,0,1-.1,1.285A16.692,16.692,0,0,1,325.7,375.435a1.667,1.667,0,0,1-.551.367c-2.637,1.135-1.87,4.257-.751,6.243h5.007c-1.118-1.986-1.886-5.108.751-6.243a1.662,1.662,0,0,0,.551-.367,16.691,16.691,0,0,0-15.022-16.608" transform="translate(-253.857 -288.64)" fill="#d84315"/>
    <path id="Trazado_39036" data-name="Trazado 39036" d="M206.271,322.789c0,6.409-6.009,11.684-13.353,11.684s-13.353-5.191-13.353-11.684h8.346c-.133-3.822-.5-5.275-.868-8.763a42.27,42.27,0,0,0,11.851,0c-.367,3.489-.734,5.008-.868,8.763H204.7a4.935,4.935,0,0,1,1.569,0" transform="translate(-144.442 -252.602)" fill="#ffe0b2"/>
    <path id="Trazado_39037" data-name="Trazado 39037" d="M170.068,83.342c-17.993-.9-25.037-6.543-25.037-6.543s-1.669,8.346-16.691,8.346V98.5a63.568,63.568,0,0,0,.234,6.393c.768,7.444,3.956,16.241,17.209,18.227,1.068.167,2.237.267,3.455.334h.918l1.552.084a40.068,40.068,0,0,0,5.925-.417c13.253-1.986,16.441-10.8,17.209-18.244a63.239,63.239,0,0,0,.234-6.376V83.475c-1.669,0-3.338,0-5.008-.133m-6.676,10.148a3.338,3.338,0,1,1-3.338,3.338,3.338,3.338,0,0,1,3.338-3.338m-26.706,3.338a3.338,3.338,0,1,1,3.338,3.338,3.338,3.338,0,0,1-3.338-3.338m5.007,13.353h20.03a10.849,10.849,0,0,1-20.03,0" transform="translate(-103.231 -61.777)" fill="#ffe0b2"/>
    <path id="Trazado_39038" data-name="Trazado 39038" d="M260.971,110.384v15.022a63.237,63.237,0,0,1-.234,6.376c-.768,7.445-3.956,16.257-17.209,18.244a40.094,40.094,0,0,1-5.925.417h-2.487a22.05,22.05,0,0,0,3.422-.334c13.253-1.986,16.441-10.8,17.209-18.244a63.118,63.118,0,0,0,.217-6.46V110.25c1.669.134,3.339.134,5.008.134" transform="translate(-189.127 -88.685)" fill="#dfc49c"/>
    <path id="Trazado_39039" data-name="Trazado 39039" d="M216.662,247.466a10.849,10.849,0,0,1-20.03,0Z" transform="translate(-158.17 -199.061)" fill="#f5f5f5"/>
    <path id="Trazado_39040" data-name="Trazado 39040" d="M175.1,25.972v2.5c-21.7,0-30.044-6.676-30.044-6.676s-1.669,8.346-16.691,8.346V22.634c0-5.992,8.346-14.188,23.368-14.188a29.544,29.544,0,0,1,16.942,4.573A14.239,14.239,0,0,1,175.1,21.8v4.173Z" transform="translate(-103.256 -6.777)" fill="sienna"/>
    <path id="Trazado_39041" data-name="Trazado 39041" d="M261.178,23.874V21.788a14.237,14.237,0,0,0-6.36-8.78A29.544,29.544,0,0,0,237.81,8.435a23.115,23.115,0,0,0-2.437.084,28.243,28.243,0,0,1,14.371,4.49,14.237,14.237,0,0,1,6.426,8.78v6.543c1.669.083,3.238.133,5.008.133v-4.59Z" transform="translate(-189.334 -6.766)" fill="#783e22"/>
    <path id="Trazado_39042" data-name="Trazado 39042" d="M94.278,166.668a6.48,6.48,0,0,1-1.9.284,6.677,6.677,0,0,1,0-13.353,6.113,6.113,0,0,1,1.669.217v6.46a63.51,63.51,0,0,0,.234,6.393" transform="translate(-68.936 -123.555)" fill="#dfc49c"/>
    <path id="Trazado_39043" data-name="Trazado 39043" d="M374.682,160.275a6.676,6.676,0,0,1-6.677,6.676,5.97,5.97,0,0,1-1.9-.3,63.23,63.23,0,0,0,.234-6.376v-6.46a6.1,6.1,0,0,1,1.669-.217,6.676,6.676,0,0,1,6.677,6.676" transform="translate(-294.492 -123.555)" fill="#dfc49c"/>
    <path id="Trazado_39044" data-name="Trazado 39044" d="M174.369,162.133a3.338,3.338,0,1,1-3.338,3.338,3.338,3.338,0,0,1,3.338-3.338" transform="translate(-137.577 -130.419)" fill="#02a9f4"/>
    <path id="Trazado_39045" data-name="Trazado 39045" d="M293.837,162.133a3.338,3.338,0,1,1-3.338,3.338,3.338,3.338,0,0,1,3.338-3.338" transform="translate(-233.677 -130.419)" fill="#02a9f4"/>
    <path id="Trazado_39046" data-name="Trazado 39046" d="M23,286.887h-.567a12.514,12.514,0,0,1-1.9.3c-.818,0-1.1-.718-1.669-1.152A3.339,3.339,0,0,0,16,285.468L14,274.2a1.769,1.769,0,0,0-.768-1.118A10.5,10.5,0,0,1,9.21,266.24c-.885-5.007,1.335-9.564,5.007-10.215s7.244,2.9,8.129,7.9a10.6,10.6,0,0,1-1.436,7.812,1.669,1.669,0,0,0-.334,1.319Z" transform="translate(-7.252 -205.884)" fill="#9e9e9e"/>
    <path id="Trazado_39047" data-name="Trazado 39047" d="M429.392,285.864l-.868,5.008a6.678,6.678,0,0,1-3.589,4.807,1.518,1.518,0,0,0-.835,1.052l-1.936,10.883a3.339,3.339,0,0,0-2.838.568c-.6.434-.884,1.085-1.669,1.152a12.513,12.513,0,0,1-1.9-.3h-.584l2.32-13.453a1.669,1.669,0,0,0-.451-1.419,6.677,6.677,0,0,1-1.669-5.675l.868-5.007,6.576,1.168Z" transform="translate(-333.963 -228.028)" fill="#9e9e9e"/>
    <path id="Trazado_39048" data-name="Trazado 39048" d="M211.355,241.186a1.669,1.669,0,0,0-1.569-2.253h-20.03a1.678,1.678,0,0,0-1.569,2.253,12.519,12.519,0,0,0,23.168,0m-11.584,4.423a8.83,8.83,0,0,1-7.077-3.338h14.155a8.83,8.83,0,0,1-7.077,3.338" transform="translate(-151.295 -192.197)"/>
    <path id="Trazado_39049" data-name="Trazado 39049" d="M167.318,161.784a1.669,1.669,0,0,0-1.669-1.669h-.3a5.007,5.007,0,1,0-9.414,0h-.3a1.669,1.669,0,0,0,0,3.338h10.015a1.669,1.669,0,0,0,1.669-1.669m-8.346-3.338a1.669,1.669,0,1,1,1.669,1.669,1.669,1.669,0,0,1-1.669-1.669" transform="translate(-123.849 -123.394)"/>
    <path id="Trazado_39050" data-name="Trazado 39050" d="M275.1,163.453h10.015a1.669,1.669,0,0,0,0-3.338h-.3a5.007,5.007,0,1,0-9.414,0h-.3a1.669,1.669,0,1,0,0,3.338m3.338-5.007a1.669,1.669,0,1,1,1.669,1.669,1.669,1.669,0,0,1-1.669-1.669" transform="translate(-219.947 -123.394)"/>
    <path id="Trazado_39051" data-name="Trazado 39051" d="M232.433,208.137h3.338a1.669,1.669,0,1,0,0-3.338h-3.338a1.669,1.669,0,1,0,0,3.338" transform="translate(-185.626 -164.74)"/>
    <path id="Trazado_39052" data-name="Trazado 39052" d="M97.165,47.971a1.669,1.669,0,0,0-1.92,1.352L94.078,55.9l-3.339-.584,1.169-6.56a1.67,1.67,0,0,0-3.288-.584l-1.168,6.576-3.338-.584,1.169-6.576A1.67,1.67,0,1,0,81.993,47l-1.452,8.2-.868,5.007a8.028,8.028,0,0,0,2.187,7.044L79.723,79.618a5.79,5.79,0,0,0-2.187,1.268A18.26,18.26,0,0,0,61.98,68.518H55.287c.1-1.5.251-2.62.417-3.889a14.8,14.8,0,0,1,.217-1.786c12.2-2.42,15.924-10.632,17.092-17.776h.5a8.346,8.346,0,1,0,0-16.691V14.755C72.445,8.83,65,0,48.477,0S23.44,9.214,23.44,15.857V28.375a8.346,8.346,0,1,0,0,16.691h.5c1.152,7.177,4.89,15.389,17.092,17.726.084.634.15,1.235.217,1.786.167,1.268.317,2.387.417,3.889h-6.71a18.261,18.261,0,0,0-15.54,12.368,6.254,6.254,0,0,0-2.22-1.268l-2.2-12.8A12.2,12.2,0,0,0,16.663,57.7a12.218,12.218,0,0,0-4.69-7.928,7.145,7.145,0,0,0-5.425-1.319C1.958,49.273-.83,54.614.222,60.59a12.136,12.136,0,0,0,4.857,8.029L6.848,78.633a4.756,4.756,0,0,0-1.9,2.537,6.664,6.664,0,0,0-.217,1.235,1.419,1.419,0,0,1-.15.7,9.714,9.714,0,0,0-2.4,9.564,10.632,10.632,0,0,0,9.28,7.244,10.98,10.98,0,0,0,1.269,0,11.55,11.55,0,0,0,9.564-4.774H74.649a11.583,11.583,0,0,0,9.581,4.84,10.44,10.44,0,0,0,1.252,0,10.632,10.632,0,0,0,9.28-7.244,9.715,9.715,0,0,0-2.4-9.564,1.417,1.417,0,0,1-.15-.7,6.3,6.3,0,0,0-.217-1.218,4.807,4.807,0,0,0-1.92-2.57l1.669-9.547a8.347,8.347,0,0,0,4.473-6.009l.868-4.907,1.469-8.312a1.669,1.669,0,0,0-1.385-1.936M78.521,36.721a5.007,5.007,0,0,1-5.007,5.007H73.38c.134-1.886.134-3.605.134-5.007V31.714a5.007,5.007,0,0,1,5.007,5.007M48.477,3.338c14.355,0,20.9,7.327,21.7,11.867V20.03C50.73,19.7,42.918,13.8,42.835,13.754a1.674,1.674,0,0,0-2.671.951c-.033.317-1.7,6.393-13.387,6.994V15.857c0-5.124,7.728-12.519,21.7-12.519M23.44,41.728a5.007,5.007,0,1,1,0-10.015v5.007c0,1.385,0,3.1.134,5.007Zm3.338-5.007V25.037c10.249-.417,14.288-4.774,15.79-7.494,3.455,1.886,12.018,5.558,27.608,5.825V36.721c0,8.746,0,23.368-21.7,23.368s-21.7-14.622-21.7-23.368M41.8,73.442a1.669,1.669,0,1,0,3.338,0,61.633,61.633,0,0,0-.567-9.33c0-.267-.084-.567-.117-.868,1.269.117,2.6.183,4.023.183a28.444,28.444,0,0,0,4.023-.183,2.149,2.149,0,0,1-.117.868,61.659,61.659,0,0,0-.568,9.33,1.669,1.669,0,1,0,3.338,0V71.773H59.96c-.918,4.724-5.725,8.346-11.5,8.346S37.878,76.5,36.96,71.773H41.8Zm-8.162-1.335c1.1,6.343,7.327,11.35,14.839,11.35s13.737-5.008,14.839-11.35A15.023,15.023,0,0,1,75.183,85.977a4.224,4.224,0,0,0-2.07,2.487,6.056,6.056,0,0,0,0,3.338H68.506V86.8a1.669,1.669,0,0,0-3.338,0V91.8H31.785V86.8a1.669,1.669,0,1,0-3.338,0V91.8H23.84a6.06,6.06,0,0,0,0-3.338,4.391,4.391,0,0,0-2.07-2.487A15.022,15.022,0,0,1,33.638,72.107M3.577,60.089c-.7-4.023.951-7.812,3.622-8.346a3.839,3.839,0,0,1,2.887.818,8.93,8.93,0,0,1,3.338,5.759,9.03,9.03,0,0,1-1.168,6.56,3.456,3.456,0,0,0-.618,2.571l2.137,12.135c-.15,0-.284,0-.267.1l-.25-.25a7.25,7.25,0,0,0-.668-.6,4.806,4.806,0,0,0-2.5-.985L8.417,68.034a3.339,3.339,0,0,0-1.469-2.22,8.914,8.914,0,0,1-3.372-5.725M19.868,92.8a8.346,8.346,0,0,1-8.112,3.789A7.294,7.294,0,0,1,5.3,91.585a6.392,6.392,0,0,1,1.669-6.242,4.239,4.239,0,0,0,.968-2.587,2.525,2.525,0,0,1,.1-.6,1.336,1.336,0,0,1,.651-.818,1.467,1.467,0,0,1,.751-.184,1.773,1.773,0,0,1,1.335.634,3.554,3.554,0,0,0,2.253,1.185,5.293,5.293,0,0,0,1.669-.2l.518-.1a2.5,2.5,0,0,1,2.654,2.721,3.338,3.338,0,0,0,2.02,3.338,1.069,1.069,0,0,1,.7.685,4.874,4.874,0,0,1-.718,3.388m71.773-1.219a7.294,7.294,0,0,1-6.46,5.008A8.346,8.346,0,0,1,77.119,92.8a4.889,4.889,0,0,1-.818-3.338,1.086,1.086,0,0,1,.684-.684,3.338,3.338,0,0,0,2.036-3.338,2.52,2.52,0,0,1,.718-2,2.555,2.555,0,0,1,1.769-.751h.167l.518.1a5.294,5.294,0,0,0,1.669.2,3.454,3.454,0,0,0,2.187-1.2,1.7,1.7,0,0,1,2.02-.451,1.418,1.418,0,0,1,.668.818,3.726,3.726,0,0,1,.084.6,4.272,4.272,0,0,0,.985,2.587,6.426,6.426,0,0,1,1.8,6.242Zm1.319-29.11a5.007,5.007,0,0,1-2.754,3.606,3.154,3.154,0,0,0-1.669,2.353l-1.669,9.481a4.691,4.691,0,0,0-2.42.968,6.889,6.889,0,0,0-.734.634s-.184.2-.134.2a.947.947,0,0,1-.4,0l2.07-11.684a3.339,3.339,0,0,0-.885-2.837,5.007,5.007,0,0,1-1.269-4.256l.584-3.338,9.865,1.669Z" transform="translate(0)"/>
  </g>
</svg>
