<svg id="Grupo_15912" data-name="Grupo 15912" xmlns="http://www.w3.org/2000/svg" xmlns:xlink="http://www.w3.org/1999/xlink" width="90" height="100" viewBox="0 0 90 100">
  <defs>
    <clipPath id="clip-path">
      <rect id="Rectángulo_3864" data-name="Rectángulo 3864" width="90" height="100" transform="translate(0 0)" fill="none"/>
    </clipPath>
  </defs>
  <g id="Grupo_15911" data-name="Grupo 15911" clip-path="url(#clip-path)">
    <path id="Trazado_39133" data-name="Trazado 39133" d="M71.433,13c-.716,4.317-3.384,9.4-11.75,10.333L45,36.667,30.316,23.333C21.95,22.4,19.284,17.317,18.564,13a18.527,18.527,0,0,1,.083-6.333c14.034-3.833,20.267,6.033,22.4,10.85h7.9c2.132-4.816,8.365-14.683,22.4-10.85A18.477,18.477,0,0,1,71.43,13" fill="#415214"/>
    <path id="Trazado_39134" data-name="Trazado 39134" d="M71.433,13c-.716,4.317-3.384,9.4-11.75,10.333L45,36.667,30.317,23.333C21.951,22.4,19.284,17.317,18.567,13c.051-.3.083-.466.083-.466,14.034-3.834,20.267,6.033,22.4,10.85h7.9c2.132-4.816,8.365-14.684,22.4-10.85,0,0,.034.166.083.466" fill="#92934e"/>
    <path id="Trazado_39135" data-name="Trazado 39135" d="M59.685,25.865,45,39.2,30.318,25.865C18.085,24.5,18.052,14.281,18.453,10.548c.5,4.466,2.932,10.2,11.866,11.183L45,35.064,59.685,21.731c8.934-.983,11.367-6.717,11.867-11.183.4,3.733.367,13.952-11.867,15.317" fill="#4c8056"/>
    <path id="Trazado_39136" data-name="Trazado 39136" d="M88.331,48.333v12.5a37.525,37.525,0,0,1-37.548,37.5H50a5,5,0,0,1-5-5,5,5,0,0,1-5,5h-.784a37.524,37.524,0,0,1-37.549-37.5h0v-12.5a25.007,25.007,0,0,1,25-25h6.783A11.542,11.542,0,0,1,45,34.862v.006A11.541,11.541,0,0,1,56.549,23.335h6.782a25.008,25.008,0,0,1,25,25" fill="#bfa885"/>
    <path id="Trazado_39137" data-name="Trazado 39137" d="M83.334,48.333v12.5c0,20.717-14.877,37.5-33.217,37.5h-.693a4.732,4.732,0,0,1-4.424-5,4.731,4.731,0,0,1-4.423,5h-.693c-18.34,0-33.217-16.783-33.217-37.5v-12.5c0-13.8,9.908-25,22.115-25h6C40.43,23.333,45,28.5,45,34.866c0-6.366,4.57-11.533,10.217-11.533h6c12.209,0,22.117,11.2,22.117,25" fill="#ffe0b2"/>
    <path id="Trazado_39138" data-name="Trazado 39138" d="M40,100h-.784A39.237,39.237,0,0,1,0,60.833v-12.5A26.7,26.7,0,0,1,26.667,21.667H33.45a1.667,1.667,0,0,1,0,3.333H26.667A23.358,23.358,0,0,0,3.333,48.333v12.5A35.9,35.9,0,0,0,39.216,96.667H40A1.667,1.667,0,0,1,40,100" fill="#c03a2b"/>
    <path id="Trazado_39139" data-name="Trazado 39139" d="M50.784,100H50a1.667,1.667,0,1,1-.082-3.333h.866A35.9,35.9,0,0,0,86.668,60.833v-12.5A23.358,23.358,0,0,0,63.334,25H56.551a1.667,1.667,0,0,1,0-3.333h6.783A26.7,26.7,0,0,1,90,48.333v12.5A39.237,39.237,0,0,1,50.783,100" fill="#bfa885"/>
    <path id="Trazado_39140" data-name="Trazado 39140" d="M49.767,5.42l-1.283,20.3A13.7,13.7,0,0,0,45,30a13.7,13.7,0,0,0-3.483-4.282L40.234,5.42a3.444,3.444,0,0,1,3.122-3.74c.07-.007.14-.011.211-.013h2.866a3.447,3.447,0,0,1,3.346,3.544c0,.07-.006.139-.013.209" fill="#795548"/>
    <path id="Trazado_39141" data-name="Trazado 39141" d="M45,39.424a1.666,1.666,0,0,1-1.666-1.667V34.872A9.893,9.893,0,0,0,33.442,25a1.667,1.667,0,1,1-.081-3.333h.081a13.23,13.23,0,0,1,13.224,13.2v2.885A1.667,1.667,0,0,1,45,39.419" fill="#c03a2b"/>
    <path id="Trazado_39142" data-name="Trazado 39142" d="M45,39.424a1.666,1.666,0,0,1-1.666-1.667V34.872a13.229,13.229,0,0,1,13.223-13.2,1.667,1.667,0,0,1,0,3.333,9.893,9.893,0,0,0-9.89,9.872v2.885A1.667,1.667,0,0,1,45,39.429" fill="#c03a2b"/>
    <path id="Trazado_39143" data-name="Trazado 39143" d="M71.666,45.55V61.666a5,5,0,0,1-5,5H23.333a5,5,0,0,1-5-5V45.55a5.035,5.035,0,0,1,1.833-3.884c7.517-6.216,17.649-7.8,22.3-8.2h.066c1.533-.133,2.467-.133,2.467-.133s14.767,0,24.834,8.333a5.036,5.036,0,0,1,1.833,3.883" fill="#cc722e"/>
    <path id="Trazado_39144" data-name="Trazado 39144" d="M66.666,45.549V61.666a5,5,0,0,1-5,5H23.333a5,5,0,0,1-5-5V45.549a5.036,5.036,0,0,1,1.833-3.883c7.516-6.216,17.649-7.8,22.3-8.2h.066c4.65.4,14.783,1.984,22.3,8.2a5.036,5.036,0,0,1,1.833,3.883" fill="#ed8730"/>
    <path id="Trazado_39145" data-name="Trazado 39145" d="M66.666,68.334H23.334a6.666,6.666,0,0,1-6.666-6.667V45.554a6.682,6.682,0,0,1,2.43-5.167c10.417-8.621,25.277-8.72,25.9-8.72s15.486.1,25.9,8.722a6.678,6.678,0,0,1,2.437,5.165V61.667a6.665,6.665,0,0,1-6.665,6.667h0M45,35c-.208,0-14.325.132-23.778,7.957A3.369,3.369,0,0,0,20,45.557V61.67A3.333,3.333,0,0,0,23.334,65H66.668A3.333,3.333,0,0,0,70,61.668V45.554a3.373,3.373,0,0,0-1.221-2.6C59.335,35.131,45.21,35,45,35" fill="#00838f"/>
    <path id="Trazado_39146" data-name="Trazado 39146" d="M45,43.333a1.666,1.666,0,0,1-1.666-1.667V38.333a1.667,1.667,0,0,1,3.333,0v3.333A1.667,1.667,0,0,1,45,43.333" fill="#2c3e50"/>
    <path id="Trazado_39147" data-name="Trazado 39147" d="M38.338,45a1.665,1.665,0,0,1-1.5-.922l-1.666-3.333a1.667,1.667,0,1,1,2.983-1.49l1.667,3.333A1.668,1.668,0,0,1,38.338,45" fill="#2c3e50"/>
    <path id="Trazado_39148" data-name="Trazado 39148" d="M32.707,47.945a1.663,1.663,0,0,1-1.147-.457l-2.707-2.561a1.667,1.667,0,0,1,2.271-2.441l.021.019,2.707,2.561a1.667,1.667,0,0,1-1.145,2.879" fill="#2c3e50"/>
    <path id="Trazado_39149" data-name="Trazado 39149" d="M28.333,51.668H25a1.667,1.667,0,0,1,0-3.334h3.335a1.667,1.667,0,0,1,0,3.334" fill="#2c3e50"/>
    <path id="Trazado_39150" data-name="Trazado 39150" d="M51.667,45a1.665,1.665,0,0,1-1.49-2.412l1.666-3.333a1.667,1.667,0,1,1,2.983,1.49L53.16,44.077A1.665,1.665,0,0,1,51.667,45" fill="#2c3e50"/>
    <path id="Trazado_39151" data-name="Trazado 39151" d="M57.294,47.945a1.667,1.667,0,0,1-1.146-2.879l2.7-2.561a1.667,1.667,0,1,1,2.292,2.422l-2.7,2.57a1.665,1.665,0,0,1-1.146.449" fill="#2c3e50"/>
    <path id="Trazado_39152" data-name="Trazado 39152" d="M65,51.668H61.668a1.667,1.667,0,0,1,0-3.334H65a1.667,1.667,0,0,1,0,3.334" fill="#2c3e50"/>
    <path id="Trazado_39153" data-name="Trazado 39153" d="M45,61.667a1.667,1.667,0,0,1-1.279-2.734l8.333-10A1.667,1.667,0,1,1,54.668,51c-.018.022-.035.044-.054.065l-8.334,10a1.668,1.668,0,0,1-1.28.6" fill="#2c3e50"/>
    <path id="Trazado_39154" data-name="Trazado 39154" d="M23.333,75H20a1.667,1.667,0,0,1,0-3.333h3.333A1.667,1.667,0,0,1,23.413,75h-.081" fill="#7f6e5d"/>
    <path id="Trazado_39155" data-name="Trazado 39155" d="M70,75H66.667a1.667,1.667,0,0,1,0-3.333H70A1.667,1.667,0,0,1,70.081,75H70" fill="#7f6e5d"/>
    <path id="Trazado_39156" data-name="Trazado 39156" d="M60,75H30a1.667,1.667,0,1,1-.081-3.333H60A1.667,1.667,0,0,1,60.081,75H60" fill="#7f6e5d"/>
    <path id="Trazado_39157" data-name="Trazado 39157" d="M40,100a1.667,1.667,0,1,1-.081-3.333H40a3.333,3.333,0,0,0,3.333-3.333,1.667,1.667,0,1,1,3.333-.082v.082A6.666,6.666,0,0,1,40,100h0" fill="#c03a2b"/>
    <path id="Trazado_39158" data-name="Trazado 39158" d="M50,100a6.665,6.665,0,0,1-6.667-6.665h0a1.667,1.667,0,1,1,3.333-.082v.082A3.333,3.333,0,0,0,50,96.667,1.667,1.667,0,1,1,50.08,100H50" fill="#c03a2b"/>
    <path id="Trazado_39159" data-name="Trazado 39159" d="M39.217,100H40a6.627,6.627,0,0,0,5-2.3,6.627,6.627,0,0,0,5,2.3h.783A39.237,39.237,0,0,0,90,60.833v-12.5A26.69,26.69,0,0,0,67.918,22.09a12.371,12.371,0,0,0,2.748-2.757c3.924-5.49,2.377-12.72,2.309-13.026A1.67,1.67,0,0,0,71.788,5.06c-10.5-2.866-16.976,1.345-20.737,5.884l.375-5.611A5,5,0,0,0,46.77.011C46.659,0,46.549,0,46.437,0H43.562a5,5,0,0,0-5,5q0,.167.012.333l.373,5.61C35.187,6.4,28.712,2.195,18.21,5.06a1.67,1.67,0,0,0-1.187,1.247c-.068.3-1.614,7.536,2.309,13.025a12.331,12.331,0,0,0,2.75,2.76A26.69,26.69,0,0,0,0,48.333v12.5A39.236,39.236,0,0,0,39.217,100M69.873,8.015a13.918,13.918,0,0,1-1.929,9.392,11.341,11.341,0,0,1-8.375,4.26H56.55a12.968,12.968,0,0,0-6.319,1.666l.357-5.379c2.289-5.03,7.746-12.587,19.285-9.939M45,35c.208,0,14.325.132,23.779,7.955A3.374,3.374,0,0,1,70,45.554V61.667A3.333,3.333,0,0,1,66.667,65H23.333A3.333,3.333,0,0,1,20,61.667V45.554a3.369,3.369,0,0,1,1.222-2.6C30.675,35.132,44.791,35,45,35M42.345,3.862a1.643,1.643,0,0,1,1.217-.529h2.876A1.666,1.666,0,0,1,48.1,5c0,.037,0,.073,0,.11L46.7,26.167a13.347,13.347,0,0,0-1.7,2.4,13.312,13.312,0,0,0-1.7-2.4L41.9,5.11a1.655,1.655,0,0,1,.447-1.248M20.126,8.015c11.54-2.641,17,4.91,19.286,9.932l.356,5.386a12.975,12.975,0,0,0-6.318-1.666H30.43a11.343,11.343,0,0,1-8.375-4.26,13.912,13.912,0,0,1-1.929-9.392M3.333,48.333A23.358,23.358,0,0,1,26.667,25H33.45a9.943,9.943,0,0,1,9.333,6.77c-4.615.333-15.5,1.846-23.687,8.618a6.685,6.685,0,0,0-2.43,5.165V61.667a6.666,6.666,0,0,0,6.666,6.666H66.666a6.665,6.665,0,0,0,6.666-6.666V45.554A6.679,6.679,0,0,0,70.9,40.387c-8.178-6.77-19.069-8.279-23.685-8.617A9.941,9.941,0,0,1,56.55,25h6.783A23.358,23.358,0,0,1,86.667,48.333v12.5A35.9,35.9,0,0,1,50.783,96.667H50a3.333,3.333,0,0,1-3.333-3.333,1.667,1.667,0,1,0-3.333-.082c0,.027,0,.055,0,.082A3.333,3.333,0,0,1,40,96.667h-.784A35.9,35.9,0,0,1,3.333,60.833Z"/>
    <path id="Trazado_39160" data-name="Trazado 39160" d="M45,43.333a1.667,1.667,0,0,0,1.667-1.667V38.333a1.667,1.667,0,0,0-3.333,0v3.333A1.666,1.666,0,0,0,45,43.333"/>
    <path id="Trazado_39161" data-name="Trazado 39161" d="M36.842,44.078a1.667,1.667,0,0,0,2.983-1.49l-1.666-3.333a1.667,1.667,0,1,0-2.983,1.49Z"/>
    <path id="Trazado_39162" data-name="Trazado 39162" d="M31.559,47.5a1.667,1.667,0,1,0,2.315-2.4.239.239,0,0,0-.023-.022l-2.7-2.562a1.667,1.667,0,0,0-2.292,2.422Z"/>
    <path id="Trazado_39163" data-name="Trazado 39163" d="M25,51.668h3.333a1.667,1.667,0,0,0,0-3.334H25a1.667,1.667,0,0,0,0,3.334"/>
    <path id="Trazado_39164" data-name="Trazado 39164" d="M50.921,44.837a1.666,1.666,0,0,0,2.236-.746h0l1.666-3.333a1.667,1.667,0,0,0-2.983-1.49L50.174,42.6a1.668,1.668,0,0,0,.746,2.237h0"/>
    <path id="Trazado_39165" data-name="Trazado 39165" d="M57.294,47.945a1.661,1.661,0,0,0,1.146-.457l2.707-2.561a1.667,1.667,0,1,0-2.292-2.422l-2.707,2.561a1.667,1.667,0,0,0,1.146,2.879"/>
    <path id="Trazado_39166" data-name="Trazado 39166" d="M60,50a1.667,1.667,0,0,0,1.667,1.667H65a1.667,1.667,0,0,0,0-3.334H61.668A1.667,1.667,0,0,0,60,50"/>
    <path id="Trazado_39167" data-name="Trazado 39167" d="M52.053,48.933l-8.333,10a1.666,1.666,0,0,0,2.561,2.133l8.334-10a1.667,1.667,0,0,0-2.49-2.218c-.024.027-.049.056-.071.085"/>
    <path id="Trazado_39168" data-name="Trazado 39168" d="M20,75h3.333a1.667,1.667,0,0,0,.081-3.333H20A1.667,1.667,0,0,0,20,75"/>
    <path id="Trazado_39169" data-name="Trazado 39169" d="M66.666,75H70a1.667,1.667,0,0,0,.081-3.333H66.666a1.667,1.667,0,0,0,0,3.333"/>
    <path id="Trazado_39170" data-name="Trazado 39170" d="M30,75H60a1.667,1.667,0,0,0,.081-3.333H30A1.667,1.667,0,1,0,29.919,75H30"/>
  </g>
</svg>
