<svg id="Grupo_15906" data-name="Grupo 15906" xmlns="http://www.w3.org/2000/svg" xmlns:xlink="http://www.w3.org/1999/xlink" width="100" height="100" viewBox="0 0 100 100">
  <defs>
    <clipPath id="clip-path">
      <rect id="Rectángulo_3861" data-name="Rectángulo 3861" width="100" height="100" fill="none"/>
    </clipPath>
  </defs>
  <g id="Grupo_15905" data-name="Grupo 15905" clip-path="url(#clip-path)">
    <path id="Trazado_39053" data-name="Trazado 39053" d="M387.935,344.4a7.765,7.765,0,0,1-.887.484l-7.629,3.532-7.661,3.532a2.66,2.66,0,0,1-1.113.242,2.746,2.746,0,0,1-1.032-.21,2.521,2.521,0,0,1-1.322-1.258,2.447,2.447,0,0,1-.291-1.177v-.113a2.719,2.719,0,0,1,.242-1.113l2.71-5.839,3.774-8.129.581-1.226A8.825,8.825,0,0,1,383.323,328h.016a8.854,8.854,0,0,1,5.758,15.581h-.016a8.263,8.263,0,0,1-1.145.823" transform="translate(-293.806 -261.871)" fill="#ffeaa7"/>
    <path id="Trazado_39054" data-name="Trazado 39054" d="M350.452,441.978V443.8A6.45,6.45,0,0,1,344,450.252v-3.226a6.37,6.37,0,0,1,2.194-4.839,6.3,6.3,0,0,1,2.5-1.355,4.318,4.318,0,0,1,.435-.113,2.521,2.521,0,0,0,1.323,1.258" transform="translate(-274.645 -351.865)" fill="#fcd770"/>
    <path id="Trazado_39055" data-name="Trazado 39055" d="M323.226,416a6.467,6.467,0,0,1,6.306,5.1,6.3,6.3,0,0,0-2.5,1.355h-.581A6.45,6.45,0,0,1,320,416Z" transform="translate(-255.484 -332.129)" fill="#fcd770"/>
    <path id="Trazado_39056" data-name="Trazado 39056" d="M368.339,353.516l-3.774,8.129a4.826,4.826,0,0,1,.274-9.645,4.758,4.758,0,0,1,3.5,1.516" transform="translate(-287.419 -281.032)" fill="#fcd770"/>
    <path id="Trazado_39057" data-name="Trazado 39057" d="M433.156,409.36a4.755,4.755,0,0,1,1.032,2.952,4.833,4.833,0,0,1-9.548,1.065l7.629-3.532a7.765,7.765,0,0,0,.887-.484" transform="translate(-339.027 -326.828)" fill="#fcd770"/>
    <path id="Trazado_39058" data-name="Trazado 39058" d="M34.226,348.032l-20.5,11.726a3.942,3.942,0,0,1-1.9.5A3.82,3.82,0,0,1,8,356.435v-.113a3.945,3.945,0,0,1,.5-1.9l11.726-20.4a10.543,10.543,0,0,1,1.645-2.145l.871-.871A10.266,10.266,0,0,1,30,328a10.151,10.151,0,0,1,4.839,1.21,10.183,10.183,0,0,1,4.21,4.21,10.151,10.151,0,0,1,1.21,4.839,10.266,10.266,0,0,1-3,7.258l-.871.871a10.212,10.212,0,0,1-2.161,1.645" transform="translate(-6.387 -261.871)" fill="#ff826e"/>
    <path id="Trazado_39059" data-name="Trazado 39059" d="M212.9,384l6.452,3.226c0,6.452-4.839,16.129-9.677,16.129S200,393.677,200,387.226L206.452,384l3.226,3.226Z" transform="translate(-159.677 -306.581)" fill="#ff826e"/>
    <path id="Trazado_39060" data-name="Trazado 39060" d="M219.355,361.677l-6.452-3.226-3.226,3.226-3.226-3.226L200,361.677c0-4.839,3.226-9.677,9.677-9.677s9.677,4.839,9.677,9.677" transform="translate(-159.677 -281.032)" fill="#a0d468"/>
    <path id="Trazado_39061" data-name="Trazado 39061" d="M254.452,320H260.9a6.45,6.45,0,0,1-6.452,6.452H248A6.45,6.45,0,0,1,254.452,320" transform="translate(-198 -255.484)" fill="#b4dd7f"/>
    <path id="Trazado_39062" data-name="Trazado 39062" d="M22.516,8H46.71c-3.565,0-6.452,6.5-6.452,14.516s2.887,14.516,6.452,14.516H22.516A14.516,14.516,0,1,1,22.516,8" transform="translate(-6.387 -6.387)" fill="#a0d468"/>
    <path id="Trazado_39063" data-name="Trazado 39063" d="M174.452,8c3.563,0,6.452,6.5,6.452,14.516s-2.889,14.516-6.452,14.516S168,30.533,168,22.516,170.889,8,174.452,8" transform="translate(-134.129 -6.387)" fill="#b4dd7f"/>
    <path id="Trazado_39064" data-name="Trazado 39064" d="M320.194,8a14.516,14.516,0,0,1,0,29.032H296c3.565,0,6.452-6.5,6.452-14.516S299.565,8,296,8Z" transform="translate(-236.323 -6.387)" fill="#fcd770"/>
    <path id="Trazado_39065" data-name="Trazado 39065" d="M270.452,8c3.563,0,6.452,6.5,6.452,14.516s-2.888,14.516-6.452,14.516S264,30.533,264,22.516,266.888,8,270.452,8" transform="translate(-210.774 -6.387)" fill="#ffeaa7"/>
    <path id="Trazado_39066" data-name="Trazado 39066" d="M262.452,31.958V56.452H293.1V61.29h3.226V53.226H265.677V32.258h22.581a16.129,16.129,0,0,0,0-32.258H264.065C259.466,0,256,6.934,256,16.129c0,8.084,2.681,14.415,6.452,15.829m38.71-15.829a12.918,12.918,0,0,1-12.9,12.9H269.006c1.921-2.894,3.123-7.5,3.123-12.9s-1.2-10.01-3.123-12.9h19.252a12.918,12.918,0,0,1,12.9,12.9m-37.1-12.9c1.974,0,4.839,5.026,4.839,12.9,0,5.879-1.6,10.166-3.226,11.965V22.581h-3.226v5.513c-1.631-1.8-3.226-6.087-3.226-11.965,0-7.877,2.865-12.9,4.839-12.9" transform="translate(-204.387)"/>
    <path id="Trazado_39067" data-name="Trazado 39067" d="M16.129,32.258H38.71V48.387H20.968v12.9h3.226V51.613H41.935V31.958c3.771-1.415,6.452-7.745,6.452-15.829C48.387,6.934,44.921,0,40.323,0H16.129a16.129,16.129,0,0,0,0,32.258M45.161,16.129c0,5.879-1.6,10.166-3.226,11.965V22.581H38.71v5.513c-1.631-1.8-3.226-6.087-3.226-11.965,0-7.877,2.865-12.9,4.839-12.9s4.839,5.026,4.839,12.9M16.129,3.226H35.381c-1.921,2.894-3.123,7.5-3.123,12.9s1.2,10.01,3.123,12.9H16.129a12.9,12.9,0,0,1,0-25.806"/>
    <path id="Trazado_39068" data-name="Trazado 39068" d="M422.452,41.677h3.226A9.687,9.687,0,0,0,416,32v3.226a6.458,6.458,0,0,1,6.452,6.452" transform="translate(-332.129 -25.548)"/>
    <path id="Trazado_39069" data-name="Trazado 39069" d="M41.677,89.677V86.452A6.458,6.458,0,0,1,35.226,80H32a9.687,9.687,0,0,0,9.677,9.677" transform="translate(-25.548 -63.871)"/>
    <path id="Trazado_39070" data-name="Trazado 39070" d="M217.806,300.839v-1.613h-8.065a7.981,7.981,0,0,0-4.839,1.655V296h-3.226v9.782c-6.356.763-9.677,6-9.677,11.186,0,6.844,5.166,17.742,11.29,17.742s11.29-10.9,11.29-17.742a11.564,11.564,0,0,0-3.329-8.218,8.07,8.07,0,0,0,6.555-7.911M203.29,308.9a7.542,7.542,0,0,1,7.6,5.223l-4.694-2.347-2.906,2.908-2.908-2.908-4.694,2.347a7.546,7.546,0,0,1,7.6-5.223m0,22.581c-3.215,0-7.574-7.555-8.019-13.542l4.476-2.239,3.544,3.545,3.544-3.544,4.476,2.239c-.445,5.986-4.8,13.54-8.019,13.54m6.452-25.806h-4.563a4.848,4.848,0,0,1,4.563-3.226H214.3a4.848,4.848,0,0,1-4.563,3.226" transform="translate(-153.29 -236.323)"/>
    <rect id="Rectángulo_3857" data-name="Rectángulo 3857" width="3.226" height="25.806" transform="translate(48.387 30.645)"/>
    <path id="Trazado_39071" data-name="Trazado 39071" d="M40.765,305.479l-.885-3.1-6.5,1.858c-.1-.148-.216-.29-.326-.434l5.182-5.182-2.281-2.281-5.182,5.182c-.144-.11-.285-.223-.434-.326l1.858-6.5-3.1-.885-1.69,5.915a11.822,11.822,0,0,0-12.2,2.845l-.868.868a11.935,11.935,0,0,0-1.9,2.484L.721,326.326A5.54,5.54,0,0,0,0,329.137a5.437,5.437,0,0,0,8.134,4.719l20.5-11.718a11.8,11.8,0,0,0,2.508-1.915l.86-.859a11.823,11.823,0,0,0,2.845-12.2Zm-11.04,11.6-.86.86a8.651,8.651,0,0,1-1.826,1.394L6.532,331.055a2.2,2.2,0,0,1-1.1.292,2.3,2.3,0,0,1-1.916-3.418l11.718-20.4a8.65,8.65,0,0,1,1.384-1.808l.868-.868a8.652,8.652,0,0,1,12.235,12.236" transform="translate(0 -234.573)"/>
    <path id="Trazado_39072" data-name="Trazado 39072" d="M433.613,352A1.613,1.613,0,1,1,432,353.613,1.613,1.613,0,0,1,433.613,352" transform="translate(-344.903 -281.032)"/>
    <path id="Trazado_39073" data-name="Trazado 39073" d="M349.1,330.465A10.475,10.475,0,0,0,338.632,320h-.013a10.483,10.483,0,0,0-9.213,5.556,6.335,6.335,0,0,0-2.89-.718,6.43,6.43,0,0,0-2.55,12.342l-1.394,3a8.057,8.057,0,0,0-5.734-2.444H312v1.613a8.047,8.047,0,0,0,5.727,7.677,7.986,7.986,0,0,0-.889,3.613v4.839h1.613a8.074,8.074,0,0,0,8.065-8.065v-.063a4.2,4.2,0,0,0,1.2-.329l6.134-2.831a6.389,6.389,0,0,0,5.566,3.223,6.458,6.458,0,0,0,6.452-6.452,6.289,6.289,0,0,0-.534-2.49,10.491,10.491,0,0,0,3.76-8.013m-25.806.826a3.229,3.229,0,0,1,3.226-3.226,3.148,3.148,0,0,1,1.5.392l-2.692,5.8a3.2,3.2,0,0,1-2.032-2.966m-7.789,9.677h1.337a4.849,4.849,0,0,1,4.265,2.6,7.828,7.828,0,0,0-.979.627h-.06a4.848,4.848,0,0,1-4.563-3.226m4.563,11.014v-1.337a4.848,4.848,0,0,1,2.923-4.424c.1.092.2.169.3.252v.947a4.848,4.848,0,0,1-3.226,4.563m6.3-7.885a1.058,1.058,0,0,1-1.465-1.042,1.016,1.016,0,0,1,.1-.435l7.053-15.2a7.263,7.263,0,0,1,6.566-4.194h.013a7.221,7.221,0,0,1,5.252,12.2c-5.279-1.242-7.69-2.94-7.69-4.129h-3.226c0,2.732,2.445,4.882,7.2,6.439Zm13.052.1a3.189,3.189,0,0,1-2.616-1.358l5.732-2.645a3,3,0,0,1,.11.777,3.229,3.229,0,0,1-3.226,3.226" transform="translate(-249.097 -255.484)"/>
    <rect id="Rectángulo_3858" data-name="Rectángulo 3858" width="3.225" height="4.561" transform="translate(10.139 86.617) rotate(-45)"/>
    <rect id="Rectángulo_3859" data-name="Rectángulo 3859" width="3.225" height="9.123" transform="matrix(0.707, -0.707, 0.707, 0.707, 13.365, 80.167)"/>
    <rect id="Rectángulo_3860" data-name="Rectángulo 3860" width="3.225" height="9.123" transform="matrix(0.707, -0.707, 0.707, 0.707, 18.204, 75.329)"/>
  </g>
</svg>
